<?xml version="1.0" encoding="UTF-8"?>
<svg xmlns="http://www.w3.org/2000/svg" viewBox="0 0 365.38 199.93">
  <defs>
    <style>
      .cls-1 {
        stroke-width: .5px;
      }

      .cls-1, .cls-2 {
        fill: none;
        stroke: #231f20;
      }

      .cls-3 {
        fill: #ed2024;
      }

      .cls-4 {
        fill: #231f20;
      }

      .cls-2 {
        stroke-width: .75px;
      }
    </style>
  </defs>
  <g id="Layer_4" data-name="Layer 4">
    <g>
      <path class="cls-3" d="m65.67,174.17l1.93-.94h.19v6.71c0,.45.02.72.06.83s.11.19.23.25.36.09.71.1v.22h-2.99v-.22c.38,0,.62-.04.73-.1s.19-.13.23-.23.06-.38.06-.86v-4.29c0-.58-.02-.95-.06-1.11-.03-.12-.08-.22-.15-.28s-.16-.09-.26-.09c-.14,0-.35.06-.6.18l-.09-.18Z"/>
      <path class="cls-3" d="m71.76,180.2c.18,0,.34.06.46.19s.19.28.19.46-.06.33-.19.46-.28.19-.46.19-.33-.06-.46-.19-.19-.28-.19-.46.06-.34.19-.46.28-.19.46-.19Z"/>
      <path class="cls-3" d="m79.96,181.12v.22h-3.4v-.22h.28c.33,0,.57-.1.71-.29.09-.12.14-.43.14-.9v-5.13c0-.4-.03-.67-.08-.8-.04-.1-.12-.18-.24-.25-.17-.09-.35-.14-.54-.14h-.28v-.22h3.4v.22h-.29c-.32,0-.56.1-.71.29-.1.12-.15.43-.15.9v5.13c0,.4.03.67.08.8.04.1.12.18.25.25.17.09.35.14.53.14h.29Z"/>
      <path class="cls-3" d="m82.71,173.83v3.12h1.45c.33,0,.58-.07.73-.22s.26-.44.31-.87h.22v2.69h-.22c0-.31-.04-.54-.12-.68s-.18-.25-.32-.33-.33-.11-.6-.11h-1.45v2.5c0,.4.03.67.08.8.04.1.12.18.25.25.17.09.35.14.54.14h.29v.22h-3.41v-.22h.28c.33,0,.57-.1.71-.29.09-.12.14-.43.14-.9v-5.13c0-.4-.03-.67-.08-.8-.04-.1-.12-.18-.24-.25-.17-.09-.35-.14-.54-.14h-.28v-.22h5.91l.08,1.75h-.21c-.1-.37-.22-.64-.35-.82s-.3-.3-.5-.38-.5-.12-.92-.12h-1.75Z"/>
    </g>
    <g>
      <path class="cls-3" d="m166.04,180.11l-.56,1.53h-4.69v-.22c1.38-1.26,2.35-2.29,2.91-3.08s.84-1.53.84-2.19c0-.5-.15-.92-.46-1.24s-.68-.49-1.11-.49c-.39,0-.74.11-1.05.34s-.54.56-.69,1h-.22c.1-.72.35-1.28.75-1.66s.91-.58,1.51-.58c.64,0,1.18.21,1.61.62s.65.9.65,1.46c0,.4-.09.8-.28,1.21-.29.63-.76,1.3-1.41,2.01-.97,1.06-1.58,1.7-1.82,1.92h2.07c.42,0,.72-.02.89-.05s.32-.09.46-.19.26-.23.36-.41h.22Z"/>
      <path class="cls-3" d="m168.04,180.5c.18,0,.34.06.46.19s.19.28.19.46-.06.33-.19.46-.28.19-.46.19-.33-.06-.46-.19-.19-.28-.19-.46.06-.34.19-.46.28-.19.46-.19Z"/>
      <path class="cls-3" d="m176.24,181.42v.22h-3.4v-.22h.28c.33,0,.57-.1.71-.29.09-.12.14-.43.14-.9v-5.13c0-.4-.03-.67-.08-.8-.04-.1-.12-.18-.24-.25-.17-.09-.35-.14-.54-.14h-.28v-.22h3.4v.22h-.29c-.32,0-.56.1-.71.29-.1.12-.15.43-.15.9v5.13c0,.4.03.67.08.8.04.1.12.18.25.25.17.09.35.14.53.14h.29Z"/>
      <path class="cls-3" d="m176.74,181.64v-.22h.3c.34,0,.57-.11.71-.32.09-.13.13-.42.13-.87v-5.13c0-.5-.05-.81-.16-.93-.15-.17-.38-.26-.68-.26h-.3v-.22h3.23c1.19,0,2.09.13,2.71.4s1.12.72,1.49,1.35.57,1.36.57,2.18c0,1.11-.34,2.03-1.01,2.77-.75.83-1.9,1.24-3.45,1.24h-3.55Zm2.27-.57c.5.11.91.16,1.25.16.91,0,1.66-.32,2.26-.96s.9-1.5.9-2.59-.3-1.96-.9-2.6-1.37-.95-2.3-.95c-.35,0-.75.06-1.2.17v6.76Z"/>
    </g>
    <g>
      <path class="cls-3" d="m232.91,165.14c.23-.54.51-.95.86-1.24s.78-.44,1.29-.44c.64,0,1.12.21,1.46.62.26.31.39.64.39.99,0,.58-.36,1.18-1.09,1.79.49.19.86.46,1.11.82s.38.77.38,1.25c0,.69-.22,1.28-.66,1.79-.57.66-1.4.98-2.48.98-.54,0-.9-.07-1.09-.2s-.29-.28-.29-.43c0-.11.05-.21.14-.3s.2-.13.33-.13c.1,0,.2.02.3.05.07.02.22.09.45.21s.4.2.49.22c.14.04.3.06.46.06.4,0,.75-.15,1.04-.46s.44-.67.44-1.1c0-.31-.07-.61-.21-.9-.1-.22-.21-.38-.33-.5-.17-.16-.4-.3-.69-.42s-.59-.19-.9-.19h-.19v-.18c.31-.04.62-.15.93-.33s.54-.4.68-.66.21-.54.21-.85c0-.4-.13-.73-.38-.98s-.57-.37-.94-.37c-.61,0-1.11.32-1.52.97l-.19-.09Z"/>
      <path class="cls-3" d="m239.8,170.43c.18,0,.34.06.46.19s.19.28.19.46-.06.33-.19.46-.28.19-.46.19-.33-.06-.46-.19-.19-.28-.19-.46.06-.34.19-.46.28-.19.46-.19Z"/>
      <path class="cls-3" d="m246.8,164.06v3.14h1.75c.45,0,.76-.07.91-.21.2-.18.32-.5.34-.95h.22v2.77h-.22c-.05-.39-.11-.63-.16-.74-.07-.14-.19-.24-.35-.32s-.41-.12-.74-.12h-1.75v2.62c0,.35.02.57.05.64s.09.14.16.18.23.07.45.07h1.35c.45,0,.78-.03.98-.09s.4-.19.59-.37c.24-.24.49-.61.74-1.1h.23l-.69,1.99h-6.12v-.22h.28c.19,0,.37-.04.53-.13.12-.06.21-.16.25-.28s.07-.38.07-.77v-5.16c0-.5-.05-.81-.15-.93-.14-.16-.38-.23-.7-.23h-.28v-.22h6.12l.09,1.74h-.23c-.08-.42-.17-.71-.27-.86s-.25-.28-.44-.36c-.16-.06-.43-.09-.83-.09h-2.18Z"/>
      <path class="cls-3" d="m256.52,167.17l1.71,2.54c.47.7.82,1.15,1.05,1.33s.52.29.87.31v.22h-3.41v-.22c.23,0,.39-.03.5-.07.08-.04.15-.09.2-.16s.08-.15.08-.22c0-.09-.02-.18-.05-.27-.03-.07-.13-.24-.32-.52l-1.35-2.04-1.66,2.13c-.18.23-.28.38-.32.45s-.05.16-.05.24c0,.12.05.23.16.31s.31.13.6.14v.22h-2.82v-.22c.2-.02.37-.06.52-.12.24-.1.47-.24.69-.41s.47-.44.75-.79l1.88-2.37-1.56-2.29c-.43-.62-.79-1.03-1.08-1.22s-.64-.3-1.03-.31v-.22h3.67v.22c-.31.01-.53.06-.64.15s-.17.19-.17.3c0,.14.09.36.28.63l1.22,1.82,1.41-1.79c.16-.21.26-.36.3-.43s.06-.16.06-.24-.02-.15-.07-.22c-.06-.08-.13-.14-.22-.17s-.28-.05-.56-.06v-.22h2.82v.22c-.22.01-.4.05-.54.11-.21.09-.4.21-.58.36s-.42.43-.74.84l-1.58,2.02Z"/>
    </g>
    <g>
      <path class="cls-3" d="m291.86,193.32v.83h-1.07v2.1h-.97v-2.1h-3.36v-.75l3.69-5.26h.64v5.18h1.07Zm-2.03,0v-3.94l-2.79,3.94h2.79Z"/>
      <path class="cls-3" d="m293.78,195.11c.18,0,.34.06.46.19s.19.28.19.46-.06.33-.19.46-.28.19-.46.19-.33-.06-.46-.19-.19-.28-.19-.46.06-.34.19-.46.28-.19.46-.19Z"/>
      <path class="cls-3" d="m303.19,196.25l-3.07-6.69v5.31c0,.49.05.79.16.91.14.16.37.25.69.25h.28v.22h-2.77v-.22h.28c.34,0,.57-.1.71-.3.09-.12.13-.41.13-.86v-5.19c0-.35-.04-.61-.12-.76-.05-.11-.16-.21-.3-.28s-.38-.11-.71-.11v-.22h2.25l2.88,6.22,2.84-6.22h2.25v.22h-.28c-.34,0-.58.1-.72.3-.09.12-.13.41-.13.86v5.19c0,.49.05.79.16.91.14.16.37.25.69.25h.28v.22h-3.38v-.22h.28c.34,0,.58-.1.71-.3.09-.12.13-.41.13-.86v-5.31l-3.06,6.69h-.19Z"/>
      <path class="cls-3" d="m311.46,188.74v3.14h1.75c.45,0,.76-.07.91-.21.2-.18.32-.5.34-.95h.22v2.77h-.22c-.05-.39-.11-.63-.16-.74-.07-.14-.19-.24-.35-.32s-.41-.12-.74-.12h-1.75v2.62c0,.35.02.57.05.64s.09.14.16.18.23.07.45.07h1.35c.45,0,.78-.03.98-.09s.4-.19.59-.37c.24-.24.49-.61.74-1.1h.23l-.69,1.99h-6.12v-.22h.28c.19,0,.37-.04.53-.13.12-.06.21-.16.25-.28s.07-.38.07-.77v-5.16c0-.5-.05-.81-.15-.93-.14-.16-.38-.23-.7-.23h-.28v-.22h6.12l.09,1.74h-.23c-.08-.42-.17-.71-.27-.86s-.25-.28-.44-.36c-.16-.06-.43-.09-.83-.09h-2.18Z"/>
      <path class="cls-3" d="m321.19,196.25l-3.07-6.69v5.31c0,.49.05.79.16.91.14.16.37.25.69.25h.28v.22h-2.77v-.22h.28c.34,0,.57-.1.71-.3.09-.12.13-.41.13-.86v-5.19c0-.35-.04-.61-.12-.76-.05-.11-.16-.21-.3-.28s-.38-.11-.71-.11v-.22h2.25l2.88,6.22,2.84-6.22h2.25v.22h-.28c-.34,0-.58.1-.72.3-.09.12-.13.41-.13.86v5.19c0,.49.05.79.16.91.14.16.37.25.69.25h.28v.22h-3.38v-.22h.28c.34,0,.58-.1.71-.3.09-.12.13-.41.13-.86v-5.31l-3.06,6.69h-.19Z"/>
    </g>
    <g>
      <path class="cls-3" d="m220.19,69.95l-.46,1h-2.39l-.52,1.07c1.04.15,1.86.54,2.46,1.15.52.53.78,1.16.78,1.88,0,.42-.08.8-.25,1.16s-.38.66-.64.91-.54.45-.86.6c-.45.21-.91.32-1.38.32s-.82-.08-1.04-.24-.33-.34-.33-.54c0-.11.04-.21.13-.29s.2-.13.34-.13c.1,0,.19.02.27.05s.21.11.39.24c.29.2.59.3.89.3.46,0,.86-.17,1.2-.52s.52-.77.52-1.26-.15-.93-.46-1.34-.73-.74-1.28-.96c-.43-.18-1.01-.28-1.74-.3l1.52-3.09h2.85Z"/>
      <path class="cls-3" d="m222.48,76.76c.18,0,.34.06.46.19s.19.28.19.46-.06.33-.19.46-.28.19-.46.19-.33-.06-.46-.19-.19-.28-.19-.46.06-.34.19-.46.28-.19.46-.19Z"/>
      <path class="cls-3" d="m238.21,69.95v.22c-.21,0-.38.04-.5.11s-.25.21-.37.42c-.08.14-.2.46-.37.98l-2.21,6.4h-.23l-1.81-5.08-1.8,5.08h-.21l-2.36-6.6c-.18-.49-.29-.78-.33-.87-.08-.15-.18-.26-.32-.33s-.32-.11-.55-.11v-.22h2.94v.22h-.14c-.21,0-.37.05-.47.14s-.16.21-.16.34.09.45.26.94l1.56,4.46,1.32-3.79-.23-.67-.19-.53c-.08-.2-.17-.37-.28-.52-.05-.07-.11-.14-.19-.19-.1-.07-.2-.12-.29-.15-.07-.02-.19-.04-.35-.04v-.22h3.09v.22h-.21c-.22,0-.38.05-.48.14s-.15.22-.15.38c0,.2.09.55.26,1.04l1.52,4.32,1.51-4.38c.17-.48.26-.82.26-1.01,0-.09-.03-.17-.08-.25s-.13-.13-.21-.16c-.15-.05-.34-.08-.58-.08v-.22h2.37Z"/>
      <path class="cls-3" d="m243.85,73.84c.55.12.96.3,1.24.56.38.36.57.8.57,1.32,0,.39-.12.77-.38,1.13s-.59.62-1.03.79-1.1.25-2,.25h-3.75v-.22h.3c.33,0,.57-.11.71-.32.09-.14.13-.43.13-.87v-5.13c0-.49-.06-.8-.17-.93-.15-.17-.38-.26-.68-.26h-.3v-.22h3.43c.64,0,1.15.05,1.54.14.59.14,1.03.39,1.34.75s.46.77.46,1.23c0,.4-.12.75-.36,1.07s-.6.55-1.07.7Zm-3.07-.32c.14.03.31.05.5.06s.39.02.61.02c.57,0,1-.06,1.29-.18s.51-.31.66-.57.23-.53.23-.83c0-.46-.19-.86-.57-1.19s-.93-.49-1.66-.49c-.39,0-.74.04-1.05.13v3.05Zm0,3.8c.45.11.9.16,1.34.16.71,0,1.25-.16,1.62-.48s.56-.71.56-1.18c0-.31-.08-.61-.25-.89s-.44-.51-.82-.67-.85-.25-1.41-.25c-.24,0-.45,0-.62.01s-.31.02-.42.04v3.26Z"/>
    </g>
  </g>
  <g id="Layer_1" data-name="Layer 1">
    <polygon class="cls-1" points="91.27 17.06 91.27 37.42 98.78 44.93 91.27 52.44 91.27 73.81 112.5 55.33 112.5 34.54 91.27 17.06"/>
    <polygon class="cls-1" points="154.95 12.34 154.95 32.71 162.46 40.22 154.95 47.73 154.95 69.1 176.18 50.61 176.18 29.82 154.95 12.34"/>
    <polygon class="cls-1" points="232.3 91.99 232.3 117.68 239.77 127.15 232.3 136.63 232.3 163.57 259.07 140.27 259.07 114.04 232.3 91.99"/>
    <rect class="cls-1" x="36.99" y="87.62" width="81.55" height="81.2"/>
    <rect class="cls-1" x="139.44" y="87.62" width="71.87" height="81.2"/>
    <rect class="cls-1" x="271.98" y="113.33" width="68.2" height="71.17"/>
    <rect class="cls-1" x="8.38" y="99.97" width="17.49" height="56.51"/>
    <line class="cls-2" x1="25.87" y1="128.22" x2="32.76" y2="128.22"/>
    <path class="cls-4" d="m34.23,127.58c-1.03-.31-1.71-.6-2.53-.93v3.15c.3-.14,1.5-.62,2.53-.93,1.11-.33,2.11-.56,2.76-.64-.65-.08-1.65-.31-2.76-.64"/>
    <polyline class="cls-2" points="4.14 128.21 .38 128.22 .38 1.58 125.74 1.58 125.74 44.93 112.5 44.93"/>
    <path class="cls-4" d="m5.62,127.57c-1.03-.31-1.71-.6-2.53-.93v3.15c.3-.14,1.5-.62,2.53-.93,1.11-.33,2.11-.56,2.76-.64-.65-.08-1.65-.31-2.76-.64"/>
    <line class="cls-2" x1="259.07" y1="127.15" x2="267.74" y2="127.15"/>
    <path class="cls-4" d="m269.22,126.51c-1.03-.31-1.71-.6-2.53-.93v3.15c.3-.14,1.5-.62,2.53-.93,1.1-.33,2.11-.56,2.76-.64-.65-.08-1.65-.31-2.76-.65"/>
    <polyline class="cls-2" points="340.17 147.45 347.37 147.45 347.37 82.24 130.69 82.24 130.69 97.77 135.2 97.77"/>
    <path class="cls-4" d="m136.68,97.13c-1.03-.31-1.71-.6-2.53-.93v3.15c.3-.14,1.5-.62,2.53-.93,1.11-.33,2.11-.56,2.76-.64-.65-.08-1.65-.31-2.76-.64"/>
    <polyline class="cls-2" points="135.2 117.48 130.69 117.48 130.69 185.99 222.06 185.99 222.06 155.09"/>
    <path class="cls-4" d="m136.68,117.43c-1.03-.31-1.71-.6-2.53-.93v3.15c.3-.14,1.5-.62,2.53-.93,1.11-.33,2.11-.56,2.76-.64-.65-.08-1.65-.31-2.76-.64"/>
    <path class="cls-4" d="m221.42,152.86c-.31,1.03-.6,1.71-.93,2.53h3.15c-.14-.3-.62-1.5-.93-2.53-.33-1.11-.56-2.11-.64-2.76-.08.65-.31,1.65-.64,2.76"/>
    <line class="cls-2" x1="262.52" y1="127.15" x2="262.52" y2="86.48"/>
    <path class="cls-4" d="m261.88,85c-.31,1.03-.6,1.71-.93,2.53h3.15c-.14-.3-.62-1.5-.93-2.53-.33-1.11-.56-2.11-.65-2.76-.08.65-.31,1.65-.64,2.76"/>
    <line class="cls-2" x1="211.31" y1="104.84" x2="228.06" y2="104.84"/>
    <path class="cls-4" d="m229.54,104.2c-1.03-.31-1.71-.6-2.53-.93v3.15c.3-.14,1.5-.62,2.53-.93,1.11-.33,2.11-.56,2.76-.64-.65-.08-1.65-.31-2.76-.64"/>
    <line class="cls-2" x1="211.31" y1="150.1" x2="228.06" y2="150.1"/>
    <path class="cls-4" d="m229.54,149.46c-1.03-.31-1.71-.6-2.53-.93v3.15c.3-.14,1.5-.62,2.53-.93,1.11-.33,2.11-.56,2.76-.64-.65-.08-1.65-.31-2.76-.64"/>
    <polyline class="cls-2" points="216.42 150.1 216.42 175.65 267.74 175.65"/>
    <path class="cls-4" d="m269.22,175c-1.03-.31-1.71-.6-2.53-.93v3.15c.3-.14,1.5-.62,2.53-.93,1.1-.33,2.11-.56,2.76-.64-.65-.08-1.65-.31-2.76-.64"/>
    <polyline class="cls-2" points="28.93 128.22 28.93 63.13 87.03 63.13"/>
    <path class="cls-4" d="m88.51,62.49c-1.03-.31-1.71-.6-2.53-.93v3.15c.3-.14,1.5-.62,2.53-.93,1.11-.33,2.11-.56,2.76-.64-.65-.08-1.65-.31-2.76-.64"/>
    <line class="cls-1" x1="75.4" y1="27.24" x2="86.15" y2="27.24"/>
    <path class="cls-4" d="m88.36,26.6c-1.03-.31-1.71-.6-2.53-.93v3.15c.3-.14,1.5-.62,2.53-.93,1.11-.33,2.11-.56,2.76-.64-.65-.08-1.65-.31-2.76-.64"/>
    <path class="cls-4" d="m71.59,30.08v-1.42h-2.41v-.46l2.32-3.32h.76v3.23h.73v.55h-.73v1.42h-.66Zm0-1.97v-1.74c0-.27,0-.54.02-.82h-.02c-.16.3-.29.53-.43.77l-1.27,1.77v.02h1.7Z"/>
    <polyline class="cls-2" points="176.18 40.22 191.13 40.22 191.13 1.58 129.97 1.58"/>
    <path class="cls-4" d="m128.5,2.22c1.03.31,1.7.6,2.53.93V0c-.3.14-1.5.62-2.53.93-1.11.33-2.11.56-2.76.64.65.08,1.65.31,2.76.64"/>
    <line class="cls-2" x1="130.69" y1="138.37" x2="135.2" y2="138.37"/>
    <path class="cls-4" d="m136.68,137.73c-1.03-.31-1.71-.6-2.53-.93v3.15c.3-.14,1.5-.62,2.53-.93,1.11-.33,2.11-.56,2.76-.64-.65-.08-1.65-.31-2.76-.64"/>
    <line class="cls-2" x1="130.69" y1="158.67" x2="135.2" y2="158.67"/>
    <path class="cls-4" d="m136.68,158.03c-1.03-.31-1.71-.6-2.53-.93v3.15c.3-.14,1.5-.62,2.53-.93,1.11-.33,2.11-.56,2.76-.64-.65-.08-1.65-.31-2.76-.64"/>
    <path class="cls-2" d="m122.62,128.22V58.41h28.09m-32.18,69.81h11.97"/>
    <path class="cls-4" d="m152.19,57.77c-1.03-.31-1.71-.6-2.53-.93v3.15c.3-.14,1.5-.62,2.53-.93,1.11-.33,2.11-.56,2.76-.64-.65-.08-1.65-.31-2.76-.64"/>
    <line class="cls-2" x1="125.74" y1="22.52" x2="150.72" y2="22.52"/>
    <path class="cls-4" d="m152.19,21.89c-1.03-.31-1.71-.6-2.53-.93v3.15c.3-.14,1.5-.62,2.53-.93,1.11-.33,2.11-.56,2.76-.64-.65-.08-1.65-.31-2.76-.64"/>
    <path d="m127.79,22.52c0,1.1-.9,2-2,2s-2-.9-2-2,.9-2,2-2,2,.9,2,2"/>
    <path d="m30.92,128.12c0,1.11-.9,2-2,2s-2-.89-2-2,.89-2,2-2,2,.9,2,2"/>
    <path d="m124.65,128.16c0,1.11-.9,2-2,2s-2-.89-2-2,.89-2,2-2,2,.9,2,2"/>
    <path d="m132.66,128.31c0,1.11-.9,2-2,2s-2-.89-2-2,.89-2,2-2,2,.9,2,2"/>
    <path d="m132.66,158.77c0,1.1-.9,2-2,2s-2-.9-2-2,.89-2,2-2,2,.9,2,2"/>
    <path d="m132.66,138.44c0,1.11-.9,2-2,2s-2-.89-2-2,.89-2,2-2,2,.9,2,2"/>
    <path d="m218.45,150.26c0,1.1-.9,2-2,2s-2-.9-2-2,.89-2,2-2,2,.9,2,2"/>
    <path d="m264.6,127.16c0,1.1-.9,2-2,2s-2-.9-2-2,.89-2,2-2,2,.9,2,2"/>
  </g>
  <g id="Layer_3" data-name="Layer 3">
    <g>
      <path class="cls-4" d="m44.89,128.18l1.14,1.7c.31.47.55.77.7.89s.35.19.58.21v.14h-2.27v-.14c.15,0,.26-.02.34-.05.05-.02.1-.06.13-.11s.05-.1.05-.15c0-.06-.01-.12-.04-.18-.02-.04-.09-.16-.21-.34l-.9-1.36-1.11,1.42c-.12.15-.19.25-.21.3s-.04.1-.04.16c0,.08.04.15.11.21s.2.09.4.09v.14h-1.88v-.14c.13-.01.25-.04.34-.08.16-.07.31-.16.46-.27s.31-.29.5-.53l1.25-1.58-1.04-1.53c-.28-.41-.52-.69-.72-.81s-.43-.2-.68-.21v-.14h2.45v.14c-.21,0-.35.04-.43.1s-.12.13-.12.2c0,.1.06.24.19.42l.81,1.21.94-1.19c.11-.14.18-.24.2-.29s.04-.11.04-.16-.02-.1-.05-.14c-.04-.05-.09-.09-.15-.12s-.18-.03-.37-.04v-.14h1.88v.14c-.15,0-.27.03-.36.07-.14.06-.27.14-.39.24s-.28.29-.5.56l-1.05,1.34Z"/>
      <path class="cls-4" d="m49.68,130.6c-.37.28-.6.45-.69.49-.14.06-.29.1-.45.1-.25,0-.45-.08-.61-.25s-.24-.39-.24-.67c0-.17.04-.33.12-.45.11-.18.29-.34.56-.5s.7-.35,1.32-.57v-.14c0-.36-.06-.6-.17-.73s-.28-.2-.49-.2c-.16,0-.29.04-.39.13-.1.09-.15.19-.15.3v.23c0,.12-.02.21-.08.28s-.14.1-.24.1-.18-.03-.24-.1-.09-.16-.09-.28c0-.22.11-.43.34-.62s.55-.28.96-.28c.32,0,.58.05.78.16.15.08.27.21.34.38.05.11.07.34.07.69v1.21c0,.34,0,.55.02.63s.03.13.06.15.06.04.1.04c.04,0,.08,0,.11-.03.05-.03.16-.13.32-.29v.22c-.29.39-.57.59-.84.59-.13,0-.23-.04-.3-.13s-.11-.24-.12-.45Zm0-.25v-1.36c-.39.16-.65.27-.76.33-.21.11-.35.23-.44.36s-.13.26-.13.41c0,.19.06.34.17.47s.24.19.39.19c.2,0,.46-.13.78-.39Z"/>
      <path class="cls-4" d="m54.46,127.53v.15c-.16,0-.28.02-.36.07s-.13.1-.15.17-.04.22-.04.46v1.9c0,.23.01.38.03.45s.07.13.15.18.2.07.36.07v.14h-1.73v-.14c.22,0,.36-.04.43-.12s.11-.27.11-.58v-.78h-.16s-.06,0-.12,0l-1.14,1.62h-.89v-.14c.13,0,.22-.02.27-.05s.15-.15.28-.35l.84-1.18c-.6-.21-.9-.53-.9-.96,0-.24.11-.45.32-.63s.58-.27,1.1-.27h1.59Zm-1.19.3c-.1-.03-.2-.04-.29-.04-.26,0-.46.06-.59.2s-.2.29-.2.46c0,.23.09.42.28.57s.42.23.7.23c.03,0,.06,0,.1,0v-1.41Z"/>
      <path class="cls-4" d="m57.72,127.53l.14.98h-.17c-.1-.32-.2-.52-.3-.6s-.31-.12-.63-.12h-.76v2.48c0,.28.01.44.04.49s.07.1.13.14.18.06.37.06v.14h-1.79v-.14c.26,0,.42-.04.49-.12s.11-.27.11-.58v-1.9c0-.25-.01-.41-.04-.49s-.08-.12-.15-.15-.21-.05-.41-.05v-.15h2.96Z"/>
    </g>
    <g>
      <path class="cls-4" d="m13.77,128.63v1.54c0,.33.04.54.11.62.1.11.25.17.45.17h.2v.14h-2.27v-.14h.2c.22,0,.38-.07.48-.22.05-.08.08-.27.08-.57v-3.42c0-.33-.04-.54-.11-.62-.1-.11-.25-.17-.45-.17h-.2v-.14h1.94c.47,0,.85.05,1.12.15s.5.26.69.49.28.51.28.82c0,.43-.14.78-.43,1.05s-.69.41-1.21.41c-.13,0-.27,0-.41-.03s-.31-.05-.48-.08Zm0-.22c.14.03.26.05.37.06s.2.02.27.02c.27,0,.5-.1.7-.31s.29-.48.29-.81c0-.23-.05-.44-.14-.64s-.23-.34-.4-.44-.37-.15-.59-.15c-.13,0-.3.02-.51.07v2.2Z"/>
      <path class="cls-4" d="m21.4,125.69l.12,1.8h-.12c-.16-.54-.39-.93-.69-1.16s-.66-.36-1.08-.36c-.35,0-.67.09-.95.27s-.51.46-.67.85-.24.88-.24,1.46c0,.48.08.89.23,1.25s.38.62.69.81.66.28,1.06.28c.34,0,.65-.07.91-.22s.55-.44.87-.88l.12.08c-.27.47-.58.82-.93,1.04s-.77.33-1.26.33c-.88,0-1.56-.33-2.04-.98-.36-.48-.54-1.05-.54-1.71,0-.53.12-1.01.36-1.46s.56-.79.98-1.03.87-.37,1.36-.37c.38,0,.76.09,1.13.28.11.06.19.09.23.09.07,0,.13-.02.18-.07.07-.07.12-.17.14-.29h.14Z"/>
    </g>
    <g>
      <path class="cls-4" d="m167.8,50.66v-2.46h-1.52c-.27,0-.45.02-.54.05-.06.03-.12.08-.17.16-.06.11-.09.23-.09.36v.19h-.14v-2.27h.14v.19c0,.12.03.24.09.36.04.08.1.14.19.17s.26.04.52.04h3.42c.27,0,.45-.02.53-.05.06-.03.12-.08.17-.16.06-.11.09-.23.09-.36v-.19h.14v2.27h-.14v-.19c0-.22-.06-.37-.19-.47-.08-.06-.28-.1-.6-.1h-1.61v2.46h1.61c.27,0,.45-.02.53-.05.06-.03.12-.08.17-.16.06-.11.09-.23.09-.36v-.19h.14v2.27h-.14v-.19c0-.22-.06-.38-.19-.48-.08-.06-.28-.09-.6-.09h-3.42c-.27,0-.45.02-.54.05-.06.03-.12.08-.17.16-.06.11-.09.23-.09.36v.19h-.14v-2.27h.14v.19c0,.12.03.24.09.36.04.08.1.14.19.17s.26.05.52.05h1.52Z"/>
      <path class="cls-4" d="m167.06,46.17v-.15c.05-.05.07-.11.07-.16,0-.04-.02-.14-.07-.28-.08-.24-.11-.44-.11-.61,0-.41.17-.78.51-1.11s.79-.5,1.33-.5.99.16,1.37.48.57.74.57,1.25-.26.96-.79,1.32l-.08-.13c.42-.29.63-.66.63-1.11,0-.31-.11-.56-.34-.77s-.6-.31-1.12-.31h-.19v1.19h-.25v-1.16c-.43.05-.77.16-1.02.34s-.38.4-.38.66c0,.24.09.45.28.61s.41.26.69.29v.15h-1.11Z"/>
      <path class="cls-4" d="m169.7,40.53l-2.64-1.12v-1.21h.15c0,.18.02.29.05.35s.08.1.13.14.22.05.51.05h1.9c.25,0,.41-.01.48-.04s.13-.08.16-.15.05-.19.05-.35h.14v1.73h-.14c0-.21-.04-.36-.12-.43s-.27-.11-.58-.11h-2.15l2.99,1.27v.14l-2.99,1.29h2.15c.25,0,.41-.01.48-.04s.13-.08.16-.15.05-.19.05-.35h.14v1.37h-.14c0-.23-.04-.38-.13-.45s-.27-.1-.57-.1h-1.9c-.28,0-.44.01-.49.04s-.1.07-.14.13-.06.18-.06.37h-.15v-1.26l2.64-1.12Z"/>
      <path class="cls-4" d="m167.06,37.68v-.15c.05-.05.07-.11.07-.16,0-.04-.02-.14-.07-.28-.08-.24-.11-.44-.11-.61,0-.41.17-.78.51-1.11s.79-.5,1.33-.5.99.16,1.37.48.57.74.57,1.25-.26.96-.79,1.32l-.08-.13c.42-.29.63-.66.63-1.11,0-.31-.11-.56-.34-.77s-.6-.31-1.12-.31h-.19v1.19h-.25v-1.16c-.43.05-.77.16-1.02.34s-.38.4-.38.66c0,.24.09.45.28.61s.41.26.69.29v.15h-1.11Z"/>
      <path class="cls-4" d="m167.06,31.51l.98-.14v.17c-.32.1-.52.2-.6.3s-.12.31-.12.63v.76h2.48c.28,0,.44-.01.49-.04s.1-.07.14-.13.06-.18.06-.37h.14v1.79h-.14c0-.26-.04-.42-.12-.49s-.27-.11-.58-.11h-1.9c-.25,0-.41.01-.49.04s-.12.08-.15.15-.05.21-.05.41h-.15v-2.96Z"/>
      <path class="cls-4" d="m168.66,28.66h-.77c-.25,0-.41.01-.48.04s-.12.08-.16.15-.05.19-.05.35h-.15v-1.73h.15c0,.18.02.29.05.35s.08.1.13.14.22.05.51.05h1.9c.25,0,.41-.01.48-.04s.13-.08.16-.15.05-.19.05-.35h.14v1.82h-.14c0-.21-.02-.34-.04-.41s-.07-.12-.15-.16-.25-.06-.5-.06h-.88c.2.38.29.79.29,1.21,0,.23-.03.41-.09.54s-.13.21-.2.24-.2.05-.37.05h-.65c-.23,0-.38.01-.46.03s-.13.07-.17.14-.06.18-.06.32h-.15v-1.68h.15c0,.17.02.29.05.35s.08.11.13.14.22.05.51.05h.44c.17,0,.29-.01.35-.04s.11-.08.15-.17.06-.22.06-.38c0-.28-.08-.55-.23-.81Z"/>
    </g>
    <g>
      <path class="cls-4" d="m103.75,55.2v-2.46h-1.52c-.27,0-.45.02-.54.05-.06.03-.12.08-.17.16-.06.11-.09.23-.09.36v.19h-.14v-2.27h.14v.19c0,.12.03.24.09.36.04.08.1.14.19.17s.26.04.52.04h3.42c.27,0,.45-.02.53-.05.06-.03.12-.08.17-.16.06-.11.09-.23.09-.36v-.19h.14v2.27h-.14v-.19c0-.22-.06-.37-.19-.47-.08-.06-.28-.1-.6-.1h-1.61v2.46h1.61c.27,0,.45-.02.53-.05.06-.03.12-.08.17-.16.06-.11.09-.23.09-.36v-.19h.14v2.27h-.14v-.19c0-.22-.06-.38-.19-.48-.08-.06-.28-.09-.6-.09h-3.42c-.27,0-.45.02-.54.05-.06.03-.12.08-.17.16-.06.11-.09.23-.09.36v.19h-.14v-2.27h.14v.19c0,.12.03.24.09.36.04.08.1.14.19.17s.26.05.52.05h1.52Z"/>
      <path class="cls-4" d="m103.01,50.71v-.15c.05-.05.07-.11.07-.16,0-.04-.02-.14-.07-.28-.08-.24-.11-.44-.11-.61,0-.41.17-.78.51-1.11s.79-.5,1.33-.5.99.16,1.37.48.57.74.57,1.25-.26.96-.79,1.32l-.08-.13c.42-.29.63-.66.63-1.11,0-.31-.11-.56-.34-.77s-.6-.31-1.12-.31h-.19v1.19h-.25v-1.16c-.43.05-.77.16-1.02.34s-.38.4-.38.66c0,.24.09.45.28.61s.41.26.69.29v.15h-1.11Z"/>
      <path class="cls-4" d="m105.65,45.07l-2.64-1.12v-1.21h.15c0,.18.02.29.05.35s.08.1.13.14.22.05.51.05h1.9c.25,0,.41-.01.48-.04s.13-.08.16-.15.05-.19.05-.35h.14v1.73h-.14c0-.21-.04-.36-.12-.43s-.27-.11-.58-.11h-2.15l2.99,1.27v.14l-2.99,1.29h2.15c.25,0,.41-.01.48-.04s.13-.08.16-.15.05-.19.05-.35h.14v1.37h-.14c0-.23-.04-.38-.13-.45s-.27-.1-.57-.1h-1.9c-.28,0-.44.01-.49.04s-.1.07-.14.13-.06.18-.06.37h-.15v-1.26l2.64-1.12Z"/>
      <path class="cls-4" d="m103.01,42.21v-.15c.05-.05.07-.11.07-.16,0-.04-.02-.14-.07-.28-.08-.24-.11-.44-.11-.61,0-.41.17-.78.51-1.11s.79-.5,1.33-.5.99.16,1.37.48.57.74.57,1.25-.26.96-.79,1.32l-.08-.13c.42-.29.63-.66.63-1.11,0-.31-.11-.56-.34-.77s-.6-.31-1.12-.31h-.19v1.19h-.25v-1.16c-.43.05-.77.16-1.02.34s-.38.4-.38.66c0,.24.09.45.28.61s.41.26.69.29v.15h-1.11Z"/>
      <path class="cls-4" d="m103.01,36.05l.98-.14v.17c-.32.1-.52.2-.6.3s-.12.31-.12.63v.76h2.48c.28,0,.44-.01.49-.04s.1-.07.14-.13.06-.18.06-.37h.14v1.79h-.14c0-.26-.04-.42-.12-.49s-.27-.11-.58-.11h-1.9c-.25,0-.41.01-.49.04s-.12.08-.15.15-.05.21-.05.41h-.15v-2.96Z"/>
      <path class="cls-4" d="m104.61,33.2h-.77c-.25,0-.41.01-.48.04s-.12.08-.16.15-.05.19-.05.35h-.15v-1.73h.15c0,.18.02.29.05.35s.08.1.13.14.22.05.51.05h1.9c.25,0,.41-.01.48-.04s.13-.08.16-.15.05-.19.05-.35h.14v1.82h-.14c0-.21-.02-.34-.04-.41s-.07-.12-.15-.16-.25-.06-.5-.06h-.88c.2.38.29.79.29,1.21,0,.23-.03.41-.09.54s-.13.21-.2.24-.2.05-.37.05h-.65c-.23,0-.38.01-.46.03s-.13.07-.17.14-.06.18-.06.32h-.15v-1.68h.15c0,.17.02.29.05.35s.08.11.13.14.22.05.51.05h.44c.17,0,.29-.01.35-.04s.11-.08.15-.17.06-.22.06-.38c0-.28-.08-.55-.23-.81Z"/>
    </g>
    <g>
      <path class="cls-4" d="m244.16,127.38h-2.05l-.36.84c-.09.21-.13.36-.13.46,0,.08.04.15.12.21.08.06.24.1.5.12v.14h-1.67v-.14c.22-.04.36-.09.43-.15.13-.12.28-.38.44-.76l1.86-4.36h.14l1.84,4.41c.15.35.28.58.4.69s.29.16.51.18v.14h-2.09v-.14c.21-.01.35-.05.43-.11s.11-.13.11-.22c0-.11-.05-.3-.16-.54l-.32-.76Zm-.11-.29l-.9-2.14-.92,2.14h1.82Z"/>
      <path class="cls-4" d="m250.87,127.69l.13.03-.45,1.44h-4.1v-.14h.2c.22,0,.38-.07.48-.22.05-.08.08-.28.08-.58v-3.42c0-.33-.04-.54-.11-.62-.1-.11-.25-.17-.45-.17h-.2v-.14h2.4v.14c-.28,0-.48.02-.59.08s-.19.12-.23.21c-.04.08-.06.28-.06.6v3.33c0,.22.02.36.06.45.03.05.08.1.14.12.06.03.27.04.61.04h.39c.41,0,.69-.03.86-.09s.31-.17.45-.32c.13-.15.27-.39.41-.72Z"/>
      <path class="cls-4" d="m254.98,124v-.14h1.88v.14h-.2c-.21,0-.37.09-.48.26-.05.08-.08.27-.08.56v2.15c0,.53-.05.94-.16,1.24s-.31.54-.62.75-.73.31-1.26.31c-.58,0-1.02-.1-1.32-.3-.3-.2-.51-.47-.64-.81-.08-.23-.12-.67-.12-1.3v-2.07c0-.33-.04-.54-.13-.64s-.24-.15-.44-.15h-.2v-.14h2.29v.14h-.2c-.22,0-.38.07-.47.21-.07.09-.1.29-.1.59v2.31c0,.21.02.44.06.71.04.27.11.47.21.62.1.15.24.27.43.37.19.1.41.14.69.14.35,0,.66-.08.93-.23s.46-.34.56-.58c.1-.24.15-.63.15-1.2v-2.14c0-.33-.04-.54-.11-.62-.1-.11-.25-.17-.45-.17h-.2Z"/>
    </g>
    <g>
      <path class="cls-4" d="m278.87,126.22l1.14,1.7c.31.47.55.77.7.89s.35.19.58.21v.14h-2.27v-.14c.15,0,.26-.02.34-.05.05-.02.1-.06.13-.11s.05-.1.05-.15c0-.06-.01-.12-.04-.18-.02-.04-.09-.16-.21-.34l-.9-1.36-1.11,1.42c-.12.15-.19.25-.21.3s-.04.1-.04.16c0,.08.04.15.11.21s.2.09.4.09v.14h-1.88v-.14c.13-.01.25-.04.34-.08.16-.07.31-.16.46-.27.15-.11.31-.29.5-.53l1.25-1.58-1.04-1.53c-.28-.41-.53-.69-.72-.81-.2-.13-.43-.2-.68-.21v-.14h2.45v.14c-.21,0-.35.04-.43.1-.08.06-.12.13-.12.2,0,.1.06.24.19.42l.81,1.21.94-1.19c.11-.14.18-.24.2-.29.02-.05.04-.11.04-.16s-.02-.1-.05-.14c-.04-.05-.09-.09-.15-.12-.06-.02-.18-.03-.37-.04v-.14h1.88v.14c-.15,0-.27.03-.36.07-.14.06-.27.14-.39.24s-.28.29-.5.56l-1.05,1.34Z"/>
      <path class="cls-4" d="m283.66,128.63c-.37.28-.6.45-.69.49-.14.06-.29.1-.45.1-.25,0-.45-.08-.61-.25s-.24-.39-.24-.67c0-.17.04-.33.12-.45.11-.18.29-.34.56-.5.26-.16.7-.35,1.32-.57v-.14c0-.36-.06-.6-.17-.73s-.28-.2-.49-.2c-.16,0-.29.04-.39.13-.1.09-.15.19-.15.3v.23c0,.12-.02.21-.08.28-.06.06-.14.1-.24.1s-.18-.03-.24-.1c-.06-.07-.09-.16-.09-.28,0-.22.11-.43.34-.62.23-.19.55-.28.96-.28.32,0,.58.05.78.16.15.08.27.21.34.38.05.11.07.34.07.69v1.21c0,.34,0,.55.02.63.01.08.03.13.06.15.03.03.06.04.1.04.04,0,.08,0,.11-.03.05-.03.16-.13.32-.29v.22c-.29.39-.57.59-.84.59-.13,0-.23-.04-.3-.13-.08-.09-.12-.24-.12-.45Zm0-.25v-1.36c-.39.16-.65.27-.76.33-.21.11-.35.23-.44.36-.09.12-.13.26-.13.41,0,.19.06.34.17.47.11.12.24.19.39.19.2,0,.46-.13.78-.39Z"/>
      <path class="cls-4" d="m288.44,125.57v.15c-.16,0-.28.02-.36.07-.08.04-.13.1-.15.17s-.04.22-.04.46v1.9c0,.23,0,.38.03.45.02.07.07.13.15.18.08.05.2.07.36.07v.14h-1.73v-.14c.22,0,.36-.04.43-.12.07-.08.11-.27.11-.58v-.78h-.16s-.07,0-.12,0l-1.14,1.62h-.89v-.14c.13,0,.22-.02.27-.05s.14-.15.28-.35l.84-1.18c-.6-.21-.9-.53-.9-.96,0-.24.11-.45.32-.63s.58-.27,1.1-.27h1.59Zm-1.19.3c-.1-.03-.2-.04-.29-.04-.26,0-.46.06-.59.2-.13.13-.2.29-.2.46,0,.23.09.42.28.57.18.15.42.23.7.23.03,0,.06,0,.1,0v-1.41Z"/>
      <path class="cls-4" d="m291.7,125.57l.14.98h-.17c-.1-.32-.2-.52-.3-.6-.1-.08-.31-.12-.63-.12h-.76v2.48c0,.28.01.44.04.49.03.05.07.1.13.14.06.04.18.06.37.06v.14h-1.79v-.14c.25,0,.42-.04.49-.12.07-.07.11-.27.11-.58v-1.9c0-.25-.01-.41-.04-.49-.03-.07-.08-.12-.15-.15-.07-.03-.21-.05-.41-.05v-.15h2.96Z"/>
    </g>
    <g>
      <path class="cls-4" d="m81.87,126.69c0-.32-.05-.52-.15-.6s-.31-.13-.62-.13v-.14h2.29v.14c-.33.01-.54.06-.63.16s-.14.31-.14.66v3.37c0,.35.05.57.14.66s.3.15.63.16v.14h-2.29v-.14c.34-.01.55-.06.64-.16s.14-.32.14-.66v-3.04l-2.46,3.15c0,.23.02.38.04.46s.09.14.19.18.28.07.53.07v.14h-2.29v-.14c.33-.01.54-.06.63-.16s.14-.31.14-.66v-3.37c0-.35-.05-.57-.14-.66s-.3-.15-.63-.16v-.14h2.29v.14c-.33.01-.54.06-.63.16s-.14.31-.14.66v3.05l2.46-3.14Z"/>
      <path class="cls-4" d="m84.9,129.13h1.55v-.76c0-.23,0-.37-.03-.44s-.06-.13-.13-.18-.2-.07-.38-.07v-.15h1.73v.15c-.16,0-.28.02-.35.05s-.12.09-.15.16-.04.23-.04.48v1.9c0,.23,0,.38.03.45s.07.13.14.18.2.07.37.07v.14h-1.73v-.14c.22,0,.36-.04.43-.12s.11-.27.11-.58v-.89h-1.55v.89c0,.23,0,.38.03.45s.07.13.14.18.2.07.37.07v.14h-1.73v-.14c.23,0,.38-.04.45-.13s.1-.27.1-.57v-1.9c0-.23,0-.38-.03-.45s-.07-.13-.14-.18-.2-.07-.37-.07v-.15h1.73v.15c-.16,0-.28.02-.35.05s-.12.09-.15.16-.04.23-.04.48v.76Z"/>
      <path class="cls-4" d="m91.11,129.75c-.1.47-.29.83-.57,1.09s-.59.38-.93.38c-.41,0-.76-.17-1.06-.51s-.45-.8-.45-1.38.17-1.02.5-1.37.74-.53,1.21-.53c.35,0,.64.09.87.28s.34.38.34.58c0,.1-.03.18-.1.24s-.15.09-.27.09c-.15,0-.27-.05-.35-.15-.04-.05-.07-.16-.09-.31s-.07-.27-.16-.35c-.09-.08-.22-.12-.38-.12-.26,0-.47.1-.63.29-.21.26-.32.59-.32,1.01s.1.8.31,1.13.49.49.85.49c.26,0,.48-.09.69-.26.14-.12.28-.34.42-.65l.11.05Z"/>
      <path class="cls-4" d="m91.56,127.53h3.09l.16.97h-.18c-.03-.2-.08-.35-.16-.45s-.16-.18-.25-.21-.25-.05-.48-.05h-.31v2.48c0,.27.02.43.05.51s.09.12.16.14.24.04.5.05v.14h-1.95v-.14c.25,0,.41-.05.48-.12s.11-.27.11-.57v-2.48h-.32c-.22,0-.38.01-.46.04s-.16.09-.23.2-.14.26-.19.48h-.18l.15-.97Z"/>
      <path class="cls-4" d="m94.86,127.89l1.1-.45h.15v.84c.19-.31.37-.54.56-.66s.38-.19.59-.19c.36,0,.66.14.9.42.29.34.44.79.44,1.34,0,.62-.18,1.13-.53,1.53-.29.33-.66.5-1.1.5-.19,0-.36-.03-.5-.08-.1-.04-.22-.12-.35-.23v1.09c0,.24.02.4.04.47s.08.12.16.16.21.06.4.06v.14h-1.88v-.14h.1c.14,0,.27-.02.37-.08.05-.03.09-.07.12-.14s.04-.23.04-.49v-3.38c0-.23-.01-.38-.03-.44s-.05-.11-.1-.14-.11-.05-.19-.05c-.06,0-.14.02-.24.05l-.05-.12Zm1.25.62v1.34c0,.29.01.48.04.57.04.15.13.28.27.4s.32.17.54.17c.26,0,.47-.1.63-.3.21-.27.32-.64.32-1.12,0-.55-.12-.97-.36-1.26-.17-.2-.36-.3-.59-.3-.12,0-.25.03-.37.09-.09.05-.25.19-.46.42Z"/>
      <path class="cls-4" d="m98.91,127.53h1.67v.14h-.08c-.12,0-.21.03-.26.08s-.09.11-.09.19c0,.1.04.24.13.42l.87,1.8.8-1.98c.04-.11.07-.21.07-.32,0-.05,0-.08-.03-.11-.02-.03-.05-.05-.1-.07s-.12-.03-.23-.03v-.14h1.16v.14c-.1.01-.17.03-.22.06s-.11.09-.17.18c-.02.04-.07.14-.13.3l-1.46,3.57c-.14.35-.32.61-.55.79s-.45.27-.66.27c-.15,0-.28-.04-.38-.13s-.15-.19-.15-.3.04-.2.11-.26.17-.1.29-.1c.09,0,.2.03.35.09.1.04.17.06.2.06.08,0,.16-.04.26-.12s.19-.24.28-.47l.25-.62-1.29-2.7c-.04-.08-.1-.18-.19-.3-.06-.09-.12-.15-.16-.18-.06-.04-.16-.08-.29-.11v-.14Z"/>
      <path class="cls-4" d="m106.7,131.11h-1.05c-.33-.48-.62-.96-.89-1.46-.06-.11-.12-.2-.17-.26s-.12-.08-.21-.08c-.03,0-.08,0-.15,0v.96c0,.26.02.42.04.49s.08.12.16.15.21.05.39.05v.14h-1.79v-.14c.23,0,.38-.04.45-.13s.1-.27.1-.57v-1.9c0-.28-.01-.44-.04-.49s-.07-.1-.13-.14-.18-.06-.37-.06v-.15h1.79v.15c-.22,0-.35.02-.4.05s-.1.07-.14.12-.06.22-.06.53v.7c.06,0,.1,0,.12,0,.16,0,.31-.04.45-.13s.26-.28.37-.57c.1-.28.19-.46.25-.56s.16-.18.28-.24.24-.09.37-.09c.14,0,.25.03.34.1s.12.16.12.27c0,.09-.03.17-.09.23s-.14.1-.25.1c-.06,0-.13-.02-.21-.05-.11-.04-.19-.06-.25-.06-.12,0-.22.1-.3.31-.09.24-.15.39-.2.46s-.12.16-.24.28c.08.02.17.08.26.18s.27.37.53.82c.21.36.36.59.46.69s.25.15.45.15v.14Z"/>
      <path class="cls-4" d="m110.85,130.97v1.14h-.14c0-.3-.11-.55-.3-.72s-.54-.27-1.04-.27h-2.44v-.14c.23,0,.38-.04.45-.13s.1-.27.1-.57v-1.9c0-.28-.01-.44-.04-.49s-.07-.1-.13-.14-.18-.06-.37-.06v-.15h1.73v.15c-.17,0-.29.02-.35.05s-.11.08-.14.13-.05.22-.05.51v2.02c0,.23.02.36.06.4s.17.06.39.06h.63c.24,0,.38-.02.41-.07s.05-.19.05-.43v-1.99c0-.25-.01-.41-.04-.48s-.08-.12-.15-.16-.19-.05-.35-.05v-.15h1.73v.15c-.17,0-.29.02-.35.05s-.11.08-.14.13-.05.22-.05.51v1.84c0,.34.03.54.09.62s.21.12.45.13Z"/>
      <path class="cls-4" d="m112.4,130.01l1.55-1.79c0-.2-.04-.34-.11-.42s-.19-.12-.36-.12v-.15h1.66v.15c-.17,0-.29.02-.35.05s-.11.08-.14.13-.05.22-.05.51v1.9c0,.28.01.44.04.49s.07.1.13.14.18.06.37.06v.14h-1.73v-.14c.22,0,.36-.04.43-.12s.11-.27.11-.58v-1.68l-1.55,1.79c0,.22.04.37.09.46s.18.13.37.13v.14h-1.65v-.14c.23,0,.38-.04.45-.13s.1-.27.1-.57v-1.9c0-.28-.01-.44-.04-.49s-.07-.1-.13-.14-.18-.06-.37-.06v-.15h1.73v.15c-.17,0-.29.02-.35.05s-.11.08-.14.13-.05.22-.05.51v1.64Z"/>
    </g>
    <g>
      <path class="cls-4" d="m149.96,97.29c0,.77-.24,1.42-.72,1.96-.5.56-1.13.84-1.89.84s-1.4-.27-1.89-.82c-.46-.53-.7-1.18-.7-1.96,0-.84.29-1.53.86-2.06.5-.46,1.09-.69,1.79-.69.73,0,1.35.28,1.84.83.47.53.71,1.17.71,1.91Zm-.89.13h-3.4c.02.8.2,1.42.55,1.86.28.35.66.53,1.12.53.61,0,1.07-.26,1.36-.78.24-.42.36-.96.36-1.62Zm0-.29c-.03-.65-.15-1.17-.39-1.56-.29-.49-.74-.73-1.33-.73s-1.01.25-1.3.75c-.23.4-.36.92-.38,1.54h3.39Z"/>
      <path class="cls-4" d="m153.36,96.39l.14.98h-.17c-.1-.32-.2-.52-.3-.6s-.31-.12-.63-.12h-.76v2.48c0,.28.01.44.04.49s.07.1.13.14.18.06.37.06v.14h-1.79v-.14c.26,0,.42-.04.49-.12s.11-.27.11-.58v-1.9c0-.25-.01-.41-.04-.49s-.08-.12-.15-.15-.21-.05-.41-.05v-.15h2.96Z"/>
      <path class="cls-4" d="m157.28,98.11c0,.33-.08.65-.23.96-.16.34-.37.59-.64.75s-.57.25-.9.25c-.54,0-.97-.21-1.29-.64-.27-.36-.4-.77-.4-1.22,0-.33.08-.65.23-.96.17-.34.38-.58.65-.74s.55-.23.85-.23c.54,0,.98.21,1.3.62.28.35.42.76.42,1.21Zm-.75-.18c-.05-.36-.15-.67-.31-.92-.2-.32-.46-.48-.78-.48-.35,0-.6.19-.75.55-.09.21-.13.48-.13.79v.05h1.97Zm.03.48c0-.05,0-.13,0-.22h-1.98c.03.39.13.74.3,1.04.21.38.48.57.82.57.58,0,.87-.46.87-1.39Z"/>
      <path class="cls-4" d="m160.64,96.39l.14.98h-.17c-.1-.32-.2-.52-.3-.6s-.31-.12-.63-.12h-.76v2.48c0,.28.01.44.04.49s.07.1.13.14.18.06.37.06v.14h-1.79v-.14c.26,0,.42-.04.49-.12s.11-.27.11-.58v-1.9c0-.25-.01-.41-.04-.49s-.08-.12-.15-.15-.21-.05-.41-.05v-.15h2.96Z"/>
      <path class="cls-4" d="m161.57,96.39h3.16v.15c-.18,0-.29.02-.35.05s-.1.08-.14.13-.05.22-.05.51v1.77c0,.37.03.6.1.69s.21.13.45.14v1.14h-.15c-.01-.21-.06-.4-.16-.56s-.23-.27-.4-.34-.42-.1-.75-.1h-.92c-.29,0-.51.03-.67.08s-.3.16-.4.32-.17.36-.2.6h-.14v-1.14c.21,0,.41-.09.58-.25s.33-.48.46-.95.2-.94.2-1.39-.2-.68-.61-.69v-.15Zm.86.25v.21c0,1.28-.23,2.23-.7,2.86h1.33c.24,0,.38-.02.41-.06s.05-.19.05-.45v-2.56h-1.1Z"/>
      <path class="cls-4" d="m168.63,98.11c0,.33-.08.65-.23.96-.16.34-.37.59-.64.75s-.57.25-.9.25c-.54,0-.97-.21-1.29-.64-.27-.36-.4-.77-.4-1.22,0-.33.08-.65.23-.96.17-.34.38-.58.65-.74s.55-.23.85-.23c.54,0,.98.21,1.3.62.28.35.42.76.42,1.21Zm-.75-.18c-.05-.36-.15-.67-.31-.92-.2-.32-.46-.48-.78-.48-.35,0-.6.19-.75.55-.09.21-.13.48-.13.79v.05h1.97Zm.03.48c0-.05,0-.13,0-.22h-1.98c.03.39.13.74.3,1.04.21.38.48.57.82.57.58,0,.87-.46.87-1.39Z"/>
      <path class="cls-4" d="m169.52,96.39h3.2v.15c-.18,0-.29.02-.35.05s-.1.08-.14.13-.05.22-.05.51v1.9c0,.28.01.44.04.49s.07.1.13.14.18.06.37.06v.14h-1.85v-.14c.2,0,.34-.01.42-.03s.14-.07.18-.15.07-.25.07-.51v-2.48h-1.19v1.51c0,.57-.03.97-.08,1.2s-.15.4-.3.51-.32.17-.51.17c-.33,0-.5-.14-.5-.41,0-.09.03-.17.08-.23s.12-.09.21-.09c.09,0,.18.04.25.11.1.1.18.15.23.15.12,0,.2-.1.26-.29s.08-.54.08-1.03v-.79c0-.41-.03-.65-.09-.74s-.21-.14-.45-.16v-.15Z"/>
    </g>
    <g>
      <path class="cls-4" d="m280.8,174.31c0,.77-.24,1.42-.72,1.96-.5.56-1.13.84-1.89.84s-1.4-.27-1.89-.82c-.46-.53-.7-1.18-.7-1.96,0-.84.29-1.53.86-2.06.5-.46,1.09-.69,1.79-.69.73,0,1.35.28,1.84.83.47.53.71,1.17.71,1.91Zm-.89.13h-3.4c.02.8.2,1.42.55,1.86.28.35.66.53,1.12.53.62,0,1.07-.26,1.36-.78.24-.42.36-.96.36-1.62Zm0-.29c-.03-.65-.15-1.17-.39-1.56-.29-.49-.74-.73-1.33-.73s-1,.25-1.3.75c-.23.4-.36.92-.38,1.54h3.39Z"/>
      <path class="cls-4" d="m284.19,173.42l.14.98h-.17c-.1-.32-.2-.52-.3-.6-.1-.08-.31-.12-.63-.12h-.76v2.48c0,.28.01.44.04.49.03.05.07.1.13.14.06.04.18.06.37.06v.14h-1.79v-.14c.26,0,.42-.04.49-.12.07-.07.11-.27.11-.58v-1.9c0-.25-.01-.41-.04-.49-.03-.07-.08-.12-.15-.15-.07-.03-.21-.05-.41-.05v-.15h2.96Z"/>
      <path class="cls-4" d="m288.11,175.14c0,.33-.08.65-.23.96-.16.34-.37.59-.64.75-.27.17-.57.25-.9.25-.54,0-.97-.21-1.29-.64-.27-.36-.4-.77-.4-1.22,0-.33.08-.65.23-.96.17-.34.38-.58.65-.74s.55-.23.85-.23c.54,0,.98.21,1.3.62.28.35.42.76.42,1.21Zm-.75-.18c-.05-.36-.15-.67-.31-.92-.2-.32-.46-.48-.78-.48-.35,0-.6.19-.75.55-.09.21-.13.48-.13.79v.05h1.97Zm.03.48c0-.05,0-.13,0-.22h-1.98c.03.39.13.74.3,1.04.21.38.48.57.82.57.58,0,.87-.46.87-1.39Z"/>
      <path class="cls-4" d="m291.48,173.42l.14.98h-.17c-.1-.32-.2-.52-.3-.6-.1-.08-.31-.12-.63-.12h-.76v2.48c0,.28.01.44.04.49.03.05.07.1.13.14.06.04.18.06.37.06v.14h-1.79v-.14c.26,0,.42-.04.49-.12.07-.07.11-.27.11-.58v-1.9c0-.25-.01-.41-.04-.49-.03-.07-.08-.12-.15-.15-.07-.03-.21-.05-.41-.05v-.15h2.96Z"/>
      <path class="cls-4" d="m292.41,173.42h3.16v.15c-.18,0-.29.02-.35.05s-.1.08-.14.13c-.03.05-.05.22-.05.51v1.77c0,.37.03.6.1.69.06.08.21.13.45.14v1.14h-.15c0-.21-.06-.4-.16-.56-.09-.16-.23-.27-.4-.34-.17-.06-.42-.1-.75-.1h-.92c-.29,0-.51.03-.67.08-.16.05-.3.16-.4.32-.11.16-.17.36-.2.6h-.14v-1.14c.21,0,.41-.09.58-.25.17-.16.33-.48.46-.95s.2-.94.2-1.39-.2-.68-.61-.69v-.15Zm.86.25v.21c0,1.28-.23,2.23-.7,2.86h1.33c.24,0,.38-.02.41-.06.04-.04.05-.19.05-.45v-2.56h-1.1Z"/>
      <path class="cls-4" d="m299.46,175.14c0,.33-.08.65-.23.96-.16.34-.37.59-.64.75-.27.17-.57.25-.9.25-.54,0-.97-.21-1.29-.64-.27-.36-.4-.77-.4-1.22,0-.33.08-.65.23-.96.17-.34.38-.58.65-.74s.55-.23.85-.23c.54,0,.98.21,1.3.62.28.35.42.76.42,1.21Zm-.75-.18c-.05-.36-.15-.67-.31-.92-.2-.32-.46-.48-.78-.48-.35,0-.6.19-.75.55-.09.21-.13.48-.13.79v.05h1.97Zm.03.48c0-.05,0-.13,0-.22h-1.98c.03.39.13.74.3,1.04.21.38.48.57.82.57.58,0,.87-.46.87-1.39Z"/>
      <path class="cls-4" d="m300.36,173.42h3.2v.15c-.18,0-.29.02-.35.05s-.1.08-.14.13c-.03.05-.05.22-.05.51v1.9c0,.28.01.44.04.49.03.05.07.1.13.14.06.04.18.06.37.06v.14h-1.85v-.14c.2,0,.34-.01.42-.03.08-.02.14-.07.18-.15.04-.08.07-.25.07-.51v-2.48h-1.19v1.51c0,.57-.03.97-.08,1.2s-.15.4-.3.51c-.15.11-.32.17-.51.17-.33,0-.5-.14-.5-.41,0-.09.03-.17.08-.23.05-.06.12-.09.21-.09.09,0,.18.04.25.11.1.1.18.15.23.15.12,0,.2-.1.26-.29.05-.2.08-.54.08-1.03v-.79c0-.41-.03-.65-.09-.74s-.21-.14-.45-.16v-.15Z"/>
    </g>
    <g>
      <path class="cls-4" d="m182.17,125.3v1.54c0,.33.04.54.11.62.1.11.25.17.45.17h.2v.14h-2.27v-.14h.2c.22,0,.38-.07.48-.22.05-.08.08-.27.08-.57v-3.42c0-.33-.04-.54-.11-.62-.1-.11-.25-.17-.45-.17h-.2v-.14h1.94c.47,0,.85.05,1.12.15s.5.26.69.49.28.51.28.82c0,.43-.14.78-.43,1.05s-.69.41-1.21.41c-.13,0-.27,0-.41-.03s-.31-.05-.48-.08Zm0-.22c.14.03.26.05.37.06s.2.02.27.02c.27,0,.5-.1.7-.31s.29-.48.29-.81c0-.23-.05-.44-.14-.64s-.23-.34-.4-.44-.37-.15-.59-.15c-.13,0-.3.02-.51.07v2.2Z"/>
      <path class="cls-4" d="m185.83,125.55c0,.53.13.95.39,1.25s.57.45.92.45c.23,0,.44-.06.61-.19s.32-.35.44-.66l.12.08c-.05.36-.21.68-.48.97s-.59.44-.99.44c-.43,0-.8-.17-1.1-.5s-.46-.78-.46-1.35c0-.61.16-1.09.47-1.43s.71-.51,1.18-.51c.4,0,.73.13.99.4s.39.62.39,1.06h-2.47Zm0-.23h1.66c-.01-.23-.04-.39-.08-.48-.06-.15-.16-.26-.29-.34s-.26-.12-.4-.12c-.22,0-.41.08-.58.25s-.27.4-.3.7Z"/>
      <path class="cls-4" d="m191.62,124.21l.14.98h-.17c-.1-.32-.2-.52-.3-.6s-.31-.12-.63-.12h-.76v2.48c0,.28.01.44.04.49s.07.1.13.14.18.06.37.06v.14h-1.79v-.14c.26,0,.42-.04.49-.12s.11-.27.11-.58v-1.9c0-.25-.01-.41-.04-.49s-.08-.12-.15-.15-.21-.05-.41-.05v-.15h2.96Z"/>
      <path class="cls-4" d="m193.18,126.68l1.55-1.79c0-.2-.04-.34-.11-.42s-.19-.12-.36-.12v-.15h1.66v.15c-.17,0-.29.02-.35.05s-.11.08-.14.13-.05.22-.05.51v1.9c0,.28.01.44.04.49s.07.1.13.14.18.06.37.06v.14h-1.73v-.14c.22,0,.36-.04.43-.12s.11-.27.11-.58v-1.68l-1.55,1.79c0,.22.04.37.09.46s.18.13.37.13v.14h-1.65v-.14c.23,0,.38-.04.45-.13s.1-.27.1-.57v-1.9c0-.28-.01-.44-.04-.49s-.07-.1-.13-.14-.18-.06-.37-.06v-.15h1.73v.15c-.17,0-.29.02-.35.05s-.11.08-.14.13-.05.22-.05.51v1.64Z"/>
      <path class="cls-4" d="m199.38,126.42c-.1.47-.29.83-.57,1.09s-.59.38-.93.38c-.41,0-.76-.17-1.06-.51s-.45-.8-.45-1.38.17-1.02.5-1.37.74-.53,1.21-.53c.35,0,.64.09.87.28s.34.38.34.58c0,.1-.03.18-.1.24s-.15.09-.27.09c-.15,0-.27-.05-.35-.15-.04-.05-.07-.16-.09-.31s-.07-.27-.16-.35c-.09-.08-.22-.12-.38-.12-.26,0-.47.1-.63.29-.21.26-.32.59-.32,1.01s.1.8.31,1.13.49.49.85.49c.26,0,.48-.09.69-.26.14-.12.28-.34.42-.65l.11.05Z"/>
      <path class="cls-4" d="m199.84,124.21h3.09l.16.97h-.18c-.03-.2-.08-.35-.16-.45s-.16-.18-.25-.21-.25-.05-.48-.05h-.31v2.48c0,.27.02.43.05.51s.09.12.16.14.24.04.5.05v.14h-1.95v-.14c.25,0,.41-.05.48-.12s.11-.27.11-.57v-2.48h-.32c-.22,0-.38.01-.46.04s-.16.09-.23.2-.14.26-.19.48h-.18l.15-.97Z"/>
      <path class="cls-4" d="m203.13,124.56l1.1-.45h.15v.84c.19-.31.37-.54.56-.66s.38-.19.59-.19c.36,0,.66.14.9.42.29.34.44.79.44,1.34,0,.62-.18,1.13-.53,1.53-.29.33-.66.5-1.1.5-.19,0-.36-.03-.5-.08-.1-.04-.22-.12-.35-.23v1.09c0,.24.02.4.04.47s.08.12.16.16.21.06.4.06v.14h-1.88v-.14h.1c.14,0,.27-.02.37-.08.05-.03.09-.07.12-.14s.04-.23.04-.49v-3.38c0-.23-.01-.38-.03-.44s-.05-.11-.1-.14-.11-.05-.19-.05c-.06,0-.14.02-.24.05l-.05-.12Zm1.25.62v1.34c0,.29.01.48.04.57.04.15.13.28.27.4s.32.17.54.17c.26,0,.47-.1.63-.3.21-.27.32-.64.32-1.12,0-.55-.12-.97-.36-1.26-.17-.2-.36-.3-.59-.3-.12,0-.25.03-.37.09-.09.05-.25.19-.46.42Z"/>
      <path class="cls-4" d="m187,132.27l1.05-.44h.17v2.2c.24-.22.48-.33.72-.33.34,0,.62.19.87.55s.36.82.36,1.34-.12.96-.37,1.33-.54.56-.89.56c-.26,0-.49-.11-.69-.34v1.11c0,.26.02.43.04.5s.08.12.16.15.24.04.49.04v.14h-1.93v-.14c.26,0,.43-.04.51-.11s.12-.27.12-.58v-1.11c-.2.23-.42.34-.69.34-.36,0-.66-.19-.9-.56s-.36-.83-.36-1.37c0-.49.11-.92.34-1.29s.53-.56.9-.56c.27,0,.51.12.71.38v-.97c0-.33-.02-.55-.06-.64s-.11-.14-.22-.14c-.09,0-.18.02-.28.07l-.06-.13Zm.62,2.15c-.15-.31-.33-.46-.56-.46s-.39.15-.52.44-.19.72-.19,1.29c0,.51.06.89.19,1.15s.3.39.52.39c.2,0,.39-.12.56-.36v-2.45Zm.61,2.38c.05.14.13.24.25.31s.22.11.32.11c.2,0,.37-.13.49-.38s.19-.65.19-1.18c0-1.14-.23-1.7-.68-1.7-.19,0-.38.11-.58.32v2.53Z"/>
      <path class="cls-4" d="m192.79,136.87c-.37.28-.6.45-.69.49-.14.06-.29.1-.45.1-.25,0-.45-.08-.61-.25s-.24-.39-.24-.67c0-.17.04-.33.12-.45.11-.18.29-.34.56-.5s.7-.35,1.32-.57v-.14c0-.36-.06-.6-.17-.73s-.28-.2-.49-.2c-.16,0-.29.04-.39.13-.1.09-.15.19-.15.3v.23c0,.12-.02.21-.08.28s-.14.1-.24.1-.18-.03-.24-.1-.09-.16-.09-.28c0-.22.11-.43.34-.62s.55-.28.96-.28c.32,0,.58.05.78.16.15.08.27.21.34.38.05.11.07.34.07.69v1.21c0,.34,0,.55.02.63s.03.13.06.15.06.04.1.04c.04,0,.08,0,.11-.03.05-.03.16-.13.32-.29v.22c-.29.39-.57.59-.84.59-.13,0-.23-.04-.3-.13s-.11-.24-.12-.45Zm0-.25v-1.36c-.39.16-.65.27-.76.33-.21.11-.35.23-.44.36s-.13.26-.13.41c0,.19.06.34.17.47s.24.19.39.19c.2,0,.46-.13.78-.39Z"/>
      <path class="cls-4" d="m195.43,136.28l1.55-1.79c0-.2-.04-.34-.11-.42s-.19-.12-.36-.12v-.15h1.66v.15c-.17,0-.29.02-.35.05s-.11.08-.14.13-.05.22-.05.51v1.9c0,.28.01.44.04.49s.07.1.13.14.18.06.37.06v.14h-1.73v-.14c.22,0,.36-.04.43-.12s.11-.27.11-.58v-1.68l-1.55,1.79c0,.22.04.37.09.46s.18.13.37.13v.14h-1.65v-.14c.23,0,.38-.04.45-.13s.1-.27.1-.57v-1.9c0-.28-.01-.44-.04-.49s-.07-.1-.13-.14-.18-.06-.37-.06v-.15h1.73v.15c-.17,0-.29.02-.35.05s-.11.08-.14.13-.05.22-.05.51v1.64Zm-.51-3.91c0-.09.03-.16.08-.22s.12-.08.19-.08c.17,0,.32.16.46.48.08.18.16.3.26.34s.19.07.29.07c.16,0,.29-.04.37-.11s.16-.2.23-.38c.11-.27.24-.41.4-.41.08,0,.14.03.2.08s.08.13.08.21c0,.2-.13.39-.39.56s-.56.26-.89.26c-.43,0-.75-.08-.96-.23s-.32-.35-.32-.57Z"/>
      <path class="cls-4" d="m198.97,133.81h3.2v.15c-.18,0-.29.02-.35.05s-.1.08-.14.13-.05.22-.05.51v1.9c0,.28.01.44.04.49s.07.1.13.14.18.06.37.06v.14h-1.85v-.14c.2,0,.34-.01.42-.03s.14-.07.18-.15.07-.25.07-.51v-2.48h-1.19v1.51c0,.57-.03.97-.08,1.2s-.15.4-.3.51-.32.17-.51.17c-.33,0-.5-.14-.5-.41,0-.09.03-.17.08-.23s.12-.09.21-.09c.09,0,.18.04.25.11.1.1.18.15.23.15.12,0,.2-.1.26-.29s.08-.54.08-1.03v-.79c0-.41-.03-.65-.09-.74s-.21-.14-.45-.16v-.15Z"/>
    </g>
    <g>
      <path class="cls-4" d="m142.97,138.61v1.54c0,.33.04.54.11.62.1.12.25.17.45.17h.2v.14h-2.27v-.14h.2c.22,0,.38-.07.48-.22.05-.08.08-.27.08-.57v-3.42c0-.33-.04-.54-.11-.62-.1-.11-.25-.17-.45-.17h-.2v-.14h1.94c.47,0,.85.05,1.12.15s.5.26.69.49c.19.23.28.51.28.82,0,.43-.14.78-.43,1.05-.29.27-.69.41-1.21.41-.13,0-.27,0-.41-.03-.15-.02-.31-.04-.48-.08Zm0-.22c.14.03.26.05.37.06.11.01.2.02.27.02.27,0,.5-.1.7-.31.2-.21.29-.48.29-.81,0-.23-.05-.44-.14-.64-.09-.2-.23-.34-.4-.44s-.37-.15-.59-.15c-.13,0-.3.03-.51.07v2.2Z"/>
      <path class="cls-4" d="m146.63,138.86c0,.53.13.95.39,1.25.26.3.57.45.92.45.23,0,.44-.06.61-.19s.32-.35.44-.66l.12.08c-.05.36-.21.68-.48.97s-.59.44-.99.44c-.43,0-.8-.17-1.1-.5-.31-.33-.46-.78-.46-1.35,0-.61.16-1.09.47-1.43.31-.34.71-.51,1.18-.51.4,0,.73.13.99.4.26.26.39.62.39,1.06h-2.47Zm0-.23h1.66c-.01-.23-.04-.39-.08-.48-.06-.15-.16-.26-.29-.34-.13-.08-.26-.12-.4-.12-.22,0-.41.08-.58.25s-.27.4-.3.7Z"/>
      <path class="cls-4" d="m152.42,137.51l.14.98h-.17c-.1-.32-.2-.52-.3-.6-.1-.08-.31-.12-.63-.12h-.76v2.48c0,.28.01.44.04.49.03.05.07.1.13.14.06.04.18.06.37.06v.14h-1.79v-.14c.26,0,.42-.04.49-.12s.11-.27.11-.58v-1.9c0-.25-.01-.41-.04-.49-.03-.07-.08-.12-.15-.15s-.21-.05-.41-.05v-.15h2.96Z"/>
      <path class="cls-4" d="m153.98,139.99l1.55-1.79c0-.2-.04-.34-.11-.42s-.19-.12-.36-.12v-.15h1.66v.15c-.17,0-.29.02-.35.05s-.11.08-.14.13c-.03.05-.05.22-.05.51v1.9c0,.28.01.44.04.49.03.05.07.1.13.14.06.04.18.06.37.06v.14h-1.73v-.14c.22,0,.36-.04.43-.12.07-.08.11-.27.11-.58v-1.68l-1.55,1.79c0,.22.04.37.09.46.06.08.18.13.37.13v.14h-1.65v-.14c.23,0,.38-.04.45-.13.06-.08.1-.27.1-.57v-1.9c0-.28-.01-.44-.04-.49s-.07-.1-.13-.14c-.06-.04-.18-.06-.37-.06v-.15h1.73v.15c-.17,0-.29.02-.35.05s-.11.08-.14.13c-.03.05-.05.22-.05.51v1.64Z"/>
      <path class="cls-4" d="m160.18,139.73c-.1.47-.29.83-.57,1.09s-.59.38-.93.38c-.41,0-.76-.17-1.06-.51-.3-.34-.45-.8-.45-1.38s.17-1.02.5-1.37.74-.53,1.21-.53c.35,0,.64.09.87.28.23.19.34.38.34.58,0,.1-.03.18-.1.24-.06.06-.15.09-.27.09-.15,0-.27-.05-.35-.15-.04-.05-.07-.16-.09-.31-.01-.15-.07-.27-.16-.35-.09-.08-.22-.12-.38-.12-.26,0-.47.1-.63.29-.21.26-.32.59-.32,1.01s.1.8.31,1.13c.21.33.49.49.85.49.26,0,.48-.09.69-.26.14-.12.28-.34.42-.65l.11.05Z"/>
      <path class="cls-4" d="m160.64,137.51h3.09l.16.97h-.18c-.03-.2-.08-.35-.16-.45-.07-.11-.16-.18-.25-.21-.09-.03-.25-.05-.48-.05h-.31v2.48c0,.27.02.43.05.51.03.07.09.12.16.14s.24.04.5.05v.14h-1.95v-.14c.25,0,.41-.04.48-.12.07-.08.11-.27.11-.57v-2.48h-.32c-.22,0-.38.01-.46.04s-.16.09-.23.2c-.07.1-.14.26-.19.48h-.18l.15-.97Z"/>
      <path class="cls-4" d="m163.93,137.86l1.1-.45h.15v.84c.19-.31.37-.54.56-.66.19-.13.38-.19.59-.19.36,0,.66.14.9.42.29.34.44.79.44,1.34,0,.62-.18,1.13-.53,1.53-.29.33-.66.5-1.1.5-.19,0-.36-.03-.5-.08-.1-.04-.22-.12-.35-.23v1.09c0,.25.02.4.04.47s.08.12.16.16.21.06.4.06v.14h-1.88v-.14h.1c.14,0,.27-.02.37-.08.05-.03.09-.07.12-.14.03-.06.04-.23.04-.49v-3.38c0-.23-.01-.38-.03-.44s-.05-.11-.1-.14-.11-.05-.19-.05c-.06,0-.14.02-.24.05l-.05-.12Zm1.25.62v1.34c0,.29.01.48.04.57.04.15.13.28.27.4.14.12.32.17.54.17.26,0,.47-.1.63-.3.21-.27.32-.64.32-1.12,0-.55-.12-.97-.36-1.26-.17-.2-.36-.3-.59-.3-.12,0-.25.03-.37.09-.09.05-.25.19-.46.42Z"/>
      <path class="cls-4" d="m170.39,141.2l.36-1.78h-.67v-.32h.73l.27-1.34h-1v-.31h1.07l.36-1.78h.32l-.36,1.78h1.32l.38-1.78h.32l-.37,1.78h.66v.31h-.72l-.27,1.34h1v.32h-1.06l-.36,1.78h-.32l.36-1.78h-1.32l-.37,1.78h-.32Zm.75-2.1h1.32l.28-1.34h-1.33l-.27,1.34Z"/>
    </g>
    <g>
      <path class="cls-4" d="m142.97,118.76v1.54c0,.33.04.54.11.62.1.11.25.17.45.17h.2v.14h-2.27v-.14h.2c.22,0,.38-.07.48-.22.05-.08.08-.27.08-.57v-3.42c0-.33-.04-.54-.11-.62-.1-.11-.25-.17-.45-.17h-.2v-.14h1.94c.47,0,.85.05,1.12.15s.5.26.69.49.28.51.28.82c0,.43-.14.78-.43,1.05s-.69.41-1.21.41c-.13,0-.27,0-.41-.03s-.31-.05-.48-.08Zm0-.22c.14.03.26.05.37.06s.2.02.27.02c.27,0,.5-.1.7-.31s.29-.48.29-.81c0-.23-.05-.44-.14-.64s-.23-.34-.4-.44-.37-.15-.59-.15c-.13,0-.3.02-.51.07v2.2Z"/>
      <path class="cls-4" d="m146.63,119.01c0,.53.13.95.39,1.25s.57.45.92.45c.23,0,.44-.06.61-.19s.32-.35.44-.66l.12.08c-.05.36-.21.68-.48.97s-.59.44-.99.44c-.43,0-.8-.17-1.1-.5s-.46-.78-.46-1.35c0-.61.16-1.09.47-1.43s.71-.51,1.18-.51c.4,0,.73.13.99.4s.39.62.39,1.06h-2.47Zm0-.23h1.66c-.01-.23-.04-.39-.08-.48-.06-.15-.16-.26-.29-.34s-.26-.12-.4-.12c-.22,0-.41.08-.58.25s-.27.4-.3.7Z"/>
      <path class="cls-4" d="m152.42,117.67l.14.98h-.17c-.1-.32-.2-.52-.3-.6s-.31-.12-.63-.12h-.76v2.48c0,.28.01.44.04.49s.07.1.13.14.18.06.37.06v.14h-1.79v-.14c.26,0,.42-.04.49-.12s.11-.27.11-.58v-1.9c0-.25-.01-.41-.04-.49s-.08-.12-.15-.15-.21-.05-.41-.05v-.15h2.96Z"/>
      <path class="cls-4" d="m153.98,120.14l1.55-1.79c0-.2-.04-.34-.11-.42s-.19-.12-.36-.12v-.15h1.66v.15c-.17,0-.29.02-.35.05s-.11.08-.14.13-.05.22-.05.51v1.9c0,.28.01.44.04.49s.07.1.13.14.18.06.37.06v.14h-1.73v-.14c.22,0,.36-.04.43-.12s.11-.27.11-.58v-1.68l-1.55,1.79c0,.22.04.37.09.46s.18.13.37.13v.14h-1.65v-.14c.23,0,.38-.04.45-.13s.1-.27.1-.57v-1.9c0-.28-.01-.44-.04-.49s-.07-.1-.13-.14-.18-.06-.37-.06v-.15h1.73v.15c-.17,0-.29.02-.35.05s-.11.08-.14.13-.05.22-.05.51v1.64Z"/>
      <path class="cls-4" d="m160.18,119.88c-.1.47-.29.83-.57,1.09s-.59.38-.93.38c-.41,0-.76-.17-1.06-.51s-.45-.8-.45-1.38.17-1.02.5-1.37.74-.53,1.21-.53c.35,0,.64.09.87.28s.34.38.34.58c0,.1-.03.18-.1.24s-.15.09-.27.09c-.15,0-.27-.05-.35-.15-.04-.05-.07-.16-.09-.31s-.07-.27-.16-.35c-.09-.08-.22-.12-.38-.12-.26,0-.47.1-.63.29-.21.26-.32.59-.32,1.01s.1.8.31,1.13.49.49.85.49c.26,0,.48-.09.69-.26.14-.12.28-.34.42-.65l.11.05Z"/>
      <path class="cls-4" d="m160.64,117.67h3.09l.16.97h-.18c-.03-.2-.08-.35-.16-.45s-.16-.18-.25-.21-.25-.05-.48-.05h-.31v2.48c0,.27.02.43.05.51s.09.12.16.14.24.04.5.05v.14h-1.95v-.14c.25,0,.41-.05.48-.12s.11-.27.11-.57v-2.48h-.32c-.22,0-.38.01-.46.04s-.16.09-.23.2-.14.26-.19.48h-.18l.15-.97Z"/>
      <path class="cls-4" d="m163.93,118.02l1.1-.45h.15v.84c.19-.31.37-.54.56-.66s.38-.19.59-.19c.36,0,.66.14.9.42.29.34.44.79.44,1.34,0,.62-.18,1.13-.53,1.53-.29.33-.66.5-1.1.5-.19,0-.36-.03-.5-.08-.1-.04-.22-.12-.35-.23v1.09c0,.24.02.4.04.47s.08.12.16.16.21.06.4.06v.14h-1.88v-.14h.1c.14,0,.27-.02.37-.08.05-.03.09-.07.12-.14s.04-.23.04-.49v-3.38c0-.23-.01-.38-.03-.44s-.05-.11-.1-.14-.11-.05-.19-.05c-.06,0-.14.02-.24.05l-.05-.12Zm1.25.62v1.34c0,.29.01.48.04.57.04.15.13.28.27.4s.32.17.54.17c.26,0,.47-.1.63-.3.21-.27.32-.64.32-1.12,0-.55-.12-.97-.36-1.26-.17-.2-.36-.3-.59-.3-.12,0-.25.03-.37.09-.09.05-.25.19-.46.42Z"/>
      <path class="cls-4" d="m170.39,121.35l.36-1.78h-.67v-.32h.73l.27-1.34h-1v-.31h1.07l.36-1.78h.32l-.36,1.78h1.32l.38-1.78h.32l-.37,1.78h.66v.31h-.72l-.27,1.34h1v.32h-1.06l-.36,1.78h-.32l.36-1.78h-1.32l-.37,1.78h-.32Zm.75-2.1h1.32l.28-1.34h-1.33l-.27,1.34Z"/>
    </g>
    <g>
      <path class="cls-4" d="m142.97,159.23v1.54c0,.33.04.54.11.62.1.11.25.17.45.17h.2v.14h-2.27v-.14h.2c.22,0,.38-.07.48-.22.05-.08.08-.27.08-.57v-3.42c0-.33-.04-.54-.11-.62-.1-.11-.25-.17-.45-.17h-.2v-.14h1.94c.47,0,.85.05,1.12.15s.5.26.69.49.28.51.28.82c0,.43-.14.78-.43,1.05s-.69.41-1.21.41c-.13,0-.27,0-.41-.03s-.31-.05-.48-.08Zm0-.22c.14.03.26.05.37.06s.2.02.27.02c.27,0,.5-.1.7-.31s.29-.48.29-.81c0-.23-.05-.44-.14-.64s-.23-.34-.4-.44-.37-.15-.59-.15c-.13,0-.3.02-.51.07v2.2Z"/>
      <path class="cls-4" d="m146.63,159.48c0,.53.13.95.39,1.25s.57.45.92.45c.23,0,.44-.06.61-.19s.32-.35.44-.66l.12.08c-.05.36-.21.68-.48.97s-.59.44-.99.44c-.43,0-.8-.17-1.1-.5s-.46-.78-.46-1.35c0-.61.16-1.09.47-1.43s.71-.51,1.18-.51c.4,0,.73.13.99.4s.39.62.39,1.06h-2.47Zm0-.23h1.66c-.01-.23-.04-.39-.08-.48-.06-.15-.16-.26-.29-.34s-.26-.12-.4-.12c-.22,0-.41.08-.58.25s-.27.4-.3.7Z"/>
      <path class="cls-4" d="m152.42,158.14l.14.98h-.17c-.1-.32-.2-.52-.3-.6s-.31-.12-.63-.12h-.76v2.48c0,.28.01.44.04.49s.07.1.13.14.18.06.37.06v.14h-1.79v-.14c.26,0,.42-.04.49-.12s.11-.27.11-.58v-1.9c0-.25-.01-.41-.04-.49s-.08-.12-.15-.15-.21-.05-.41-.05v-.15h2.96Z"/>
      <path class="cls-4" d="m153.98,160.61l1.55-1.79c0-.2-.04-.34-.11-.42s-.19-.12-.36-.12v-.15h1.66v.15c-.17,0-.29.02-.35.05s-.11.08-.14.13-.05.22-.05.51v1.9c0,.28.01.44.04.49s.07.1.13.14.18.06.37.06v.14h-1.73v-.14c.22,0,.36-.04.43-.12s.11-.27.11-.58v-1.68l-1.55,1.79c0,.22.04.37.09.46s.18.13.37.13v.14h-1.65v-.14c.23,0,.38-.04.45-.13s.1-.27.1-.57v-1.9c0-.28-.01-.44-.04-.49s-.07-.1-.13-.14-.18-.06-.37-.06v-.15h1.73v.15c-.17,0-.29.02-.35.05s-.11.08-.14.13-.05.22-.05.51v1.64Z"/>
      <path class="cls-4" d="m160.18,160.35c-.1.47-.29.83-.57,1.09s-.59.38-.93.38c-.41,0-.76-.17-1.06-.51s-.45-.8-.45-1.38.17-1.02.5-1.37.74-.53,1.21-.53c.35,0,.64.09.87.28s.34.38.34.58c0,.1-.03.18-.1.24s-.15.09-.27.09c-.15,0-.27-.05-.35-.15-.04-.05-.07-.16-.09-.31s-.07-.27-.16-.35c-.09-.08-.22-.12-.38-.12-.26,0-.47.1-.63.29-.21.26-.32.59-.32,1.01s.1.8.31,1.13.49.49.85.49c.26,0,.48-.09.69-.26.14-.12.28-.34.42-.65l.11.05Z"/>
      <path class="cls-4" d="m160.64,158.14h3.09l.16.97h-.18c-.03-.2-.08-.35-.16-.45s-.16-.18-.25-.21-.25-.05-.48-.05h-.31v2.48c0,.27.02.43.05.51s.09.12.16.14.24.04.5.05v.14h-1.95v-.14c.25,0,.41-.05.48-.12s.11-.27.11-.57v-2.48h-.32c-.22,0-.38.01-.46.04s-.16.09-.23.2-.14.26-.19.48h-.18l.15-.97Z"/>
      <path class="cls-4" d="m163.93,158.49l1.1-.45h.15v.84c.19-.31.37-.54.56-.66s.38-.19.59-.19c.36,0,.66.14.9.42.29.34.44.79.44,1.34,0,.62-.18,1.13-.53,1.53-.29.33-.66.5-1.1.5-.19,0-.36-.03-.5-.08-.1-.04-.22-.12-.35-.23v1.09c0,.24.02.4.04.47s.08.12.16.16.21.06.4.06v.14h-1.88v-.14h.1c.14,0,.27-.02.37-.08.05-.03.09-.07.12-.14s.04-.23.04-.49v-3.38c0-.23-.01-.38-.03-.44s-.05-.11-.1-.14-.11-.05-.19-.05c-.06,0-.14.02-.24.05l-.05-.12Zm1.25.62v1.34c0,.29.01.48.04.57.04.15.13.28.27.4s.32.17.54.17c.26,0,.47-.1.63-.3.21-.27.32-.64.32-1.12,0-.55-.12-.97-.36-1.26-.17-.2-.36-.3-.59-.3-.12,0-.25.03-.37.09-.09.05-.25.19-.46.42Z"/>
      <path class="cls-4" d="m170.39,161.82l.36-1.78h-.67v-.32h.73l.27-1.34h-1v-.31h1.07l.36-1.78h.32l-.36,1.78h1.32l.38-1.78h.32l-.37,1.78h.66v.31h-.72l-.27,1.34h1v.32h-1.06l-.36,1.78h-.32l.36-1.78h-1.32l-.37,1.78h-.32Zm.75-2.1h1.32l.28-1.34h-1.33l-.27,1.34Z"/>
    </g>
    <g>
      <path class="cls-4" d="m59.59,149.42c0-.32-.05-.52-.15-.6s-.31-.13-.62-.13v-.14h2.29v.14c-.33.01-.54.06-.63.16s-.14.31-.14.66v3.37c0,.35.05.57.14.66s.3.15.63.16v.14h-2.29v-.14c.34-.01.55-.06.64-.16s.14-.32.14-.66v-3.04l-2.46,3.15c0,.23.02.38.04.46s.09.14.19.18.28.07.53.07v.14h-2.29v-.14c.33-.01.54-.06.63-.16s.14-.31.14-.66v-3.37c0-.35-.05-.57-.14-.66s-.3-.15-.63-.16v-.14h2.29v.14c-.33.01-.54.06-.63.16s-.14.31-.14.66v3.05l2.46-3.14Z"/>
      <path class="cls-4" d="m62.61,151.86h1.55v-.76c0-.23,0-.37-.03-.44s-.06-.13-.13-.18-.2-.07-.38-.07v-.15h1.73v.15c-.16,0-.28.02-.35.05s-.12.09-.15.16-.04.23-.04.48v1.9c0,.23,0,.38.03.45s.07.13.14.18.2.07.37.07v.14h-1.73v-.14c.22,0,.36-.04.43-.12s.11-.27.11-.58v-.89h-1.55v.89c0,.23,0,.38.03.45s.07.13.14.18.2.07.37.07v.14h-1.73v-.14c.23,0,.38-.04.45-.13s.1-.27.1-.57v-1.9c0-.23,0-.38-.03-.45s-.07-.13-.14-.18-.2-.07-.37-.07v-.15h1.73v.15c-.16,0-.28.02-.35.05s-.12.09-.15.16-.04.23-.04.48v.76Z"/>
      <path class="cls-4" d="m68.82,152.48c-.1.47-.29.83-.57,1.09s-.59.38-.93.38c-.41,0-.76-.17-1.06-.51s-.45-.8-.45-1.38.17-1.02.5-1.37.74-.53,1.21-.53c.35,0,.64.09.87.28s.34.38.34.58c0,.1-.03.18-.1.24s-.15.09-.27.09c-.15,0-.27-.05-.35-.15-.04-.05-.07-.16-.09-.31s-.07-.27-.16-.35c-.09-.08-.22-.12-.38-.12-.26,0-.47.1-.63.29-.21.26-.32.59-.32,1.01s.1.8.31,1.13.49.49.85.49c.26,0,.48-.09.69-.26.14-.12.28-.34.42-.65l.11.05Z"/>
      <path class="cls-4" d="m69.27,150.26h3.09l.16.97h-.18c-.03-.2-.08-.35-.16-.45s-.16-.18-.25-.21-.25-.05-.48-.05h-.31v2.48c0,.27.02.43.05.51s.09.12.16.14.24.04.5.05v.14h-1.95v-.14c.25,0,.41-.05.48-.12s.11-.27.11-.57v-2.48h-.32c-.22,0-.38.01-.46.04s-.16.09-.23.2-.14.26-.19.48h-.18l.15-.97Z"/>
      <path class="cls-4" d="m72.57,150.62l1.1-.45h.15v.84c.19-.31.37-.54.56-.66s.38-.19.59-.19c.36,0,.66.14.9.42.29.34.44.79.44,1.34,0,.62-.18,1.13-.53,1.53-.29.33-.66.5-1.1.5-.19,0-.36-.03-.5-.08-.1-.04-.22-.12-.35-.23v1.09c0,.24.02.4.04.47s.08.12.16.16.21.06.4.06v.14h-1.88v-.14h.1c.14,0,.27-.02.37-.08.05-.03.09-.07.12-.14s.04-.23.04-.49v-3.38c0-.23-.01-.38-.03-.44s-.05-.11-.1-.14-.11-.05-.19-.05c-.06,0-.14.02-.24.05l-.05-.12Zm1.25.62v1.34c0,.29.01.48.04.57.04.15.13.28.27.4s.32.17.54.17c.26,0,.47-.1.63-.3.21-.27.32-.64.32-1.12,0-.55-.12-.97-.36-1.26-.17-.2-.36-.3-.59-.3-.12,0-.25.03-.37.09-.09.05-.25.19-.46.42Z"/>
      <path class="cls-4" d="m76.62,150.26h1.67v.14h-.08c-.12,0-.21.03-.26.08s-.09.11-.09.19c0,.1.04.24.13.42l.87,1.8.8-1.98c.04-.11.07-.21.07-.32,0-.05,0-.08-.03-.11-.02-.03-.05-.05-.1-.07s-.12-.03-.23-.03v-.14h1.16v.14c-.1.01-.17.03-.22.06s-.11.09-.17.18c-.02.04-.07.14-.13.3l-1.46,3.57c-.14.35-.32.61-.55.79s-.45.27-.66.27c-.15,0-.28-.04-.38-.13s-.15-.19-.15-.3.04-.2.11-.26.17-.1.29-.1c.09,0,.2.03.35.09.1.04.17.06.2.06.08,0,.16-.04.26-.12s.19-.24.28-.47l.25-.62-1.29-2.7c-.04-.08-.1-.18-.19-.3-.06-.09-.12-.15-.16-.18-.06-.04-.16-.08-.29-.11v-.14Z"/>
      <path class="cls-4" d="m84.41,153.84h-1.05c-.33-.48-.62-.96-.89-1.46-.06-.11-.12-.2-.17-.26s-.12-.08-.21-.08c-.03,0-.08,0-.15,0v.96c0,.26.02.42.04.49s.08.12.16.15.21.05.39.05v.14h-1.79v-.14c.23,0,.38-.04.45-.13s.1-.27.1-.57v-1.9c0-.28-.01-.44-.04-.49s-.07-.1-.13-.14-.18-.06-.37-.06v-.15h1.79v.15c-.22,0-.35.02-.4.05s-.1.07-.14.12-.06.22-.06.53v.7c.06,0,.1,0,.12,0,.16,0,.31-.04.45-.13s.26-.28.37-.57c.1-.28.19-.46.25-.56s.16-.18.28-.24.24-.09.37-.09c.14,0,.25.03.34.1s.12.16.12.27c0,.09-.03.17-.09.23s-.14.1-.25.1c-.06,0-.13-.02-.21-.05-.11-.04-.19-.06-.25-.06-.12,0-.22.1-.3.31-.09.24-.15.39-.2.46s-.12.16-.24.28c.08.02.17.08.26.18s.27.37.53.82c.21.36.36.59.46.69s.25.15.45.15v.14Z"/>
      <path class="cls-4" d="m88.56,153.7v1.14h-.14c0-.3-.11-.55-.3-.72s-.54-.27-1.04-.27h-2.44v-.14c.23,0,.38-.04.45-.13s.1-.27.1-.57v-1.9c0-.28-.01-.44-.04-.49s-.07-.1-.13-.14-.18-.06-.37-.06v-.15h1.73v.15c-.17,0-.29.02-.35.05s-.11.08-.14.13-.05.22-.05.51v2.02c0,.23.02.36.06.4s.17.06.39.06h.63c.24,0,.38-.02.41-.07s.05-.19.05-.43v-1.99c0-.25-.01-.41-.04-.48s-.08-.12-.15-.16-.19-.05-.35-.05v-.15h1.73v.15c-.17,0-.29.02-.35.05s-.11.08-.14.13-.05.22-.05.51v1.84c0,.34.03.54.09.62s.21.12.45.13Z"/>
      <path class="cls-4" d="m90.11,151.86h.45c1.06,0,1.59.32,1.59.98,0,.3-.13.55-.39.73s-.63.28-1.12.28h-1.72v-.14c.23,0,.38-.04.45-.13s.1-.27.1-.57v-1.9c0-.28-.01-.44-.04-.49s-.07-.1-.13-.14-.18-.06-.37-.06v-.15h1.87v.15c-.26,0-.42.02-.48.04s-.11.07-.15.12-.06.22-.06.53v.75Zm0,1.68c.14.04.28.05.41.05.26,0,.47-.07.63-.21s.24-.31.24-.52c0-.5-.35-.75-1.04-.75-.06,0-.14,0-.25,0v1.42Zm2.03-3.12v-.15h1.8v.15c-.16,0-.27.02-.35.05s-.12.09-.15.16-.04.23-.04.48v1.9c0,.24.01.4.04.47s.07.13.15.16.19.06.35.06v.14h-1.8v-.14c.2,0,.34-.02.4-.04s.11-.07.15-.15.06-.25.06-.5v-1.9c0-.25-.01-.42-.04-.49s-.08-.12-.15-.15-.21-.05-.42-.05Z"/>
      <path class="cls-4" d="m95.48,151.86h1.55v-.76c0-.23,0-.37-.03-.44s-.06-.13-.13-.18-.2-.07-.38-.07v-.15h1.73v.15c-.16,0-.28.02-.35.05s-.12.09-.15.16-.04.23-.04.48v1.9c0,.23,0,.38.03.45s.07.13.14.18.2.07.37.07v.14h-1.73v-.14c.22,0,.36-.04.43-.12s.11-.27.11-.58v-.89h-1.55v.89c0,.23,0,.38.03.45s.07.13.14.18.2.07.37.07v.14h-1.73v-.14c.23,0,.38-.04.45-.13s.1-.27.1-.57v-1.9c0-.23,0-.38-.03-.45s-.07-.13-.14-.18-.2-.07-.37-.07v-.15h1.73v.15c-.16,0-.28.02-.35.05s-.12.09-.15.16-.04.23-.04.48v.76Z"/>
      <path class="cls-4" d="m65.62,162.08c-.1.47-.29.83-.57,1.09s-.59.38-.93.38c-.41,0-.76-.17-1.06-.51s-.45-.8-.45-1.38.17-1.02.5-1.37.74-.53,1.21-.53c.35,0,.64.09.87.28s.34.38.34.58c0,.1-.03.18-.1.24s-.15.09-.27.09c-.15,0-.27-.05-.35-.15-.04-.05-.07-.16-.09-.31s-.07-.27-.16-.35c-.09-.08-.22-.12-.38-.12-.26,0-.47.1-.63.29-.21.26-.32.59-.32,1.01s.1.8.31,1.13.49.49.85.49c.26,0,.48-.09.69-.26.14-.12.28-.34.42-.65l.11.05Z"/>
      <path class="cls-4" d="m68.15,162.93c-.37.28-.6.45-.69.49-.14.06-.29.1-.45.1-.25,0-.45-.08-.61-.25s-.24-.39-.24-.67c0-.17.04-.33.12-.45.11-.18.29-.34.56-.5s.7-.35,1.32-.57v-.14c0-.36-.06-.6-.17-.73s-.28-.2-.49-.2c-.16,0-.29.04-.39.13-.1.09-.15.19-.15.3v.23c0,.12-.02.21-.08.28s-.14.1-.24.1-.18-.03-.24-.1-.09-.16-.09-.28c0-.22.11-.43.34-.62s.55-.28.96-.28c.32,0,.58.05.78.16.15.08.27.21.34.38.05.11.07.34.07.69v1.21c0,.34,0,.55.02.63s.03.13.06.15.06.04.1.04c.04,0,.08,0,.11-.03.05-.03.16-.13.32-.29v.22c-.29.39-.57.59-.84.59-.13,0-.23-.04-.3-.13s-.11-.24-.12-.45Zm0-.25v-1.36c-.39.16-.65.27-.76.33-.21.11-.35.23-.44.36s-.13.26-.13.41c0,.19.06.34.17.47s.24.19.39.19c.2,0,.46-.13.78-.39Z"/>
      <path class="cls-4" d="m70.79,161.46h1.55v-.76c0-.23,0-.37-.03-.44s-.06-.13-.13-.18-.2-.07-.38-.07v-.15h1.73v.15c-.16,0-.28.02-.35.05s-.12.09-.15.16-.04.23-.04.48v1.9c0,.23,0,.38.03.45s.07.13.14.18.2.07.37.07v.14h-1.73v-.14c.22,0,.36-.04.43-.12s.11-.27.11-.58v-.89h-1.55v.89c0,.23,0,.38.03.45s.07.13.14.18.2.07.37.07v.14h-1.73v-.14c.23,0,.38-.04.45-.13s.1-.27.1-.57v-1.9c0-.23,0-.38-.03-.45s-.07-.13-.14-.18-.2-.07-.37-.07v-.15h1.73v.15c-.16,0-.28.02-.35.05s-.12.09-.15.16-.04.23-.04.48v.76Z"/>
      <path class="cls-4" d="m75.99,162.93c-.37.28-.6.45-.69.49-.14.06-.29.1-.45.1-.25,0-.45-.08-.61-.25s-.24-.39-.24-.67c0-.17.04-.33.12-.45.11-.18.29-.34.56-.5s.7-.35,1.32-.57v-.14c0-.36-.06-.6-.17-.73s-.28-.2-.49-.2c-.16,0-.29.04-.39.13-.1.09-.15.19-.15.3v.23c0,.12-.02.21-.08.28s-.14.1-.24.1-.18-.03-.24-.1-.09-.16-.09-.28c0-.22.11-.43.34-.62s.55-.28.96-.28c.32,0,.58.05.78.16.15.08.27.21.34.38.05.11.07.34.07.69v1.21c0,.34,0,.55.02.63s.03.13.06.15.06.04.1.04c.04,0,.08,0,.11-.03.05-.03.16-.13.32-.29v.22c-.29.39-.57.59-.84.59-.13,0-.23-.04-.3-.13s-.11-.24-.12-.45Zm0-.25v-1.36c-.39.16-.65.27-.76.33-.21.11-.35.23-.44.36s-.13.26-.13.41c0,.19.06.34.17.47s.24.19.39.19c.2,0,.46-.13.78-.39Z"/>
      <path class="cls-4" d="m77.37,159.86h1.68v.14c-.11,0-.18.02-.22.05s-.06.08-.06.14.05.16.14.29c.03.04.07.11.13.2l.25.41.29-.41c.19-.26.28-.42.28-.49,0-.05-.02-.1-.07-.14s-.12-.06-.21-.06v-.14h1.21v.14c-.13,0-.24.04-.33.11-.13.09-.3.28-.52.58l-.49.65.89,1.28c.22.31.38.5.47.57s.21.1.36.11v.14h-1.69v-.14c.12,0,.21-.03.27-.08.05-.04.07-.08.07-.14s-.08-.21-.25-.45l-.52-.77-.57.77c-.18.24-.27.38-.27.42,0,.06.03.12.09.17s.15.08.26.08v.14h-1.17v-.14c.09-.01.18-.05.25-.1.1-.08.27-.27.5-.58l.75-1-.68-.98c-.19-.28-.34-.46-.45-.53s-.24-.11-.4-.11v-.14Z"/>
      <path class="cls-4" d="m85.26,159.76c.54,0,.98.21,1.3.62.28.35.42.76.42,1.21,0,.32-.08.64-.23.97s-.37.58-.63.74-.57.25-.9.25c-.54,0-.97-.21-1.29-.64-.27-.36-.4-.77-.4-1.22,0-.33.08-.65.24-.98s.38-.56.64-.72.55-.23.84-.23Zm-.12.25c-.14,0-.28.04-.42.12s-.25.23-.34.43-.13.47-.13.79c0,.52.1.97.31,1.35s.48.57.82.57c.25,0,.46-.1.62-.31s.25-.57.25-1.07c0-.64-.14-1.14-.41-1.5-.19-.25-.42-.38-.71-.38Z"/>
      <path class="cls-4" d="m88.63,162.34l1.55-1.79c0-.2-.04-.34-.11-.42s-.19-.12-.36-.12v-.15h1.66v.15c-.17,0-.29.02-.35.05s-.11.08-.14.13-.05.22-.05.51v1.9c0,.28.01.44.04.49s.07.1.13.14.18.06.37.06v.14h-1.73v-.14c.22,0,.36-.04.43-.12s.11-.27.11-.58v-1.68l-1.55,1.79c0,.22.04.37.09.46s.18.13.37.13v.14h-1.65v-.14c.23,0,.38-.04.45-.13s.1-.27.1-.57v-1.9c0-.28-.01-.44-.04-.49s-.07-.1-.13-.14-.18-.06-.37-.06v-.15h1.73v.15c-.17,0-.29.02-.35.05s-.11.08-.14.13-.05.22-.05.51v1.64Zm-.51-3.91c0-.09.03-.16.08-.22s.12-.08.19-.08c.17,0,.32.16.46.48.08.18.16.3.26.34s.19.07.29.07c.16,0,.29-.04.37-.11s.16-.2.23-.38c.11-.27.24-.41.4-.41.08,0,.14.03.2.08s.08.13.08.21c0,.2-.13.39-.39.56s-.56.26-.89.26c-.43,0-.75-.08-.96-.23s-.32-.35-.32-.57Z"/>
    </g>
    <g>
      <path class="cls-4" d="m294.46,144.81c0,.77-.24,1.42-.72,1.96-.5.56-1.13.84-1.89.84s-1.4-.27-1.89-.82c-.46-.53-.7-1.18-.7-1.96,0-.84.29-1.53.86-2.06.5-.46,1.09-.69,1.79-.69.73,0,1.35.28,1.84.83.47.53.71,1.17.71,1.91Zm-.89.13h-3.4c.02.8.2,1.42.55,1.86.28.35.66.53,1.12.53.62,0,1.07-.26,1.36-.78.24-.42.36-.96.36-1.62Zm0-.29c-.03-.65-.15-1.17-.39-1.56-.29-.49-.74-.73-1.33-.73s-1,.25-1.3.75c-.23.4-.36.92-.38,1.54h3.39Z"/>
      <path class="cls-4" d="m297.85,143.91l.14.98h-.17c-.1-.32-.2-.52-.3-.6-.1-.08-.31-.12-.63-.12h-.76v2.48c0,.28.01.44.04.49.03.05.07.1.13.14.06.04.18.06.37.06v.14h-1.79v-.14c.26,0,.42-.04.49-.12.07-.07.11-.27.11-.58v-1.9c0-.25-.01-.41-.04-.49-.03-.07-.08-.12-.15-.15-.07-.03-.21-.05-.41-.05v-.15h2.96Z"/>
      <path class="cls-4" d="m301.77,145.63c0,.33-.08.65-.23.96-.16.34-.37.59-.64.75-.27.17-.57.25-.9.25-.54,0-.97-.21-1.29-.64-.27-.36-.4-.77-.4-1.22,0-.33.08-.65.23-.96.17-.34.38-.58.65-.74s.55-.23.85-.23c.54,0,.98.21,1.3.62.28.35.42.76.42,1.21Zm-.75-.18c-.05-.36-.15-.67-.31-.92-.2-.32-.46-.48-.78-.48-.35,0-.6.19-.75.55-.09.21-.13.48-.13.79v.05h1.97Zm.03.48c0-.05,0-.13,0-.22h-1.98c.03.39.13.74.3,1.04.21.38.48.57.82.57.58,0,.87-.46.87-1.39Z"/>
      <path class="cls-4" d="m305.14,143.91l.14.98h-.17c-.1-.32-.2-.52-.3-.6-.1-.08-.31-.12-.63-.12h-.76v2.48c0,.28.01.44.04.49.03.05.07.1.13.14.06.04.18.06.37.06v.14h-1.79v-.14c.26,0,.42-.04.49-.12.07-.07.11-.27.11-.58v-1.9c0-.25-.01-.41-.04-.49-.03-.07-.08-.12-.15-.15-.07-.03-.21-.05-.41-.05v-.15h2.96Z"/>
      <path class="cls-4" d="m306.07,143.91h3.16v.15c-.18,0-.29.02-.35.05s-.1.08-.14.13c-.03.05-.05.22-.05.51v1.77c0,.37.03.6.1.69.06.08.21.13.45.14v1.14h-.15c0-.21-.06-.4-.16-.56-.09-.16-.23-.27-.4-.34-.17-.06-.42-.1-.75-.1h-.92c-.29,0-.51.03-.67.08-.16.05-.3.16-.4.32-.11.16-.17.36-.2.6h-.14v-1.14c.21,0,.41-.09.58-.25.17-.16.33-.48.46-.95s.2-.94.2-1.39-.2-.68-.61-.69v-.15Zm.86.25v.21c0,1.28-.23,2.23-.7,2.86h1.33c.24,0,.38-.02.41-.06.04-.04.05-.19.05-.45v-2.56h-1.1Z"/>
      <path class="cls-4" d="m310.02,143.91h3.2v.15c-.18,0-.29.02-.35.05s-.1.08-.14.13c-.03.05-.05.22-.05.51v1.9c0,.28.01.44.04.49.03.05.07.1.13.14.06.04.18.06.37.06v.14h-1.85v-.14c.2,0,.34-.01.42-.03.08-.02.14-.07.18-.15.04-.08.07-.25.07-.51v-2.48h-1.19v1.51c0,.57-.03.97-.08,1.2s-.15.4-.3.51c-.15.11-.32.17-.51.17-.33,0-.5-.14-.5-.41,0-.09.03-.17.08-.23.05-.06.12-.09.21-.09.09,0,.18.04.25.11.1.1.18.15.23.15.12,0,.2-.1.26-.29.05-.2.08-.54.08-1.03v-.79c0-.41-.03-.65-.09-.74s-.21-.14-.45-.16v-.15Z"/>
      <path class="cls-4" d="m314.76,146.39l1.55-1.79c0-.2-.04-.34-.11-.42s-.19-.12-.36-.12v-.15h1.66v.15c-.17,0-.29.02-.35.05-.06.04-.11.08-.14.13-.03.05-.05.22-.05.51v1.9c0,.28.01.44.04.49.03.05.07.1.13.14.06.04.18.06.37.06v.14h-1.73v-.14c.22,0,.36-.04.43-.12.07-.08.11-.27.11-.58v-1.68l-1.55,1.79c0,.22.04.37.09.46.06.08.18.13.37.13v.14h-1.65v-.14c.23,0,.38-.04.45-.13.07-.08.1-.27.1-.57v-1.9c0-.28-.01-.44-.04-.49-.03-.05-.07-.1-.13-.14-.06-.04-.18-.06-.37-.06v-.15h1.73v.15c-.17,0-.29.02-.35.05-.06.04-.11.08-.14.13-.03.05-.05.22-.05.51v1.64Z"/>
      <path class="cls-4" d="m319.04,146.39l1.55-1.79c0-.2-.04-.34-.11-.42s-.19-.12-.36-.12v-.15h1.66v.15c-.17,0-.29.02-.35.05-.06.04-.11.08-.14.13-.03.05-.05.22-.05.51v1.9c0,.28.01.44.04.49.03.05.07.1.13.14.06.04.18.06.37.06v.14h-1.73v-.14c.22,0,.36-.04.43-.12.07-.08.11-.27.11-.58v-1.68l-1.55,1.79c0,.22.04.37.09.46.06.08.18.13.37.13v.14h-1.65v-.14c.23,0,.38-.04.45-.13.07-.08.1-.27.1-.57v-1.9c0-.28-.01-.44-.04-.49-.03-.05-.07-.1-.13-.14-.06-.04-.18-.06-.37-.06v-.15h1.73v.15c-.17,0-.29.02-.35.05-.06.04-.11.08-.14.13-.03.05-.05.22-.05.51v1.64Zm-.51-3.91c0-.09.03-.16.08-.22s.12-.08.19-.08c.17,0,.32.16.46.48.08.18.16.3.26.34s.19.07.29.07c.16,0,.29-.04.37-.11.08-.07.16-.2.23-.38.11-.27.24-.41.4-.41.08,0,.14.03.2.08s.08.13.08.21c0,.2-.13.39-.39.56-.26.17-.56.26-.89.26-.43,0-.75-.08-.96-.23-.21-.16-.32-.35-.32-.57Z"/>
      <path class="cls-4" d="m323.32,145.51h1.55v-.76c0-.23,0-.37-.03-.44-.02-.07-.06-.13-.13-.18-.07-.05-.2-.07-.38-.07v-.15h1.73v.15c-.16,0-.28.02-.35.05s-.12.09-.15.16c-.03.07-.04.23-.04.48v1.9c0,.23,0,.38.03.45s.07.13.14.18c.08.05.2.07.37.07v.14h-1.73v-.14c.22,0,.36-.04.43-.12.07-.08.11-.27.11-.58v-.89h-1.55v.89c0,.23,0,.38.03.45s.07.13.14.18c.08.05.2.07.37.07v.14h-1.73v-.14c.23,0,.38-.04.45-.13.07-.08.1-.27.1-.57v-1.9c0-.23,0-.38-.03-.45s-.07-.13-.14-.18c-.08-.04-.2-.07-.37-.07v-.15h1.73v.15c-.16,0-.28.02-.35.05s-.12.09-.15.16c-.03.07-.04.23-.04.48v.76Z"/>
      <path class="cls-4" d="m296.3,155.73c-.1.47-.29.83-.57,1.09s-.59.38-.93.38c-.41,0-.76-.17-1.06-.51-.3-.34-.45-.8-.45-1.38s.17-1.02.5-1.37c.33-.35.74-.53,1.21-.53.35,0,.64.09.87.28s.34.38.34.58c0,.1-.03.18-.1.24-.06.06-.15.09-.27.09-.15,0-.27-.05-.35-.15-.04-.05-.07-.16-.09-.31-.01-.15-.07-.27-.16-.35-.09-.08-.22-.12-.38-.12-.26,0-.47.1-.63.29-.21.26-.32.59-.32,1.01s.11.8.31,1.13c.21.33.49.49.85.49.26,0,.48-.09.69-.26.14-.12.28-.34.42-.65l.11.05Z"/>
      <path class="cls-4" d="m298.83,156.57c-.37.28-.6.45-.69.49-.14.06-.29.1-.45.1-.25,0-.45-.08-.61-.25s-.24-.39-.24-.67c0-.17.04-.33.12-.45.11-.18.29-.34.56-.5.26-.16.7-.35,1.32-.57v-.14c0-.36-.06-.6-.17-.73s-.28-.2-.49-.2c-.16,0-.29.04-.39.13-.1.09-.15.19-.15.3v.23c0,.12-.02.21-.08.28-.06.06-.14.1-.24.1s-.17-.03-.24-.1c-.06-.07-.09-.16-.09-.28,0-.22.12-.43.34-.62.23-.19.55-.28.96-.28.32,0,.58.05.78.16.15.08.27.21.34.38.05.11.07.34.07.69v1.21c0,.34,0,.55.02.63.01.08.04.13.06.15.03.03.06.04.1.04.04,0,.08,0,.11-.03.05-.03.16-.13.32-.29v.22c-.29.39-.57.59-.84.59-.13,0-.23-.04-.3-.13-.08-.09-.11-.24-.12-.45Zm0-.25v-1.36c-.39.16-.65.27-.76.33-.21.11-.35.23-.44.36-.09.12-.13.26-.13.41,0,.19.06.34.17.47.11.12.24.19.39.19.2,0,.46-.13.78-.39Z"/>
      <path class="cls-4" d="m301.48,155.11h1.55v-.76c0-.23,0-.37-.03-.44-.02-.07-.06-.13-.13-.18-.07-.05-.2-.07-.38-.07v-.15h1.73v.15c-.16,0-.28.02-.35.05s-.12.09-.15.16c-.03.07-.04.23-.04.48v1.9c0,.23,0,.38.03.45s.07.13.14.18c.08.05.2.07.37.07v.14h-1.73v-.14c.22,0,.36-.04.43-.12.07-.08.11-.27.11-.58v-.89h-1.55v.89c0,.23,0,.38.03.45s.07.13.14.18c.08.05.2.07.37.07v.14h-1.73v-.14c.23,0,.38-.04.45-.13.07-.08.1-.27.1-.57v-1.9c0-.23,0-.38-.03-.45s-.07-.13-.14-.18c-.08-.04-.2-.07-.37-.07v-.15h1.73v.15c-.16,0-.28.02-.35.05s-.12.09-.15.16c-.03.07-.04.23-.04.48v.76Z"/>
      <path class="cls-4" d="m306.67,156.57c-.37.28-.6.45-.69.49-.14.06-.29.1-.45.1-.25,0-.45-.08-.61-.25s-.24-.39-.24-.67c0-.17.04-.33.12-.45.11-.18.29-.34.56-.5.26-.16.7-.35,1.32-.57v-.14c0-.36-.06-.6-.17-.73s-.28-.2-.49-.2c-.16,0-.29.04-.39.13-.1.09-.15.19-.15.3v.23c0,.12-.02.21-.08.28-.06.06-.14.1-.24.1s-.17-.03-.24-.1c-.06-.07-.09-.16-.09-.28,0-.22.12-.43.34-.62.23-.19.55-.28.96-.28.32,0,.58.05.78.16.15.08.27.21.34.38.05.11.07.34.07.69v1.21c0,.34,0,.55.02.63.01.08.04.13.06.15.03.03.06.04.1.04.04,0,.08,0,.11-.03.05-.03.16-.13.32-.29v.22c-.29.39-.57.59-.84.59-.13,0-.23-.04-.3-.13-.08-.09-.11-.24-.12-.45Zm0-.25v-1.36c-.39.16-.65.27-.76.33-.21.11-.35.23-.44.36-.09.12-.13.26-.13.41,0,.19.06.34.17.47.11.12.24.19.39.19.2,0,.46-.13.78-.39Z"/>
      <path class="cls-4" d="m308.05,153.51h1.68v.14c-.11,0-.18.02-.22.05s-.06.08-.06.14.05.16.14.29c.03.04.07.11.13.2l.25.41.29-.41c.19-.26.28-.42.28-.49,0-.05-.02-.1-.07-.14-.04-.04-.12-.06-.21-.06v-.14h1.21v.14c-.13,0-.24.04-.33.11-.13.09-.3.28-.52.58l-.49.65.89,1.28c.22.31.38.5.47.57s.21.1.36.11v.14h-1.69v-.14c.12,0,.21-.03.27-.08.05-.04.07-.08.07-.14s-.08-.21-.25-.45l-.52-.77-.57.77c-.18.24-.27.38-.27.42,0,.06.03.12.09.17s.15.08.26.08v.14h-1.17v-.14c.09-.01.18-.05.25-.1.1-.08.27-.27.5-.58l.75-1-.68-.98c-.19-.28-.34-.46-.45-.53s-.24-.11-.4-.11v-.14Z"/>
      <path class="cls-4" d="m315.94,153.41c.54,0,.98.21,1.3.62.28.35.42.76.42,1.21,0,.32-.08.64-.23.97-.15.33-.37.58-.63.74s-.57.25-.9.25c-.54,0-.97-.21-1.29-.64-.27-.36-.4-.77-.4-1.22,0-.33.08-.65.24-.98.16-.32.38-.56.64-.72s.55-.23.84-.23Zm-.12.25c-.14,0-.28.04-.42.12-.14.08-.25.23-.34.43s-.13.47-.13.79c0,.52.1.97.31,1.35s.48.57.82.57c.25,0,.46-.1.62-.31s.25-.57.25-1.07c0-.64-.14-1.14-.41-1.5-.18-.25-.42-.38-.71-.38Z"/>
      <path class="cls-4" d="m319.31,155.99l1.55-1.79c0-.2-.04-.34-.11-.42s-.19-.12-.36-.12v-.15h1.66v.15c-.17,0-.29.02-.35.05-.06.04-.11.08-.14.13-.03.05-.05.22-.05.51v1.9c0,.28.01.44.04.49.03.05.07.1.13.14.06.04.18.06.37.06v.14h-1.73v-.14c.22,0,.36-.04.43-.12.07-.08.11-.27.11-.58v-1.68l-1.55,1.79c0,.22.04.37.09.46.06.08.18.13.37.13v.14h-1.65v-.14c.23,0,.38-.04.45-.13.07-.08.1-.27.1-.57v-1.9c0-.28-.01-.44-.04-.49-.03-.05-.07-.1-.13-.14-.06-.04-.18-.06-.37-.06v-.15h1.73v.15c-.17,0-.29.02-.35.05-.06.04-.11.08-.14.13-.03.05-.05.22-.05.51v1.64Zm-.51-3.91c0-.09.03-.16.08-.22s.12-.08.19-.08c.17,0,.32.16.46.48.08.18.16.3.26.34s.19.07.29.07c.16,0,.29-.04.37-.11.08-.07.16-.2.23-.38.11-.27.24-.41.4-.41.08,0,.14.03.2.08s.08.13.08.21c0,.2-.13.39-.39.56-.26.17-.56.26-.89.26-.43,0-.75-.08-.96-.23-.21-.16-.32-.35-.32-.57Z"/>
    </g>
  </g>
</svg>