<?xml version="1.0" encoding="UTF-8"?>
<svg id="Layer_1" data-name="Layer 1" xmlns="http://www.w3.org/2000/svg" viewBox="0 0 326.83 204.03">
  <defs>
    <style>
      .cls-1 {
        fill: #00aeef;
      }

      .cls-2 {
        stroke: #00aeef;
      }

      .cls-2, .cls-3 {
        fill: none;
        stroke-width: .47px;
      }

      .cls-3 {
        stroke: #231f20;
      }

      .cls-4 {
        fill: #231f20;
      }
    </style>
  </defs>
  <rect class="cls-3" x="3.24" y="95.7" width="18.08" height="95.46"/>
  <rect class="cls-2" x="99.79" y=".24" width="18.08" height="95.46"/>
  <g>
    <path class="cls-1" d="m109.82,9.98v.14c-.13,0-.24.02-.32.07s-.16.13-.23.26c-.05.09-.13.29-.23.62l-1.4,4.06h-.15l-1.14-3.22-1.14,3.22h-.13l-1.49-4.18c-.11-.31-.18-.5-.21-.55-.05-.09-.12-.16-.2-.21-.09-.05-.2-.07-.35-.07v-.14h1.86v.14h-.09c-.13,0-.23.03-.3.09-.07.06-.1.13-.1.22s.05.29.16.6l.99,2.82.83-2.4-.15-.42-.12-.34c-.05-.12-.11-.23-.17-.33-.03-.05-.07-.09-.12-.12-.06-.04-.12-.08-.19-.1-.05-.01-.12-.02-.22-.02v-.14h1.96v.14h-.13c-.14,0-.24.03-.3.09-.06.06-.1.14-.1.24,0,.13.06.35.17.66l.96,2.73.96-2.77c.11-.31.16-.52.16-.64,0-.06-.02-.11-.05-.16s-.08-.08-.14-.1c-.09-.03-.22-.05-.37-.05v-.14h1.5Z"/>
    <path class="cls-1" d="m113.38,12.45c.35.07.61.19.78.36.24.23.36.51.36.83,0,.25-.08.49-.24.72-.16.23-.37.4-.65.5-.28.1-.7.16-1.26.16h-2.37v-.14h.19c.21,0,.36-.07.45-.2.06-.09.09-.27.09-.55v-3.25c0-.31-.04-.51-.11-.59-.1-.11-.24-.16-.43-.16h-.19v-.14h2.17c.4,0,.73.03.97.09.37.09.65.25.85.47.19.23.29.49.29.78,0,.25-.08.48-.23.68-.15.2-.38.35-.68.44Zm-1.94-.2c.09.02.2.03.31.04.12,0,.25.01.39.01.36,0,.63-.04.81-.12.18-.08.32-.2.42-.36s.14-.34.14-.53c0-.29-.12-.55-.36-.75s-.59-.31-1.05-.31c-.25,0-.47.03-.67.08v1.93Zm0,2.4c.29.07.57.1.85.1.45,0,.79-.1,1.02-.3s.35-.45.35-.75c0-.2-.05-.38-.16-.56-.11-.18-.28-.32-.52-.43-.24-.1-.54-.16-.89-.16-.15,0-.28,0-.39,0-.11,0-.2.01-.26.03v2.06Z"/>
  </g>
  <path class="cls-1" d="m108.78,48.1l-1.94-4.23v3.36c0,.31.03.5.1.58.09.1.24.16.43.16h.18v.14h-1.75v-.14h.18c.21,0,.36-.06.45-.19.05-.08.08-.26.08-.54v-3.29c0-.22-.02-.38-.07-.48-.03-.07-.1-.13-.19-.18-.09-.05-.24-.07-.45-.07v-.14h1.42l1.82,3.94,1.79-3.94h1.42v.14h-.17c-.21,0-.37.06-.46.19-.05.08-.08.26-.08.54v3.29c0,.31.03.5.1.58.09.1.24.16.43.16h.17v.14h-2.13v-.14h.18c.21,0,.37-.06.45-.19.05-.08.08-.26.08-.54v-3.36l-1.94,4.23h-.12Z"/>
  <g>
    <path class="cls-1" d="m105.36,73.91v1.99h1.1c.29,0,.48-.04.57-.13.13-.11.2-.31.21-.6h.14v1.75h-.14c-.03-.24-.07-.4-.1-.47-.04-.09-.12-.15-.22-.2-.1-.05-.26-.07-.47-.07h-1.1v1.66c0,.22,0,.36.03.41.02.05.05.09.1.11.05.03.14.04.28.04h.85c.28,0,.49-.02.62-.06s.25-.12.37-.23c.15-.15.31-.38.47-.69h.15l-.43,1.26h-3.87v-.14h.18c.12,0,.23-.03.34-.09.08-.04.13-.1.16-.18s.04-.24.04-.49v-3.27c0-.32-.03-.52-.1-.59-.09-.1-.24-.15-.44-.15h-.18v-.14h3.87l.06,1.1h-.14c-.05-.26-.11-.45-.17-.55-.06-.1-.16-.17-.28-.23-.1-.04-.27-.06-.52-.06h-1.38Z"/>
    <path class="cls-1" d="m111.5,75.88l1.08,1.61c.3.45.52.73.66.84.14.12.33.18.55.19v.14h-2.15v-.14c.14,0,.25-.02.32-.04.05-.02.09-.06.13-.1.03-.05.05-.09.05-.14,0-.06-.01-.11-.03-.17-.02-.04-.09-.15-.2-.33l-.85-1.29-1.05,1.35c-.11.14-.18.24-.2.29-.02.05-.03.1-.03.15,0,.08.03.14.1.2.07.05.19.08.38.09v.14h-1.78v-.14c.13-.01.23-.04.33-.08.15-.06.3-.15.44-.26.14-.11.3-.28.47-.5l1.18-1.5-.99-1.45c-.27-.39-.5-.65-.69-.77-.19-.12-.4-.19-.65-.19v-.14h2.32v.14c-.2,0-.33.04-.41.1-.07.06-.11.12-.11.19,0,.09.06.23.18.4l.77,1.15.89-1.13c.1-.13.17-.23.19-.27s.04-.1.04-.15-.01-.1-.04-.14c-.04-.05-.08-.09-.14-.11s-.17-.03-.35-.04v-.14h1.78v.14c-.14,0-.26.03-.34.07-.13.06-.26.13-.37.23-.11.1-.27.27-.47.53l-1,1.28Z"/>
  </g>
  <path class="cls-2" d="m99.66,62.29h18.32m-18.13-42.83h18.13"/>
  <rect class="cls-3" x="99.79" y="95.7" width="18.08" height="95.46"/>
  <rect class="cls-2" x="193.61" y="28.87" width="18.08" height="66.82"/>
  <g>
    <path class="cls-1" d="m203.64,42.13v.14c-.13,0-.24.02-.32.07s-.16.13-.23.26c-.05.09-.13.29-.23.62l-1.4,4.06h-.15l-1.14-3.22-1.14,3.22h-.13l-1.49-4.18c-.11-.31-.18-.5-.21-.55-.05-.09-.12-.16-.2-.21-.09-.05-.2-.07-.35-.07v-.14h1.86v.14h-.09c-.13,0-.23.03-.3.09-.07.06-.1.13-.1.22s.05.29.16.6l.99,2.82.83-2.4-.15-.42-.12-.34c-.05-.12-.11-.23-.17-.33-.03-.05-.07-.09-.12-.12-.06-.04-.12-.08-.19-.1-.05-.01-.12-.02-.22-.02v-.14h1.96v.14h-.13c-.14,0-.24.03-.3.09-.06.06-.1.14-.1.24,0,.13.06.35.17.66l.96,2.73.96-2.77c.11-.31.16-.52.16-.64,0-.06-.02-.11-.05-.16s-.08-.08-.14-.1c-.09-.03-.22-.05-.37-.05v-.14h1.5Z"/>
    <path class="cls-1" d="m207.2,44.59c.35.07.61.19.78.36.24.23.36.51.36.83,0,.25-.08.49-.24.72-.16.23-.37.4-.65.5-.28.1-.7.16-1.26.16h-2.37v-.14h.19c.21,0,.36-.07.45-.2.06-.09.09-.27.09-.55v-3.25c0-.31-.04-.51-.11-.59-.1-.11-.24-.16-.43-.16h-.19v-.14h2.17c.4,0,.73.03.97.09.37.09.65.25.85.47.19.23.29.49.29.78,0,.25-.08.48-.23.68-.15.2-.38.35-.68.44Zm-1.94-.2c.09.02.2.03.31.04.12,0,.25.01.39.01.36,0,.63-.04.81-.12.18-.08.32-.2.42-.36s.14-.34.14-.53c0-.29-.12-.55-.36-.75s-.59-.31-1.05-.31c-.25,0-.47.03-.67.08v1.93Zm0,2.4c.29.07.57.1.85.1.45,0,.79-.1,1.02-.3s.35-.45.35-.75c0-.2-.05-.38-.16-.56-.11-.18-.28-.32-.52-.43-.24-.1-.54-.16-.89-.16-.15,0-.28,0-.39,0-.11,0-.2.01-.26.03v2.06Z"/>
  </g>
  <path class="cls-1" d="m202.6,80.57l-1.94-4.23v3.36c0,.31.03.5.1.58.09.1.24.16.43.16h.18v.14h-1.75v-.14h.18c.21,0,.36-.06.45-.19.05-.08.08-.26.08-.54v-3.29c0-.22-.02-.38-.07-.48-.03-.07-.1-.13-.19-.18-.09-.05-.24-.07-.45-.07v-.14h1.42l1.82,3.94,1.79-3.94h1.42v.14h-.17c-.21,0-.37.06-.46.19-.05.08-.08.26-.08.54v3.29c0,.31.03.5.1.58.09.1.24.16.43.16h.17v.14h-2.13v-.14h.18c.21,0,.37-.06.45-.19.05-.08.08-.26.08-.54v-3.36l-1.94,4.23h-.12Z"/>
  <line class="cls-2" x1="193.49" y1="62.28" x2="211.81" y2="62.28"/>
  <rect class="cls-3" x="193.61" y="95.7" width="18.08" height="95.46"/>
  <rect class="cls-2" x="287.31" y="62.28" width="18.08" height="33.42"/>
  <g>
    <path class="cls-1" d="m297.34,75.54v.14c-.13,0-.24.02-.32.07-.08.05-.16.13-.23.26-.05.09-.13.29-.23.62l-1.4,4.06h-.15l-1.14-3.22-1.14,3.22h-.13l-1.49-4.18c-.11-.31-.18-.5-.21-.55-.05-.09-.12-.16-.2-.21-.08-.05-.2-.07-.35-.07v-.14h1.86v.14h-.09c-.13,0-.23.03-.3.09-.07.06-.1.13-.1.22s.05.29.16.6l.99,2.82.83-2.4-.15-.42-.12-.34c-.05-.12-.11-.23-.17-.33-.03-.05-.07-.09-.12-.12-.06-.04-.12-.08-.19-.1-.05-.01-.12-.02-.22-.02v-.14h1.95v.14h-.13c-.14,0-.24.03-.3.09s-.1.14-.1.24c0,.13.06.35.17.66l.96,2.73.96-2.77c.11-.31.16-.52.16-.64,0-.06-.02-.11-.05-.16-.04-.05-.08-.08-.14-.1-.09-.03-.22-.05-.37-.05v-.14h1.5Z"/>
    <path class="cls-1" d="m300.9,78c.35.07.61.19.78.36.24.23.36.51.36.83,0,.25-.08.49-.24.72s-.37.4-.65.5-.7.16-1.26.16h-2.37v-.14h.19c.21,0,.36-.07.45-.2.06-.09.08-.27.08-.55v-3.25c0-.31-.04-.51-.11-.59-.1-.11-.24-.16-.43-.16h-.19v-.14h2.17c.41,0,.73.03.97.09.37.09.65.25.85.47.2.23.29.49.29.78,0,.25-.08.48-.23.68s-.38.35-.68.44Zm-1.94-.2c.09.02.2.03.31.04.12,0,.25.01.39.01.36,0,.63-.04.81-.12.18-.08.32-.2.42-.36.1-.16.14-.34.14-.53,0-.29-.12-.55-.36-.75s-.59-.31-1.05-.31c-.25,0-.47.03-.67.08v1.93Zm0,2.4c.29.07.57.1.85.1.45,0,.79-.1,1.02-.3s.35-.45.35-.75c0-.2-.05-.38-.16-.56-.11-.18-.28-.32-.52-.43-.24-.1-.54-.16-.89-.16-.15,0-.28,0-.39,0-.11,0-.2.01-.26.03v2.06Z"/>
  </g>
  <rect class="cls-3" x="287.31" y="95.7" width="18.08" height="95.46"/>
  <path class="cls-2" d="m75.54,46.47c0,23.09-8.8,41.8-19.64,41.8s-19.64-18.71-19.64-41.8S45.04,4.67,55.89,4.67s19.64,18.72,19.64,41.8Z"/>
  <g>
    <path class="cls-1" d="m46.98,45.45l.11,1.71h-.11c-.15-.51-.37-.88-.66-1.11-.28-.23-.62-.34-1.02-.34-.33,0-.63.08-.9.25s-.48.44-.63.81c-.15.37-.23.83-.23,1.38,0,.46.07.85.22,1.18s.36.59.66.77c.29.18.63.27,1,.27.33,0,.61-.07.86-.21.25-.14.52-.42.82-.83l.11.07c-.25.45-.55.78-.88.98-.34.21-.73.31-1.2.31-.83,0-1.48-.31-1.93-.93-.34-.46-.51-1-.51-1.63,0-.5.11-.96.34-1.38s.53-.75.93-.98c.39-.23.82-.35,1.29-.35.36,0,.72.09,1.07.27.1.05.18.08.22.08.07,0,.12-.02.17-.07.06-.07.11-.16.14-.28h.13Z"/>
    <path class="cls-1" d="m49.37,47.1c.51,0,.93.2,1.24.59.26.33.4.72.4,1.15,0,.3-.07.61-.22.92-.15.31-.35.55-.6.71-.26.16-.54.24-.85.24-.51,0-.92-.2-1.22-.61-.25-.34-.38-.73-.38-1.16,0-.31.08-.62.23-.93s.36-.54.61-.68c.25-.15.52-.22.8-.22Zm-.11.24c-.13,0-.26.04-.39.12-.13.08-.24.21-.32.41-.08.2-.12.45-.12.75,0,.5.1.92.29,1.28.2.36.45.54.78.54.24,0,.44-.1.59-.3.16-.2.23-.54.23-1.02,0-.6-.13-1.08-.39-1.42-.18-.24-.4-.36-.67-.36Z"/>
    <path class="cls-1" d="m52.49,47.82c.4-.48.78-.72,1.14-.72.19,0,.34.05.48.14s.24.25.32.46c.05.15.08.38.08.68v1.45c0,.22.02.36.05.44.03.06.07.11.13.14s.17.05.34.05v.13h-1.68v-.13h.07c.16,0,.27-.02.33-.07.06-.05.11-.12.13-.21,0-.04.01-.15.01-.35v-1.39c0-.31-.04-.53-.12-.67-.08-.14-.22-.21-.41-.21-.29,0-.59.16-.88.48v1.79c0,.23.01.37.04.43.03.07.08.12.14.16.06.03.18.05.37.05v.13h-1.68v-.13h.07c.17,0,.29-.04.35-.13s.09-.26.09-.5v-1.26c0-.41,0-.66-.03-.75-.02-.09-.05-.15-.09-.18-.04-.03-.09-.05-.15-.05-.07,0-.15.02-.25.06l-.06-.13,1.02-.42h.16v.72Z"/>
    <path class="cls-1" d="m56.27,46.08v1.12h.79v.26h-.79v2.2c0,.22.03.37.09.45s.14.11.24.11c.08,0,.16-.02.24-.08s.14-.13.18-.22h.14c-.09.24-.21.42-.37.55-.16.12-.32.18-.49.18-.11,0-.22-.03-.33-.09s-.19-.15-.24-.27c-.05-.12-.08-.3-.08-.54v-2.29h-.54v-.12c.14-.05.27-.15.42-.28.14-.13.27-.28.38-.46.06-.09.14-.27.24-.52h.11Z"/>
    <path class="cls-1" d="m58.39,47.1v.76c.28-.51.58-.76.87-.76.14,0,.25.04.34.12s.13.18.13.29c0,.1-.03.18-.1.24-.06.07-.14.1-.23.1s-.18-.04-.29-.13c-.11-.08-.19-.13-.24-.13-.04,0-.09.02-.14.07-.11.1-.23.27-.34.5v1.63c0,.19.02.33.07.43.03.07.09.12.17.17.08.04.2.07.35.07v.13h-1.74v-.13c.17,0,.3-.03.39-.08.06-.04.1-.1.13-.19.01-.04.02-.16.02-.36v-1.32c0-.4,0-.63-.02-.71-.02-.08-.05-.13-.09-.17-.04-.03-.1-.05-.16-.05-.08,0-.16.02-.26.06l-.04-.13,1.03-.42h.16Z"/>
    <path class="cls-1" d="m61.58,47.1c.51,0,.93.2,1.24.59.26.33.4.72.4,1.15,0,.3-.07.61-.22.92-.15.31-.35.55-.6.71-.26.16-.54.24-.85.24-.51,0-.92-.2-1.22-.61-.25-.34-.38-.73-.38-1.16,0-.31.08-.62.23-.93s.36-.54.61-.68c.25-.15.52-.22.8-.22Zm-.11.24c-.13,0-.26.04-.39.12-.13.08-.24.21-.32.41-.08.2-.12.45-.12.75,0,.5.1.92.29,1.28.2.36.45.54.78.54.24,0,.44-.1.59-.3.16-.2.23-.54.23-1.02,0-.6-.13-1.08-.39-1.42-.18-.24-.4-.36-.67-.36Z"/>
    <path class="cls-1" d="m64.88,45.32v4.51c0,.21.02.35.05.42s.08.12.14.16c.06.04.18.05.36.05v.13h-1.66v-.13c.16,0,.26-.02.32-.05.06-.03.1-.09.13-.16.03-.07.05-.22.05-.43v-3.09c0-.38,0-.62-.03-.71-.02-.09-.04-.15-.08-.18-.04-.03-.09-.05-.15-.05-.06,0-.15.02-.24.06l-.06-.13,1.01-.42h.17Z"/>
  </g>
  <line class="cls-2" x1="63.65" y1="8.29" x2="96.19" y2="8.29"/>
  <path class="cls-1" d="m96.93,7.69c-.98-.3-1.62-.57-2.4-.89v2.99c.28-.13,1.42-.59,2.4-.89,1.05-.32,2-.53,2.61-.61-.62-.08-1.57-.29-2.61-.61"/>
  <line class="cls-2" x1="71.37" y1="19.41" x2="96.17" y2="19.41"/>
  <path class="cls-1" d="m96.93,18.81c-.98-.3-1.62-.57-2.4-.88v2.99c.28-.13,1.42-.59,2.4-.89,1.05-.32,2-.53,2.61-.61-.62-.08-1.57-.29-2.61-.61"/>
  <line class="cls-2" x1="74.65" y1="33.97" x2="96.4" y2="33.97"/>
  <path class="cls-1" d="m96.93,33.37c-.98-.3-1.62-.57-2.4-.88v2.99c.28-.13,1.42-.59,2.4-.89,1.05-.32,2-.54,2.61-.61-.62-.08-1.57-.3-2.61-.61"/>
  <line class="cls-2" x1="75.58" y1="45.11" x2="95.93" y2="45.11"/>
  <path class="cls-1" d="m96.93,44.5c-.98-.3-1.62-.57-2.4-.88v2.99c.28-.13,1.42-.59,2.4-.89,1.05-.32,2-.53,2.61-.61-.62-.08-1.57-.29-2.61-.61"/>
  <line class="cls-2" x1="75.11" y1="56.24" x2="96.16" y2="56.24"/>
  <path class="cls-1" d="m96.93,55.64c-.98-.3-1.62-.57-2.4-.88v2.99c.28-.13,1.42-.59,2.4-.89,1.05-.32,2-.53,2.61-.61-.62-.08-1.57-.29-2.61-.61"/>
  <line class="cls-2" x1="73.48" y1="65.97" x2="95.93" y2="65.97"/>
  <path class="cls-1" d="m97.33,65.37c-.98-.3-1.62-.57-2.4-.89v3c.28-.13,1.42-.59,2.4-.89,1.05-.32,2-.54,2.61-.61-.62-.08-1.57-.3-2.61-.61"/>
  <line class="cls-2" x1="70.9" y1="72.93" x2="95.93" y2="72.93"/>
  <path class="cls-1" d="m97.33,72.32c-.98-.3-1.62-.57-2.4-.88v2.99c.28-.13,1.42-.59,2.4-.89,1.05-.32,2-.53,2.61-.61-.62-.08-1.57-.3-2.61-.61"/>
  <line class="cls-2" x1="67.86" y1="80.24" x2="95.93" y2="80.24"/>
  <path class="cls-1" d="m97.33,79.63c-.98-.3-1.62-.57-2.4-.88v2.99c.28-.13,1.42-.59,2.4-.89,1.05-.32,2-.54,2.61-.61-.62-.08-1.57-.3-2.61-.61"/>
  <line class="cls-2" x1="60.14" y1="87.31" x2="95.68" y2="87.31"/>
  <path class="cls-1" d="m97.08,86.71c-.98-.3-1.62-.57-2.4-.88v2.99c.28-.13,1.42-.59,2.4-.89,1.05-.32,2-.54,2.61-.61-.62-.08-1.57-.3-2.61-.61"/>
  <polyline class="cls-2" points="117.91 8.31 180.35 8.31 180.35 39.37 189.71 39.37"/>
  <path class="cls-1" d="m191.11,38.77c-.98-.3-1.62-.57-2.4-.88v2.99c.28-.13,1.42-.59,2.4-.89,1.05-.32,2-.54,2.61-.61-.62-.08-1.57-.3-2.61-.61"/>
  <polyline class="cls-2" points="117.68 19.47 174.97 19.47 174.97 49.25 189.71 49.25"/>
  <path class="cls-1" d="m191.11,48.65c-.98-.3-1.62-.57-2.4-.88v2.99c.28-.13,1.42-.59,2.4-.89,1.05-.32,2-.53,2.61-.61-.62-.08-1.57-.29-2.61-.61"/>
  <polyline class="cls-2" points="117.91 35.38 168.89 35.38 168.89 68.46 189.47 68.46"/>
  <path class="cls-1" d="m190.88,67.86c-.98-.3-1.62-.57-2.4-.88v2.99c.28-.13,1.42-.59,2.4-.88,1.05-.32,2-.54,2.61-.61-.62-.08-1.57-.3-2.61-.61"/>
  <polyline class="cls-2" points="117.91 45.7 164.92 45.7 164.92 78.08 189.94 78.08"/>
  <path class="cls-1" d="m191.34,77.47c-.98-.3-1.62-.57-2.4-.89v3c.28-.13,1.42-.59,2.4-.89,1.05-.32,2-.53,2.61-.61-.62-.08-1.57-.29-2.61-.61"/>
  <polyline class="cls-2" points="117.68 55.31 160.71 55.31 160.71 88.39 189.71 88.39"/>
  <path class="cls-1" d="m191.11,87.79c-.98-.3-1.62-.57-2.4-.88v2.99c.28-.13,1.42-.59,2.4-.89,1.05-.32,2-.53,2.61-.61-.62-.08-1.57-.29-2.61-.61"/>
  <path class="cls-2" d="m117.67,87.33h13.33m-13.14-7.07h13.14m-12.86-7.31h12.86m-12.86-6.96h12.86"/>
  <path class="cls-1" d="m134.4,65.99c0,.23-.19.42-.41.42s-.41-.18-.41-.42.18-.41.41-.41.41.18.41.41"/>
  <path class="cls-1" d="m137.12,65.99c0,.23-.19.42-.41.42s-.41-.18-.41-.42.18-.41.41-.41.41.18.41.41"/>
  <path class="cls-1" d="m139.66,65.99c0,.23-.19.42-.41.42s-.41-.18-.41-.42.18-.41.41-.41.41.18.41.41"/>
  <path class="cls-1" d="m134.4,73.01c0,.23-.19.41-.41.41s-.41-.18-.41-.41.18-.41.41-.41.41.19.41.41"/>
  <path class="cls-1" d="m137.12,73.01c0,.23-.19.41-.41.41s-.41-.18-.41-.41.18-.41.41-.41.41.19.41.41"/>
  <path class="cls-1" d="m139.66,73.01c0,.23-.19.41-.41.41s-.41-.18-.41-.41.18-.41.41-.41.41.19.41.41"/>
  <path class="cls-1" d="m134.4,80.18c0,.23-.19.41-.41.41s-.41-.18-.41-.41.18-.41.41-.41.41.18.41.41"/>
  <path class="cls-1" d="m137.12,80.18c0,.23-.19.41-.41.41s-.41-.18-.41-.41.18-.41.41-.41.41.18.41.41"/>
  <path class="cls-1" d="m139.66,80.18c0,.23-.19.41-.41.41s-.41-.18-.41-.41.18-.41.41-.41.41.18.41.41"/>
  <path class="cls-1" d="m134.4,87.52c0,.23-.19.41-.41.41s-.41-.18-.41-.41.18-.41.41-.41.41.19.41.41"/>
  <path class="cls-1" d="m137.12,87.52c0,.23-.19.41-.41.41s-.41-.18-.41-.41.18-.41.41-.41.41.19.41.41"/>
  <path class="cls-1" d="m139.66,87.52c0,.23-.19.41-.41.41s-.41-.18-.41-.41.18-.41.41-.41.41.19.41.41"/>
  <path class="cls-2" d="m211.77,88.92h13.14m-13-10.98h12.86m-12.86-9.56h12.86"/>
  <path class="cls-1" d="m228.22,68.38c0,.23-.19.42-.41.42s-.41-.19-.41-.42.18-.41.41-.41.41.19.41.41"/>
  <path class="cls-1" d="m230.93,68.38c0,.23-.19.42-.41.42s-.41-.19-.41-.42.18-.41.41-.41.41.19.41.41"/>
  <path class="cls-1" d="m233.48,68.38c0,.23-.19.42-.41.42s-.41-.19-.41-.42.18-.41.41-.41.41.19.41.41"/>
  <path class="cls-1" d="m228.22,78c0,.23-.19.41-.41.41s-.41-.18-.41-.41.18-.41.41-.41.41.19.41.41"/>
  <path class="cls-1" d="m230.93,78c0,.23-.19.41-.41.41s-.41-.18-.41-.41.18-.41.41-.41.41.19.41.41"/>
  <path class="cls-1" d="m233.48,78c0,.23-.19.41-.41.41s-.41-.18-.41-.41.18-.41.41-.41.41.19.41.41"/>
  <path class="cls-2" d="m305.26,82.28h12.86m-12.86-11.46h12.86"/>
  <path class="cls-1" d="m321.57,70.82c0,.23-.19.41-.41.41s-.41-.18-.41-.41.19-.41.41-.41.41.18.41.41"/>
  <path class="cls-1" d="m324.29,70.82c0,.23-.19.41-.41.41s-.41-.18-.41-.41.18-.41.41-.41.41.18.41.41"/>
  <path class="cls-1" d="m326.83,70.82c0,.23-.19.41-.41.41s-.42-.18-.42-.41.18-.41.42-.41.41.18.41.41"/>
  <path class="cls-1" d="m321.57,82.34c0,.23-.19.42-.41.42s-.41-.19-.41-.42.19-.41.41-.41.41.18.41.41"/>
  <path class="cls-1" d="m324.29,82.34c0,.23-.19.42-.41.42s-.41-.19-.41-.42.18-.41.41-.41.41.18.41.41"/>
  <path class="cls-1" d="m326.83,82.34c0,.23-.19.42-.41.42s-.42-.19-.42-.42.18-.41.42-.41.41.18.41.41"/>
  <path class="cls-1" d="m228.22,88.85c0,.23-.19.41-.41.41s-.41-.18-.41-.41.18-.42.41-.42.41.18.41.42"/>
  <path class="cls-1" d="m230.93,88.85c0,.23-.19.41-.41.41s-.41-.18-.41-.41.18-.42.41-.42.41.18.41.42"/>
  <path class="cls-1" d="m233.48,88.85c0,.23-.19.41-.41.41s-.41-.18-.41-.41.18-.42.41-.42.41.18.41.42"/>
  <polyline class="cls-2" points="211.83 39.52 274.38 39.52 274.38 71.03 283.39 71.03"/>
  <path class="cls-1" d="m284.79,70.43c-.98-.3-1.62-.57-2.4-.89v2.99c.28-.13,1.42-.59,2.4-.89,1.05-.32,2-.53,2.61-.61-.62-.08-1.57-.3-2.61-.61"/>
  <polyline class="cls-2" points="211.52 49.18 267.59 49.18 267.59 82.27 283.7 82.27"/>
  <path class="cls-1" d="m285.1,81.67c-.98-.3-1.62-.57-2.4-.89v2.99c.28-.13,1.42-.59,2.4-.89,1.05-.32,2-.53,2.61-.61-.62-.08-1.57-.29-2.61-.61"/>
  <g>
    <path class="cls-4" d="m6.62,201.57v.14h-2.15v-.14h.18c.21,0,.36-.06.45-.18.06-.08.09-.27.09-.57v-3.25c0-.25-.02-.42-.05-.5-.02-.06-.08-.11-.15-.16-.11-.06-.22-.09-.34-.09h-.18v-.14h2.15v.14h-.18c-.2,0-.35.06-.45.18-.06.08-.09.27-.09.57v3.25c0,.25.02.42.05.5.02.06.08.11.16.16.11.06.22.09.34.09h.18Z"/>
    <path class="cls-4" d="m8.35,196.95v1.98h.91c.21,0,.36-.05.46-.14.1-.09.16-.28.19-.55h.14v1.7h-.14c0-.2-.03-.34-.08-.43-.05-.09-.11-.16-.2-.21-.09-.05-.21-.07-.38-.07h-.91v1.58c0,.25.02.42.05.5.02.06.08.11.16.16.11.06.22.09.34.09h.18v.14h-2.15v-.14h.18c.21,0,.36-.06.45-.18.06-.08.09-.27.09-.57v-3.25c0-.25-.02-.42-.05-.5-.02-.06-.08-.11-.15-.16-.11-.06-.22-.09-.34-.09h-.18v-.14h3.73l.05,1.11h-.13c-.06-.23-.14-.41-.22-.52-.09-.11-.19-.19-.31-.24-.12-.05-.32-.07-.58-.07h-1.11Z"/>
    <path class="cls-4" d="m13.14,196.43l-1.82,5.38h-.3l1.82-5.38h.3Z"/>
    <path class="cls-4" d="m15.46,201.57v.14h-2.15v-.14h.18c.21,0,.36-.06.45-.18.06-.08.09-.27.09-.57v-3.25c0-.25-.02-.42-.05-.5-.02-.06-.08-.11-.15-.16-.11-.06-.22-.09-.34-.09h-.18v-.14h2.15v.14h-.18c-.2,0-.35.06-.45.18-.06.08-.09.27-.09.57v3.25c0,.25.02.42.05.5.02.06.08.11.16.16.11.06.22.09.34.09h.18Z"/>
    <path class="cls-4" d="m15.78,201.7v-.14h.19c.21,0,.36-.07.45-.2.05-.08.08-.26.08-.55v-3.25c0-.31-.03-.51-.1-.59-.1-.11-.24-.16-.43-.16h-.19v-.14h2.04c.75,0,1.32.09,1.71.26.39.17.71.46.94.85.24.4.36.86.36,1.38,0,.7-.21,1.29-.64,1.75-.48.52-1.2.79-2.18.79h-2.24Zm1.43-.36c.31.07.58.1.79.1.57,0,1.05-.2,1.42-.6.38-.4.57-.95.57-1.64s-.19-1.24-.57-1.64c-.38-.4-.86-.6-1.45-.6-.22,0-.48.04-.76.11v4.28Z"/>
  </g>
  <g>
    <path class="cls-4" d="m101.85,201.57v.14h-2.15v-.14h.18c.21,0,.36-.06.45-.18.06-.08.09-.27.09-.57v-3.25c0-.25-.02-.42-.05-.5-.02-.06-.08-.11-.15-.16-.11-.06-.22-.09-.34-.09h-.18v-.14h2.15v.14h-.18c-.2,0-.35.06-.45.18-.06.08-.09.27-.09.57v3.25c0,.25.02.42.05.5.02.06.08.11.16.16.11.06.22.09.34.09h.18Z"/>
    <path class="cls-4" d="m102.17,201.7v-.14h.19c.21,0,.36-.07.45-.2.05-.08.08-.26.08-.55v-3.25c0-.31-.03-.51-.1-.59-.1-.11-.24-.16-.43-.16h-.19v-.14h2.04c.75,0,1.32.09,1.71.26.39.17.71.46.94.85.24.4.36.86.36,1.38,0,.7-.21,1.29-.64,1.75-.48.52-1.2.79-2.18.79h-2.24Zm1.43-.36c.31.07.58.1.79.1.57,0,1.05-.2,1.42-.6.38-.4.57-.95.57-1.64s-.19-1.24-.57-1.64c-.38-.4-.86-.6-1.45-.6-.22,0-.48.04-.76.11v4.28Z"/>
    <path class="cls-4" d="m109.64,196.43l-1.82,5.38h-.3l1.82-5.38h.3Z"/>
    <path class="cls-4" d="m111.2,196.95v1.99h1.1c.29,0,.48-.04.57-.13.13-.11.2-.31.21-.6h.14v1.75h-.14c-.03-.25-.07-.4-.1-.47-.04-.09-.12-.15-.22-.2-.1-.05-.26-.07-.47-.07h-1.1v1.66c0,.22.01.36.03.41.02.05.05.09.1.11.05.03.14.04.28.04h.85c.28,0,.49-.02.62-.06s.25-.12.37-.23c.15-.15.31-.38.47-.69h.15l-.43,1.26h-3.87v-.14h.18c.12,0,.23-.03.34-.09.08-.04.13-.1.16-.18.03-.08.04-.24.04-.49v-3.27c0-.32-.03-.52-.1-.59-.09-.1-.24-.15-.44-.15h-.18v-.14h3.87l.06,1.1h-.14c-.05-.26-.11-.45-.17-.55s-.16-.17-.28-.23c-.1-.04-.27-.06-.52-.06h-1.38Z"/>
    <path class="cls-4" d="m117.34,198.92l1.08,1.61c.3.45.52.73.66.84s.33.18.55.19v.14h-2.15v-.14c.14,0,.25-.02.32-.04.05-.02.09-.06.13-.1.03-.05.05-.09.05-.14,0-.06-.01-.11-.03-.17-.02-.04-.08-.15-.2-.33l-.85-1.29-1.05,1.35c-.11.14-.18.24-.2.29-.02.05-.03.1-.03.15,0,.08.03.14.1.2.07.05.19.08.38.09v.14h-1.78v-.14c.13-.01.23-.04.33-.08.15-.06.3-.15.44-.26s.3-.28.47-.5l1.18-1.5-.99-1.45c-.27-.39-.5-.65-.68-.77s-.4-.19-.65-.19v-.14h2.32v.14c-.2,0-.33.04-.41.1-.07.06-.11.12-.11.19,0,.09.06.23.18.4l.77,1.15.89-1.13c.1-.13.17-.23.19-.27.02-.05.04-.1.04-.15s-.02-.1-.04-.14c-.04-.05-.08-.09-.14-.11-.06-.02-.17-.03-.35-.04v-.14h1.78v.14c-.14,0-.26.03-.34.07-.13.06-.26.13-.37.23-.11.1-.27.27-.47.53l-1,1.28Z"/>
  </g>
  <g>
    <path class="cls-4" d="m190.65,196.95v1.99h1.1c.29,0,.48-.04.57-.13.13-.11.2-.31.21-.6h.14v1.75h-.14c-.03-.25-.07-.4-.1-.47-.04-.09-.12-.15-.22-.2-.1-.05-.26-.07-.47-.07h-1.1v1.66c0,.22.01.36.03.41.02.05.05.09.1.11.05.03.14.04.28.04h.85c.28,0,.49-.02.62-.06s.25-.12.37-.23c.15-.15.31-.38.47-.69h.15l-.43,1.26h-3.87v-.14h.18c.12,0,.23-.03.34-.09.08-.04.13-.1.16-.18.03-.08.04-.24.04-.49v-3.27c0-.32-.03-.52-.1-.59-.09-.1-.24-.15-.44-.15h-.18v-.14h3.87l.06,1.1h-.14c-.05-.26-.11-.45-.17-.55s-.16-.17-.28-.23c-.1-.04-.27-.06-.52-.06h-1.38Z"/>
    <path class="cls-4" d="m196.79,198.92l1.08,1.61c.3.45.52.73.66.84s.33.18.55.19v.14h-2.15v-.14c.14,0,.25-.02.32-.04.05-.02.09-.06.13-.1.03-.05.05-.09.05-.14,0-.06-.01-.11-.03-.17-.02-.04-.08-.15-.2-.33l-.85-1.29-1.05,1.35c-.11.14-.18.24-.2.29-.02.05-.03.1-.03.15,0,.08.03.14.1.2.07.05.19.08.38.09v.14h-1.78v-.14c.13-.01.23-.04.33-.08.15-.06.3-.15.44-.26s.3-.28.47-.5l1.18-1.5-.99-1.45c-.27-.39-.5-.65-.68-.77s-.4-.19-.65-.19v-.14h2.32v.14c-.2,0-.33.04-.41.1-.07.06-.11.12-.11.19,0,.09.06.23.18.4l.77,1.15.89-1.13c.1-.13.17-.23.19-.27.02-.05.04-.1.04-.15s-.02-.1-.04-.14c-.04-.05-.08-.09-.14-.11-.06-.02-.17-.03-.35-.04v-.14h1.78v.14c-.14,0-.26.03-.34.07-.13.06-.26.13-.37.23-.11.1-.27.27-.47.53l-1,1.28Z"/>
    <path class="cls-4" d="m201.29,196.43l-1.82,5.38h-.3l1.82-5.38h.3Z"/>
    <path class="cls-4" d="m204.38,201.7l-1.94-4.23v3.36c0,.31.03.5.1.58.09.1.24.16.43.16h.18v.14h-1.75v-.14h.18c.21,0,.36-.06.45-.19.05-.08.08-.26.08-.54v-3.29c0-.22-.02-.38-.07-.48-.03-.07-.1-.13-.19-.18-.09-.05-.24-.07-.45-.07v-.14h1.42l1.82,3.94,1.79-3.94h1.42v.14h-.17c-.21,0-.37.06-.46.19-.05.08-.08.26-.08.54v3.29c0,.31.03.5.1.58.09.1.24.16.43.16h.17v.14h-2.13v-.14h.18c.21,0,.37-.06.45-.19.05-.08.08-.26.08-.54v-3.36l-1.94,4.23h-.12Z"/>
    <path class="cls-4" d="m209.6,196.95v1.99h1.1c.29,0,.48-.04.57-.13.13-.11.2-.31.21-.6h.14v1.75h-.14c-.03-.25-.07-.4-.1-.47-.04-.09-.12-.15-.22-.2-.1-.05-.26-.07-.47-.07h-1.1v1.66c0,.22.01.36.03.41.02.05.05.09.1.11.05.03.14.04.28.04h.85c.28,0,.49-.02.62-.06s.25-.12.37-.23c.15-.15.31-.38.47-.69h.15l-.43,1.26h-3.87v-.14h.18c.12,0,.23-.03.34-.09.08-.04.13-.1.16-.18.03-.08.04-.24.04-.49v-3.27c0-.32-.03-.52-.1-.59-.09-.1-.24-.15-.44-.15h-.18v-.14h3.87l.06,1.1h-.14c-.05-.26-.11-.45-.17-.55s-.16-.17-.28-.23c-.1-.04-.27-.06-.52-.06h-1.38Z"/>
    <path class="cls-4" d="m215.75,201.7l-1.94-4.23v3.36c0,.31.03.5.1.58.09.1.24.16.43.16h.18v.14h-1.75v-.14h.18c.21,0,.36-.06.45-.19.05-.08.08-.26.08-.54v-3.29c0-.22-.02-.38-.07-.48-.03-.07-.1-.13-.19-.18-.09-.05-.24-.07-.45-.07v-.14h1.42l1.82,3.94,1.79-3.94h1.42v.14h-.17c-.21,0-.37.06-.46.19-.05.08-.08.26-.08.54v3.29c0,.31.03.5.1.58.09.1.24.16.43.16h.17v.14h-2.13v-.14h.18c.21,0,.37-.06.45-.19.05-.08.08-.26.08-.54v-3.36l-1.94,4.23h-.12Z"/>
  </g>
  <g>
    <path class="cls-4" d="m284.08,201.7l-1.94-4.23v3.36c0,.31.03.5.1.58.09.1.24.16.43.16h.18v.14h-1.75v-.14h.18c.21,0,.36-.06.45-.19.05-.08.08-.26.08-.54v-3.29c0-.22-.03-.38-.07-.48-.04-.07-.1-.13-.19-.18-.09-.05-.24-.07-.45-.07v-.14h1.42l1.82,3.94,1.79-3.94h1.42v.14h-.17c-.21,0-.37.06-.46.19-.05.08-.08.26-.08.54v3.29c0,.31.04.5.1.58.09.1.24.16.43.16h.17v.14h-2.13v-.14h.18c.21,0,.37-.06.45-.19.05-.08.08-.26.08-.54v-3.36l-1.94,4.23h-.12Z"/>
    <path class="cls-4" d="m289.3,196.95v1.99h1.1c.29,0,.48-.04.57-.13.13-.11.2-.31.21-.6h.14v1.75h-.14c-.03-.25-.07-.4-.1-.47-.04-.09-.12-.15-.22-.2-.1-.05-.26-.07-.47-.07h-1.1v1.66c0,.22,0,.36.03.41.02.05.05.09.1.11.05.03.14.04.28.04h.85c.28,0,.49-.02.62-.06.13-.04.25-.12.37-.23.15-.15.31-.38.47-.69h.15l-.43,1.26h-3.87v-.14h.18c.12,0,.23-.03.34-.09.08-.04.13-.1.16-.18.03-.08.04-.24.04-.49v-3.27c0-.32-.03-.52-.1-.59-.09-.1-.24-.15-.44-.15h-.18v-.14h3.87l.06,1.1h-.14c-.05-.26-.11-.45-.17-.55-.06-.1-.16-.17-.28-.23-.1-.04-.27-.06-.52-.06h-1.38Z"/>
    <path class="cls-4" d="m295.45,201.7l-1.94-4.23v3.36c0,.31.03.5.1.58.09.1.24.16.43.16h.18v.14h-1.75v-.14h.18c.21,0,.36-.06.45-.19.05-.08.08-.26.08-.54v-3.29c0-.22-.03-.38-.07-.48-.04-.07-.1-.13-.19-.18-.09-.05-.24-.07-.45-.07v-.14h1.42l1.82,3.94,1.79-3.94h1.42v.14h-.17c-.21,0-.37.06-.46.19-.05.08-.08.26-.08.54v3.29c0,.31.04.5.1.58.09.1.24.16.43.16h.17v.14h-2.13v-.14h.18c.21,0,.37-.06.45-.19.05-.08.08-.26.08-.54v-3.36l-1.94,4.23h-.12Z"/>
    <path class="cls-4" d="m301.21,196.43l-1.82,5.38h-.3l1.82-5.38h.3Z"/>
    <path class="cls-4" d="m308.29,196.67v.14c-.13,0-.24.02-.32.07-.08.05-.16.13-.23.26-.05.09-.13.29-.23.62l-1.4,4.06h-.15l-1.14-3.22-1.14,3.22h-.13l-1.49-4.18c-.11-.31-.18-.5-.21-.55-.05-.09-.12-.16-.2-.21s-.2-.07-.35-.07v-.14h1.86v.14h-.09c-.13,0-.23.03-.3.09-.07.06-.1.13-.1.21s.05.29.16.6l.99,2.82.83-2.4-.15-.42-.12-.34c-.05-.12-.11-.23-.17-.33-.03-.05-.07-.09-.12-.12-.06-.04-.12-.08-.18-.1-.05-.02-.12-.02-.22-.02v-.14h1.96v.14h-.13c-.14,0-.24.03-.3.09-.06.06-.1.14-.1.24,0,.13.06.35.17.66l.96,2.73.96-2.77c.11-.31.16-.52.16-.64,0-.06-.02-.11-.05-.16-.04-.05-.08-.08-.14-.1-.09-.03-.22-.05-.37-.05v-.14h1.5Z"/>
    <path class="cls-4" d="m311.85,199.14c.35.07.61.19.78.36.24.23.36.51.36.83,0,.25-.08.49-.24.72-.16.23-.37.4-.65.5s-.7.16-1.26.16h-2.37v-.14h.19c.21,0,.36-.07.45-.2.06-.09.08-.27.08-.55v-3.25c0-.31-.04-.51-.11-.59-.1-.11-.24-.16-.43-.16h-.19v-.14h2.17c.4,0,.73.03.97.09.37.09.65.25.85.47.19.23.29.49.29.78,0,.25-.08.48-.23.68-.15.2-.38.35-.68.44Zm-1.94-.2c.09.02.2.03.31.04s.25.01.39.01c.36,0,.63-.04.81-.12.18-.08.32-.2.42-.36.1-.16.14-.34.14-.53,0-.29-.12-.55-.36-.75-.24-.21-.59-.31-1.05-.31-.25,0-.47.03-.67.08v1.93Zm0,2.4c.29.07.57.1.85.1.45,0,.79-.1,1.02-.3s.35-.45.35-.75c0-.2-.05-.38-.16-.56-.11-.18-.28-.32-.52-.43s-.54-.16-.89-.16c-.15,0-.28,0-.39,0-.11,0-.2.01-.26.03v2.06Z"/>
  </g>
  <g>
    <path class="cls-4" d="m3.9,36.77c0-.3-.05-.49-.15-.57-.1-.08-.29-.12-.59-.12v-.14h2.17v.14c-.31,0-.51.06-.6.15-.09.09-.13.3-.13.63v3.2c0,.33.04.54.13.63s.28.14.6.15v.14h-2.17v-.14c.32,0,.52-.06.61-.15.09-.09.13-.3.13-.63v-2.89l-2.33,2.99c0,.22.02.36.04.43.03.07.09.13.18.17.1.04.26.07.51.07v.14H.14v-.14c.31,0,.51-.06.6-.15s.13-.3.13-.63v-3.2c0-.33-.04-.54-.13-.63-.09-.09-.29-.14-.6-.15v-.14h2.17v.14c-.31,0-.51.06-.6.15-.09.09-.13.3-.13.63v2.9l2.33-2.98Z"/>
    <path class="cls-4" d="m6.77,39.09h1.47v-.72c0-.21,0-.36-.03-.42s-.06-.12-.13-.17c-.07-.05-.19-.07-.36-.07v-.14h1.64v.14c-.15,0-.26.02-.33.05s-.12.08-.14.15c-.02.07-.04.22-.04.45v1.8c0,.22,0,.36.03.43s.06.13.13.17c.07.04.19.06.35.06v.14h-1.64v-.14c.21,0,.34-.04.41-.11.07-.08.1-.26.1-.55v-.84h-1.47v.84c0,.22,0,.36.03.43s.06.13.14.17c.07.04.19.06.35.06v.14h-1.64v-.14c.22,0,.36-.04.42-.12s.09-.26.09-.54v-1.8c0-.21,0-.36-.03-.43-.02-.07-.06-.12-.14-.17-.07-.04-.19-.06-.35-.06v-.14h1.64v.14c-.15,0-.26.02-.33.05s-.12.08-.14.15c-.02.07-.04.22-.04.45v.72Z"/>
    <path class="cls-4" d="m12.65,39.68c-.09.45-.27.79-.54,1.03-.27.24-.56.36-.88.36-.38,0-.72-.16-1.01-.49-.29-.32-.43-.76-.43-1.31s.16-.97.48-1.3c.32-.33.7-.5,1.14-.5.33,0,.61.09.82.27.21.18.32.36.32.55,0,.09-.03.17-.09.23s-.15.09-.25.09c-.15,0-.26-.05-.33-.14-.04-.05-.07-.15-.08-.3-.01-.15-.06-.26-.15-.33-.09-.07-.21-.11-.36-.11-.25,0-.45.09-.6.27-.2.24-.3.56-.3.96s.1.76.3,1.07.47.47.81.47c.24,0,.46-.08.65-.25.14-.11.27-.32.4-.62l.11.05Z"/>
    <path class="cls-4" d="m13.08,37.57h2.93l.15.92h-.17c-.03-.19-.08-.33-.15-.43-.07-.1-.15-.17-.24-.2s-.24-.05-.46-.05h-.3v2.36c0,.25.02.41.05.48.03.07.08.11.15.14.07.02.23.04.47.04v.14h-1.84v-.14c.24,0,.39-.04.46-.12s.1-.25.1-.55v-2.36h-.3c-.21,0-.36.01-.43.04-.08.03-.15.09-.22.19s-.13.25-.18.45h-.17l.14-.92Z"/>
    <path class="cls-4" d="m16.2,37.91l1.04-.42h.14v.79c.17-.3.35-.51.53-.63.18-.12.36-.18.56-.18.34,0,.62.13.85.4.28.33.42.75.42,1.28,0,.59-.17,1.07-.5,1.45-.28.31-.62.47-1.04.47-.18,0-.34-.03-.47-.08-.1-.04-.21-.11-.33-.22v1.04c0,.23.01.38.04.44.03.06.08.11.15.15s.2.06.38.06v.14h-1.78v-.14h.09c.14,0,.25-.02.35-.08.05-.03.08-.07.11-.13s.04-.21.04-.46v-3.21c0-.22,0-.36-.03-.42-.02-.06-.05-.1-.09-.13-.04-.03-.1-.04-.18-.04-.06,0-.13.02-.23.05l-.04-.12Zm1.18.59v1.27c0,.27.01.46.03.54.03.14.12.27.25.38.13.11.3.16.51.16.25,0,.45-.1.6-.29.2-.25.3-.61.3-1.06,0-.52-.11-.92-.34-1.2-.16-.19-.35-.29-.56-.29-.12,0-.24.03-.35.09-.09.04-.24.18-.44.4Z"/>
    <path class="cls-4" d="m20.04,37.57h1.58v.14h-.08c-.11,0-.19.02-.25.07s-.08.11-.08.18c0,.1.04.23.12.4l.83,1.71.76-1.88c.04-.1.06-.2.06-.3,0-.04,0-.08-.03-.1-.02-.03-.05-.05-.09-.06s-.12-.02-.22-.02v-.14h1.1v.14c-.09,0-.16.03-.21.06-.05.03-.1.09-.16.17-.02.03-.06.13-.13.29l-1.38,3.39c-.13.33-.31.58-.52.75-.22.17-.42.25-.62.25-.15,0-.27-.04-.36-.13s-.14-.18-.14-.29.03-.19.1-.25.16-.09.28-.09c.08,0,.19.03.33.08.1.04.16.06.19.06.07,0,.15-.04.24-.11.09-.08.18-.23.26-.45l.24-.59-1.22-2.56c-.04-.08-.1-.17-.18-.29-.06-.09-.11-.15-.15-.17-.06-.04-.15-.07-.27-.1v-.14Z"/>
    <path class="cls-4" d="m27.43,40.97h-1c-.31-.45-.59-.92-.84-1.39-.06-.11-.11-.19-.16-.24-.05-.05-.11-.08-.2-.08-.03,0-.08,0-.14,0v.91c0,.25.01.4.04.47.03.07.08.12.15.15.07.03.2.04.37.04v.14h-1.7v-.14c.22,0,.36-.04.42-.12s.09-.26.09-.54v-1.8c0-.26-.01-.42-.04-.47s-.07-.09-.13-.13c-.06-.04-.17-.06-.35-.06v-.14h1.7v.14c-.21,0-.33.02-.38.04-.05.03-.09.07-.13.11-.04.04-.06.21-.06.5v.67c.06,0,.1,0,.11,0,.15,0,.29-.04.42-.13s.25-.27.35-.54c.1-.26.18-.44.24-.53.06-.09.15-.17.26-.22.11-.06.23-.09.35-.09.13,0,.24.03.32.1.08.06.12.15.12.25,0,.09-.03.16-.09.22-.06.06-.14.09-.24.09-.05,0-.12-.01-.2-.04-.1-.04-.18-.06-.24-.06-.11,0-.21.1-.28.29-.08.23-.15.37-.19.44-.04.07-.11.15-.23.26.08.02.16.08.25.17.09.09.26.35.5.78.2.34.34.56.44.65.1.09.24.14.42.15v.14Z"/>
    <path class="cls-4" d="m31.36,40.83v1.08h-.14c0-.29-.1-.52-.28-.69-.18-.17-.51-.25-.99-.25h-2.31v-.14c.22,0,.36-.04.42-.12s.09-.26.09-.54v-1.8c0-.26-.01-.42-.04-.47s-.07-.09-.13-.13c-.06-.04-.17-.06-.35-.06v-.14h1.64v.14c-.17,0-.28.02-.33.05-.06.03-.1.07-.13.12-.03.05-.05.21-.05.48v1.92c0,.22.02.34.06.38.04.04.16.06.37.06h.6c.23,0,.36-.02.39-.06.03-.04.05-.18.05-.41v-1.89c0-.23-.01-.39-.04-.45-.02-.07-.07-.12-.14-.15-.07-.03-.18-.05-.33-.05v-.14h1.64v.14c-.17,0-.28.02-.33.05-.06.03-.1.07-.13.12-.03.05-.05.21-.05.48v1.75c0,.32.03.52.08.59.06.07.2.12.43.13Z"/>
    <path class="cls-4" d="m32.82,39.92l1.47-1.7c0-.19-.04-.32-.11-.4-.07-.07-.18-.11-.34-.12v-.14h1.58v.14c-.17,0-.28.02-.33.05-.06.03-.1.07-.13.12-.03.05-.05.21-.05.48v1.8c0,.26.01.42.04.47.03.05.07.1.13.13.06.04.17.06.35.06v.14h-1.64v-.14c.21,0,.34-.04.41-.11.07-.08.1-.26.1-.55v-1.6l-1.47,1.7c0,.21.03.35.09.43s.17.12.35.12v.14h-1.57v-.14c.22,0,.36-.04.42-.12s.09-.26.09-.54v-1.8c0-.26-.01-.42-.04-.47s-.07-.09-.13-.13c-.06-.04-.17-.06-.35-.06v-.14h1.64v.14c-.17,0-.28.02-.33.05-.06.03-.1.07-.13.12-.03.05-.05.21-.05.48v1.55Z"/>
  </g>
  <polyline class="cls-3" points="21.19 143.71 27.82 143.71 27.82 45.23 32.25 45.23"/>
  <path class="cls-4" d="m33.65,44.62c-.98-.3-1.62-.57-2.4-.89v2.99c.28-.13,1.42-.59,2.4-.89,1.05-.32,2-.53,2.61-.61-.62-.08-1.57-.3-2.61-.61"/>
</svg>