<?xml version="1.0" encoding="UTF-8"?>
<svg id="Layer_1" data-name="Layer 1" xmlns="http://www.w3.org/2000/svg" viewBox="0 0 171.61 128.66">
  <defs>
    <style>
      .cls-1, .cls-2 {
        stroke-width: .5px;
      }

      .cls-1, .cls-2, .cls-3 {
        fill: none;
      }

      .cls-1, .cls-3 {
        stroke: #231f20;
      }

      .cls-4 {
        fill: #fff;
      }

      .cls-5 {
        fill: #00aeef;
      }

      .cls-2 {
        stroke: #000;
      }

      .cls-3 {
        stroke-dasharray: 0 0 0 3;
        stroke-linecap: round;
      }

      .cls-6 {
        fill: #231f20;
      }
    </style>
  </defs>
  <rect class="cls-4" width="159.84" height="128.66"/>
  <polyline class="cls-2" points="23.17 96.17 23.17 108.17 129.59 108.17 129.59 96.17"/>
  <g>
    <path class="cls-6" d="m5.21,85.45h-2.46v4.04c0,.35.04.57.13.66s.3.15.63.16v.14H1.24v-.14c.33-.01.54-.06.63-.16s.14-.32.14-.66v-3.37c0-.35-.05-.57-.14-.66s-.3-.15-.63-.16v-.14h5.49v.14c-.33.01-.54.06-.63.16s-.14.32-.14.66v3.37c0,.35.05.57.14.66s.3.15.63.16v.14h-2.28v-.14c.33-.01.53-.06.62-.15s.14-.31.14-.67v-4.04Z"/>
    <path class="cls-6" d="m6.86,87.24l1.1-.45h.15v.84c.19-.32.37-.54.56-.66s.38-.19.59-.19c.36,0,.66.14.9.42.29.34.44.79.44,1.34,0,.62-.18,1.13-.53,1.53-.29.33-.66.5-1.1.5-.19,0-.36-.03-.5-.08-.1-.04-.22-.12-.35-.23v1.09c0,.25.02.4.04.47s.08.12.16.16.21.06.4.06v.14h-1.88v-.14h.1c.14,0,.27-.02.37-.08.05-.03.09-.08.12-.14s.04-.23.04-.49v-3.38c0-.23-.01-.38-.03-.44s-.05-.11-.1-.14-.11-.05-.19-.05c-.06,0-.14.02-.24.05l-.05-.12Zm1.25.62v1.34c0,.29.01.48.04.57.04.15.13.28.27.4s.32.17.54.17c.26,0,.47-.1.63-.3.21-.27.32-.64.32-1.12,0-.55-.12-.97-.36-1.26-.17-.2-.36-.3-.59-.3-.12,0-.25.03-.37.09-.09.05-.25.19-.46.42Z"/>
    <path class="cls-6" d="m12.87,86.78c.54,0,.98.21,1.3.62.28.35.42.75.42,1.21,0,.32-.08.64-.23.97s-.37.58-.63.74-.57.25-.9.25c-.54,0-.97-.21-1.29-.64-.27-.36-.4-.77-.4-1.22,0-.33.08-.65.24-.98s.38-.56.64-.72.55-.23.84-.23Zm-.12.25c-.14,0-.28.04-.42.12s-.25.23-.34.43-.13.47-.13.79c0,.52.1.97.31,1.35s.48.57.82.57c.25,0,.46-.1.62-.31s.25-.57.25-1.07c0-.64-.14-1.14-.41-1.5-.19-.25-.42-.38-.71-.38Z"/>
    <path class="cls-6" d="m17.95,86.88l.14.98h-.17c-.1-.32-.2-.52-.3-.6s-.31-.12-.63-.12h-.76v2.48c0,.28.01.44.04.49s.07.1.13.14.18.06.37.06v.14h-1.79v-.14c.26,0,.42-.04.49-.12s.11-.27.11-.58v-1.9c0-.25-.01-.42-.04-.49s-.08-.12-.15-.15-.21-.05-.41-.05v-.15h2.96Z"/>
    <path class="cls-6" d="m18.14,87.24l1.1-.45h.15v.84c.19-.32.37-.54.56-.66s.38-.19.59-.19c.36,0,.66.14.9.42.29.34.44.79.44,1.34,0,.62-.18,1.13-.53,1.53-.29.33-.66.5-1.1.5-.19,0-.36-.03-.5-.08-.1-.04-.22-.12-.35-.23v1.09c0,.25.02.4.04.47s.08.12.16.16.21.06.4.06v.14h-1.88v-.14h.1c.14,0,.27-.02.37-.08.05-.03.09-.08.12-.14s.04-.23.04-.49v-3.38c0-.23-.01-.38-.03-.44s-.05-.11-.1-.14-.11-.05-.19-.05c-.06,0-.14.02-.24.05l-.05-.12Zm1.25.62v1.34c0,.29.01.48.04.57.04.15.13.28.27.4s.32.17.54.17c.26,0,.47-.1.63-.3.21-.27.32-.64.32-1.12,0-.55-.12-.97-.36-1.26-.17-.2-.37-.3-.59-.3-.12,0-.25.03-.37.09-.09.05-.25.19-.46.42Z"/>
    <path class="cls-6" d="m24.43,89.95c-.37.28-.6.45-.69.49-.14.07-.29.1-.45.1-.25,0-.45-.08-.61-.25s-.24-.39-.24-.67c0-.17.04-.33.12-.45.11-.18.29-.34.56-.5.27-.16.7-.35,1.32-.57v-.14c0-.36-.06-.6-.17-.73s-.28-.2-.49-.2c-.16,0-.29.04-.39.13-.1.09-.15.19-.15.3v.23c0,.12-.02.21-.08.28-.06.07-.14.1-.24.1s-.17-.03-.24-.1-.09-.16-.09-.28c0-.22.11-.43.34-.62s.55-.28.97-.28c.32,0,.58.05.78.16.15.08.27.21.34.38.05.11.07.34.07.69v1.21c0,.34,0,.55.02.63s.03.13.06.15.06.04.1.04c.04,0,.08,0,.11-.03.05-.03.16-.13.32-.29v.22c-.29.39-.57.59-.84.59-.13,0-.23-.04-.3-.13s-.11-.24-.12-.45Zm0-.25v-1.36c-.39.16-.65.27-.76.33-.21.11-.35.23-.44.36-.09.12-.13.26-.13.41,0,.19.06.34.17.47.11.12.24.19.39.19.2,0,.46-.13.78-.39Z"/>
    <path class="cls-6" d="m28.26,89.53l1.12-2.64h1.21v.15c-.18,0-.29.02-.35.05s-.1.08-.14.13-.05.22-.05.51v1.9c0,.25.01.41.04.48s.08.13.15.16.19.05.35.05v.14h-1.73v-.14c.21,0,.36-.04.43-.12s.11-.27.11-.58v-2.15l-1.27,2.99h-.14l-1.29-2.99v2.15c0,.25.01.41.04.48s.08.13.15.16.19.05.35.05v.14h-1.37v-.14c.23,0,.38-.04.45-.13s.1-.27.1-.57v-1.9c0-.28-.01-.44-.04-.49s-.07-.1-.13-.14-.18-.06-.37-.06v-.15h1.26l1.12,2.64Z"/>
    <path class="cls-6" d="m32.96,86.88h3.09l.16.97h-.18c-.03-.2-.08-.35-.16-.45s-.16-.18-.25-.21-.25-.05-.48-.05h-.31v2.48c0,.27.02.43.05.51s.08.12.16.14.24.04.5.05v.14h-1.95v-.14c.25,0,.41-.05.48-.12s.11-.27.11-.57v-2.48h-.32c-.22,0-.38.01-.46.04s-.16.09-.23.2-.14.26-.19.48h-.18l.15-.97Z"/>
    <path class="cls-6" d="m37.11,88.23c0,.53.13.95.39,1.25s.57.45.92.45c.23,0,.44-.06.61-.19s.32-.35.44-.66l.12.08c-.05.36-.21.68-.48.97s-.59.44-.99.44c-.43,0-.8-.17-1.1-.5s-.46-.78-.46-1.35c0-.61.16-1.09.47-1.43s.71-.51,1.18-.51c.4,0,.73.13.99.4s.39.62.39,1.06h-2.47Zm0-.23h1.66c-.01-.23-.04-.39-.08-.48-.07-.15-.16-.26-.29-.34s-.26-.12-.4-.12c-.22,0-.41.08-.58.25s-.27.4-.3.7Z"/>
    <path class="cls-6" d="m43.65,90.46h-1.05c-.33-.48-.62-.96-.89-1.46-.06-.11-.12-.2-.17-.26s-.12-.08-.21-.08c-.03,0-.08,0-.15,0v.96c0,.26.01.42.04.49s.08.12.16.15.21.05.39.05v.14h-1.79v-.14c.23,0,.38-.04.45-.13s.1-.27.1-.57v-1.9c0-.28-.01-.44-.04-.49s-.07-.1-.13-.14-.18-.06-.37-.06v-.15h1.79v.15c-.22,0-.35.02-.4.05s-.1.07-.14.12-.06.22-.06.53v.7c.06,0,.1,0,.12,0,.16,0,.31-.04.45-.13s.26-.28.37-.57c.1-.28.19-.46.25-.56s.16-.17.28-.24.24-.09.37-.09c.14,0,.25.03.34.1s.12.16.12.27c0,.09-.03.17-.09.23s-.14.1-.25.1c-.06,0-.13-.02-.21-.05-.11-.04-.19-.06-.25-.06-.12,0-.22.1-.3.31-.09.24-.15.39-.2.46s-.12.16-.24.28c.08.02.17.08.26.18s.27.37.53.82c.21.36.36.59.46.69s.25.15.45.15v.14Z"/>
    <path class="cls-6" d="m46.99,89.1c-.1.47-.29.83-.57,1.09s-.59.38-.93.38c-.41,0-.76-.17-1.06-.51s-.45-.8-.45-1.38.17-1.02.5-1.37.74-.53,1.21-.53c.35,0,.64.09.87.28s.34.38.34.58c0,.1-.03.18-.1.24s-.15.09-.27.09c-.15,0-.27-.05-.35-.15-.04-.05-.07-.16-.09-.31s-.07-.27-.16-.35c-.09-.08-.22-.12-.38-.12-.26,0-.47.1-.63.29-.21.25-.32.59-.32,1.01s.1.8.31,1.13.49.49.85.49c.25,0,.48-.09.69-.26.14-.12.28-.34.42-.65l.11.05Z"/>
    <path class="cls-6" d="m47.44,86.88h3.09l.16.97h-.18c-.03-.2-.08-.35-.16-.45s-.16-.18-.25-.21-.25-.05-.48-.05h-.31v2.48c0,.27.02.43.05.51s.08.12.16.14.24.04.5.05v.14h-1.95v-.14c.25,0,.41-.05.48-.12s.11-.27.11-.57v-2.48h-.32c-.22,0-.38.01-.46.04s-.16.09-.23.2-.14.26-.19.48h-.18l.15-.97Z"/>
  </g>
  <g>
    <path class="cls-6" d="m33.21,117.41h.17c.03.36.14.63.34.82s.49.3.88.34v-2.28c-.59-.36-.98-.68-1.17-.96-.14-.2-.21-.44-.21-.72,0-.32.12-.6.36-.84s.58-.38,1.02-.43v-.36h.25v.36c.21.01.39.04.54.07.08.02.33.11.75.27v1.17h-.15c-.03-.41-.14-.72-.32-.91-.18-.19-.45-.31-.81-.34v1.98c.66.46,1.08.8,1.26,1.01.19.22.28.49.28.81,0,.36-.14.68-.41.95-.27.27-.65.43-1.13.47v.5h-.25v-.5c-.25-.01-.47-.04-.68-.08s-.44-.12-.7-.22v-1.11Zm1.38-2v-1.82c-.26.03-.45.11-.58.25-.13.13-.19.3-.19.51,0,.19.06.37.17.53.11.17.31.34.6.53Zm.25,3.16c.2-.03.34-.08.45-.14.15-.09.26-.21.35-.36.08-.15.13-.3.13-.47s-.05-.33-.15-.49c-.1-.15-.36-.37-.77-.65v2.11Z"/>
    <path class="cls-6" d="m38.09,115.04v.8c.3-.54.61-.8.92-.8.14,0,.26.04.36.13s.14.19.14.3c0,.1-.03.19-.1.26-.07.07-.15.11-.24.11s-.19-.04-.31-.13-.2-.13-.25-.13c-.05,0-.1.03-.15.08-.12.11-.24.28-.36.53v1.71c0,.2.02.35.07.45.03.07.09.13.18.18s.21.07.37.07v.14h-1.83v-.14c.18,0,.32-.03.41-.09.06-.04.11-.11.14-.2.01-.04.02-.17.02-.38v-1.39c0-.42,0-.67-.03-.74-.02-.08-.05-.14-.09-.17-.05-.04-.1-.05-.17-.05-.08,0-.17.02-.27.06l-.04-.14,1.08-.44h.16Z"/>
    <path class="cls-6" d="m40.31,116.49c0,.53.13.95.39,1.25.26.3.57.45.92.45.23,0,.44-.06.61-.19.17-.13.32-.35.44-.66l.12.08c-.05.36-.21.68-.48.97-.26.29-.59.44-.99.44-.43,0-.8-.17-1.1-.5-.31-.33-.46-.78-.46-1.35,0-.61.16-1.09.47-1.43.31-.34.71-.51,1.18-.51.4,0,.73.13.99.4s.39.62.39,1.06h-2.47Zm0-.23h1.66c-.01-.23-.04-.39-.08-.48-.07-.15-.16-.26-.29-.34s-.26-.12-.4-.12c-.22,0-.41.08-.58.25-.17.17-.27.4-.3.7Z"/>
    <path class="cls-6" d="m45.28,118.2c-.37.28-.6.45-.69.49-.14.07-.29.1-.45.1-.25,0-.45-.08-.61-.25s-.24-.39-.24-.67c0-.17.04-.33.12-.45.11-.18.29-.34.56-.5.26-.16.7-.35,1.32-.57v-.14c0-.36-.06-.6-.17-.73s-.28-.2-.49-.2c-.16,0-.29.04-.39.13-.1.09-.15.19-.15.3v.23c0,.12-.02.21-.08.28-.06.07-.14.1-.24.1s-.18-.03-.24-.1c-.06-.07-.09-.16-.09-.28,0-.22.11-.43.34-.62.23-.19.55-.28.96-.28.32,0,.58.05.78.16.15.08.27.21.34.38.05.11.07.34.07.69v1.21c0,.34,0,.55.02.63.01.08.03.13.06.15.03.03.06.04.1.04.04,0,.08,0,.11-.03.05-.03.16-.13.32-.29v.22c-.29.39-.57.59-.84.59-.13,0-.23-.04-.3-.13-.08-.09-.12-.24-.12-.45Zm0-.25v-1.36c-.39.16-.65.27-.76.33-.21.11-.35.23-.44.36-.09.12-.13.26-.13.41,0,.19.06.34.17.47.11.12.24.19.39.19.2,0,.46-.13.78-.39Z"/>
    <path class="cls-6" d="m49.33,118.32c-.17.18-.35.31-.51.39-.17.08-.35.12-.54.12-.39,0-.73-.16-1.02-.49-.29-.33-.44-.75-.44-1.26s.16-.98.48-1.41c.32-.43.74-.64,1.25-.64.31,0,.58.1.78.3v-.66c0-.41,0-.66-.03-.75s-.05-.16-.09-.19c-.04-.03-.09-.05-.16-.05-.07,0-.16.02-.27.06l-.05-.14,1.07-.44h.18v4.14c0,.42,0,.67.03.77s.05.16.09.19.09.05.15.05c.07,0,.16-.02.28-.07l.04.14-1.06.44h-.18v-.51Zm0-.27v-1.84c-.02-.18-.06-.34-.14-.48s-.18-.26-.31-.33-.25-.11-.38-.11c-.23,0-.43.1-.61.31-.24.27-.36.67-.36,1.19s.11.93.34,1.21c.23.28.48.42.77.42.24,0,.47-.12.69-.36Z"/>
    <path class="cls-6" d="m51.87,115.8c.26-.26.41-.41.46-.45.12-.1.24-.18.38-.23s.27-.08.4-.08c.22,0,.42.07.58.2s.27.32.32.57c.27-.31.5-.52.68-.62s.38-.15.57-.15.36.05.51.15.26.26.35.48c.06.15.09.39.09.71v1.54c0,.22.02.38.05.46.03.06.07.11.14.15s.18.06.34.06v.14h-1.77v-.14h.07c.15,0,.27-.03.36-.09.06-.04.1-.11.13-.2.01-.04.02-.17.02-.38v-1.54c0-.29-.04-.5-.11-.62-.1-.17-.26-.25-.49-.25-.14,0-.28.03-.42.1s-.31.2-.51.38v.04s0,.17,0,.17v1.71c0,.25.01.4.04.46s.08.11.15.15.2.06.39.06v.14h-1.81v-.14c.2,0,.33-.02.41-.07s.13-.12.15-.21c.01-.04.02-.17.02-.39v-1.54c0-.29-.04-.5-.13-.63-.11-.17-.27-.25-.48-.25-.14,0-.28.04-.42.11-.22.11-.38.24-.5.39v1.92c0,.23.02.39.05.46.03.07.08.12.14.16s.19.05.39.05v.14h-1.77v-.14c.16,0,.28-.02.34-.05.06-.04.11-.09.15-.17.03-.08.05-.23.05-.45v-1.37c0-.39-.01-.65-.04-.76-.02-.09-.05-.15-.09-.18s-.09-.05-.16-.05c-.07,0-.16.02-.26.06l-.06-.14,1.08-.44h.17v.76Z"/>
    <path class="cls-6" d="m57.63,116.49c0,.53.13.95.39,1.25s.57.45.92.45c.23,0,.44-.06.61-.19s.32-.35.44-.66l.12.08c-.05.36-.21.68-.48.97s-.59.44-.99.44c-.43,0-.8-.17-1.1-.5s-.46-.78-.46-1.35c0-.61.16-1.09.47-1.43s.71-.51,1.18-.51c.4,0,.73.13.99.4s.39.62.39,1.06h-2.47Zm0-.23h1.66c-.01-.23-.04-.39-.08-.48-.07-.15-.16-.26-.29-.34s-.26-.12-.4-.12c-.22,0-.41.08-.58.25s-.27.4-.3.7Z"/>
    <path class="cls-6" d="m61.64,115.8c.26-.26.41-.41.46-.45.12-.1.24-.18.38-.23s.27-.08.4-.08c.22,0,.42.07.58.2s.27.32.32.57c.27-.31.5-.52.68-.62s.38-.15.57-.15.36.05.51.15.26.26.35.48c.06.15.09.39.09.71v1.54c0,.22.02.38.05.46.03.06.07.11.14.15s.18.06.34.06v.14h-1.77v-.14h.07c.15,0,.27-.03.36-.09.06-.04.1-.11.13-.2.01-.04.02-.17.02-.38v-1.54c0-.29-.04-.5-.11-.62-.1-.17-.26-.25-.49-.25-.14,0-.28.03-.42.1s-.31.2-.51.38v.04s0,.17,0,.17v1.71c0,.25.01.4.04.46s.08.11.15.15.2.06.39.06v.14h-1.81v-.14c.2,0,.33-.02.41-.07s.13-.12.15-.21c.01-.04.02-.17.02-.39v-1.54c0-.29-.04-.5-.13-.63-.11-.17-.27-.25-.48-.25-.14,0-.28.04-.42.11-.22.11-.38.24-.5.39v1.92c0,.23.02.39.05.46s.08.12.14.16.19.05.39.05v.14h-1.77v-.14c.16,0,.28-.02.34-.05s.11-.09.15-.17.05-.23.05-.45v-1.37c0-.39-.01-.65-.04-.76-.02-.09-.05-.15-.09-.18s-.09-.05-.16-.05c-.07,0-.16.02-.26.06l-.06-.14,1.08-.44h.17v.76Z"/>
    <path class="cls-6" d="m67.85,113.16v2.62c.29-.32.52-.52.69-.61s.34-.13.51-.13c.2,0,.38.06.52.17s.25.29.32.53c.05.17.07.47.07.91v1.27c0,.23.02.38.05.46.03.06.07.11.13.15s.18.05.34.05v.14h-1.76v-.14h.08c.17,0,.28-.03.35-.08s.11-.13.14-.22c0-.04.01-.16.01-.37v-1.27c0-.39-.02-.65-.06-.77s-.1-.21-.19-.28-.2-.09-.32-.09-.26.03-.4.1-.3.2-.5.41v1.89c0,.25.01.4.04.46s.08.11.15.15.2.06.38.06v.14h-1.77v-.14c.16,0,.28-.02.38-.07.05-.03.09-.08.12-.15s.05-.22.05-.45v-3.24c0-.41,0-.66-.03-.75s-.05-.16-.09-.19-.09-.05-.16-.05c-.05,0-.14.02-.27.06l-.05-.14,1.07-.44h.18Z"/>
    <path class="cls-6" d="m73.04,120.29v.14c-.39-.2-.72-.43-.98-.7-.38-.38-.66-.82-.87-1.34s-.3-1.05-.3-1.6c0-.81.2-1.54.6-2.21s.92-1.14,1.56-1.43v.16c-.32.18-.58.42-.79.73s-.36.7-.46,1.17-.15.96-.15,1.48c0,.56.04,1.06.13,1.52.07.36.15.65.25.87s.23.43.39.63.38.39.64.57Z"/>
    <path class="cls-6" d="m74.04,115.58l-.21-1.16c-.06-.32-.09-.53-.09-.65,0-.17.03-.29.1-.36s.16-.11.28-.11.21.04.29.12.11.18.11.31c0,.1-.03.34-.1.71l-.21,1.15h-.17Zm1.43,0l-.21-1.14-.09-.47c0-.07,0-.13,0-.2,0-.16.04-.28.11-.36s.17-.11.29-.11c.11,0,.21.04.28.11s.11.18.11.3c0,.22-.02.46-.07.72l-.22,1.14h-.19Z"/>
    <path class="cls-6" d="m78.12,116.24v1.54c0,.33.04.54.11.62.1.11.25.17.45.17h.2v.14h-2.27v-.14h.2c.22,0,.38-.07.48-.22.05-.08.08-.27.08-.57v-3.42c0-.33-.04-.54-.11-.62-.1-.11-.25-.17-.45-.17h-.2v-.14h1.94c.47,0,.85.05,1.12.15s.5.26.69.49.28.51.28.82c0,.43-.14.78-.43,1.05s-.69.41-1.21.41c-.13,0-.27,0-.41-.03s-.31-.05-.48-.08Zm0-.22c.14.03.26.05.37.06s.2.02.27.02c.27,0,.5-.1.7-.31s.29-.48.29-.81c0-.23-.05-.44-.14-.64s-.23-.34-.4-.44-.37-.15-.59-.15c-.13,0-.3.02-.51.07v2.2Z"/>
    <path class="cls-6" d="m82.23,115.04v.8c.3-.54.61-.8.92-.8.14,0,.26.04.36.13s.14.19.14.3c0,.1-.03.19-.1.26s-.15.11-.24.11-.19-.04-.31-.13-.2-.13-.25-.13c-.05,0-.1.03-.15.08-.12.11-.24.28-.36.53v1.71c0,.2.02.35.07.45.03.07.09.13.18.18s.21.07.37.07v.14h-1.83v-.14c.18,0,.32-.03.41-.09.07-.04.11-.11.14-.2.01-.04.02-.17.02-.38v-1.39c0-.42,0-.67-.03-.74s-.05-.14-.09-.17-.1-.05-.17-.05c-.08,0-.17.02-.27.06l-.04-.14,1.08-.44h.16Z"/>
    <path class="cls-6" d="m85.6,115.04c.54,0,.98.21,1.3.62.28.35.42.75.42,1.21,0,.32-.08.64-.23.97s-.37.58-.63.74-.57.25-.9.25c-.54,0-.97-.21-1.29-.64-.27-.36-.4-.77-.4-1.22,0-.33.08-.65.24-.98s.38-.56.64-.72.55-.23.84-.23Zm-.12.25c-.14,0-.28.04-.42.12s-.25.23-.34.43-.13.47-.13.79c0,.52.1.97.31,1.35s.48.57.82.57c.25,0,.46-.1.62-.31s.25-.57.25-1.07c0-.64-.14-1.14-.41-1.5-.18-.25-.42-.38-.71-.38Z"/>
    <path class="cls-6" d="m88.8,117.41c-.22-.11-.39-.26-.5-.45s-.18-.4-.18-.63c0-.35.13-.66.4-.91s.61-.38,1.03-.38c.34,0,.64.08.89.25h.76c.11,0,.18,0,.2,0s.03.02.04.03c.02.02.02.07.02.12,0,.07,0,.11-.02.14,0,.01-.02.02-.04.03s-.08.01-.2.01h-.46c.15.19.22.43.22.72,0,.33-.13.62-.38.86s-.6.36-1.03.36c-.18,0-.36-.03-.54-.08-.11.1-.19.19-.23.26s-.06.14-.06.19c0,.04.02.09.06.13s.13.07.25.09c.07.01.25.02.55.03.54.01.88.03,1.04.05.24.03.44.12.58.27s.22.33.22.54c0,.29-.14.57-.41.83-.41.38-.94.57-1.59.57-.5,0-.93-.11-1.27-.34-.2-.13-.29-.27-.29-.41,0-.06.01-.12.04-.19.04-.1.14-.23.27-.4.02-.02.15-.16.4-.42-.14-.08-.23-.15-.29-.22s-.08-.14-.08-.22c0-.09.04-.2.11-.32s.25-.3.51-.52Zm-.04,1.3c-.12.13-.21.26-.28.37s-.09.22-.09.32c0,.12.08.23.23.33.26.16.64.24,1.13.24s.81-.08,1.04-.25.33-.34.33-.53c0-.14-.07-.23-.2-.29-.14-.06-.4-.09-.8-.1-.59-.02-1.04-.05-1.35-.09Zm.72-3.5c-.19,0-.35.08-.48.23s-.2.39-.2.71c0,.41.09.73.27.96.14.17.31.26.52.26s.36-.07.49-.22.19-.38.19-.7c0-.41-.09-.74-.27-.97-.13-.17-.3-.26-.51-.26Z"/>
    <path class="cls-6" d="m92.6,117.96c.12,0,.23.04.31.13s.12.19.12.31-.04.22-.13.31-.19.13-.31.13-.22-.04-.31-.13-.13-.19-.13-.31.04-.23.13-.31.19-.12.31-.12Z"/>
    <path class="cls-6" d="m94.88,113.97v1.18h.84v.27h-.84v2.32c0,.23.03.39.1.47s.15.12.26.12c.09,0,.17-.03.25-.08s.14-.13.19-.24h.15c-.09.25-.22.45-.39.58s-.34.19-.52.19c-.12,0-.24-.03-.35-.1s-.2-.16-.25-.29-.08-.31-.08-.57v-2.41h-.57v-.13c.14-.06.29-.15.44-.29s.28-.3.4-.49c.06-.1.14-.28.25-.54h.12Z"/>
    <path class="cls-6" d="m95.92,115.14h1.68v.14c-.11,0-.18.02-.22.05s-.06.08-.06.14c0,.06.05.16.14.29.03.04.07.11.13.2l.25.41.29-.41c.19-.26.28-.42.28-.49,0-.05-.02-.1-.07-.14s-.12-.06-.21-.06v-.14h1.21v.14c-.13,0-.24.04-.33.11-.13.09-.3.28-.52.58l-.49.65.89,1.28c.22.32.38.5.47.57s.21.1.36.11v.14h-1.69v-.14c.12,0,.21-.03.27-.08.05-.04.07-.08.07-.14s-.08-.21-.25-.45l-.52-.77-.57.77c-.18.24-.27.38-.27.42,0,.06.03.12.09.17s.15.08.26.08v.14h-1.17v-.14c.09-.01.18-.05.25-.1.1-.08.27-.27.5-.58l.75-1-.68-.98c-.19-.28-.34-.46-.45-.53s-.24-.11-.4-.11v-.14Z"/>
    <path class="cls-6" d="m101.11,113.97v1.18h.84v.27h-.84v2.32c0,.23.03.39.1.47s.15.12.26.12c.09,0,.17-.03.25-.08s.14-.13.19-.24h.15c-.09.25-.22.45-.39.58s-.34.19-.52.19c-.12,0-.24-.03-.35-.1s-.2-.16-.25-.29-.08-.31-.08-.57v-2.41h-.57v-.13c.14-.06.29-.15.44-.29s.28-.3.4-.49c.06-.1.14-.28.25-.54h.12Z"/>
    <path class="cls-6" d="m102.86,115.58l-.21-1.16c-.06-.32-.09-.53-.09-.65,0-.17.03-.29.1-.36s.16-.11.28-.11.21.04.29.12.11.18.11.31c0,.1-.03.34-.1.71l-.21,1.15h-.17Zm1.43,0l-.21-1.14-.09-.47c0-.07,0-.13,0-.2,0-.16.04-.28.11-.36s.17-.11.29-.11c.11,0,.21.04.28.11s.11.18.11.3c0,.22-.02.46-.07.72l-.22,1.14h-.19Z"/>
    <path class="cls-6" d="m105.74,120.05v-.17c.27-.09.48-.23.62-.41s.22-.38.22-.59c0-.05-.01-.09-.04-.12-.02-.02-.04-.04-.05-.04-.03,0-.09.03-.19.08-.05.02-.1.04-.15.04-.13,0-.23-.04-.3-.11s-.11-.18-.11-.31.05-.24.15-.33.22-.14.36-.14c.17,0,.33.08.46.22s.2.35.2.6c0,.27-.09.52-.28.75s-.48.41-.88.54Z"/>
    <path class="cls-6" d="m111.78,118.57v.14h-2.27v-.14h.19c.22,0,.38-.06.48-.19.06-.08.09-.28.09-.6v-3.42c0-.27-.02-.45-.05-.53-.03-.07-.08-.12-.16-.17-.11-.06-.23-.09-.36-.09h-.19v-.14h2.27v.14h-.19c-.22,0-.37.06-.47.19-.07.08-.1.28-.1.6v3.42c0,.27.02.45.05.53.03.07.08.12.16.17.11.06.23.09.36.09h.19Z"/>
    <path class="cls-6" d="m113.28,115.8c.26-.26.41-.41.46-.45.12-.1.24-.18.38-.23s.27-.08.4-.08c.22,0,.42.07.58.2s.27.32.32.57c.27-.31.5-.52.68-.62s.38-.15.57-.15.36.05.51.15.26.26.35.48c.06.15.09.39.09.71v1.54c0,.22.02.38.05.46.03.06.07.11.14.15s.18.06.34.06v.14h-1.77v-.14h.07c.15,0,.27-.03.36-.09.06-.04.1-.11.13-.2.01-.04.02-.17.02-.38v-1.54c0-.29-.04-.5-.11-.62-.1-.17-.26-.25-.49-.25-.14,0-.28.03-.42.1s-.31.2-.51.38v.04s0,.17,0,.17v1.71c0,.25.01.4.04.46s.08.11.15.15.2.06.39.06v.14h-1.81v-.14c.2,0,.33-.02.41-.07s.13-.12.15-.21c.01-.04.02-.17.02-.39v-1.54c0-.29-.04-.5-.13-.63-.11-.17-.27-.25-.48-.25-.14,0-.28.04-.42.11-.22.11-.38.24-.5.39v1.92c0,.23.02.39.05.46s.08.12.14.16.19.05.39.05v.14h-1.77v-.14c.16,0,.28-.02.34-.05s.11-.09.15-.17.05-.23.05-.45v-1.37c0-.39-.01-.65-.04-.76-.02-.09-.05-.15-.09-.18s-.09-.05-.16-.05c-.07,0-.16.02-.26.06l-.06-.14,1.08-.44h.17v.76Z"/>
    <path class="cls-6" d="m119.05,116.49c0,.53.13.95.39,1.25s.57.45.92.45c.23,0,.44-.06.61-.19s.32-.35.44-.66l.12.08c-.05.36-.21.68-.48.97s-.59.44-.99.44c-.43,0-.8-.17-1.1-.5s-.46-.78-.46-1.35c0-.61.16-1.09.47-1.43s.71-.51,1.18-.51c.4,0,.73.13.99.4s.39.62.39,1.06h-2.47Zm0-.23h1.66c-.01-.23-.04-.39-.08-.48-.07-.15-.16-.26-.29-.34s-.26-.12-.4-.12c-.22,0-.41.08-.58.25s-.27.4-.3.7Z"/>
    <path class="cls-6" d="m123.06,115.8c.26-.26.41-.41.46-.45.12-.1.24-.18.38-.23s.27-.08.4-.08c.22,0,.42.07.58.2s.27.32.32.57c.27-.31.5-.52.68-.62s.38-.15.57-.15.36.05.51.15.26.26.35.48c.06.15.09.39.09.71v1.54c0,.22.02.38.05.46.03.06.07.11.14.15s.18.06.34.06v.14h-1.77v-.14h.07c.15,0,.27-.03.36-.09.06-.04.1-.11.13-.2.01-.04.02-.17.02-.38v-1.54c0-.29-.04-.5-.11-.62-.1-.17-.26-.25-.49-.25-.14,0-.28.03-.42.1s-.31.2-.51.38v.04s0,.17,0,.17v1.71c0,.25.01.4.04.46s.08.11.15.15.2.06.39.06v.14h-1.81v-.14c.2,0,.33-.02.41-.07s.13-.12.15-.21c.01-.04.02-.17.02-.39v-1.54c0-.29-.04-.5-.13-.63-.11-.17-.27-.25-.48-.25-.14,0-.28.04-.42.11-.22.11-.38.24-.5.39v1.92c0,.23.02.39.05.46s.08.12.14.16.19.05.39.05v.14h-1.77v-.14c.16,0,.28-.02.34-.05s.11-.09.15-.17.05-.23.05-.45v-1.37c0-.39-.01-.65-.04-.76-.02-.09-.05-.15-.09-.18s-.09-.05-.16-.05c-.07,0-.16.02-.26.06l-.06-.14,1.08-.44h.17v.76Z"/>
    <path class="cls-6" d="m128.15,113.33v-.16c.4.2.73.43.99.69.37.38.66.83.86,1.34s.3,1.04.3,1.6c0,.81-.2,1.54-.6,2.21s-.92,1.14-1.56,1.43v-.14c.32-.18.58-.42.79-.73s.36-.7.46-1.17.15-.97.15-1.48c0-.55-.04-1.06-.13-1.52-.07-.36-.15-.65-.24-.86s-.23-.42-.39-.62-.38-.39-.64-.57Z"/>
    <path class="cls-6" d="m131.19,120.05v-.17c.27-.09.48-.23.62-.41s.22-.38.22-.59c0-.05-.01-.09-.04-.12-.02-.02-.04-.04-.05-.04-.03,0-.09.03-.19.08-.05.02-.1.04-.15.04-.13,0-.23-.04-.3-.11s-.11-.18-.11-.31.05-.24.15-.33.22-.14.36-.14c.17,0,.33.08.46.22s.2.35.2.6c0,.27-.09.52-.28.75s-.48.41-.88.54Zm.55-5.02c.12,0,.22.04.31.12s.13.18.13.3-.04.22-.13.31-.19.13-.31.13-.22-.04-.31-.13-.13-.19-.13-.31.04-.22.13-.3.19-.12.31-.12Z"/>
  </g>
  <g>
    <path class="cls-6" d="m101.58,87.75c0-.32-.05-.52-.15-.6s-.31-.13-.62-.13v-.14h2.29v.14c-.33.01-.54.06-.63.16s-.14.32-.14.66v3.37c0,.35.05.57.14.66s.3.15.63.16v.14h-2.29v-.14c.34-.01.55-.06.64-.16s.14-.32.14-.66v-3.04l-2.46,3.15c0,.23.02.38.04.46s.09.14.19.18.28.07.53.07v.14h-2.29v-.14c.33-.01.54-.06.63-.16s.14-.32.14-.66v-3.37c0-.35-.05-.57-.14-.66s-.3-.15-.63-.16v-.14h2.29v.14c-.33.01-.54.06-.63.16s-.14.32-.14.66v3.05l2.46-3.14Z"/>
    <path class="cls-6" d="m104.61,90.19h1.55v-.76c0-.23,0-.37-.03-.44s-.06-.13-.13-.18-.2-.07-.38-.07v-.15h1.73v.15c-.16,0-.28.02-.35.05s-.12.09-.15.16-.04.23-.04.48v1.9c0,.23,0,.38.03.45s.07.13.14.18.2.07.37.07v.14h-1.73v-.14c.22,0,.36-.04.43-.12s.11-.27.11-.58v-.89h-1.55v.89c0,.23,0,.38.03.45s.07.13.14.18.2.07.37.07v.14h-1.73v-.14c.23,0,.38-.04.45-.13s.1-.27.1-.57v-1.9c0-.23,0-.38-.03-.45s-.07-.13-.14-.18-.2-.07-.37-.07v-.15h1.73v.15c-.16,0-.28.02-.35.05s-.12.09-.15.16-.04.23-.04.48v.76Z"/>
    <path class="cls-6" d="m110.81,90.81c-.1.47-.29.83-.57,1.09s-.59.38-.93.38c-.41,0-.76-.17-1.06-.51s-.45-.8-.45-1.38.17-1.02.5-1.37.74-.53,1.21-.53c.35,0,.64.09.87.28s.34.38.34.58c0,.1-.03.18-.1.24s-.15.09-.27.09c-.15,0-.27-.05-.35-.15-.04-.05-.07-.16-.09-.31s-.07-.27-.16-.35c-.09-.08-.22-.12-.38-.12-.26,0-.47.1-.63.29-.21.25-.32.59-.32,1.01s.1.8.31,1.13.49.49.85.49c.25,0,.48-.09.69-.26.14-.12.28-.34.42-.65l.11.05Z"/>
    <path class="cls-6" d="m111.27,88.6h3.09l.16.97h-.18c-.03-.2-.08-.35-.16-.45s-.16-.18-.25-.21-.25-.05-.48-.05h-.31v2.48c0,.27.02.43.05.51s.08.12.16.14.24.04.5.05v.14h-1.95v-.14c.25,0,.41-.05.48-.12s.11-.27.11-.57v-2.48h-.32c-.22,0-.38.01-.46.04s-.16.09-.23.2-.14.26-.19.48h-.18l.15-.97Z"/>
    <path class="cls-6" d="m114.56,88.95l1.1-.45h.15v.84c.18-.32.37-.54.56-.66s.38-.19.59-.19c.36,0,.66.14.9.42.29.34.44.79.44,1.34,0,.62-.18,1.13-.53,1.53-.29.33-.66.5-1.1.5-.19,0-.36-.03-.5-.08-.1-.04-.22-.12-.35-.23v1.09c0,.25.01.4.04.47s.08.12.16.16.21.06.4.06v.14h-1.88v-.14h.1c.14,0,.27-.02.37-.08.05-.03.09-.08.12-.14s.04-.23.04-.49v-3.38c0-.23-.01-.38-.03-.44s-.05-.11-.1-.14-.11-.05-.19-.05c-.06,0-.14.02-.24.05l-.05-.12Zm1.25.62v1.34c0,.29.01.48.04.57.04.15.13.28.27.4s.32.17.54.17c.26,0,.47-.1.63-.3.21-.27.32-.64.32-1.12,0-.55-.12-.97-.36-1.26-.17-.2-.36-.3-.59-.3-.12,0-.25.03-.37.09-.09.05-.25.19-.46.42Z"/>
    <path class="cls-6" d="m118.62,88.6h1.67v.14h-.08c-.12,0-.21.03-.26.08s-.09.11-.09.19c0,.1.04.24.13.42l.87,1.8.8-1.98c.04-.11.07-.21.07-.32,0-.05,0-.08-.03-.11-.02-.03-.05-.05-.1-.07s-.12-.03-.23-.03v-.14h1.16v.14c-.1.01-.17.03-.22.06s-.11.09-.17.18c-.02.04-.07.14-.13.3l-1.46,3.57c-.14.35-.33.61-.55.79s-.45.27-.66.27c-.15,0-.28-.04-.38-.13s-.15-.19-.15-.3.04-.2.11-.26.17-.1.29-.1c.09,0,.2.03.35.09.1.04.17.06.2.06.08,0,.16-.04.26-.12s.19-.24.28-.47l.25-.62-1.29-2.7c-.04-.08-.1-.18-.19-.3-.07-.09-.12-.15-.16-.18-.06-.04-.16-.08-.29-.11v-.14Z"/>
    <path class="cls-6" d="m126.41,92.17h-1.05c-.33-.48-.62-.96-.89-1.46-.06-.11-.12-.2-.17-.26s-.12-.08-.21-.08c-.03,0-.08,0-.15,0v.96c0,.26.01.42.04.49s.08.12.16.15.21.05.39.05v.14h-1.79v-.14c.23,0,.38-.04.45-.13s.1-.27.1-.57v-1.9c0-.28-.01-.44-.04-.49s-.07-.1-.13-.14-.18-.06-.37-.06v-.15h1.79v.15c-.22,0-.35.02-.4.05s-.1.07-.14.12-.06.22-.06.53v.7c.06,0,.1,0,.12,0,.16,0,.31-.04.45-.13s.26-.28.37-.57c.1-.28.19-.46.25-.56s.16-.17.28-.24.24-.09.37-.09c.14,0,.25.03.34.1s.12.16.12.27c0,.09-.03.17-.09.23s-.14.1-.25.1c-.06,0-.13-.02-.21-.05-.11-.04-.19-.06-.25-.06-.12,0-.22.1-.3.31-.09.24-.15.39-.2.46s-.12.16-.24.28c.08.02.17.08.26.18s.27.37.53.82c.21.36.36.59.46.69s.25.15.45.15v.14Z"/>
    <path class="cls-6" d="m130.56,92.03v1.14h-.14c0-.3-.11-.55-.3-.72s-.54-.27-1.04-.27h-2.44v-.14c.23,0,.38-.04.45-.13s.1-.27.1-.57v-1.9c0-.28-.01-.44-.04-.49s-.07-.1-.13-.14-.18-.06-.37-.06v-.15h1.73v.15c-.17,0-.29.02-.35.05s-.11.08-.14.13-.05.22-.05.51v2.02c0,.23.02.36.06.4s.17.06.39.06h.63c.24,0,.38-.02.41-.07s.05-.19.05-.43v-1.99c0-.25-.01-.41-.04-.48s-.08-.12-.15-.16-.19-.05-.35-.05v-.15h1.73v.15c-.17,0-.29.02-.35.05s-.11.08-.14.13-.05.22-.05.51v1.84c0,.34.03.54.09.62s.21.12.45.13Z"/>
    <path class="cls-6" d="m132.1,90.19h.45c1.06,0,1.59.32,1.59.98,0,.3-.13.55-.39.73s-.63.28-1.12.28h-1.72v-.14c.23,0,.38-.04.45-.13s.1-.27.1-.57v-1.9c0-.28-.01-.44-.04-.49s-.07-.1-.13-.14-.18-.06-.37-.06v-.15h1.87v.15c-.26,0-.42.01-.48.04s-.11.07-.15.12-.06.22-.06.53v.75Zm0,1.68c.14.04.28.05.41.05.26,0,.47-.07.63-.21s.24-.31.24-.52c0-.5-.35-.75-1.04-.75-.06,0-.14,0-.25,0v1.42Zm2.03-3.12v-.15h1.8v.15c-.16,0-.27.02-.35.05s-.12.09-.15.16-.04.23-.04.48v1.9c0,.25.01.4.04.47s.07.13.15.16.19.06.35.06v.14h-1.8v-.14c.2,0,.33-.02.4-.04s.11-.07.15-.15.06-.25.06-.5v-1.9c0-.25-.01-.42-.04-.49s-.08-.12-.15-.15-.21-.05-.42-.05Z"/>
    <path class="cls-6" d="m137.48,90.19h1.55v-.76c0-.23,0-.37-.03-.44s-.06-.13-.13-.18-.2-.07-.38-.07v-.15h1.73v.15c-.16,0-.28.02-.35.05s-.12.09-.15.16-.04.23-.04.48v1.9c0,.23,0,.38.03.45s.07.13.14.18.2.07.37.07v.14h-1.73v-.14c.22,0,.36-.04.43-.12s.11-.27.11-.58v-.89h-1.55v.89c0,.23,0,.38.03.45s.07.13.14.18.2.07.37.07v.14h-1.73v-.14c.23,0,.38-.04.45-.13s.1-.27.1-.57v-1.9c0-.23,0-.38-.03-.45s-.07-.13-.14-.18-.2-.07-.37-.07v-.15h1.73v.15c-.16,0-.28.02-.35.05s-.12.09-.15.16-.04.23-.04.48v.76Z"/>
    <path class="cls-6" d="m145.69,90.81c-.1.47-.29.83-.57,1.09s-.59.38-.93.38c-.41,0-.76-.17-1.06-.51s-.45-.8-.45-1.38.17-1.02.5-1.37.74-.53,1.21-.53c.35,0,.64.09.87.28s.34.38.34.58c0,.1-.03.18-.1.24s-.15.09-.27.09c-.15,0-.27-.05-.35-.15-.04-.05-.07-.16-.09-.31s-.07-.27-.16-.35c-.09-.08-.22-.12-.38-.12-.26,0-.47.1-.63.29-.21.25-.32.59-.32,1.01s.1.8.31,1.13.49.49.85.49c.25,0,.48-.09.69-.26.14-.12.28-.34.42-.65l.11.05Z"/>
    <path class="cls-6" d="m148.22,91.66c-.37.28-.6.45-.69.49-.14.07-.29.1-.45.1-.25,0-.45-.08-.61-.25s-.24-.39-.24-.67c0-.17.04-.33.12-.45.11-.18.29-.34.56-.5s.7-.35,1.32-.57v-.14c0-.36-.06-.6-.17-.73s-.28-.2-.49-.2c-.16,0-.29.04-.39.13-.1.09-.15.19-.15.3v.23c0,.12-.02.21-.08.28s-.14.1-.24.1-.17-.03-.24-.1-.09-.16-.09-.28c0-.22.11-.43.34-.62s.55-.28.96-.28c.32,0,.58.05.78.16.15.08.27.21.34.38.05.11.07.34.07.69v1.21c0,.34,0,.55.02.63s.03.13.06.15.06.04.1.04c.04,0,.08,0,.11-.03.05-.03.16-.13.32-.29v.22c-.29.39-.57.59-.84.59-.13,0-.23-.04-.3-.13s-.11-.24-.12-.45Zm0-.25v-1.36c-.39.16-.65.27-.76.33-.21.11-.35.23-.44.36s-.13.26-.13.41c0,.19.06.34.17.47s.24.19.39.19c.2,0,.46-.13.78-.39Z"/>
    <path class="cls-6" d="m150.87,90.19h1.55v-.76c0-.23,0-.37-.03-.44s-.06-.13-.13-.18-.2-.07-.38-.07v-.15h1.73v.15c-.16,0-.28.02-.35.05s-.12.09-.15.16-.04.23-.04.48v1.9c0,.23,0,.38.03.45s.07.13.14.18.2.07.37.07v.14h-1.73v-.14c.22,0,.36-.04.43-.12s.11-.27.11-.58v-.89h-1.55v.89c0,.23,0,.38.03.45s.07.13.14.18.2.07.37.07v.14h-1.73v-.14c.23,0,.38-.04.45-.13s.1-.27.1-.57v-1.9c0-.23,0-.38-.03-.45s-.07-.13-.14-.18-.2-.07-.37-.07v-.15h1.73v.15c-.16,0-.28.02-.35.05s-.12.09-.15.16-.04.23-.04.48v.76Z"/>
    <path class="cls-6" d="m156.06,91.66c-.37.28-.6.45-.69.49-.14.07-.29.1-.45.1-.25,0-.45-.08-.61-.25s-.24-.39-.24-.67c0-.17.04-.33.12-.45.11-.18.29-.34.56-.5s.7-.35,1.32-.57v-.14c0-.36-.06-.6-.17-.73s-.28-.2-.49-.2c-.16,0-.29.04-.39.13-.1.09-.15.19-.15.3v.23c0,.12-.02.21-.08.28s-.14.1-.24.1-.17-.03-.24-.1-.09-.16-.09-.28c0-.22.11-.43.34-.62s.55-.28.96-.28c.32,0,.58.05.78.16.15.08.27.21.34.38.05.11.07.34.07.69v1.21c0,.34,0,.55.02.63s.03.13.06.15.06.04.1.04c.04,0,.08,0,.11-.03.05-.03.16-.13.32-.29v.22c-.29.39-.57.59-.84.59-.13,0-.23-.04-.3-.13s-.11-.24-.12-.45Zm0-.25v-1.36c-.39.16-.65.27-.76.33-.21.11-.35.23-.44.36s-.13.26-.13.41c0,.19.06.34.17.47s.24.19.39.19c.2,0,.46-.13.78-.39Z"/>
    <path class="cls-6" d="m157.44,88.6h1.68v.14c-.11,0-.18.02-.22.05s-.06.08-.06.14c0,.06.05.16.14.29.03.04.07.11.13.2l.25.41.29-.41c.19-.26.28-.42.28-.49,0-.05-.02-.1-.07-.14s-.12-.06-.21-.06v-.14h1.21v.14c-.13,0-.24.04-.33.11-.13.09-.3.28-.52.58l-.49.65.89,1.28c.22.32.38.5.47.57s.21.1.36.11v.14h-1.69v-.14c.12,0,.21-.03.27-.08.05-.04.07-.08.07-.14s-.08-.21-.25-.45l-.52-.77-.57.77c-.18.24-.27.38-.27.42,0,.06.03.12.09.17s.15.08.26.08v.14h-1.17v-.14c.09-.01.18-.05.25-.1.1-.08.27-.27.5-.58l.75-1-.68-.98c-.19-.28-.34-.46-.45-.53s-.24-.11-.4-.11v-.14Z"/>
    <path class="cls-6" d="m165.33,88.49c.54,0,.98.21,1.3.62.28.35.42.75.42,1.21,0,.32-.08.64-.23.97s-.37.58-.63.74-.57.25-.9.25c-.54,0-.97-.21-1.29-.64-.27-.36-.4-.77-.4-1.22,0-.33.08-.65.24-.98s.38-.56.64-.72.55-.23.84-.23Zm-.12.25c-.14,0-.28.04-.42.12s-.25.23-.34.43-.13.47-.13.79c0,.52.1.97.31,1.35s.48.57.82.57c.25,0,.46-.1.62-.31s.25-.57.25-1.07c0-.64-.14-1.14-.41-1.5-.18-.25-.42-.38-.71-.38Z"/>
    <path class="cls-6" d="m168.7,91.07l1.55-1.79c0-.2-.04-.34-.11-.42s-.19-.12-.36-.12v-.15h1.66v.15c-.17,0-.29.02-.35.05s-.11.08-.14.13-.05.22-.05.51v1.9c0,.28.01.44.04.49s.07.1.13.14.18.06.37.06v.14h-1.73v-.14c.22,0,.36-.04.43-.12s.11-.27.11-.58v-1.68l-1.55,1.79c0,.22.04.37.09.46s.18.13.37.13v.14h-1.65v-.14c.23,0,.38-.04.45-.13s.1-.27.1-.57v-1.9c0-.28-.01-.44-.04-.49s-.07-.1-.13-.14-.18-.06-.37-.06v-.15h1.73v.15c-.17,0-.29.02-.35.05s-.11.08-.14.13-.05.22-.05.51v1.64Zm-.51-3.91c0-.09.03-.17.08-.22s.12-.08.19-.08c.17,0,.32.16.46.48.08.18.16.3.26.34s.19.07.29.07c.16,0,.29-.04.37-.11s.16-.2.23-.38c.11-.27.24-.41.4-.41.08,0,.14.03.2.08s.08.13.08.21c0,.2-.13.39-.39.56s-.56.26-.89.26c-.43,0-.75-.08-.96-.23s-.32-.35-.32-.57Z"/>
  </g>
  <g>
    <path class="cls-6" d="m77.98,80.33l1.14,1.7c.32.47.55.76.7.89s.35.19.58.21v.14h-2.27v-.14c.15,0,.26-.02.34-.05.05-.02.1-.06.13-.11s.05-.1.05-.15c0-.06-.01-.12-.04-.18-.02-.04-.09-.16-.21-.34l-.9-1.36-1.11,1.42c-.12.15-.19.25-.21.3s-.04.1-.04.16c0,.08.04.15.11.21s.2.09.4.09v.14h-1.88v-.14c.13-.01.25-.04.34-.08.16-.07.32-.16.46-.27s.31-.29.5-.53l1.25-1.58-1.04-1.53c-.28-.41-.52-.69-.72-.81s-.43-.2-.68-.21v-.14h2.45v.14c-.21,0-.35.04-.43.1s-.12.13-.12.2c0,.1.06.24.19.42l.81,1.21.94-1.19c.11-.14.18-.24.2-.29s.04-.11.04-.16-.02-.1-.05-.14c-.04-.05-.09-.09-.15-.12s-.18-.03-.37-.04v-.14h1.88v.14c-.15,0-.27.03-.36.07-.14.06-.27.14-.39.24s-.28.29-.5.56l-1.05,1.34Z"/>
    <path class="cls-6" d="m82.77,82.75c-.37.28-.6.45-.69.49-.14.07-.29.1-.45.1-.25,0-.45-.08-.61-.25s-.24-.39-.24-.67c0-.17.04-.33.12-.45.11-.18.29-.34.56-.5s.7-.35,1.32-.57v-.14c0-.36-.06-.6-.17-.73s-.28-.2-.49-.2c-.16,0-.29.04-.39.13-.1.09-.15.19-.15.3v.23c0,.12-.02.21-.08.28s-.14.1-.24.1-.17-.03-.24-.1-.09-.16-.09-.28c0-.22.11-.43.34-.62s.55-.28.96-.28c.32,0,.58.05.78.16.15.08.27.21.34.38.05.11.07.34.07.69v1.21c0,.34,0,.55.02.63s.03.13.06.15.06.04.1.04c.04,0,.08,0,.11-.03.05-.03.16-.13.32-.29v.22c-.29.39-.57.59-.84.59-.13,0-.23-.04-.3-.13s-.11-.24-.12-.45Zm0-.25v-1.36c-.39.16-.65.27-.76.33-.21.11-.35.23-.44.36s-.13.26-.13.41c0,.19.06.34.17.47s.24.19.39.19c.2,0,.46-.13.78-.39Z"/>
    <path class="cls-6" d="m87.54,79.69v.15c-.16,0-.28.02-.36.07s-.13.1-.15.17-.04.22-.04.46v1.9c0,.23.01.38.03.45s.07.13.15.18.2.07.36.07v.14h-1.73v-.14c.22,0,.36-.04.43-.12s.11-.27.11-.58v-.78h-.16s-.07,0-.12,0l-1.14,1.62h-.89v-.14c.13,0,.22-.02.27-.05s.15-.15.28-.35l.84-1.18c-.6-.21-.9-.53-.9-.96,0-.24.11-.45.32-.63s.58-.27,1.1-.27h1.59Zm-1.19.3c-.1-.03-.2-.04-.29-.04-.26,0-.46.07-.59.2s-.2.29-.2.46c0,.23.09.42.28.57s.42.23.7.23c.03,0,.06,0,.1,0v-1.41Z"/>
    <path class="cls-6" d="m90.81,79.69l.14.98h-.17c-.1-.32-.2-.52-.3-.6s-.31-.12-.63-.12h-.76v2.48c0,.28.01.44.04.49s.07.1.13.14.18.06.37.06v.14h-1.79v-.14c.25,0,.42-.04.49-.12s.11-.27.11-.58v-1.9c0-.25-.01-.42-.04-.49s-.08-.12-.15-.15-.21-.05-.41-.05v-.15h2.96Z"/>
  </g>
  <g>
    <path class="cls-6" d="m12.92,45.28v1.54c0,.33.04.54.11.62.1.11.25.17.45.17h.2v.14h-2.27v-.14h.2c.22,0,.38-.07.48-.22.05-.08.08-.27.08-.57v-3.42c0-.33-.04-.54-.11-.62-.1-.11-.25-.17-.45-.17h-.2v-.14h1.94c.47,0,.85.05,1.12.15s.5.26.69.49.28.51.28.82c0,.43-.14.78-.43,1.05s-.69.41-1.21.41c-.13,0-.27,0-.41-.03s-.31-.05-.48-.08Zm0-.22c.14.03.26.05.37.06s.2.02.27.02c.27,0,.5-.1.7-.31s.29-.48.29-.81c0-.23-.05-.44-.14-.64s-.23-.34-.4-.44-.37-.15-.59-.15c-.13,0-.3.02-.51.07v2.2Z"/>
    <path class="cls-6" d="m17.02,44.08v.8c.3-.54.61-.8.92-.8.14,0,.26.04.36.13s.14.19.14.3c0,.1-.03.19-.1.26s-.15.11-.24.11-.19-.04-.31-.13-.2-.13-.25-.13c-.05,0-.1.03-.15.08-.12.11-.24.28-.36.53v1.71c0,.2.02.35.07.45.03.07.09.13.18.18s.21.07.37.07v.14h-1.83v-.14c.18,0,.32-.03.41-.09.07-.04.11-.11.14-.2.01-.04.02-.17.02-.38v-1.39c0-.42,0-.67-.03-.74s-.05-.14-.09-.17-.1-.05-.17-.05c-.08,0-.17.02-.27.06l-.04-.14,1.08-.44h.16Z"/>
    <path class="cls-6" d="m20.39,44.08c.54,0,.98.21,1.3.62.28.35.42.75.42,1.21,0,.32-.08.64-.23.97s-.37.58-.63.74-.57.25-.9.25c-.54,0-.97-.21-1.29-.64-.27-.36-.4-.77-.4-1.22,0-.33.08-.65.24-.98s.38-.56.64-.72.55-.23.84-.23Zm-.12.25c-.14,0-.28.04-.42.12s-.25.23-.34.43-.13.47-.13.79c0,.52.1.97.31,1.35s.48.57.82.57c.25,0,.46-.1.62-.31s.25-.57.25-1.07c0-.64-.14-1.14-.41-1.5-.18-.25-.42-.38-.71-.38Z"/>
    <path class="cls-6" d="m23.6,46.46c-.22-.11-.39-.26-.5-.45-.12-.19-.18-.4-.18-.63,0-.35.13-.66.4-.91.27-.25.61-.38,1.03-.38.34,0,.64.08.89.25h.76c.11,0,.18,0,.2,0s.03.02.04.03c.02.02.02.07.02.12,0,.07,0,.11-.02.14,0,.01-.02.02-.04.03s-.08.01-.2.01h-.46c.15.19.22.43.22.72,0,.33-.13.62-.38.86s-.6.36-1.03.36c-.18,0-.36-.03-.54-.08-.11.1-.19.19-.23.26s-.06.14-.06.19c0,.04.02.09.06.13s.13.07.25.09c.07.01.25.02.55.03.54.01.88.03,1.04.05.24.03.44.12.58.27s.22.33.22.54c0,.29-.14.57-.41.83-.41.38-.94.57-1.59.57-.5,0-.93-.11-1.27-.34-.2-.13-.29-.27-.29-.41,0-.06.01-.12.04-.19.04-.1.14-.23.27-.4.02-.02.15-.16.4-.42-.14-.08-.23-.15-.29-.22s-.08-.14-.08-.22c0-.09.04-.2.11-.32s.24-.3.51-.52Zm-.04,1.3c-.12.13-.21.26-.28.37s-.09.22-.09.32c0,.12.08.23.23.33.26.16.64.24,1.13.24s.81-.08,1.04-.25.33-.34.33-.53c0-.14-.07-.23-.2-.29-.14-.06-.4-.09-.8-.1-.59-.02-1.04-.05-1.35-.09Zm.72-3.5c-.19,0-.35.08-.48.23s-.2.39-.2.71c0,.41.09.73.27.96.14.17.31.26.52.26s.36-.07.49-.22.19-.38.19-.7c0-.41-.09-.74-.27-.97-.13-.17-.3-.26-.51-.26Z"/>
    <path class="cls-6" d="m27.39,47.01c.12,0,.23.04.31.13s.12.19.12.31-.04.22-.13.31-.19.13-.31.13-.22-.04-.31-.13-.13-.19-.13-.31.04-.23.13-.31.19-.12.31-.12Z"/>
    <path class="cls-6" d="m29.68,43.01v1.18h.84v.27h-.84v2.32c0,.23.03.39.1.47s.15.12.26.12c.09,0,.17-.03.25-.08s.14-.13.19-.24h.15c-.09.25-.22.45-.39.58s-.34.19-.52.19c-.12,0-.24-.03-.35-.1s-.2-.16-.25-.29-.08-.31-.08-.57v-2.41h-.57v-.13c.14-.06.29-.15.44-.29s.28-.3.4-.49c.06-.1.14-.28.25-.54h.12Z"/>
    <path class="cls-6" d="m30.72,44.18h1.68v.14c-.11,0-.18.02-.22.05s-.06.08-.06.14c0,.06.05.16.14.29.03.04.07.11.13.2l.25.41.29-.41c.19-.26.28-.42.28-.49,0-.05-.02-.1-.07-.14s-.12-.06-.21-.06v-.14h1.21v.14c-.13,0-.24.04-.33.11-.13.09-.3.28-.52.58l-.49.65.89,1.28c.22.32.38.5.47.57s.21.1.36.11v.14h-1.69v-.14c.12,0,.21-.03.27-.08.05-.04.07-.08.07-.14s-.08-.21-.25-.45l-.52-.77-.57.77c-.18.24-.27.38-.27.42,0,.06.03.12.09.17s.15.08.26.08v.14h-1.17v-.14c.09-.01.18-.05.25-.1.1-.08.27-.27.5-.58l.75-1-.68-.98c-.19-.28-.34-.46-.45-.53s-.24-.11-.4-.11v-.14Z"/>
    <path class="cls-6" d="m35.9,43.01v1.18h.84v.27h-.84v2.32c0,.23.03.39.1.47s.15.12.26.12c.09,0,.17-.03.25-.08s.14-.13.19-.24h.15c-.09.25-.22.45-.39.58s-.34.19-.52.19c-.12,0-.24-.03-.35-.1s-.2-.16-.25-.29-.08-.31-.08-.57v-2.41h-.57v-.13c.14-.06.29-.15.44-.29s.28-.3.4-.49c.06-.1.14-.28.25-.54h.12Z"/>
  </g>
  <path class="cls-1" d="m105.59,61.43h48m-48-34.14h48m-48,17h48M105.49,11.52h48.19v65.53h-48.19V11.52ZM.33,11.52h48.19v65.53H.33V11.52Z"/>
  <g>
    <path class="cls-6" d="m112.6,66.91c0-.32-.05-.52-.15-.6s-.31-.13-.62-.13v-.14h2.29v.14c-.33.01-.54.06-.63.16s-.14.32-.14.66v3.37c0,.35.05.57.14.66s.3.15.63.16v.14h-2.29v-.14c.34-.01.55-.06.64-.16s.14-.32.14-.66v-3.04l-2.46,3.15c0,.23.02.38.04.46s.09.14.19.18.28.07.53.07v.14h-2.29v-.14c.33-.01.54-.06.63-.16s.14-.32.14-.66v-3.37c0-.35-.05-.57-.14-.66s-.3-.15-.63-.16v-.14h2.29v.14c-.33.01-.54.06-.63.16s-.14.32-.14.66v3.05l2.46-3.14Z"/>
    <path class="cls-6" d="m115.63,69.36h1.55v-.76c0-.23,0-.37-.03-.44s-.06-.13-.13-.18-.2-.07-.38-.07v-.15h1.73v.15c-.16,0-.28.02-.35.05s-.12.09-.15.16-.04.23-.04.48v1.9c0,.23,0,.38.03.45s.07.13.14.18.2.07.37.07v.14h-1.73v-.14c.22,0,.36-.04.43-.12s.11-.27.11-.58v-.89h-1.55v.89c0,.23,0,.38.03.45s.07.13.14.18.2.07.37.07v.14h-1.73v-.14c.23,0,.38-.04.45-.13s.1-.27.1-.57v-1.9c0-.23,0-.38-.03-.45s-.07-.13-.14-.18-.2-.07-.37-.07v-.15h1.73v.15c-.16,0-.28.02-.35.05s-.12.09-.15.16-.04.23-.04.48v.76Z"/>
    <path class="cls-6" d="m121.83,69.98c-.1.47-.29.83-.57,1.09s-.59.38-.93.38c-.41,0-.76-.17-1.06-.51s-.45-.8-.45-1.38.17-1.02.5-1.37.74-.53,1.21-.53c.35,0,.64.09.87.28s.34.38.34.58c0,.1-.03.18-.1.24s-.15.09-.27.09c-.15,0-.27-.05-.35-.15-.04-.05-.07-.16-.09-.31s-.07-.27-.16-.35c-.09-.08-.22-.12-.38-.12-.26,0-.47.1-.63.29-.21.25-.32.59-.32,1.01s.1.8.31,1.13.49.49.85.49c.25,0,.48-.09.69-.26.14-.12.28-.34.42-.65l.11.05Z"/>
    <path class="cls-6" d="m122.29,67.76h3.09l.16.97h-.18c-.03-.2-.08-.35-.16-.45s-.16-.18-.25-.21-.25-.05-.48-.05h-.31v2.48c0,.27.02.43.05.51s.08.12.16.14.24.04.5.05v.14h-1.95v-.14c.25,0,.41-.05.48-.12s.11-.27.11-.57v-2.48h-.32c-.22,0-.38.01-.46.04s-.16.09-.23.2-.14.26-.19.48h-.18l.15-.97Z"/>
    <path class="cls-6" d="m125.58,68.11l1.1-.45h.15v.84c.18-.32.37-.54.56-.66s.38-.19.59-.19c.36,0,.66.14.9.42.29.34.44.79.44,1.34,0,.62-.18,1.13-.53,1.53-.29.33-.66.5-1.1.5-.19,0-.36-.03-.5-.08-.1-.04-.22-.12-.35-.23v1.09c0,.25.01.4.04.47s.08.12.16.16.21.06.4.06v.14h-1.88v-.14h.1c.14,0,.27-.02.37-.08.05-.03.09-.08.12-.14s.04-.23.04-.49v-3.38c0-.23-.01-.38-.03-.44s-.05-.11-.1-.14-.11-.05-.19-.05c-.06,0-.14.02-.24.05l-.05-.12Zm1.25.62v1.34c0,.29.01.48.04.57.04.15.13.28.27.4s.32.17.54.17c.26,0,.47-.1.63-.3.21-.27.32-.64.32-1.12,0-.55-.12-.97-.36-1.26-.17-.2-.36-.3-.59-.3-.12,0-.25.03-.37.09-.09.05-.25.19-.46.42Z"/>
    <path class="cls-6" d="m129.64,67.76h1.67v.14h-.08c-.12,0-.21.03-.26.08s-.09.11-.09.19c0,.1.04.24.13.42l.87,1.8.8-1.98c.04-.11.07-.21.07-.32,0-.05,0-.08-.03-.11-.02-.03-.05-.05-.1-.07s-.12-.03-.23-.03v-.14h1.16v.14c-.1.01-.17.03-.22.06s-.11.09-.17.18c-.02.04-.07.14-.13.3l-1.46,3.57c-.14.35-.33.61-.55.79s-.45.27-.66.27c-.15,0-.28-.04-.38-.13s-.15-.19-.15-.3.04-.2.11-.26.17-.1.29-.1c.09,0,.2.03.35.09.1.04.17.06.2.06.08,0,.16-.04.26-.12s.19-.24.28-.47l.25-.62-1.29-2.7c-.04-.08-.1-.18-.19-.3-.07-.09-.12-.15-.16-.18-.06-.04-.16-.08-.29-.11v-.14Z"/>
    <path class="cls-6" d="m137.43,71.34h-1.05c-.33-.48-.62-.96-.89-1.46-.06-.11-.12-.2-.17-.26s-.12-.08-.21-.08c-.03,0-.08,0-.15,0v.96c0,.26.01.42.04.49s.08.12.16.15.21.05.39.05v.14h-1.79v-.14c.23,0,.38-.04.45-.13s.1-.27.1-.57v-1.9c0-.28-.01-.44-.04-.49s-.07-.1-.13-.14-.18-.06-.37-.06v-.15h1.79v.15c-.22,0-.35.02-.4.05s-.1.07-.14.12-.06.22-.06.53v.7c.06,0,.1,0,.12,0,.16,0,.31-.04.45-.13s.26-.28.37-.57c.1-.28.19-.46.25-.56s.16-.17.28-.24.24-.09.37-.09c.14,0,.25.03.34.1s.12.16.12.27c0,.09-.03.17-.09.23s-.14.1-.25.1c-.06,0-.13-.02-.21-.05-.11-.04-.19-.06-.25-.06-.12,0-.22.1-.3.31-.09.24-.15.39-.2.46s-.12.16-.24.28c.08.02.17.08.26.18s.27.37.53.82c.21.36.36.59.46.69s.25.15.45.15v.14Z"/>
    <path class="cls-6" d="m141.58,71.19v1.14h-.14c0-.3-.11-.55-.3-.72s-.54-.27-1.04-.27h-2.44v-.14c.23,0,.38-.04.45-.13s.1-.27.1-.57v-1.9c0-.28-.01-.44-.04-.49s-.07-.1-.13-.14-.18-.06-.37-.06v-.15h1.73v.15c-.17,0-.29.02-.35.05s-.11.08-.14.13-.05.22-.05.51v2.02c0,.23.02.36.06.4s.17.06.39.06h.63c.24,0,.38-.02.41-.07s.05-.19.05-.43v-1.99c0-.25-.01-.41-.04-.48s-.08-.12-.15-.16-.19-.05-.35-.05v-.15h1.73v.15c-.17,0-.29.02-.35.05s-.11.08-.14.13-.05.22-.05.51v1.84c0,.34.03.54.09.62s.21.12.45.13Z"/>
    <path class="cls-6" d="m143.13,70.23l1.55-1.79c0-.2-.04-.34-.11-.42s-.19-.12-.36-.12v-.15h1.66v.15c-.17,0-.29.02-.35.05s-.11.08-.14.13-.05.22-.05.51v1.9c0,.28.01.44.04.49s.07.1.13.14.18.06.37.06v.14h-1.73v-.14c.22,0,.36-.04.43-.12s.11-.27.11-.58v-1.68l-1.55,1.79c0,.22.04.37.09.46s.18.13.37.13v.14h-1.65v-.14c.23,0,.38-.04.45-.13s.1-.27.1-.57v-1.9c0-.28-.01-.44-.04-.49s-.07-.1-.13-.14-.18-.06-.37-.06v-.15h1.73v.15c-.17,0-.29.02-.35.05s-.11.08-.14.13-.05.22-.05.51v1.64Z"/>
    <path class="cls-6" d="m148.98,66.56l1.29-.63h.13v4.47c0,.3.01.48.04.55s.08.13.15.17.24.06.48.07v.14h-1.99v-.14c.25,0,.41-.03.48-.06s.12-.09.15-.15.04-.25.04-.57v-2.86c0-.39-.01-.63-.04-.74-.02-.08-.05-.14-.1-.18s-.11-.06-.17-.06c-.1,0-.23.04-.4.12l-.06-.12Z"/>
  </g>
  <g>
    <path class="cls-6" d="m112.6,50.93c0-.32-.05-.52-.15-.6s-.31-.13-.62-.13v-.14h2.29v.14c-.33.01-.54.06-.63.16s-.14.32-.14.66v3.37c0,.35.05.57.14.66s.3.15.63.16v.14h-2.29v-.14c.34-.01.55-.06.64-.16s.14-.32.14-.66v-3.04l-2.46,3.15c0,.23.02.38.04.46s.09.14.19.18.28.07.53.07v.14h-2.29v-.14c.33-.01.54-.06.63-.16s.14-.32.14-.66v-3.37c0-.35-.05-.57-.14-.66s-.3-.15-.63-.16v-.14h2.29v.14c-.33.01-.54.06-.63.16s-.14.32-.14.66v3.05l2.46-3.14Z"/>
    <path class="cls-6" d="m115.63,53.37h1.55v-.76c0-.23,0-.37-.03-.44s-.06-.13-.13-.18-.2-.07-.38-.07v-.15h1.73v.15c-.16,0-.28.02-.35.05s-.12.09-.15.16-.04.23-.04.48v1.9c0,.23,0,.38.03.45s.07.13.14.18.2.07.37.07v.14h-1.73v-.14c.22,0,.36-.04.43-.12s.11-.27.11-.58v-.89h-1.55v.89c0,.23,0,.38.03.45s.07.13.14.18.2.07.37.07v.14h-1.73v-.14c.23,0,.38-.04.45-.13s.1-.27.1-.57v-1.9c0-.23,0-.38-.03-.45s-.07-.13-.14-.18-.2-.07-.37-.07v-.15h1.73v.15c-.16,0-.28.02-.35.05s-.12.09-.15.16-.04.23-.04.48v.76Z"/>
    <path class="cls-6" d="m121.83,53.99c-.1.47-.29.83-.57,1.09s-.59.38-.93.38c-.41,0-.76-.17-1.06-.51s-.45-.8-.45-1.38.17-1.02.5-1.37.74-.53,1.21-.53c.35,0,.64.09.87.28s.34.38.34.58c0,.1-.03.18-.1.24s-.15.09-.27.09c-.15,0-.27-.05-.35-.15-.04-.05-.07-.16-.09-.31s-.07-.27-.16-.35c-.09-.08-.22-.12-.38-.12-.26,0-.47.1-.63.29-.21.25-.32.59-.32,1.01s.1.8.31,1.13.49.49.85.49c.25,0,.48-.09.69-.26.14-.12.28-.34.42-.65l.11.05Z"/>
    <path class="cls-6" d="m122.29,51.77h3.09l.16.97h-.18c-.03-.2-.08-.35-.16-.45s-.16-.18-.25-.21-.25-.05-.48-.05h-.31v2.48c0,.27.02.43.05.51s.08.12.16.14.24.04.5.05v.14h-1.95v-.14c.25,0,.41-.05.48-.12s.11-.27.11-.57v-2.48h-.32c-.22,0-.38.01-.46.04s-.16.09-.23.2-.14.26-.19.48h-.18l.15-.97Z"/>
    <path class="cls-6" d="m125.58,52.12l1.1-.45h.15v.84c.18-.32.37-.54.56-.66s.38-.19.59-.19c.36,0,.66.14.9.42.29.34.44.79.44,1.34,0,.62-.18,1.13-.53,1.53-.29.33-.66.5-1.1.5-.19,0-.36-.03-.5-.08-.1-.04-.22-.12-.35-.23v1.09c0,.25.01.4.04.47s.08.12.16.16.21.06.4.06v.14h-1.88v-.14h.1c.14,0,.27-.02.37-.08.05-.03.09-.08.12-.14s.04-.23.04-.49v-3.38c0-.23-.01-.38-.03-.44s-.05-.11-.1-.14-.11-.05-.19-.05c-.06,0-.14.02-.24.05l-.05-.12Zm1.25.62v1.34c0,.29.01.48.04.57.04.15.13.28.27.4s.32.17.54.17c.26,0,.47-.1.63-.3.21-.27.32-.64.32-1.12,0-.55-.12-.97-.36-1.26-.17-.2-.36-.3-.59-.3-.12,0-.25.03-.37.09-.09.05-.25.19-.46.42Z"/>
    <path class="cls-6" d="m129.64,51.77h1.67v.14h-.08c-.12,0-.21.03-.26.08s-.09.11-.09.19c0,.1.04.24.13.42l.87,1.8.8-1.98c.04-.11.07-.21.07-.32,0-.05,0-.08-.03-.11-.02-.03-.05-.05-.1-.07s-.12-.03-.23-.03v-.14h1.16v.14c-.1.01-.17.03-.22.06s-.11.09-.17.18c-.02.04-.07.14-.13.3l-1.46,3.57c-.14.35-.33.61-.55.79s-.45.27-.66.27c-.15,0-.28-.04-.38-.13s-.15-.19-.15-.3.04-.2.11-.26.17-.1.29-.1c.09,0,.2.03.35.09.1.04.17.06.2.06.08,0,.16-.04.26-.12s.19-.24.28-.47l.25-.62-1.29-2.7c-.04-.08-.1-.18-.19-.3-.07-.09-.12-.15-.16-.18-.06-.04-.16-.08-.29-.11v-.14Z"/>
    <path class="cls-6" d="m137.43,55.35h-1.05c-.33-.48-.62-.96-.89-1.46-.06-.11-.12-.2-.17-.26s-.12-.08-.21-.08c-.03,0-.08,0-.15,0v.96c0,.26.01.42.04.49s.08.12.16.15.21.05.39.05v.14h-1.79v-.14c.23,0,.38-.04.45-.13s.1-.27.1-.57v-1.9c0-.28-.01-.44-.04-.49s-.07-.1-.13-.14-.18-.06-.37-.06v-.15h1.79v.15c-.22,0-.35.02-.4.05s-.1.07-.14.12-.06.22-.06.53v.7c.06,0,.1,0,.12,0,.16,0,.31-.04.45-.13s.26-.28.37-.57c.1-.28.19-.46.25-.56s.16-.17.28-.24.24-.09.37-.09c.14,0,.25.03.34.1s.12.16.12.27c0,.09-.03.17-.09.23s-.14.1-.25.1c-.06,0-.13-.02-.21-.05-.11-.04-.19-.06-.25-.06-.12,0-.22.1-.3.31-.09.24-.15.39-.2.46s-.12.16-.24.28c.08.02.17.08.26.18s.27.37.53.82c.21.36.36.59.46.69s.25.15.45.15v.14Z"/>
    <path class="cls-6" d="m141.58,55.2v1.14h-.14c0-.3-.11-.55-.3-.72s-.54-.27-1.04-.27h-2.44v-.14c.23,0,.38-.04.45-.13s.1-.27.1-.57v-1.9c0-.28-.01-.44-.04-.49s-.07-.1-.13-.14-.18-.06-.37-.06v-.15h1.73v.15c-.17,0-.29.02-.35.05s-.11.08-.14.13-.05.22-.05.51v2.02c0,.23.02.36.06.4s.17.06.39.06h.63c.24,0,.38-.02.41-.07s.05-.19.05-.43v-1.99c0-.25-.01-.41-.04-.48s-.08-.12-.15-.16-.19-.05-.35-.05v-.15h1.73v.15c-.17,0-.29.02-.35.05s-.11.08-.14.13-.05.22-.05.51v1.84c0,.34.03.54.09.62s.21.12.45.13Z"/>
    <path class="cls-6" d="m143.13,54.25l1.55-1.79c0-.2-.04-.34-.11-.42s-.19-.12-.36-.12v-.15h1.66v.15c-.17,0-.29.02-.35.05s-.11.08-.14.13-.05.22-.05.51v1.9c0,.28.01.44.04.49s.07.1.13.14.18.06.37.06v.14h-1.73v-.14c.22,0,.36-.04.43-.12s.11-.27.11-.58v-1.68l-1.55,1.79c0,.22.04.37.09.46s.18.13.37.13v.14h-1.65v-.14c.23,0,.38-.04.45-.13s.1-.27.1-.57v-1.9c0-.28-.01-.44-.04-.49s-.07-.1-.13-.14-.18-.06-.37-.06v-.15h1.73v.15c-.17,0-.29.02-.35.05s-.11.08-.14.13-.05.22-.05.51v1.64Z"/>
    <path class="cls-6" d="m151.71,54.33l-.37,1.02h-3.12v-.14c.92-.84,1.57-1.52,1.94-2.05s.56-1.02.56-1.46c0-.34-.1-.61-.31-.83s-.45-.32-.74-.32c-.26,0-.49.08-.7.23s-.36.38-.46.67h-.14c.07-.48.23-.85.5-1.11s.61-.39,1.01-.39c.43,0,.79.14,1.08.41s.43.6.43.98c0,.27-.06.54-.19.8-.19.42-.5.87-.94,1.34-.65.71-1.05,1.14-1.21,1.28h1.38c.28,0,.48-.01.59-.03s.22-.06.31-.13.17-.15.24-.27h.14Z"/>
  </g>
  <g>
    <path class="cls-6" d="m112.6,34.49c0-.32-.05-.52-.15-.6s-.31-.13-.62-.13v-.14h2.29v.14c-.33.01-.54.06-.63.16s-.14.32-.14.66v3.37c0,.35.05.57.14.66s.3.15.63.16v.14h-2.29v-.14c.34-.01.55-.06.64-.16s.14-.32.14-.66v-3.04l-2.46,3.15c0,.23.02.38.04.46s.09.14.19.18.28.07.53.07v.14h-2.29v-.14c.33-.01.54-.06.63-.16s.14-.32.14-.66v-3.37c0-.35-.05-.57-.14-.66s-.3-.15-.63-.16v-.14h2.29v.14c-.33.01-.54.06-.63.16s-.14.32-.14.66v3.05l2.46-3.14Z"/>
    <path class="cls-6" d="m115.63,36.94h1.55v-.76c0-.23,0-.37-.03-.44s-.06-.13-.13-.18-.2-.07-.38-.07v-.15h1.73v.15c-.16,0-.28.02-.35.05s-.12.09-.15.16-.04.23-.04.48v1.9c0,.23,0,.38.03.45s.07.13.14.18.2.07.37.07v.14h-1.73v-.14c.22,0,.36-.04.43-.12s.11-.27.11-.58v-.89h-1.55v.89c0,.23,0,.38.03.45s.07.13.14.18.2.07.37.07v.14h-1.73v-.14c.23,0,.38-.04.45-.13s.1-.27.1-.57v-1.9c0-.23,0-.38-.03-.45s-.07-.13-.14-.18-.2-.07-.37-.07v-.15h1.73v.15c-.16,0-.28.02-.35.05s-.12.09-.15.16-.04.23-.04.48v.76Z"/>
    <path class="cls-6" d="m121.83,37.56c-.1.47-.29.83-.57,1.09s-.59.38-.93.38c-.41,0-.76-.17-1.06-.51s-.45-.8-.45-1.38.17-1.02.5-1.37.74-.53,1.21-.53c.35,0,.64.09.87.28s.34.38.34.58c0,.1-.03.18-.1.24s-.15.09-.27.09c-.15,0-.27-.05-.35-.15-.04-.05-.07-.16-.09-.31s-.07-.27-.16-.35c-.09-.08-.22-.12-.38-.12-.26,0-.47.1-.63.29-.21.25-.32.59-.32,1.01s.1.8.31,1.13.49.49.85.49c.25,0,.48-.09.69-.26.14-.12.28-.34.42-.65l.11.05Z"/>
    <path class="cls-6" d="m122.29,35.34h3.09l.16.97h-.18c-.03-.2-.08-.35-.16-.45s-.16-.18-.25-.21-.25-.05-.48-.05h-.31v2.48c0,.27.02.43.05.51s.08.12.16.14.24.04.5.05v.14h-1.95v-.14c.25,0,.41-.05.48-.12s.11-.27.11-.57v-2.48h-.32c-.22,0-.38.01-.46.04s-.16.09-.23.2-.14.26-.19.48h-.18l.15-.97Z"/>
    <path class="cls-6" d="m125.58,35.69l1.1-.45h.15v.84c.18-.32.37-.54.56-.66s.38-.19.59-.19c.36,0,.66.14.9.42.29.34.44.79.44,1.34,0,.62-.18,1.13-.53,1.53-.29.33-.66.5-1.1.5-.19,0-.36-.03-.5-.08-.1-.04-.22-.12-.35-.23v1.09c0,.25.01.4.04.47s.08.12.16.16.21.06.4.06v.14h-1.88v-.14h.1c.14,0,.27-.02.37-.08.05-.03.09-.08.12-.14s.04-.23.04-.49v-3.38c0-.23-.01-.38-.03-.44s-.05-.11-.1-.14-.11-.05-.19-.05c-.06,0-.14.02-.24.05l-.05-.12Zm1.25.62v1.34c0,.29.01.48.04.57.04.15.13.28.27.4s.32.17.54.17c.26,0,.47-.1.63-.3.21-.27.32-.64.32-1.12,0-.55-.12-.97-.36-1.26-.17-.2-.36-.3-.59-.3-.12,0-.25.03-.37.09-.09.05-.25.19-.46.42Z"/>
    <path class="cls-6" d="m129.64,35.34h1.67v.14h-.08c-.12,0-.21.03-.26.08s-.09.11-.09.19c0,.1.04.24.13.42l.87,1.8.8-1.98c.04-.11.07-.21.07-.32,0-.05,0-.08-.03-.11-.02-.03-.05-.05-.1-.07s-.12-.03-.23-.03v-.14h1.16v.14c-.1.01-.17.03-.22.06s-.11.09-.17.18c-.02.04-.07.14-.13.3l-1.46,3.57c-.14.35-.33.61-.55.79s-.45.27-.66.27c-.15,0-.28-.04-.38-.13s-.15-.19-.15-.3.04-.2.11-.26.17-.1.29-.1c.09,0,.2.03.35.09.1.04.17.06.2.06.08,0,.16-.04.26-.12s.19-.24.28-.47l.25-.62-1.29-2.7c-.04-.08-.1-.18-.19-.3-.07-.09-.12-.15-.16-.18-.06-.04-.16-.08-.29-.11v-.14Z"/>
    <path class="cls-6" d="m137.43,38.92h-1.05c-.33-.48-.62-.96-.89-1.46-.06-.11-.12-.2-.17-.26s-.12-.08-.21-.08c-.03,0-.08,0-.15,0v.96c0,.26.01.42.04.49s.08.12.16.15.21.05.39.05v.14h-1.79v-.14c.23,0,.38-.04.45-.13s.1-.27.1-.57v-1.9c0-.28-.01-.44-.04-.49s-.07-.1-.13-.14-.18-.06-.37-.06v-.15h1.79v.15c-.22,0-.35.02-.4.05s-.1.07-.14.12-.06.22-.06.53v.7c.06,0,.1,0,.12,0,.16,0,.31-.04.45-.13s.26-.28.37-.57c.1-.28.19-.46.25-.56s.16-.17.28-.24.24-.09.37-.09c.14,0,.25.03.34.1s.12.16.12.27c0,.09-.03.17-.09.23s-.14.1-.25.1c-.06,0-.13-.02-.21-.05-.11-.04-.19-.06-.25-.06-.12,0-.22.1-.3.31-.09.24-.15.39-.2.46s-.12.16-.24.28c.08.02.17.08.26.18s.27.37.53.82c.21.36.36.59.46.69s.25.15.45.15v.14Z"/>
    <path class="cls-6" d="m141.58,38.77v1.14h-.14c0-.3-.11-.55-.3-.72s-.54-.27-1.04-.27h-2.44v-.14c.23,0,.38-.04.45-.13s.1-.27.1-.57v-1.9c0-.28-.01-.44-.04-.49s-.07-.1-.13-.14-.18-.06-.37-.06v-.15h1.73v.15c-.17,0-.29.02-.35.05s-.11.08-.14.13-.05.22-.05.51v2.02c0,.23.02.36.06.4s.17.06.39.06h.63c.24,0,.38-.02.41-.07s.05-.19.05-.43v-1.99c0-.25-.01-.41-.04-.48s-.08-.12-.15-.16-.19-.05-.35-.05v-.15h1.73v.15c-.17,0-.29.02-.35.05s-.11.08-.14.13-.05.22-.05.51v1.84c0,.34.03.54.09.62s.21.12.45.13Z"/>
    <path class="cls-6" d="m143.13,37.81l1.55-1.79c0-.2-.04-.34-.11-.42s-.19-.12-.36-.12v-.15h1.66v.15c-.17,0-.29.02-.35.05s-.11.08-.14.13-.05.22-.05.51v1.9c0,.28.01.44.04.49s.07.1.13.14.18.06.37.06v.14h-1.73v-.14c.22,0,.36-.04.43-.12s.11-.27.11-.58v-1.68l-1.55,1.79c0,.22.04.37.09.46s.18.13.37.13v.14h-1.65v-.14c.23,0,.38-.04.45-.13s.1-.27.1-.57v-1.9c0-.28-.01-.44-.04-.49s-.07-.1-.13-.14-.18-.06-.37-.06v-.15h1.73v.15c-.17,0-.29.02-.35.05s-.11.08-.14.13-.05.22-.05.51v1.64Z"/>
    <path class="cls-6" d="m148.45,34.63c.15-.36.34-.63.57-.83s.52-.29.86-.29c.42,0,.75.14.98.41.17.21.26.43.26.66,0,.39-.24.78-.73,1.2.33.13.57.31.74.55s.25.52.25.84c0,.46-.15.86-.44,1.19-.38.44-.93.66-1.65.66-.36,0-.6-.04-.73-.13s-.19-.18-.19-.29c0-.08.03-.14.09-.2s.13-.09.22-.09c.07,0,.13.01.2.03.04.01.14.06.3.14s.26.13.32.15c.1.03.2.04.31.04.27,0,.5-.1.69-.31s.29-.45.29-.73c0-.21-.05-.41-.14-.6-.07-.15-.14-.26-.22-.33-.11-.1-.27-.2-.46-.28s-.39-.13-.6-.13h-.12v-.12c.21-.03.41-.1.62-.22s.36-.27.45-.44.14-.36.14-.57c0-.27-.08-.49-.25-.65s-.38-.25-.63-.25c-.4,0-.74.22-1.01.65l-.13-.06Z"/>
  </g>
  <g>
    <path class="cls-6" d="m112.6,17.84c0-.32-.05-.52-.15-.6s-.31-.13-.62-.13v-.14h2.29v.14c-.33.01-.54.06-.63.16s-.14.32-.14.66v3.37c0,.35.05.57.14.66s.3.15.63.16v.14h-2.29v-.14c.34-.01.55-.06.64-.16s.14-.32.14-.66v-3.04l-2.46,3.15c0,.23.02.38.04.46s.09.14.19.18.28.07.53.07v.14h-2.29v-.14c.33-.01.54-.06.63-.16s.14-.32.14-.66v-3.37c0-.35-.05-.57-.14-.66s-.3-.15-.63-.16v-.14h2.29v.14c-.33.01-.54.06-.63.16s-.14.32-.14.66v3.05l2.46-3.14Z"/>
    <path class="cls-6" d="m115.63,20.28h1.55v-.76c0-.23,0-.37-.03-.44s-.06-.13-.13-.18-.2-.07-.38-.07v-.15h1.73v.15c-.16,0-.28.02-.35.05s-.12.09-.15.16-.04.23-.04.48v1.9c0,.23,0,.38.03.45s.07.13.14.18.2.07.37.07v.14h-1.73v-.14c.22,0,.36-.04.43-.12s.11-.27.11-.58v-.89h-1.55v.89c0,.23,0,.38.03.45s.07.13.14.18.2.07.37.07v.14h-1.73v-.14c.23,0,.38-.04.45-.13s.1-.27.1-.57v-1.9c0-.23,0-.38-.03-.45s-.07-.13-.14-.18-.2-.07-.37-.07v-.15h1.73v.15c-.16,0-.28.02-.35.05s-.12.09-.15.16-.04.23-.04.48v.76Z"/>
    <path class="cls-6" d="m121.83,20.9c-.1.47-.29.83-.57,1.09s-.59.38-.93.38c-.41,0-.76-.17-1.06-.51s-.45-.8-.45-1.38.17-1.02.5-1.37.74-.53,1.21-.53c.35,0,.64.09.87.28s.34.38.34.58c0,.1-.03.18-.1.24s-.15.09-.27.09c-.15,0-.27-.05-.35-.15-.04-.05-.07-.16-.09-.31s-.07-.27-.16-.35c-.09-.08-.22-.12-.38-.12-.26,0-.47.1-.63.29-.21.25-.32.59-.32,1.01s.1.8.31,1.13.49.49.85.49c.25,0,.48-.09.69-.26.14-.12.28-.34.42-.65l.11.05Z"/>
    <path class="cls-6" d="m122.29,18.68h3.09l.16.97h-.18c-.03-.2-.08-.35-.16-.45s-.16-.18-.25-.21-.25-.05-.48-.05h-.31v2.48c0,.27.02.43.05.51s.08.12.16.14.24.04.5.05v.14h-1.95v-.14c.25,0,.41-.05.48-.12s.11-.27.11-.57v-2.48h-.32c-.22,0-.38.01-.46.04s-.16.09-.23.2-.14.26-.19.48h-.18l.15-.97Z"/>
    <path class="cls-6" d="m125.58,19.04l1.1-.45h.15v.84c.18-.32.37-.54.56-.66s.38-.19.59-.19c.36,0,.66.14.9.42.29.34.44.79.44,1.34,0,.62-.18,1.13-.53,1.53-.29.33-.66.5-1.1.5-.19,0-.36-.03-.5-.08-.1-.04-.22-.12-.35-.23v1.09c0,.25.01.4.04.47s.08.12.16.16.21.06.4.06v.14h-1.88v-.14h.1c.14,0,.27-.02.37-.08.05-.03.09-.08.12-.14s.04-.23.04-.49v-3.38c0-.23-.01-.38-.03-.44s-.05-.11-.1-.14-.11-.05-.19-.05c-.06,0-.14.02-.24.05l-.05-.12Zm1.25.62v1.34c0,.29.01.48.04.57.04.15.13.28.27.4s.32.17.54.17c.26,0,.47-.1.63-.3.21-.27.32-.64.32-1.12,0-.55-.12-.97-.36-1.26-.17-.2-.36-.3-.59-.3-.12,0-.25.03-.37.09-.09.05-.25.19-.46.42Z"/>
    <path class="cls-6" d="m129.64,18.68h1.67v.14h-.08c-.12,0-.21.03-.26.08s-.09.11-.09.19c0,.1.04.24.13.42l.87,1.8.8-1.98c.04-.11.07-.21.07-.32,0-.05,0-.08-.03-.11-.02-.03-.05-.05-.1-.07s-.12-.03-.23-.03v-.14h1.16v.14c-.1.01-.17.03-.22.06s-.11.09-.17.18c-.02.04-.07.14-.13.3l-1.46,3.57c-.14.35-.33.61-.55.79s-.45.27-.66.27c-.15,0-.28-.04-.38-.13s-.15-.19-.15-.3.04-.2.11-.26.17-.1.29-.1c.09,0,.2.03.35.09.1.04.17.06.2.06.08,0,.16-.04.26-.12s.19-.24.28-.47l.25-.62-1.29-2.7c-.04-.08-.1-.18-.19-.3-.07-.09-.12-.15-.16-.18-.06-.04-.16-.08-.29-.11v-.14Z"/>
    <path class="cls-6" d="m137.43,22.26h-1.05c-.33-.48-.62-.96-.89-1.46-.06-.11-.12-.2-.17-.26s-.12-.08-.21-.08c-.03,0-.08,0-.15,0v.96c0,.26.01.42.04.49s.08.12.16.15.21.05.39.05v.14h-1.79v-.14c.23,0,.38-.04.45-.13s.1-.27.1-.57v-1.9c0-.28-.01-.44-.04-.49s-.07-.1-.13-.14-.18-.06-.37-.06v-.15h1.79v.15c-.22,0-.35.02-.4.05s-.1.07-.14.12-.06.22-.06.53v.7c.06,0,.1,0,.12,0,.16,0,.31-.04.45-.13s.26-.28.37-.57c.1-.28.19-.46.25-.56s.16-.17.28-.24.24-.09.37-.09c.14,0,.25.03.34.1s.12.16.12.27c0,.09-.03.17-.09.23s-.14.1-.25.1c-.06,0-.13-.02-.21-.05-.11-.04-.19-.06-.25-.06-.12,0-.22.1-.3.31-.09.24-.15.39-.2.46s-.12.16-.24.28c.08.02.17.08.26.18s.27.37.53.82c.21.36.36.59.46.69s.25.15.45.15v.14Z"/>
    <path class="cls-6" d="m141.58,22.11v1.14h-.14c0-.3-.11-.55-.3-.72s-.54-.27-1.04-.27h-2.44v-.14c.23,0,.38-.04.45-.13s.1-.27.1-.57v-1.9c0-.28-.01-.44-.04-.49s-.07-.1-.13-.14-.18-.06-.37-.06v-.15h1.73v.15c-.17,0-.29.02-.35.05s-.11.08-.14.13-.05.22-.05.51v2.02c0,.23.02.36.06.4s.17.06.39.06h.63c.24,0,.38-.02.41-.07s.05-.19.05-.43v-1.99c0-.25-.01-.41-.04-.48s-.08-.12-.15-.16-.19-.05-.35-.05v-.15h1.73v.15c-.17,0-.29.02-.35.05s-.11.08-.14.13-.05.22-.05.51v1.84c0,.34.03.54.09.62s.21.12.45.13Z"/>
    <path class="cls-6" d="m143.13,21.16l1.55-1.79c0-.2-.04-.34-.11-.42s-.19-.12-.36-.12v-.15h1.66v.15c-.17,0-.29.02-.35.05s-.11.08-.14.13-.05.22-.05.51v1.9c0,.28.01.44.04.49s.07.1.13.14.18.06.37.06v.14h-1.73v-.14c.22,0,.36-.04.43-.12s.11-.27.11-.58v-1.68l-1.55,1.79c0,.22.04.37.09.46s.18.13.37.13v.14h-1.65v-.14c.23,0,.38-.04.45-.13s.1-.27.1-.57v-1.9c0-.28-.01-.44-.04-.49s-.07-.1-.13-.14-.18-.06-.37-.06v-.15h1.73v.15c-.17,0-.29.02-.35.05s-.11.08-.14.13-.05.22-.05.51v1.64Z"/>
    <path class="cls-6" d="m151.76,20.3v.55h-.71v1.4h-.64v-1.4h-2.24v-.5l2.46-3.51h.43v3.45h.71Zm-1.36,0v-2.63l-1.86,2.63h1.86Z"/>
  </g>
  <path class="cls-5" d="m80.84,70.17c0-.6.09-1.12.27-1.56s.42-.76.73-.97c.23-.17.48-.25.73-.25.41,0,.77.21,1.09.62.4.51.61,1.21.61,2.09,0,.61-.09,1.14-.27,1.57s-.4.74-.68.94-.54.29-.79.29c-.5,0-.93-.3-1.26-.89-.28-.5-.43-1.11-.43-1.82Zm.77.1c0,.73.09,1.32.27,1.79.15.39.37.58.66.58.14,0,.29-.06.44-.19s.27-.34.34-.63c.12-.45.18-1.08.18-1.89,0-.6-.06-1.11-.19-1.51-.09-.3-.21-.51-.36-.64-.11-.09-.24-.13-.39-.13-.18,0-.33.08-.47.24-.19.22-.32.56-.38,1.02s-.1.92-.1,1.37Z"/>
  <path class="cls-5" d="m84.27,53.81v.55h-.71v1.4h-.64v-1.4h-2.24v-.5l2.46-3.51h.43v3.45h.71Zm-1.36,0v-2.63l-1.86,2.63h1.86Z"/>
  <path class="cls-5" d="m82.08,36.12c-.42-.34-.69-.62-.81-.83s-.18-.42-.18-.65c0-.34.13-.64.4-.89s.62-.37,1.06-.37.77.12,1.03.35.39.5.39.79c0,.2-.07.4-.21.61s-.43.45-.88.73c.46.35.76.63.91.84.2.27.3.55.3.84,0,.37-.14.69-.43.96s-.66.4-1.12.4c-.5,0-.89-.16-1.18-.47-.22-.25-.34-.53-.34-.83,0-.23.08-.47.24-.7s.43-.49.81-.76Zm.18.15c-.22.18-.38.38-.48.6s-.16.45-.16.7c0,.34.09.6.28.81s.42.3.7.3.51-.08.68-.24.25-.35.25-.58c0-.19-.05-.36-.15-.5-.18-.28-.56-.64-1.12-1.08Zm.43-.57c.31-.28.51-.5.59-.67s.12-.35.12-.55c0-.27-.08-.49-.23-.64s-.36-.23-.63-.23-.48.08-.65.23-.25.33-.25.54c0,.14.03.27.1.41s.17.26.29.39l.64.53Z"/>
  <g>
    <path class="cls-5" d="m79.26,17.35l1.29-.63h.13v4.47c0,.3.01.48.04.55s.08.13.15.17.24.06.48.07v.14h-1.99v-.14c.25,0,.41-.03.48-.06s.12-.09.15-.15.04-.25.04-.57v-2.86c0-.39-.01-.63-.04-.74-.02-.08-.05-.14-.1-.18s-.11-.06-.17-.06c-.1,0-.23.04-.4.12l-.06-.12Z"/>
    <path class="cls-5" d="m85.99,21.11l-.37,1.02h-3.12v-.14c.92-.84,1.57-1.52,1.94-2.05s.56-1.02.56-1.46c0-.34-.1-.61-.31-.83s-.45-.32-.74-.32c-.26,0-.49.08-.7.23s-.36.38-.46.67h-.14c.07-.48.23-.85.5-1.11s.61-.39,1.01-.39c.43,0,.79.14,1.08.41s.43.6.43.98c0,.27-.06.54-.19.8-.19.42-.5.87-.94,1.34-.65.71-1.05,1.14-1.21,1.28h1.38c.28,0,.48-.01.59-.03s.22-.06.31-.13.17-.15.24-.27h.14Z"/>
  </g>
  <path class="cls-3" d="m82.77,8.67V.67m46.82,8V.67"/>
  <polygon class="cls-6" points="129.59 94.8 128.72 96.3 130.46 96.3 129.59 94.8"/>
</svg>