<?xml version="1.0" encoding="UTF-8"?>
<svg id="Layer_4" data-name="Layer 4" xmlns="http://www.w3.org/2000/svg" viewBox="0 0 289.24 129.08">
  <defs>
    <style>
      .cls-1 {
        fill: #fff;
      }

      .cls-2 {
        fill: none;
        stroke: #231f20;
        stroke-miterlimit: 10;
        stroke-width: .5px;
      }

      .cls-3 {
        fill: #231f20;
      }
    </style>
  </defs>
  <path class="cls-3" d="m22.33,21.82c0-.57.09-1.05.26-1.46.17-.41.4-.71.68-.91.22-.16.45-.24.68-.24.38,0,.72.19,1.03.58.38.48.57,1.13.57,1.96,0,.58-.08,1.07-.25,1.47-.17.4-.38.7-.64.88s-.51.27-.75.27c-.47,0-.87-.28-1.18-.84-.27-.47-.4-1.04-.4-1.7Zm.72.09c0,.68.08,1.24.25,1.67.14.36.35.55.62.55.13,0,.27-.06.41-.18.14-.12.25-.32.32-.6.11-.42.17-1.01.17-1.78,0-.57-.06-1.04-.18-1.42-.09-.28-.2-.48-.34-.6-.1-.08-.22-.12-.36-.12-.17,0-.31.07-.44.22-.18.2-.3.52-.36.96-.06.44-.1.86-.1,1.29Z"/>
  <g>
    <path class="cls-3" d="m70.45,20.82v.75c.28-.5.57-.75.86-.75.13,0,.25.04.33.12.09.08.13.18.13.28,0,.1-.03.18-.1.24s-.14.1-.23.1-.18-.04-.29-.13c-.11-.08-.19-.13-.24-.13-.04,0-.09.02-.14.07-.11.1-.22.27-.34.49v1.61c0,.19.02.33.07.42.03.07.09.12.17.17.08.04.2.07.35.07v.13h-1.72v-.13c.17,0,.3-.03.38-.08.06-.04.1-.1.13-.19.01-.04.02-.16.02-.36v-1.3c0-.39,0-.62-.02-.7-.02-.07-.04-.13-.09-.16s-.1-.05-.16-.05c-.08,0-.16.02-.26.05l-.04-.13,1.01-.41h.15Z"/>
    <path class="cls-3" d="m74.24,20.82v1.14h-.12c-.09-.36-.21-.6-.36-.73-.15-.13-.33-.19-.56-.19-.17,0-.31.05-.41.14-.1.09-.16.19-.16.3,0,.14.04.25.12.35.08.1.23.21.46.32l.54.26c.5.24.74.56.74.96,0,.31-.12.55-.35.74-.23.19-.49.28-.78.28-.21,0-.44-.04-.7-.11-.08-.02-.15-.04-.2-.04-.06,0-.1.03-.13.1h-.12v-1.2h.12c.07.34.2.6.39.77.19.17.41.26.65.26.17,0,.31-.05.41-.15.11-.1.16-.22.16-.36,0-.17-.06-.31-.18-.43-.12-.11-.35-.26-.71-.44-.35-.18-.59-.33-.7-.48-.11-.14-.17-.31-.17-.53,0-.28.09-.51.28-.69s.43-.28.73-.28c.13,0,.29.03.48.08.12.04.21.06.25.06.04,0,.07,0,.09-.03.02-.02.05-.05.08-.11h.12Z"/>
  </g>
  <g>
    <path class="cls-3" d="m119.19,20.82v.75c.28-.5.57-.75.86-.75.13,0,.25.04.33.12.09.08.13.18.13.28,0,.1-.03.18-.1.24s-.14.1-.23.1-.18-.04-.29-.13c-.11-.08-.19-.13-.24-.13-.04,0-.09.02-.14.07-.11.1-.22.27-.34.49v1.61c0,.19.02.33.07.42.03.07.09.12.17.17.08.04.2.07.35.07v.13h-1.72v-.13c.17,0,.3-.03.38-.08.06-.04.1-.1.13-.19.01-.04.02-.16.02-.36v-1.3c0-.39,0-.62-.02-.7-.02-.07-.04-.13-.09-.16s-.1-.05-.16-.05c-.08,0-.16.02-.26.05l-.04-.13,1.01-.41h.15Z"/>
    <path class="cls-3" d="m122.05,19.82v1.1h.78v.26h-.78v2.18c0,.22.03.36.09.44.06.08.14.11.24.11.08,0,.16-.02.23-.08.08-.05.13-.12.18-.22h.14c-.08.24-.21.42-.36.54s-.32.18-.48.18c-.11,0-.22-.03-.33-.09-.11-.06-.19-.15-.24-.27-.05-.12-.08-.29-.08-.54v-2.26h-.53v-.12c.13-.05.27-.14.41-.27s.27-.28.38-.46c.06-.09.13-.26.23-.51h.11Z"/>
  </g>
  <g>
    <path class="cls-3" d="m166.67,20.82v.75c.28-.5.57-.75.86-.75.13,0,.25.04.33.12.09.08.13.18.13.28,0,.1-.03.18-.1.24s-.14.1-.23.1-.18-.04-.29-.13c-.11-.08-.19-.13-.24-.13-.04,0-.09.02-.14.07-.11.1-.22.27-.34.49v1.61c0,.19.02.33.07.42.03.07.09.12.17.17.08.04.2.07.35.07v.13h-1.72v-.13c.17,0,.3-.03.38-.08.06-.04.1-.1.13-.19.01-.04.02-.16.02-.36v-1.3c0-.39,0-.62-.02-.7-.02-.07-.04-.13-.09-.16s-.1-.05-.16-.05c-.08,0-.16.02-.26.05l-.04-.13,1.01-.41h.15Z"/>
    <path class="cls-3" d="m170.56,23.9c-.16.17-.32.29-.48.37-.16.07-.33.11-.51.11-.37,0-.69-.15-.96-.46-.27-.31-.41-.7-.41-1.18s.15-.92.45-1.32c.3-.4.69-.6,1.17-.6.3,0,.54.09.73.28v-.62c0-.38,0-.62-.03-.71-.02-.09-.05-.15-.09-.18s-.09-.05-.15-.05c-.06,0-.15.02-.25.06l-.05-.13,1-.41h.17v3.88c0,.39,0,.63.03.72.02.09.05.15.09.18s.09.05.14.05c.07,0,.15-.02.26-.06l.04.13-1,.41h-.17v-.48Zm0-.26v-1.73c-.01-.17-.06-.32-.13-.45-.07-.14-.17-.24-.29-.31-.12-.07-.24-.1-.35-.1-.21,0-.41.1-.58.29-.22.25-.33.63-.33,1.11s.11.87.32,1.13.45.39.72.39c.22,0,.44-.11.65-.33Z"/>
  </g>
  <g>
    <path class="cls-3" d="m208.94,20.82v1.14h-.12c-.09-.36-.21-.6-.36-.73-.15-.13-.33-.19-.56-.19-.17,0-.31.05-.41.14-.1.09-.16.19-.16.3,0,.14.04.25.12.35.08.1.23.21.46.32l.54.26c.5.24.74.56.74.96,0,.31-.12.55-.35.74-.23.19-.49.28-.78.28-.21,0-.44-.04-.7-.11-.08-.02-.15-.04-.2-.04-.06,0-.1.03-.13.1h-.12v-1.2h.12c.07.34.2.6.39.77.19.17.41.26.65.26.17,0,.31-.05.41-.15.11-.1.16-.22.16-.36,0-.17-.06-.31-.18-.43-.12-.11-.35-.26-.71-.44-.35-.18-.59-.33-.7-.48-.11-.14-.17-.31-.17-.53,0-.28.09-.51.28-.69s.43-.28.73-.28c.13,0,.29.03.48.08.12.04.21.06.25.06.04,0,.07,0,.09-.03.02-.02.05-.05.08-.11h.12Z"/>
    <path class="cls-3" d="m210.67,19.07v2.46c.27-.3.49-.49.65-.57.16-.08.32-.13.48-.13.19,0,.35.05.49.16.14.11.24.27.3.49.05.16.07.44.07.86v1.19c0,.21.02.36.05.44.02.06.07.1.12.14s.17.05.32.05v.13h-1.65v-.13h.08c.16,0,.26-.02.33-.07.06-.05.1-.12.13-.21,0-.04.01-.15.01-.34v-1.19c0-.37-.02-.61-.06-.72s-.1-.2-.18-.26c-.08-.06-.18-.09-.3-.09s-.25.03-.37.1c-.13.06-.29.19-.47.38v1.77c0,.23.01.37.04.43s.07.1.14.14c.07.04.19.06.36.06v.13h-1.66v-.13c.15,0,.27-.02.35-.07.05-.02.09-.07.12-.14s.04-.21.04-.42v-3.04c0-.38,0-.62-.03-.71-.02-.09-.05-.15-.08-.18s-.09-.05-.15-.05c-.05,0-.13.02-.25.06l-.05-.13,1-.41h.17Z"/>
    <path class="cls-3" d="m215.34,23.8c-.34.27-.56.42-.65.46-.13.06-.27.09-.42.09-.23,0-.42-.08-.57-.24-.15-.16-.23-.37-.23-.63,0-.16.04-.31.11-.43.1-.17.27-.32.52-.47.25-.15.66-.33,1.24-.54v-.13c0-.33-.05-.56-.16-.69s-.26-.19-.46-.19c-.15,0-.28.04-.37.12-.09.08-.14.18-.14.29v.21c0,.11-.02.2-.08.26s-.13.09-.23.09-.16-.03-.22-.1c-.06-.06-.09-.15-.09-.26,0-.21.11-.4.32-.58s.52-.26.91-.26c.3,0,.54.05.73.15.14.08.25.19.32.36.04.1.07.32.07.65v1.14c0,.32,0,.52.02.59.01.07.03.12.06.15s.06.04.1.04c.04,0,.07,0,.1-.03.05-.03.15-.12.3-.27v.21c-.27.37-.54.55-.78.55-.12,0-.22-.04-.29-.12-.07-.08-.11-.22-.11-.43Zm0-.24v-1.28c-.37.15-.61.25-.71.31-.19.11-.33.22-.41.34s-.12.25-.12.38c0,.18.05.32.16.44.1.12.23.17.36.17.19,0,.43-.12.73-.37Z"/>
    <path class="cls-3" d="m217.77,21.54c.24-.24.39-.38.43-.42.11-.09.23-.17.36-.22s.25-.08.38-.08c.21,0,.39.06.54.18s.25.3.3.53c.25-.29.46-.49.64-.58.17-.09.35-.14.54-.14s.34.05.47.14c.14.09.25.24.33.45.05.14.08.36.08.67v1.44c0,.21.02.35.05.43.02.05.07.1.14.14.07.04.17.06.32.06v.13h-1.66v-.13h.07c.14,0,.26-.03.34-.08.06-.04.1-.1.12-.19,0-.04.01-.16.01-.36v-1.44c0-.27-.03-.47-.1-.58-.09-.16-.25-.23-.46-.23-.13,0-.26.03-.39.1-.13.06-.29.19-.47.36v.04s0,.16,0,.16v1.6c0,.23.01.37.04.43s.07.1.14.14c.07.04.19.06.36.06v.13h-1.7v-.13c.19,0,.31-.02.38-.07.07-.04.12-.11.14-.2.01-.04.02-.16.02-.36v-1.44c0-.27-.04-.47-.12-.59-.11-.16-.26-.23-.45-.23-.13,0-.26.04-.39.11-.2.11-.36.23-.47.36v1.8c0,.22.01.36.05.43.03.07.08.12.13.15.06.03.18.05.37.05v.13h-1.66v-.13c.15,0,.26-.02.32-.05.06-.03.11-.09.14-.16.03-.07.05-.21.05-.42v-1.28c0-.37-.01-.61-.03-.71-.02-.08-.04-.14-.08-.17-.04-.03-.09-.05-.15-.05-.07,0-.15.02-.25.05l-.05-.13,1.01-.41h.16v.71Z"/>
    <path class="cls-3" d="m223.58,19.82v1.1h.78v.26h-.78v2.18c0,.22.03.36.09.44.06.08.14.11.24.11.08,0,.16-.02.23-.08.08-.05.13-.12.18-.22h.14c-.08.24-.21.42-.36.54s-.32.18-.48.18c-.11,0-.22-.03-.33-.09-.11-.06-.19-.15-.24-.27-.05-.12-.08-.29-.08-.54v-2.26h-.53v-.12c.13-.05.27-.14.41-.27s.27-.28.38-.46c.06-.09.13-.26.23-.51h.11Z"/>
  </g>
  <g>
    <path class="cls-3" d="m258.3,21.19v2.21c0,.31.03.51.1.59.09.11.21.16.36.16h.3v.13h-2v-.13h.15c.1,0,.19-.02.27-.07.08-.05.14-.11.17-.2.03-.08.05-.24.05-.48v-2.21h-.65v-.26h.65v-.22c0-.33.05-.62.16-.85s.27-.42.49-.56c.22-.14.47-.21.75-.21.26,0,.49.08.71.25.14.11.21.23.21.37,0,.07-.03.14-.09.21-.06.06-.13.1-.21.1-.06,0-.12-.02-.18-.06-.06-.04-.14-.13-.23-.26-.09-.13-.17-.22-.25-.27s-.16-.07-.25-.07c-.11,0-.21.03-.29.09-.08.06-.13.15-.17.28-.03.13-.05.45-.05.97v.24h.87v.26h-.87Z"/>
    <path class="cls-3" d="m262.43,20.92v2.03c0,.39,0,.63.03.71.02.09.05.15.09.18s.09.05.14.05c.08,0,.16-.02.26-.06l.05.13-1,.41h-.17v-.71c-.29.31-.51.51-.66.59-.15.08-.31.12-.48.12-.19,0-.35-.05-.49-.16-.14-.11-.23-.25-.29-.42s-.08-.41-.08-.73v-1.5c0-.16-.02-.27-.05-.33-.04-.06-.08-.11-.15-.14-.07-.03-.19-.05-.36-.05v-.14h1.18v2.25c0,.31.05.52.16.62s.24.15.39.15c.11,0,.22-.03.36-.1.13-.07.29-.19.47-.38v-1.9c0-.19-.04-.32-.1-.39-.07-.07-.21-.1-.43-.11v-.14h1.14Z"/>
    <path class="cls-3" d="m264.22,21.54c.39-.47.77-.71,1.12-.71.18,0,.34.05.47.14.13.09.24.24.31.45.05.15.08.37.08.67v1.43c0,.21.02.36.05.43.03.06.07.11.13.14.06.03.17.05.33.05v.13h-1.66v-.13h.07c.16,0,.27-.02.33-.07.06-.05.11-.12.13-.21,0-.04.01-.15.01-.34v-1.37c0-.31-.04-.53-.12-.67-.08-.14-.21-.21-.4-.21-.29,0-.58.16-.87.48v1.77c0,.23.01.37.04.42.03.07.08.12.14.16.06.03.18.05.36.05v.13h-1.66v-.13h.07c.17,0,.29-.04.35-.13.06-.09.09-.25.09-.5v-1.25c0-.4,0-.65-.03-.74-.02-.09-.05-.15-.08-.18-.04-.03-.09-.05-.15-.05-.07,0-.15.02-.25.05l-.05-.13,1.01-.41h.16v.71Z"/>
    <path class="cls-3" d="m269.84,23c-.09.44-.27.78-.53,1.02-.26.24-.56.36-.88.36-.38,0-.71-.16-1-.48-.28-.32-.42-.75-.42-1.3s.16-.96.47-1.29c.31-.33.69-.49,1.13-.49.33,0,.6.09.81.26.21.17.32.36.32.54,0,.09-.03.17-.09.23-.06.06-.14.09-.25.09-.14,0-.25-.05-.33-.14-.04-.05-.07-.15-.08-.29-.01-.14-.06-.25-.15-.33-.08-.07-.2-.11-.36-.11-.24,0-.44.09-.59.27-.2.24-.3.56-.3.95s.1.75.29,1.06c.2.31.46.46.8.46.24,0,.45-.08.64-.25.13-.11.26-.32.39-.61l.11.05Z"/>
    <path class="cls-3" d="m271.3,19.82v1.1h.78v.26h-.78v2.18c0,.22.03.36.09.44.06.08.14.11.24.11.08,0,.16-.02.23-.08.08-.05.13-.12.18-.22h.14c-.08.24-.21.42-.36.54s-.32.18-.48.18c-.11,0-.22-.03-.33-.09-.11-.06-.19-.15-.24-.27-.05-.12-.08-.29-.08-.54v-2.26h-.53v-.12c.13-.05.27-.14.41-.27s.27-.28.38-.46c.06-.09.13-.26.23-.51h.11Z"/>
  </g>
  <g>
    <path class="cls-3" d="m14.57,31.76c.14-.33.32-.59.54-.77.22-.18.49-.27.81-.27.4,0,.7.13.92.39.16.19.24.4.24.62,0,.36-.23.74-.68,1.12.31.12.54.29.69.51s.23.48.23.78c0,.43-.14.8-.41,1.12-.36.41-.87.62-1.55.62-.33,0-.56-.04-.68-.12-.12-.08-.18-.17-.18-.27,0-.07.03-.13.09-.19.06-.05.13-.08.21-.08.06,0,.12,0,.19.03.04.01.14.06.28.13.15.08.25.12.3.14.09.03.19.04.29.04.25,0,.47-.1.65-.29.18-.19.28-.42.28-.69,0-.19-.04-.38-.13-.56-.06-.14-.13-.24-.21-.31-.1-.1-.25-.19-.43-.27-.18-.08-.37-.12-.56-.12h-.12v-.11c.19-.02.39-.09.58-.21s.34-.25.42-.41.13-.34.13-.53c0-.25-.08-.46-.24-.61-.16-.16-.35-.23-.59-.23-.38,0-.7.2-.95.61l-.12-.06Z"/>
    <path class="cls-3" d="m18.82,31.3l1.21-.59h.12v4.2c0,.28.01.45.03.52.02.07.07.12.15.16s.22.06.45.06v.14h-1.87v-.14c.23,0,.39-.02.45-.06.07-.04.12-.08.14-.14s.04-.24.04-.54v-2.68c0-.36-.01-.59-.04-.7-.02-.08-.05-.14-.09-.17-.04-.04-.1-.05-.16-.05-.09,0-.22.04-.38.11l-.06-.11Z"/>
    <path class="cls-3" d="m22.74,35.07c.11,0,.21.04.29.12.08.08.12.18.12.29s-.04.21-.12.29c-.08.08-.18.12-.29.12s-.21-.04-.29-.12c-.08-.08-.12-.18-.12-.29s.04-.21.12-.29c.08-.08.17-.12.29-.12Zm0-2.74c.11,0,.21.04.29.12.08.08.12.18.12.29s-.04.21-.12.29-.18.12-.29.12-.21-.04-.29-.12c-.08-.08-.12-.18-.12-.29s.04-.21.12-.29.17-.12.29-.12Z"/>
    <path class="cls-3" d="m27.22,34.82l-.35.96h-2.93v-.14c.86-.79,1.47-1.43,1.82-1.93.35-.5.53-.95.53-1.37,0-.31-.1-.57-.29-.78-.19-.2-.42-.3-.69-.3-.24,0-.46.07-.66.21-.19.14-.34.35-.43.63h-.14c.06-.45.22-.8.47-1.04.25-.24.57-.36.95-.36.4,0,.74.13,1.01.39s.4.56.4.92c0,.25-.06.5-.18.75-.18.4-.47.81-.88,1.26-.61.66-.99,1.06-1.14,1.2h1.3c.26,0,.45,0,.56-.03.11-.02.2-.06.29-.12s.16-.14.22-.25h.14Z"/>
    <path class="cls-3" d="m30.89,30.71v.14c-.32.03-.59.1-.79.19-.2.1-.41.24-.6.44-.2.2-.36.42-.49.66-.13.24-.24.53-.33.87.35-.24.7-.36,1.06-.36s.63.14.88.41.37.63.37,1.06-.13.79-.38,1.14c-.3.42-.7.62-1.2.62-.34,0-.63-.11-.86-.34-.46-.44-.7-1-.7-1.7,0-.44.09-.87.27-1.27.18-.4.43-.76.76-1.07s.65-.52.95-.63.58-.16.85-.16h.21Zm-2.28,2.56c-.04.33-.07.6-.07.8,0,.23.04.49.13.76.09.27.22.49.39.65.12.11.28.17.45.17.21,0,.4-.1.57-.3.17-.2.25-.49.25-.86,0-.42-.08-.78-.25-1.08-.17-.31-.4-.46-.71-.46-.09,0-.19.02-.3.06-.11.04-.26.12-.47.25Z"/>
  </g>
  <g>
    <path class="cls-3" d="m65.44,34.82l-.35.96h-2.93v-.14c.86-.79,1.47-1.43,1.82-1.93.35-.5.53-.95.53-1.37,0-.31-.1-.57-.29-.78-.19-.2-.42-.3-.69-.3-.24,0-.46.07-.66.21-.19.14-.34.35-.43.63h-.14c.06-.45.22-.8.47-1.04.25-.24.57-.36.95-.36.4,0,.74.13,1.01.39s.4.56.4.92c0,.25-.06.5-.18.75-.18.4-.47.81-.88,1.26-.61.66-.99,1.06-1.14,1.2h1.3c.26,0,.45,0,.56-.03.11-.02.2-.06.29-.12s.16-.14.22-.25h.14Z"/>
    <path class="cls-3" d="m69.01,30.81l-.29.62h-1.5l-.33.67c.65.1,1.16.34,1.54.72.33.33.49.72.49,1.17,0,.26-.05.5-.16.73-.11.22-.24.41-.4.57-.16.16-.34.28-.54.38-.28.13-.57.2-.86.2s-.51-.05-.65-.15c-.14-.1-.2-.21-.2-.34,0-.07.03-.13.08-.18.06-.05.13-.08.21-.08.06,0,.12,0,.17.03.05.02.13.07.24.15.18.13.37.19.56.19.29,0,.54-.11.75-.32s.32-.48.32-.79-.1-.58-.29-.84c-.19-.26-.46-.46-.8-.6-.27-.11-.63-.17-1.09-.19l.95-1.93h1.78Z"/>
    <path class="cls-3" d="m71.17,35.07c.11,0,.21.04.29.12s.12.18.12.29-.04.21-.12.29c-.08.08-.18.12-.29.12s-.21-.04-.29-.12c-.08-.08-.12-.18-.12-.29s.04-.21.12-.29c.08-.08.18-.12.29-.12Zm0-2.74c.11,0,.21.04.29.12.08.08.12.18.12.29s-.04.21-.12.29c-.08.08-.18.12-.29.12s-.21-.04-.29-.12c-.08-.08-.12-.18-.12-.29s.04-.21.12-.29c.08-.08.17-.12.29-.12Z"/>
    <path class="cls-3" d="m75.65,34.82l-.35.96h-2.93v-.14c.86-.79,1.47-1.43,1.82-1.93.35-.5.53-.95.53-1.37,0-.31-.1-.57-.29-.78-.19-.2-.42-.3-.69-.3-.25,0-.46.07-.66.21-.19.14-.34.35-.43.63h-.14c.06-.45.22-.8.47-1.04.25-.24.57-.36.95-.36.4,0,.74.13,1.01.39s.41.56.41.92c0,.25-.06.5-.18.75-.18.4-.47.81-.88,1.26-.61.66-.99,1.06-1.14,1.2h1.3c.26,0,.45,0,.56-.03s.2-.06.29-.12c.09-.06.16-.14.22-.25h.14Z"/>
    <path class="cls-3" d="m76.84,31.3l1.21-.59h.12v4.2c0,.28.01.45.04.52s.07.12.14.16.22.06.45.06v.14h-1.87v-.14c.23,0,.39-.02.45-.06.07-.04.12-.08.14-.14.03-.06.04-.24.04-.54v-2.68c0-.36-.01-.59-.04-.7-.02-.08-.05-.14-.09-.17s-.1-.05-.16-.05c-.09,0-.22.04-.38.11l-.06-.11Z"/>
  </g>
  <g>
    <path class="cls-3" d="m113.57,34.82l-.35.96h-2.93v-.14c.86-.79,1.47-1.43,1.82-1.93.35-.5.53-.95.53-1.37,0-.31-.1-.57-.29-.78-.19-.2-.42-.3-.69-.3-.25,0-.46.07-.66.21-.19.14-.34.35-.43.63h-.14c.06-.45.22-.8.47-1.04.25-.24.57-.36.95-.36.4,0,.74.13,1.01.39s.41.56.41.92c0,.25-.06.5-.18.75-.18.4-.47.81-.88,1.26-.61.66-.99,1.06-1.14,1.2h1.3c.26,0,.45,0,.56-.03s.2-.06.29-.12c.09-.06.16-.14.22-.25h.14Z"/>
    <path class="cls-3" d="m114.15,33.32c0-.57.08-1.05.26-1.46.17-.41.4-.71.68-.91.22-.16.45-.24.68-.24.38,0,.72.19,1.03.58.38.48.57,1.13.57,1.96,0,.58-.08,1.07-.25,1.47-.17.4-.38.7-.64.88s-.51.27-.75.27c-.47,0-.87-.28-1.18-.84-.27-.47-.4-1.04-.4-1.7Zm.72.09c0,.68.08,1.24.25,1.67.14.36.35.55.62.55.13,0,.27-.06.41-.18.14-.12.25-.32.32-.6.11-.42.17-1.01.17-1.78,0-.57-.06-1.04-.18-1.42-.09-.28-.2-.48-.34-.6-.1-.08-.22-.12-.36-.12-.17,0-.31.07-.44.22-.18.2-.29.52-.36.96-.06.44-.1.86-.1,1.29Z"/>
    <path class="cls-3" d="m119.3,35.07c.11,0,.21.04.29.12s.12.18.12.29-.04.21-.12.29c-.08.08-.18.12-.29.12s-.21-.04-.29-.12c-.08-.08-.12-.18-.12-.29s.04-.21.12-.29c.08-.08.18-.12.29-.12Zm0-2.74c.11,0,.21.04.29.12.08.08.12.18.12.29s-.04.21-.12.29c-.08.08-.18.12-.29.12s-.21-.04-.29-.12c-.08-.08-.12-.18-.12-.29s.04-.21.12-.29c.08-.08.17-.12.29-.12Z"/>
    <path class="cls-3" d="m121.21,31.3l1.21-.59h.12v4.2c0,.28.01.45.04.52s.07.12.14.16.22.06.45.06v.14h-1.87v-.14c.23,0,.39-.02.45-.06.07-.04.12-.08.14-.14.03-.06.04-.24.04-.54v-2.68c0-.36-.01-.59-.04-.7-.02-.08-.05-.14-.09-.17s-.1-.05-.16-.05c-.09,0-.22.04-.38.11l-.06-.11Z"/>
    <path class="cls-3" d="m127.44,30.71v.14c-.32.03-.58.1-.79.19-.2.1-.41.24-.6.44-.2.2-.36.42-.5.66s-.24.53-.33.87c.35-.24.71-.36,1.06-.36s.63.14.88.41.37.63.37,1.06-.13.79-.38,1.14c-.3.42-.7.62-1.2.62-.34,0-.63-.11-.87-.34-.46-.44-.7-1-.7-1.7,0-.44.09-.87.27-1.27.18-.4.43-.76.76-1.07s.65-.52.95-.63.58-.16.85-.16h.21Zm-2.28,2.56c-.04.33-.07.6-.07.8,0,.23.04.49.13.76s.22.49.39.65c.12.11.28.17.45.17.21,0,.4-.1.57-.3.17-.2.25-.49.25-.86,0-.42-.08-.78-.25-1.08-.17-.31-.4-.46-.71-.46-.09,0-.19.02-.3.06-.11.04-.26.12-.47.25Z"/>
  </g>
  <g>
    <path class="cls-3" d="m159.13,31.3l1.21-.59h.12v4.2c0,.28.01.45.04.52s.07.12.14.16.22.06.45.06v.14h-1.87v-.14c.23,0,.39-.02.45-.06.07-.04.12-.08.14-.14.03-.06.04-.24.04-.54v-2.68c0-.36-.01-.59-.04-.7-.02-.08-.05-.14-.09-.17s-.1-.05-.16-.05c-.09,0-.22.04-.38.11l-.06-.11Z"/>
    <path class="cls-3" d="m165.26,30.81l-.29.62h-1.5l-.33.67c.65.1,1.16.34,1.54.72.33.33.49.72.49,1.17,0,.26-.05.5-.16.73-.11.22-.24.41-.4.57-.16.16-.34.28-.54.38-.28.13-.57.2-.86.2s-.51-.05-.65-.15c-.14-.1-.2-.21-.2-.34,0-.07.03-.13.08-.18.06-.05.13-.08.21-.08.06,0,.12,0,.17.03.05.02.13.07.24.15.18.13.37.19.56.19.29,0,.54-.11.75-.32.22-.22.32-.48.32-.79s-.1-.58-.29-.84c-.19-.26-.46-.46-.8-.6-.27-.11-.63-.17-1.09-.19l.95-1.93h1.78Z"/>
    <path class="cls-3" d="m167.42,35.07c.11,0,.21.04.29.12s.12.18.12.29-.04.21-.12.29c-.08.08-.18.12-.29.12s-.21-.04-.29-.12c-.08-.08-.12-.18-.12-.29s.04-.21.12-.29c.08-.08.18-.12.29-.12Zm0-2.74c.11,0,.21.04.29.12.08.08.12.18.12.29s-.04.21-.12.29c-.08.08-.18.12-.29.12s-.21-.04-.29-.12c-.08-.08-.12-.18-.12-.29s.04-.21.12-.29c.08-.08.17-.12.29-.12Z"/>
    <path class="cls-3" d="m169.33,31.3l1.21-.59h.12v4.2c0,.28.01.45.04.52s.07.12.14.16.22.06.45.06v.14h-1.87v-.14c.23,0,.39-.02.45-.06.07-.04.12-.08.14-.14.03-.06.04-.24.04-.54v-2.68c0-.36-.01-.59-.04-.7-.02-.08-.05-.14-.09-.17s-.1-.05-.16-.05c-.09,0-.22.04-.38.11l-.06-.11Z"/>
    <path class="cls-3" d="m173.08,31.3l1.21-.59h.12v4.2c0,.28.01.45.04.52s.07.12.14.16.22.06.45.06v.14h-1.87v-.14c.23,0,.39-.02.45-.06.07-.04.12-.08.14-.14.03-.06.04-.24.04-.54v-2.68c0-.36-.01-.59-.04-.7-.02-.08-.05-.14-.09-.17s-.1-.05-.16-.05c-.09,0-.22.04-.38.11l-.06-.11Z"/>
  </g>
  <g>
    <path class="cls-3" d="m209.19,31.3l1.21-.59h.12v4.2c0,.28.01.45.04.52s.07.12.14.16.22.06.45.06v.14h-1.87v-.14c.23,0,.39-.02.45-.06.07-.04.12-.08.14-.14.03-.06.04-.24.04-.54v-2.68c0-.36-.01-.59-.04-.7-.02-.08-.05-.14-.09-.17s-.1-.05-.16-.05c-.09,0-.22.04-.38.11l-.06-.11Z"/>
    <path class="cls-3" d="m212.33,33.32c0-.57.08-1.05.26-1.46.17-.41.4-.71.68-.91.22-.16.45-.24.68-.24.38,0,.72.19,1.03.58.38.48.57,1.13.57,1.96,0,.58-.08,1.07-.25,1.47-.17.4-.38.7-.64.88s-.51.27-.75.27c-.47,0-.87-.28-1.18-.84-.27-.47-.4-1.04-.4-1.7Zm.72.09c0,.68.08,1.24.25,1.67.14.36.35.55.62.55.13,0,.27-.06.41-.18.14-.12.25-.32.32-.6.11-.42.17-1.01.17-1.78,0-.57-.06-1.04-.18-1.42-.09-.28-.2-.48-.34-.6-.1-.08-.22-.12-.36-.12-.17,0-.31.07-.44.22-.18.2-.29.52-.36.96-.06.44-.1.86-.1,1.29Z"/>
    <path class="cls-3" d="m217.48,35.07c.11,0,.21.04.29.12s.12.18.12.29-.04.21-.12.29c-.08.08-.18.12-.29.12s-.21-.04-.29-.12c-.08-.08-.12-.18-.12-.29s.04-.21.12-.29c.08-.08.18-.12.29-.12Zm0-2.74c.11,0,.21.04.29.12.08.08.12.18.12.29s-.04.21-.12.29c-.08.08-.18.12-.29.12s-.21-.04-.29-.12c-.08-.08-.12-.18-.12-.29s.04-.21.12-.29c.08-.08.17-.12.29-.12Z"/>
    <path class="cls-3" d="m222.5,30.71v.14c-.32.03-.58.1-.79.19-.2.1-.41.24-.6.44-.2.2-.36.42-.5.66s-.24.53-.33.87c.35-.24.71-.36,1.06-.36s.63.14.88.41.37.63.37,1.06-.13.79-.38,1.14c-.3.42-.7.62-1.2.62-.34,0-.63-.11-.87-.34-.46-.44-.7-1-.7-1.7,0-.44.09-.87.27-1.27.18-.4.43-.76.76-1.07s.65-.52.95-.63.58-.16.85-.16h.21Zm-2.28,2.56c-.04.33-.07.6-.07.8,0,.23.04.49.13.76s.22.49.39.65c.12.11.28.17.45.17.21,0,.4-.1.57-.3.17-.2.25-.49.25-.86,0-.42-.08-.78-.25-1.08-.17-.31-.4-.46-.71-.46-.09,0-.19.02-.3.06-.11.04-.26.12-.47.25Z"/>
  </g>
  <g>
    <path class="cls-3" d="m261.94,30.81l-.29.62h-1.5l-.33.67c.65.1,1.16.34,1.54.72.33.33.49.72.49,1.17,0,.26-.05.5-.16.73-.11.22-.24.41-.4.57-.16.16-.34.28-.54.38-.28.13-.57.2-.86.2s-.51-.05-.65-.15c-.14-.1-.2-.21-.2-.34,0-.07.03-.13.08-.18.06-.05.13-.08.21-.08.06,0,.12,0,.17.03.05.02.13.07.24.15.18.13.37.19.56.19.29,0,.54-.11.75-.32.22-.22.32-.48.32-.79s-.1-.58-.29-.84c-.19-.26-.46-.46-.8-.6-.27-.11-.63-.17-1.09-.19l.95-1.93h1.78Z"/>
    <path class="cls-3" d="m264.1,35.07c.11,0,.21.04.29.12s.12.18.12.29-.04.21-.12.29c-.08.08-.18.12-.29.12s-.21-.04-.29-.12c-.08-.08-.12-.18-.12-.29s.04-.21.12-.29c.08-.08.18-.12.29-.12Zm0-2.74c.11,0,.21.04.29.12.08.08.12.18.12.29s-.04.21-.12.29c-.08.08-.18.12-.29.12s-.21-.04-.29-.12c-.08-.08-.12-.18-.12-.29s.04-.21.12-.29c.08-.08.17-.12.29-.12Z"/>
    <path class="cls-3" d="m266.02,33.32c0-.57.08-1.05.26-1.46.17-.41.4-.71.68-.91.22-.16.45-.24.68-.24.38,0,.72.19,1.03.58.38.48.57,1.13.57,1.96,0,.58-.08,1.07-.25,1.47-.17.4-.38.7-.64.88s-.51.27-.75.27c-.47,0-.87-.28-1.18-.84-.27-.47-.4-1.04-.4-1.7Zm.72.09c0,.68.08,1.24.25,1.67.14.36.35.55.62.55.13,0,.27-.06.41-.18.14-.12.25-.32.32-.6.11-.42.17-1.01.17-1.78,0-.57-.06-1.04-.18-1.42-.09-.28-.2-.48-.34-.6-.1-.08-.22-.12-.36-.12-.17,0-.31.07-.44.22-.18.2-.29.52-.36.96-.06.44-.1.86-.1,1.29Z"/>
  </g>
  <g>
    <path class="cls-3" d="m6.77,65.76c.14-.33.32-.59.54-.77.22-.18.49-.27.81-.27.4,0,.7.13.92.39.16.19.24.4.24.62,0,.36-.23.74-.68,1.12.31.12.54.29.69.51s.23.48.23.78c0,.43-.14.8-.41,1.12-.36.41-.87.62-1.55.62-.33,0-.56-.04-.68-.12-.12-.08-.18-.17-.18-.27,0-.07.03-.13.09-.19.06-.05.13-.08.21-.08.06,0,.12,0,.19.03.04.01.14.06.28.13.15.08.25.12.3.14.09.03.19.04.29.04.25,0,.47-.1.65-.29.18-.19.28-.42.28-.69,0-.19-.04-.38-.13-.56-.06-.14-.13-.24-.21-.31-.1-.1-.25-.19-.43-.27-.18-.08-.37-.12-.56-.12h-.12v-.11c.19-.02.39-.09.58-.21s.34-.25.42-.41.13-.34.13-.53c0-.25-.08-.46-.24-.61-.16-.16-.35-.23-.59-.23-.38,0-.7.2-.95.61l-.12-.06Z"/>
    <path class="cls-3" d="m13.4,64.81l-.29.62h-1.5l-.33.67c.65.1,1.16.34,1.54.72.32.33.49.72.49,1.17,0,.26-.05.5-.16.73-.11.22-.24.41-.4.57-.16.16-.34.28-.54.38-.28.13-.57.2-.86.2s-.51-.05-.65-.15c-.14-.1-.2-.21-.2-.34,0-.07.03-.13.08-.18.06-.05.13-.08.21-.08.06,0,.12,0,.17.03.05.02.13.07.24.15.18.13.37.19.56.19.29,0,.54-.11.75-.32.22-.22.32-.48.32-.79s-.1-.58-.29-.84c-.19-.26-.46-.46-.8-.6-.27-.11-.63-.17-1.09-.19l.95-1.93h1.78Z"/>
    <path class="cls-3" d="m16.1,66.42h.14c.05.05.1.07.15.07.04,0,.13-.02.26-.06.23-.07.42-.11.57-.11.39,0,.73.16,1.04.48.31.32.47.74.47,1.25s-.15.93-.45,1.29-.69.54-1.17.54-.9-.25-1.24-.74l.12-.07c.28.39.62.59,1.04.59.29,0,.53-.11.72-.32s.29-.56.29-1.05v-.18h-1.11v-.24h1.09c-.05-.4-.15-.72-.32-.96-.17-.24-.37-.35-.62-.35-.23,0-.42.09-.57.26-.15.17-.24.39-.27.65h-.14v-1.04Z"/>
    <path class="cls-3" d="m22.07,68.5c-.09.44-.27.78-.53,1.02-.26.24-.56.36-.88.36-.38,0-.71-.16-1-.48-.28-.32-.43-.75-.43-1.3s.16-.96.47-1.29c.31-.33.69-.49,1.13-.49.33,0,.6.09.81.26.21.17.32.36.32.54,0,.09-.03.17-.09.23-.06.06-.14.09-.25.09-.14,0-.25-.05-.33-.14-.04-.05-.07-.15-.08-.29-.01-.14-.06-.25-.15-.33-.09-.07-.2-.11-.36-.11-.24,0-.44.09-.59.27-.2.24-.3.56-.3.95s.1.75.29,1.06.46.46.8.46c.24,0,.45-.08.65-.25.13-.11.27-.32.39-.61l.11.05Z"/>
    <path class="cls-3" d="m24.68,68.01c.61.13.92.41.92.86,0,.31-.13.53-.38.69-.25.15-.61.23-1.07.23h-1.66v-.14c.22,0,.35-.04.41-.12.06-.08.09-.26.09-.53v-1.78c0-.26-.01-.42-.04-.47-.03-.05-.07-.09-.12-.13-.05-.04-.17-.06-.34-.06v-.14h1.55c.3,0,.54.02.72.07s.34.14.45.27c.12.14.18.3.18.5,0,.38-.24.63-.71.74Zm-1.08-.08c.11,0,.17,0,.19,0,.33,0,.58-.06.73-.19s.22-.28.22-.47c0-.21-.08-.37-.23-.46-.15-.1-.39-.14-.73-.14h-.19v1.26Zm0,1.56c.12.04.27.06.44.06.29,0,.51-.06.65-.19.14-.13.21-.29.21-.49,0-.22-.09-.4-.27-.52-.18-.12-.44-.18-.76-.18-.08,0-.17,0-.26,0v1.31Z"/>
    <path class="cls-3" d="m26.19,66.42h.14c.05.05.1.07.15.07.04,0,.13-.02.26-.06.23-.07.42-.11.57-.11.39,0,.73.16,1.04.48.31.32.47.74.47,1.25s-.15.93-.45,1.29-.69.54-1.17.54-.9-.25-1.24-.74l.12-.07c.28.39.62.59,1.04.59.29,0,.53-.11.72-.32s.29-.56.29-1.05v-.18h-1.11v-.24h1.09c-.05-.4-.15-.72-.32-.96-.17-.24-.37-.35-.62-.35-.23,0-.42.09-.57.26-.15.17-.24.39-.27.65h-.14v-1.04Z"/>
    <path class="cls-3" d="m29.66,66.42h3v.14c-.17,0-.28.02-.33.05-.05.03-.1.07-.13.12s-.05.21-.05.48v1.78c0,.26.01.41.04.46.03.05.07.09.13.13.06.04.17.06.34.06v.14h-1.74v-.14c.19,0,.32,0,.39-.03.07-.02.13-.07.17-.14.04-.07.06-.23.06-.48v-2.33h-1.12v1.41c0,.53-.02.91-.07,1.13-.05.22-.14.38-.28.48-.14.1-.3.16-.48.16-.31,0-.47-.13-.47-.39,0-.09.02-.16.08-.22.05-.06.12-.08.2-.08.09,0,.17.04.24.11.1.09.17.14.22.14.11,0,.19-.09.24-.28.05-.18.08-.51.08-.97v-.74c0-.38-.03-.61-.08-.7-.05-.08-.2-.13-.42-.15v-.14Z"/>
    <path class="cls-3" d="m38.2,67.95v.52h-.67v1.31h-.6v-1.31h-2.1v-.47l2.3-3.29h.4v3.24h.67Zm-1.27,0v-2.47l-1.74,2.47h1.74Z"/>
    <path class="cls-3" d="m38.84,65.76c.14-.33.32-.59.54-.77.22-.18.49-.27.81-.27.4,0,.7.13.92.39.16.19.24.4.24.62,0,.36-.23.74-.68,1.12.31.12.54.29.69.51s.23.48.23.78c0,.43-.14.8-.41,1.12-.36.41-.87.62-1.55.62-.33,0-.56-.04-.68-.12-.12-.08-.18-.17-.18-.27,0-.07.03-.13.09-.19.06-.05.13-.08.21-.08.06,0,.12,0,.19.03.04.01.14.06.28.13.15.08.25.12.3.14.09.03.19.04.29.04.25,0,.47-.1.65-.29.18-.19.28-.42.28-.69,0-.19-.04-.38-.13-.56-.06-.14-.13-.24-.21-.31-.1-.1-.25-.19-.43-.27-.18-.08-.37-.12-.56-.12h-.12v-.11c.19-.02.39-.09.58-.21s.34-.25.42-.41.13-.34.13-.53c0-.25-.08-.46-.24-.61-.16-.16-.35-.23-.59-.23-.38,0-.7.2-.95.61l-.12-.06Z"/>
  </g>
  <g>
    <path class="cls-3" d="m70.45,66.32v.75c.28-.5.57-.75.86-.75.13,0,.25.04.33.12.09.08.13.18.13.28,0,.1-.03.18-.1.24s-.14.1-.23.1-.18-.04-.29-.13c-.11-.08-.19-.13-.24-.13-.04,0-.09.02-.14.07-.11.1-.22.27-.34.49v1.61c0,.19.02.33.07.42.03.07.09.12.17.17.08.04.2.07.35.07v.13h-1.72v-.13c.17,0,.3-.03.38-.08.06-.04.1-.1.13-.19.01-.04.02-.16.02-.36v-1.3c0-.39,0-.62-.02-.7-.02-.07-.04-.13-.09-.16s-.1-.05-.16-.05c-.08,0-.16.02-.26.05l-.04-.13,1.01-.41h.15Z"/>
    <path class="cls-3" d="m74.24,66.32v1.14h-.12c-.09-.36-.21-.6-.36-.73-.15-.13-.33-.19-.56-.19-.17,0-.31.05-.41.14-.1.09-.16.19-.16.3,0,.14.04.25.12.35.08.1.23.21.46.32l.54.26c.5.24.74.56.74.96,0,.31-.12.55-.35.74-.23.19-.49.28-.78.28-.21,0-.44-.04-.7-.11-.08-.02-.15-.04-.2-.04-.06,0-.1.03-.13.1h-.12v-1.2h.12c.07.34.2.6.39.77.19.17.41.26.65.26.17,0,.31-.05.41-.15.11-.1.16-.22.16-.36,0-.17-.06-.31-.18-.43-.12-.11-.35-.26-.71-.44-.35-.18-.59-.33-.7-.48-.11-.14-.17-.31-.17-.53,0-.28.09-.51.28-.69s.43-.28.73-.28c.13,0,.29.03.48.08.12.04.21.06.25.06.04,0,.07,0,.09-.03.02-.02.05-.05.08-.11h.12Z"/>
  </g>
  <g>
    <path class="cls-3" d="m119.19,66.32v.75c.28-.5.57-.75.86-.75.13,0,.25.04.33.12.09.08.13.18.13.28,0,.1-.03.18-.1.24s-.14.1-.23.1-.18-.04-.29-.13c-.11-.08-.19-.13-.24-.13-.04,0-.09.02-.14.07-.11.1-.22.27-.34.49v1.61c0,.19.02.33.07.42.03.07.09.12.17.17.08.04.2.07.35.07v.13h-1.72v-.13c.17,0,.3-.03.38-.08.06-.04.1-.1.13-.19.01-.04.02-.16.02-.36v-1.3c0-.39,0-.62-.02-.7-.02-.07-.04-.13-.09-.16s-.1-.05-.16-.05c-.08,0-.16.02-.26.05l-.04-.13,1.01-.41h.15Z"/>
    <path class="cls-3" d="m122.05,65.32v1.1h.78v.26h-.78v2.18c0,.22.03.36.09.44.06.08.14.11.24.11.08,0,.16-.02.23-.08.08-.05.13-.12.18-.22h.14c-.08.24-.21.42-.36.54s-.32.18-.48.18c-.11,0-.22-.03-.33-.09-.11-.06-.19-.15-.24-.27-.05-.12-.08-.29-.08-.54v-2.26h-.53v-.12c.13-.05.27-.14.41-.27s.27-.28.38-.46c.06-.09.13-.26.23-.51h.11Z"/>
  </g>
  <g>
    <path class="cls-3" d="m203.71,66.42h1.58v.14c-.1,0-.17.02-.21.05-.04.03-.06.08-.06.14s.04.15.13.27c.03.04.07.1.12.18l.24.38.27-.38c.18-.24.26-.39.26-.46,0-.05-.02-.09-.06-.13-.04-.04-.11-.05-.2-.05v-.14h1.14v.14c-.12,0-.22.04-.31.1-.12.08-.28.26-.49.54l-.46.61.83,1.2c.21.3.35.47.44.53.09.06.2.09.34.1v.13h-1.58v-.13c.11,0,.2-.02.26-.07.05-.03.07-.08.07-.14s-.08-.2-.23-.42l-.49-.72-.54.72c-.17.22-.25.35-.25.4,0,.06.03.11.08.16.05.05.14.07.25.08v.13h-1.09v-.13c.09-.01.16-.04.23-.09.09-.07.25-.25.47-.54l.7-.93-.64-.92c-.18-.26-.32-.43-.42-.5-.1-.07-.22-.1-.37-.1v-.14Z"/>
    <path class="cls-3" d="m209.5,69.3c-.34.27-.56.42-.65.46-.13.06-.27.09-.42.09-.23,0-.42-.08-.57-.24-.15-.16-.23-.37-.23-.63,0-.16.04-.31.11-.43.1-.17.27-.32.52-.47.25-.15.66-.33,1.24-.54v-.13c0-.33-.05-.56-.16-.69s-.26-.19-.46-.19c-.15,0-.28.04-.37.12-.09.08-.14.18-.14.29v.21c0,.11-.02.2-.08.26s-.13.09-.23.09-.16-.03-.22-.1c-.06-.06-.09-.15-.09-.26,0-.21.11-.4.32-.58s.52-.26.91-.26c.3,0,.54.05.73.15.14.08.25.19.32.36.04.1.07.32.07.65v1.14c0,.32,0,.52.02.59.01.07.03.12.06.15s.06.04.1.04c.04,0,.07,0,.1-.03.05-.03.15-.12.3-.27v.21c-.27.37-.54.55-.78.55-.12,0-.22-.04-.29-.12-.07-.08-.11-.22-.11-.43Zm0-.24v-1.28c-.37.15-.61.25-.71.31-.19.11-.33.22-.41.34s-.12.25-.12.38c0,.18.05.32.16.44.1.12.23.17.36.17.19,0,.43-.12.73-.37Z"/>
    <path class="cls-3" d="m213.98,66.42v.14c-.15,0-.26.02-.34.06-.07.04-.12.09-.14.16-.02.06-.03.21-.03.43v1.78c0,.21,0,.35.03.42.02.07.07.12.14.17.07.04.19.07.34.07v.14h-1.62v-.14c.2,0,.34-.04.41-.11.07-.07.1-.25.1-.54v-.73h-.15s-.06,0-.12,0l-1.07,1.52h-.84v-.14c.12,0,.21-.02.25-.05.05-.03.14-.14.27-.32l.78-1.11c-.56-.2-.84-.49-.84-.9,0-.23.1-.42.3-.59.2-.17.54-.25,1.03-.25h1.49Zm-1.11.28c-.09-.03-.19-.04-.27-.04-.25,0-.43.06-.55.18-.12.12-.18.27-.18.44,0,.22.09.39.26.54.17.14.39.21.66.21.03,0,.06,0,.09,0v-1.32Z"/>
    <path class="cls-3" d="m217.04,66.42l.14.92h-.16c-.09-.3-.19-.49-.28-.57-.09-.07-.29-.11-.6-.11h-.71v2.33c0,.26.01.41.04.46.03.05.07.09.13.13.06.04.17.06.34.06v.14h-1.68v-.14c.24,0,.39-.04.46-.11.07-.07.1-.25.1-.54v-1.78c0-.24-.01-.39-.04-.46-.03-.07-.07-.12-.14-.14-.07-.03-.19-.04-.38-.05v-.14h2.78Z"/>
  </g>
  <g>
    <path class="cls-3" d="m14.57,77.26c.14-.33.32-.59.54-.77.22-.18.49-.27.81-.27.4,0,.7.13.92.39.16.19.24.4.24.62,0,.36-.23.74-.68,1.12.31.12.54.29.69.51s.23.48.23.78c0,.43-.14.8-.41,1.12-.36.41-.87.62-1.55.62-.33,0-.56-.04-.68-.12-.12-.08-.18-.17-.18-.27,0-.07.03-.13.09-.19.06-.05.13-.08.21-.08.06,0,.12,0,.19.03.04.01.14.06.28.13.15.08.25.12.3.14.09.03.19.04.29.04.25,0,.47-.1.65-.29.18-.19.28-.42.28-.69,0-.19-.04-.38-.13-.56-.06-.14-.13-.24-.21-.31-.1-.1-.25-.19-.43-.27-.18-.08-.37-.12-.56-.12h-.12v-.11c.19-.02.39-.09.58-.21s.34-.25.42-.41.13-.34.13-.53c0-.25-.08-.46-.24-.61-.16-.16-.35-.23-.59-.23-.38,0-.7.2-.95.61l-.12-.06Z"/>
    <path class="cls-3" d="m18.82,76.8l1.21-.59h.12v4.2c0,.28.01.45.03.52.02.07.07.12.15.16s.22.06.45.06v.14h-1.87v-.14c.23,0,.39-.02.45-.06.07-.04.12-.08.14-.14s.04-.24.04-.54v-2.68c0-.36-.01-.59-.04-.7-.02-.08-.05-.14-.09-.17-.04-.04-.1-.05-.16-.05-.09,0-.22.04-.38.11l-.06-.11Z"/>
    <path class="cls-3" d="m22.74,80.57c.11,0,.21.04.29.12.08.08.12.18.12.29s-.04.21-.12.29c-.08.08-.18.12-.29.12s-.21-.04-.29-.12c-.08-.08-.12-.18-.12-.29s.04-.21.12-.29c.08-.08.17-.12.29-.12Zm0-2.74c.11,0,.21.04.29.12.08.08.12.18.12.29s-.04.21-.12.29-.18.12-.29.12-.21-.04-.29-.12c-.08-.08-.12-.18-.12-.29s.04-.21.12-.29.17-.12.29-.12Z"/>
    <path class="cls-3" d="m27.22,80.32l-.35.96h-2.93v-.14c.86-.79,1.47-1.43,1.82-1.93.35-.5.53-.95.53-1.37,0-.31-.1-.57-.29-.78-.19-.2-.42-.3-.69-.3-.24,0-.46.07-.66.21-.19.14-.34.35-.43.63h-.14c.06-.45.22-.8.47-1.04.25-.24.57-.36.95-.36.4,0,.74.13,1.01.39s.4.56.4.92c0,.25-.06.5-.18.75-.18.4-.47.81-.88,1.26-.61.66-.99,1.06-1.14,1.2h1.3c.26,0,.45,0,.56-.03.11-.02.2-.06.29-.12s.16-.14.22-.25h.14Z"/>
    <path class="cls-3" d="m30.89,76.21v.14c-.32.03-.59.1-.79.19-.2.1-.41.24-.6.44-.2.2-.36.42-.49.66-.13.24-.24.53-.33.87.35-.24.7-.36,1.06-.36s.63.14.88.41.37.63.37,1.06-.13.79-.38,1.14c-.3.42-.7.62-1.2.62-.34,0-.63-.11-.86-.34-.46-.44-.7-1-.7-1.7,0-.44.09-.87.27-1.27.18-.4.43-.76.76-1.07s.65-.52.95-.63.58-.16.85-.16h.21Zm-2.28,2.56c-.04.33-.07.6-.07.8,0,.23.04.49.13.76.09.27.22.49.39.65.12.11.28.17.45.17.21,0,.4-.1.57-.3.17-.2.25-.49.25-.86,0-.42-.08-.78-.25-1.08-.17-.31-.4-.46-.71-.46-.09,0-.19.02-.3.06-.11.04-.26.12-.47.25Z"/>
  </g>
  <g>
    <path class="cls-3" d="m65.44,80.32l-.35.96h-2.93v-.14c.86-.79,1.47-1.43,1.82-1.93.35-.5.53-.95.53-1.37,0-.31-.1-.57-.29-.78-.19-.2-.42-.3-.69-.3-.24,0-.46.07-.66.21-.19.14-.34.35-.43.63h-.14c.06-.45.22-.8.47-1.04.25-.24.57-.36.95-.36.4,0,.74.13,1.01.39s.4.56.4.92c0,.25-.06.5-.18.75-.18.4-.47.81-.88,1.26-.61.66-.99,1.06-1.14,1.2h1.3c.26,0,.45,0,.56-.03.11-.02.2-.06.29-.12s.16-.14.22-.25h.14Z"/>
    <path class="cls-3" d="m69.01,76.31l-.29.62h-1.5l-.33.67c.65.1,1.16.34,1.54.72.33.33.49.72.49,1.17,0,.26-.05.5-.16.73-.11.22-.24.41-.4.57-.16.16-.34.28-.54.38-.28.13-.57.2-.86.2s-.51-.05-.65-.15c-.14-.1-.2-.21-.2-.34,0-.07.03-.13.08-.18.06-.05.13-.08.21-.08.06,0,.12,0,.17.03.05.02.13.07.24.15.18.13.37.19.56.19.29,0,.54-.11.75-.32s.32-.48.32-.79-.1-.58-.29-.84c-.19-.26-.46-.46-.8-.6-.27-.11-.63-.17-1.09-.19l.95-1.93h1.78Z"/>
    <path class="cls-3" d="m71.17,80.57c.11,0,.21.04.29.12s.12.18.12.29-.04.21-.12.29c-.08.08-.18.12-.29.12s-.21-.04-.29-.12c-.08-.08-.12-.18-.12-.29s.04-.21.12-.29c.08-.08.18-.12.29-.12Zm0-2.74c.11,0,.21.04.29.12.08.08.12.18.12.29s-.04.21-.12.29c-.08.08-.18.12-.29.12s-.21-.04-.29-.12c-.08-.08-.12-.18-.12-.29s.04-.21.12-.29c.08-.08.17-.12.29-.12Z"/>
    <path class="cls-3" d="m75.65,80.32l-.35.96h-2.93v-.14c.86-.79,1.47-1.43,1.82-1.93.35-.5.53-.95.53-1.37,0-.31-.1-.57-.29-.78-.19-.2-.42-.3-.69-.3-.25,0-.46.07-.66.21-.19.14-.34.35-.43.63h-.14c.06-.45.22-.8.47-1.04.25-.24.57-.36.95-.36.4,0,.74.13,1.01.39s.41.56.41.92c0,.25-.06.5-.18.75-.18.4-.47.81-.88,1.26-.61.66-.99,1.06-1.14,1.2h1.3c.26,0,.45,0,.56-.03s.2-.06.29-.12c.09-.06.16-.14.22-.25h.14Z"/>
    <path class="cls-3" d="m76.84,76.8l1.21-.59h.12v4.2c0,.28.01.45.04.52s.07.12.14.16.22.06.45.06v.14h-1.87v-.14c.23,0,.39-.02.45-.06.07-.04.12-.08.14-.14.03-.06.04-.24.04-.54v-2.68c0-.36-.01-.59-.04-.7-.02-.08-.05-.14-.09-.17s-.1-.05-.16-.05c-.09,0-.22.04-.38.11l-.06-.11Z"/>
  </g>
  <g>
    <path class="cls-3" d="m113.57,80.32l-.35.96h-2.93v-.14c.86-.79,1.47-1.43,1.82-1.93.35-.5.53-.95.53-1.37,0-.31-.1-.57-.29-.78-.19-.2-.42-.3-.69-.3-.25,0-.46.07-.66.21-.19.14-.34.35-.43.63h-.14c.06-.45.22-.8.47-1.04.25-.24.57-.36.95-.36.4,0,.74.13,1.01.39s.41.56.41.92c0,.25-.06.5-.18.75-.18.4-.47.81-.88,1.26-.61.66-.99,1.06-1.14,1.2h1.3c.26,0,.45,0,.56-.03s.2-.06.29-.12c.09-.06.16-.14.22-.25h.14Z"/>
    <path class="cls-3" d="m114.15,78.82c0-.57.08-1.05.26-1.46.17-.41.4-.71.68-.91.22-.16.45-.24.68-.24.38,0,.72.19,1.03.58.38.48.57,1.13.57,1.96,0,.58-.08,1.07-.25,1.47-.17.4-.38.7-.64.88s-.51.27-.75.27c-.47,0-.87-.28-1.18-.84-.27-.47-.4-1.04-.4-1.7Zm.72.09c0,.68.08,1.24.25,1.67.14.36.35.55.62.55.13,0,.27-.06.41-.18.14-.12.25-.32.32-.6.11-.42.17-1.01.17-1.78,0-.57-.06-1.04-.18-1.42-.09-.28-.2-.48-.34-.6-.1-.08-.22-.12-.36-.12-.17,0-.31.07-.44.22-.18.2-.29.52-.36.96-.06.44-.1.86-.1,1.29Z"/>
    <path class="cls-3" d="m119.3,80.57c.11,0,.21.04.29.12s.12.18.12.29-.04.21-.12.29c-.08.08-.18.12-.29.12s-.21-.04-.29-.12c-.08-.08-.12-.18-.12-.29s.04-.21.12-.29c.08-.08.18-.12.29-.12Zm0-2.74c.11,0,.21.04.29.12.08.08.12.18.12.29s-.04.21-.12.29c-.08.08-.18.12-.29.12s-.21-.04-.29-.12c-.08-.08-.12-.18-.12-.29s.04-.21.12-.29c.08-.08.17-.12.29-.12Z"/>
    <path class="cls-3" d="m121.21,76.8l1.21-.59h.12v4.2c0,.28.01.45.04.52s.07.12.14.16.22.06.45.06v.14h-1.87v-.14c.23,0,.39-.02.45-.06.07-.04.12-.08.14-.14.03-.06.04-.24.04-.54v-2.68c0-.36-.01-.59-.04-.7-.02-.08-.05-.14-.09-.17s-.1-.05-.16-.05c-.09,0-.22.04-.38.11l-.06-.11Z"/>
    <path class="cls-3" d="m127.44,76.21v.14c-.32.03-.58.1-.79.19-.2.1-.41.24-.6.44-.2.2-.36.42-.5.66s-.24.53-.33.87c.35-.24.71-.36,1.06-.36s.63.14.88.41.37.63.37,1.06-.13.79-.38,1.14c-.3.42-.7.62-1.2.62-.34,0-.63-.11-.87-.34-.46-.44-.7-1-.7-1.7,0-.44.09-.87.27-1.27.18-.4.43-.76.76-1.07s.65-.52.95-.63.58-.16.85-.16h.21Zm-2.28,2.56c-.04.33-.07.6-.07.8,0,.23.04.49.13.76s.22.49.39.65c.12.11.28.17.45.17.21,0,.4-.1.57-.3.17-.2.25-.49.25-.86,0-.42-.08-.78-.25-1.08-.17-.31-.4-.46-.71-.46-.09,0-.19.02-.3.06-.11.04-.26.12-.47.25Z"/>
  </g>
  <g>
    <path class="cls-3" d="m209.19,76.8l1.21-.59h.12v4.2c0,.28.01.45.04.52s.07.12.14.16.22.06.45.06v.14h-1.87v-.14c.23,0,.39-.02.45-.06.07-.04.12-.08.14-.14.03-.06.04-.24.04-.54v-2.68c0-.36-.01-.59-.04-.7-.02-.08-.05-.14-.09-.17s-.1-.05-.16-.05c-.09,0-.22.04-.38.11l-.06-.11Z"/>
    <path class="cls-3" d="m215.32,76.31l-.29.62h-1.5l-.33.67c.65.1,1.16.34,1.54.72.33.33.49.72.49,1.17,0,.26-.05.5-.16.73-.11.22-.24.41-.4.57-.16.16-.34.28-.54.38-.28.13-.57.2-.86.2s-.51-.05-.65-.15c-.14-.1-.2-.21-.2-.34,0-.07.03-.13.08-.18.06-.05.13-.08.21-.08.06,0,.12,0,.17.03.05.02.13.07.24.15.18.13.37.19.56.19.29,0,.54-.11.75-.32.22-.22.32-.48.32-.79s-.1-.58-.29-.84c-.19-.26-.46-.46-.8-.6-.27-.11-.63-.17-1.09-.19l.95-1.93h1.78Z"/>
    <path class="cls-3" d="m217.48,80.57c.11,0,.21.04.29.12s.12.18.12.29-.04.21-.12.29c-.08.08-.18.12-.29.12s-.21-.04-.29-.12c-.08-.08-.12-.18-.12-.29s.04-.21.12-.29c.08-.08.18-.12.29-.12Zm0-2.74c.11,0,.21.04.29.12.08.08.12.18.12.29s-.04.21-.12.29c-.08.08-.18.12-.29.12s-.21-.04-.29-.12c-.08-.08-.12-.18-.12-.29s.04-.21.12-.29c.08-.08.17-.12.29-.12Z"/>
    <path class="cls-3" d="m219.41,78.82c0-.57.08-1.05.26-1.46.17-.41.4-.71.68-.91.22-.16.45-.24.68-.24.38,0,.72.19,1.03.58.38.48.57,1.13.57,1.96,0,.58-.08,1.07-.25,1.47-.17.4-.38.7-.64.88s-.51.27-.75.27c-.47,0-.87-.28-1.18-.84-.27-.47-.4-1.04-.4-1.7Zm.72.09c0,.68.08,1.24.25,1.67.14.36.35.55.62.55.13,0,.27-.06.41-.18.14-.12.25-.32.32-.6.11-.42.17-1.01.17-1.78,0-.57-.06-1.04-.18-1.42-.09-.28-.2-.48-.34-.6-.1-.08-.22-.12-.36-.12-.17,0-.31.07-.44.22-.18.2-.29.52-.36.96-.06.44-.1.86-.1,1.29Z"/>
  </g>
  <rect class="cls-1" x="240.87" y="73.28" width="48.12" height="11.5"/>
  <path class="cls-3" d="m25.55,113.45v.52h-.67v1.31h-.6v-1.31h-2.1v-.47l2.3-3.29h.4v3.24h.67Zm-1.27,0v-2.47l-1.74,2.47h1.74Z"/>
  <g>
    <path class="cls-3" d="m151.29,111.92h1.58v.14c-.1,0-.17.02-.21.05-.04.03-.06.08-.06.14s.04.15.13.27c.03.04.07.1.12.18l.24.38.27-.38c.18-.24.26-.39.26-.46,0-.05-.02-.09-.06-.13-.04-.04-.11-.05-.2-.05v-.14h1.14v.14c-.12,0-.22.04-.31.1-.12.08-.28.26-.49.54l-.46.61.83,1.2c.21.3.35.47.44.53.09.06.2.09.34.1v.13h-1.58v-.13c.11,0,.2-.02.26-.07.05-.03.07-.08.07-.14s-.08-.2-.23-.42l-.49-.72-.54.72c-.17.22-.25.35-.25.4,0,.06.03.11.08.16.05.05.14.07.25.08v.13h-1.09v-.13c.09-.01.16-.04.23-.09.09-.07.25-.25.47-.54l.7-.93-.64-.92c-.18-.26-.32-.43-.42-.5-.1-.07-.22-.1-.37-.1v-.14Z"/>
    <path class="cls-3" d="m157.08,114.8c-.34.27-.56.42-.65.46-.13.06-.27.09-.42.09-.23,0-.42-.08-.57-.24-.15-.16-.23-.37-.23-.63,0-.16.04-.31.11-.43.1-.17.27-.32.52-.47.25-.15.66-.33,1.24-.54v-.13c0-.33-.05-.56-.16-.69s-.26-.19-.46-.19c-.15,0-.28.04-.37.12-.09.08-.14.18-.14.29v.21c0,.11-.02.2-.08.26s-.13.09-.23.09-.16-.03-.22-.1c-.06-.06-.09-.15-.09-.26,0-.21.11-.4.32-.58s.52-.26.91-.26c.3,0,.54.05.73.15.14.08.25.19.32.36.04.1.07.32.07.65v1.14c0,.32,0,.52.02.59.01.07.03.12.06.15s.06.04.1.04c.04,0,.07,0,.1-.03.05-.03.15-.12.3-.27v.21c-.27.37-.54.55-.78.55-.12,0-.22-.04-.29-.12-.07-.08-.11-.22-.11-.43Zm0-.24v-1.28c-.37.15-.61.25-.71.31-.19.11-.33.22-.41.34s-.12.25-.12.38c0,.18.05.32.16.44.1.12.23.17.36.17.19,0,.43-.12.73-.37Z"/>
    <path class="cls-3" d="m161.56,111.92v.14c-.15,0-.26.02-.34.06-.07.04-.12.09-.14.16-.02.06-.03.21-.03.43v1.78c0,.21,0,.35.03.42.02.07.07.12.14.17.07.04.19.07.34.07v.14h-1.62v-.14c.2,0,.34-.04.41-.11.07-.07.1-.25.1-.54v-.73h-.15s-.06,0-.12,0l-1.07,1.52h-.84v-.14c.12,0,.21-.02.25-.05.05-.03.14-.14.27-.32l.78-1.11c-.56-.2-.84-.49-.84-.9,0-.23.1-.42.3-.59.2-.17.54-.25,1.03-.25h1.49Zm-1.11.28c-.09-.03-.19-.04-.27-.04-.25,0-.43.06-.55.18-.12.12-.18.27-.18.44,0,.22.09.39.26.54.17.14.39.21.66.21.03,0,.06,0,.09,0v-1.32Z"/>
    <path class="cls-3" d="m164.62,111.92l.14.92h-.16c-.09-.3-.19-.49-.28-.57-.09-.07-.29-.11-.6-.11h-.71v2.33c0,.26.01.41.04.46.03.05.07.09.13.13.06.04.17.06.34.06v.14h-1.68v-.14c.24,0,.39-.04.46-.11.07-.07.1-.25.1-.54v-1.78c0-.24-.01-.39-.04-.46-.03-.07-.07-.12-.14-.14-.07-.03-.19-.04-.38-.05v-.14h2.78Z"/>
  </g>
  <g>
    <path class="cls-3" d="m14.57,122.76c.14-.33.32-.59.54-.77.22-.18.49-.27.81-.27.4,0,.7.13.92.39.16.19.24.4.24.62,0,.36-.23.74-.68,1.12.31.12.54.29.69.51s.23.48.23.78c0,.43-.14.8-.41,1.12-.36.41-.87.62-1.55.62-.33,0-.56-.04-.68-.12-.12-.08-.18-.17-.18-.27,0-.07.03-.13.09-.19.06-.05.13-.08.21-.08.06,0,.12,0,.19.03.04.01.14.06.28.13.15.08.25.12.3.14.09.03.19.04.29.04.25,0,.47-.1.65-.29.18-.19.28-.42.28-.69,0-.19-.04-.38-.13-.56-.06-.14-.13-.24-.21-.31-.1-.1-.25-.19-.43-.27-.18-.08-.37-.12-.56-.12h-.12v-.11c.19-.02.39-.09.58-.21s.34-.25.42-.41.13-.34.13-.53c0-.25-.08-.46-.24-.61-.16-.16-.35-.23-.59-.23-.38,0-.7.2-.95.61l-.12-.06Z"/>
    <path class="cls-3" d="m18.82,122.3l1.21-.59h.12v4.2c0,.28.01.45.03.52.02.07.07.12.15.16s.22.06.45.06v.14h-1.87v-.14c.23,0,.39-.02.45-.06.07-.04.12-.08.14-.14s.04-.24.04-.54v-2.68c0-.36-.01-.59-.04-.7-.02-.08-.05-.14-.09-.17-.04-.04-.1-.05-.16-.05-.09,0-.22.04-.38.11l-.06-.11Z"/>
    <path class="cls-3" d="m22.74,126.07c.11,0,.21.04.29.12.08.08.12.18.12.29s-.04.21-.12.29c-.08.08-.18.12-.29.12s-.21-.04-.29-.12c-.08-.08-.12-.18-.12-.29s.04-.21.12-.29c.08-.08.17-.12.29-.12Zm0-2.74c.11,0,.21.04.29.12.08.08.12.18.12.29s-.04.21-.12.29-.18.12-.29.12-.21-.04-.29-.12c-.08-.08-.12-.18-.12-.29s.04-.21.12-.29.17-.12.29-.12Z"/>
    <path class="cls-3" d="m27.22,125.82l-.35.96h-2.93v-.14c.86-.79,1.47-1.43,1.82-1.93.35-.5.53-.95.53-1.37,0-.31-.1-.57-.29-.78-.19-.2-.42-.3-.69-.3-.24,0-.46.07-.66.21-.19.14-.34.35-.43.63h-.14c.06-.45.22-.8.47-1.04.25-.24.57-.36.95-.36.4,0,.74.13,1.01.39s.4.56.4.92c0,.25-.06.5-.18.75-.18.4-.47.81-.88,1.26-.61.66-.99,1.06-1.14,1.2h1.3c.26,0,.45,0,.56-.03.11-.02.2-.06.29-.12s.16-.14.22-.25h.14Z"/>
    <path class="cls-3" d="m30.89,121.71v.14c-.32.03-.59.1-.79.19-.2.1-.41.24-.6.44-.2.2-.36.42-.49.66-.13.24-.24.53-.33.87.35-.24.7-.36,1.06-.36s.63.14.88.41.37.63.37,1.06-.13.79-.38,1.14c-.3.42-.7.62-1.2.62-.34,0-.63-.11-.86-.34-.46-.44-.7-1-.7-1.7,0-.44.09-.87.27-1.27.18-.4.43-.76.76-1.07s.65-.52.95-.63.58-.16.85-.16h.21Zm-2.28,2.56c-.04.33-.07.6-.07.8,0,.23.04.49.13.76.09.27.22.49.39.65.12.11.28.17.45.17.21,0,.4-.1.57-.3.17-.2.25-.49.25-.86,0-.42-.08-.78-.25-1.08-.17-.31-.4-.46-.71-.46-.09,0-.19.02-.3.06-.11.04-.26.12-.47.25Z"/>
  </g>
  <g>
    <path class="cls-3" d="m154.63,125.82l-.35.96h-2.93v-.14c.86-.79,1.47-1.43,1.82-1.93.35-.5.53-.95.53-1.37,0-.31-.1-.57-.29-.78-.19-.2-.42-.3-.69-.3-.25,0-.46.07-.66.21-.19.14-.34.35-.43.63h-.14c.06-.45.22-.8.47-1.04.25-.24.57-.36.95-.36.4,0,.74.13,1.01.39s.41.56.41.92c0,.25-.06.5-.18.75-.18.4-.47.81-.88,1.26-.61.66-.99,1.06-1.14,1.2h1.3c.26,0,.45,0,.56-.03s.2-.06.29-.12c.09-.06.16-.14.22-.25h.14Z"/>
    <path class="cls-3" d="m158.2,121.81l-.29.62h-1.5l-.33.67c.65.1,1.16.34,1.54.72.33.33.49.72.49,1.17,0,.26-.05.5-.16.73-.11.22-.24.41-.4.57-.16.16-.34.28-.54.38-.28.13-.57.2-.86.2s-.51-.05-.65-.15c-.14-.1-.2-.21-.2-.34,0-.07.03-.13.08-.18.06-.05.13-.08.21-.08.06,0,.12,0,.17.03.05.02.13.07.24.15.18.13.37.19.56.19.29,0,.54-.11.75-.32.22-.22.32-.48.32-.79s-.1-.58-.29-.84c-.19-.26-.46-.46-.8-.6-.27-.11-.63-.17-1.09-.19l.95-1.93h1.78Z"/>
    <path class="cls-3" d="m160.36,126.07c.11,0,.21.04.29.12s.12.18.12.29-.04.21-.12.29c-.08.08-.18.12-.29.12s-.21-.04-.29-.12c-.08-.08-.12-.18-.12-.29s.04-.21.12-.29c.08-.08.18-.12.29-.12Zm0-2.74c.11,0,.21.04.29.12.08.08.12.18.12.29s-.04.21-.12.29c-.08.08-.18.12-.29.12s-.21-.04-.29-.12c-.08-.08-.12-.18-.12-.29s.04-.21.12-.29c.08-.08.17-.12.29-.12Z"/>
    <path class="cls-3" d="m162.28,124.32c0-.57.08-1.05.26-1.46.17-.41.4-.71.68-.91.22-.16.45-.24.68-.24.38,0,.72.19,1.03.58.38.48.57,1.13.57,1.96,0,.58-.08,1.07-.25,1.47-.17.4-.38.7-.64.88s-.51.27-.75.27c-.47,0-.87-.28-1.18-.84-.27-.47-.4-1.04-.4-1.7Zm.72.09c0,.68.08,1.24.25,1.67.14.36.35.55.62.55.13,0,.27-.06.41-.18.14-.12.25-.32.32-.6.11-.42.17-1.01.17-1.78,0-.57-.06-1.04-.18-1.42-.09-.28-.2-.48-.34-.6-.1-.08-.22-.12-.36-.12-.17,0-.31.07-.44.22-.18.2-.29.52-.36.96-.06.44-.1.86-.1,1.29Z"/>
  </g>
  <path class="cls-2" d="m.12,118.78h288.99M.12,107.28h288.99M.12,73.28h288.99M.12,61.78h288.99M.12,27.78h288.99M.12,16.28h288.99m-.12,91.12v11.25m0-56.75v11.25m0-56.75v11.25m-48.12-11.5v11.75m-48.12-11.75v11.75m-48.12,33.75v11.75m0-57.25v11.75m-48.12,33.75v11.75m0-57.25v11.75m-48.12,79.25v11.75m0-57.25v11.75m0-57.25v11.75M.25,107.4v11.25M.25,61.9v11.25M.25,16.4v11.25"/>
  <g>
    <path class="cls-3" d="m19.42,9.97h-2.12l-2.69-3.71c-.2,0-.36.01-.49.01-.05,0-.11,0-.16,0s-.12,0-.18,0v2.31c0,.5.05.81.16.93.15.17.37.26.67.26h.31v.22h-3.4v-.22h.3c.34,0,.58-.11.72-.33.08-.12.12-.41.12-.86V3.43c0-.5-.05-.81-.16-.93-.15-.17-.38-.26-.68-.26h-.3v-.22h2.89c.84,0,1.47.06,1.87.18s.74.35,1.02.68.42.72.42,1.18c0,.49-.16.91-.48,1.27s-.81.61-1.48.76l1.64,2.28c.38.52.7.87.97,1.04s.62.28,1.05.33v.22Zm-5.64-4.08c.07,0,.14,0,.19,0s.1,0,.13,0c.76,0,1.33-.16,1.71-.49s.58-.75.58-1.25-.16-.9-.47-1.21-.72-.47-1.23-.47c-.23,0-.53.04-.92.11v3.3Z"/>
    <path class="cls-3" d="m20.6,6.63c0,.8.19,1.42.58,1.88s.85.68,1.38.68c.35,0,.66-.1.92-.29s.48-.52.65-.99l.18.12c-.08.54-.32,1.02-.71,1.46s-.89.66-1.48.66c-.64,0-1.2-.25-1.66-.75s-.69-1.18-.69-2.02c0-.92.24-1.63.71-2.15s1.06-.77,1.77-.77c.6,0,1.1.2,1.48.59s.58.93.58,1.59h-3.71Zm0-.34h2.48c-.02-.34-.06-.59-.12-.73-.1-.22-.24-.39-.44-.52s-.4-.19-.61-.19c-.32,0-.61.13-.87.38s-.41.6-.45,1.05Z"/>
    <path class="cls-3" d="m26.45,8.02c-.33-.16-.58-.38-.76-.67s-.26-.6-.26-.95c0-.53.2-.99.6-1.37s.91-.57,1.54-.57c.51,0,.96.12,1.33.38h1.14c.17,0,.27,0,.29.01s.05.03.06.05c.02.04.04.1.04.19,0,.1,0,.17-.03.21-.01.02-.03.04-.06.05s-.13.02-.3.02h-.7c.22.28.33.64.33,1.08,0,.5-.19.93-.57,1.28s-.9.53-1.54.53c-.27,0-.54-.04-.81-.12-.17.15-.29.28-.35.39s-.09.21-.09.28c0,.07.03.13.1.19s.19.11.38.13c.11.02.38.03.82.04.8.02,1.33.05,1.56.08.36.05.65.19.87.4s.33.49.33.81c0,.44-.21.86-.62,1.24-.61.57-1.4.86-2.38.86-.75,0-1.39-.17-1.91-.51-.29-.2-.44-.4-.44-.61,0-.09.02-.19.06-.28.07-.14.2-.35.41-.6.03-.04.23-.25.6-.63-.2-.12-.35-.23-.43-.33s-.13-.2-.13-.33c0-.14.06-.3.17-.48s.37-.44.77-.78Zm-.06,1.96c-.18.2-.32.38-.42.56s-.14.33-.14.47c0,.19.11.35.34.49.39.24.96.36,1.69.36s1.22-.12,1.56-.37.5-.51.5-.79c0-.2-.1-.35-.3-.43-.2-.09-.61-.14-1.21-.15-.88-.02-1.55-.07-2.03-.13Zm1.08-5.24c-.29,0-.53.12-.73.35s-.29.58-.29,1.06c0,.62.13,1.1.4,1.44.2.26.46.39.77.39s.54-.11.73-.33.29-.57.29-1.05c0-.62-.13-1.11-.4-1.46-.2-.26-.46-.39-.77-.39Z"/>
    <path class="cls-3" d="m32.87,4.45v4.31c0,.34.02.56.07.67s.12.19.22.25.27.08.52.08v.21h-2.61v-.21c.26,0,.44-.03.53-.08s.16-.13.21-.25.08-.34.08-.67v-2.07c0-.58-.02-.96-.05-1.13-.03-.12-.07-.21-.13-.26s-.14-.07-.24-.07c-.11,0-.24.03-.4.09l-.08-.21,1.62-.66h.26Zm-.49-2.81c.16,0,.3.06.42.17s.17.25.17.42-.06.3-.17.42-.25.18-.42.18-.3-.06-.42-.18-.18-.26-.18-.42.06-.3.17-.42.26-.17.42-.17Z"/>
    <path class="cls-3" d="m37.82,4.45v1.83h-.19c-.15-.57-.34-.96-.57-1.17s-.53-.31-.89-.31c-.27,0-.49.07-.66.22s-.25.3-.25.48c0,.22.06.41.19.56.12.16.37.33.74.51l.86.42c.79.39,1.19.9,1.19,1.53,0,.49-.18.88-.55,1.18s-.78.45-1.24.45c-.33,0-.7-.06-1.12-.18-.13-.04-.23-.06-.32-.06-.09,0-.16.05-.21.15h-.19v-1.92h.19c.11.55.32.96.63,1.24s.65.42,1.04.42c.27,0,.49-.08.66-.24s.25-.35.25-.57c0-.27-.09-.5-.28-.68s-.57-.42-1.13-.7-.94-.54-1.11-.76c-.18-.22-.26-.5-.26-.84,0-.44.15-.81.45-1.11s.69-.45,1.17-.45c.21,0,.47.04.77.13.2.06.33.09.4.09.06,0,.11-.01.15-.04s.08-.09.12-.18h.19Z"/>
    <path class="cls-3" d="m40.58,2.84v1.76h1.25v.41h-1.25v3.48c0,.35.05.58.15.7s.23.18.38.18c.13,0,.25-.04.38-.12s.21-.2.28-.35h.23c-.14.38-.33.67-.58.86s-.51.29-.77.29c-.18,0-.36-.05-.53-.15s-.3-.24-.38-.43-.12-.47-.12-.86v-3.61h-.85v-.19c.21-.09.43-.23.66-.44s.42-.45.6-.73c.09-.15.21-.42.38-.81h.18Z"/>
    <path class="cls-3" d="m43.26,6.63c0,.8.19,1.42.58,1.88s.85.68,1.38.68c.35,0,.66-.1.92-.29s.48-.52.65-.99l.18.12c-.08.54-.32,1.02-.71,1.46s-.89.66-1.48.66c-.64,0-1.2-.25-1.66-.75s-.69-1.18-.69-2.02c0-.92.24-1.63.71-2.15s1.06-.77,1.77-.77c.6,0,1.1.2,1.48.59s.58.93.58,1.59h-3.71Zm0-.34h2.48c-.02-.34-.06-.59-.12-.73-.1-.22-.24-.39-.44-.52s-.4-.19-.61-.19c-.32,0-.61.13-.87.38s-.41.6-.45,1.05Z"/>
    <path class="cls-3" d="m49.25,4.45v1.21c.45-.8.91-1.21,1.38-1.21.21,0,.39.07.53.2s.21.28.21.45c0,.15-.05.28-.15.39s-.22.16-.36.16-.29-.07-.46-.2-.3-.2-.38-.2c-.07,0-.15.04-.23.12-.18.16-.36.42-.54.79v2.57c0,.3.04.52.11.67.05.11.14.19.27.26s.31.11.56.11v.21h-2.75v-.21c.27,0,.48-.04.61-.13.1-.06.17-.16.21-.3.02-.07.03-.26.03-.57v-2.08c0-.62-.01-1-.04-1.12s-.07-.21-.14-.26-.15-.08-.25-.08c-.12,0-.26.03-.41.09l-.06-.21,1.62-.66h.25Z"/>
    <path class="cls-3" d="m56.81,2.46v3.14h1.75c.45,0,.76-.07.91-.21.2-.18.32-.5.34-.95h.22v2.77h-.22c-.05-.39-.11-.63-.16-.74-.07-.14-.19-.24-.35-.32s-.41-.12-.74-.12h-1.75v2.62c0,.35.02.57.05.64s.09.14.16.18.23.07.45.07h1.35c.45,0,.78-.03.98-.09s.4-.19.59-.37c.24-.24.49-.61.74-1.1h.23l-.69,1.99h-6.12v-.22h.28c.19,0,.37-.04.53-.13.12-.06.21-.16.25-.28s.07-.38.07-.77V3.41c0-.5-.05-.81-.15-.93-.14-.16-.38-.23-.7-.23h-.28v-.22h6.12l.09,1.74h-.23c-.08-.42-.17-.71-.27-.86s-.25-.28-.44-.36c-.16-.06-.43-.09-.83-.09h-2.18Z"/>
    <path class="cls-3" d="m63.57,5.58c.63-.76,1.23-1.14,1.8-1.14.29,0,.54.07.76.22s.38.39.5.72c.09.23.13.59.13,1.08v2.29c0,.34.03.57.08.69.04.1.11.17.21.23s.27.08.53.08v.21h-2.65v-.21h.11c.25,0,.42-.04.52-.11s.17-.19.21-.34c.02-.06.02-.24.02-.55v-2.2c0-.49-.06-.84-.19-1.06s-.34-.33-.64-.33c-.46,0-.93.25-1.39.76v2.83c0,.36.02.59.06.67.05.11.13.2.23.25s.29.08.58.08v.21h-2.65v-.21h.12c.27,0,.46-.07.55-.21s.14-.4.14-.79v-1.99c0-.64-.01-1.04-.04-1.18s-.07-.24-.13-.29-.14-.08-.24-.08c-.11,0-.24.03-.39.09l-.09-.21,1.62-.66h.25v1.14Z"/>
    <path class="cls-3" d="m72.57,7.93c-.14.71-.43,1.25-.85,1.63s-.89.57-1.4.57c-.61,0-1.14-.26-1.59-.77s-.68-1.2-.68-2.07.25-1.53.75-2.06,1.1-.79,1.81-.79c.53,0,.96.14,1.3.42s.51.57.51.87c0,.15-.05.27-.14.36s-.23.14-.4.14c-.23,0-.4-.07-.52-.22-.07-.08-.11-.24-.13-.47s-.1-.41-.24-.53c-.14-.12-.33-.18-.57-.18-.39,0-.71.14-.94.43-.32.38-.47.89-.47,1.52s.16,1.21.47,1.7.74.74,1.27.74c.38,0,.73-.13,1.03-.39.21-.18.42-.51.63-.98l.17.08Z"/>
    <path class="cls-3" d="m75.96,4.45c.81,0,1.46.31,1.96.93.42.53.63,1.13.63,1.82,0,.48-.12.97-.35,1.46s-.55.86-.95,1.11-.85.38-1.35.38c-.81,0-1.45-.32-1.93-.97-.4-.54-.6-1.15-.6-1.83,0-.49.12-.98.37-1.47s.57-.85.96-1.08.82-.35,1.27-.35Zm-.18.38c-.21,0-.42.06-.62.18s-.38.34-.51.65-.19.71-.19,1.19c0,.78.16,1.46.47,2.02s.72.85,1.23.85c.38,0,.69-.16.94-.47s.37-.85.37-1.61c0-.95-.21-1.7-.62-2.25-.28-.38-.63-.56-1.06-.56Z"/>
    <path class="cls-3" d="m83.13,9.37c-.26.27-.52.47-.77.59s-.52.18-.81.18c-.59,0-1.1-.25-1.54-.74s-.66-1.12-.66-1.89.24-1.47.73-2.11,1.11-.96,1.87-.96c.47,0,.86.15,1.17.45v-.99c0-.61-.01-.99-.04-1.13s-.08-.24-.14-.29-.14-.08-.23-.08c-.1,0-.24.03-.4.09l-.08-.21,1.6-.66h.26v6.21c0,.63.01,1.01.04,1.15s.08.24.14.29.14.08.23.08c.11,0,.25-.03.42-.1l.06.21-1.59.66h-.27v-.77Zm0-.41v-2.77c-.02-.27-.09-.51-.21-.73s-.27-.38-.47-.5-.38-.17-.57-.17c-.34,0-.65.15-.92.46-.36.41-.53,1-.53,1.78s.17,1.39.52,1.81.73.63,1.15.63c.36,0,.7-.18,1.03-.53Z"/>
    <path class="cls-3" d="m87.19,4.45v4.31c0,.34.02.56.07.67s.12.19.22.25.27.08.52.08v.21h-2.61v-.21c.26,0,.44-.03.53-.08s.16-.13.21-.25.08-.34.08-.67v-2.07c0-.58-.02-.96-.05-1.13-.03-.12-.07-.21-.13-.26s-.14-.07-.24-.07c-.11,0-.24.03-.4.09l-.08-.21,1.62-.66h.26Zm-.49-2.81c.16,0,.3.06.42.17s.17.25.17.42-.06.3-.17.42-.25.18-.42.18-.3-.06-.42-.18-.18-.26-.18-.42.06-.3.17-.42.26-.17.42-.17Z"/>
    <path class="cls-3" d="m90.23,5.58c.63-.76,1.23-1.14,1.8-1.14.29,0,.54.07.76.22s.38.39.5.72c.09.23.13.59.13,1.08v2.29c0,.34.03.57.08.69.04.1.11.17.21.23s.27.08.53.08v.21h-2.65v-.21h.11c.25,0,.42-.04.52-.11s.17-.19.21-.34c.02-.06.02-.24.02-.55v-2.2c0-.49-.06-.84-.19-1.06s-.34-.33-.64-.33c-.46,0-.93.25-1.39.76v2.83c0,.36.02.59.06.67.05.11.13.2.23.25s.29.08.58.08v.21h-2.65v-.21h.12c.27,0,.46-.07.55-.21s.14-.4.14-.79v-1.99c0-.64-.01-1.04-.04-1.18s-.07-.24-.13-.29-.14-.08-.24-.08c-.11,0-.24.03-.39.09l-.09-.21,1.62-.66h.25v1.14Z"/>
    <path class="cls-3" d="m96.11,8.02c-.33-.16-.58-.38-.76-.67s-.26-.6-.26-.95c0-.53.2-.99.6-1.37s.91-.57,1.54-.57c.51,0,.96.12,1.33.38h1.14c.17,0,.27,0,.29.01s.05.03.06.05c.02.04.04.1.04.19,0,.1,0,.17-.03.21-.01.02-.03.04-.06.05s-.13.02-.3.02h-.7c.22.28.33.64.33,1.08,0,.5-.19.93-.57,1.28s-.9.53-1.54.53c-.27,0-.54-.04-.81-.12-.17.15-.29.28-.35.39s-.09.21-.09.28c0,.07.03.13.1.19s.19.11.38.13c.11.02.38.03.82.04.8.02,1.33.05,1.56.08.36.05.65.19.87.4s.33.49.33.81c0,.44-.21.86-.62,1.24-.61.57-1.4.86-2.38.86-.75,0-1.39-.17-1.91-.51-.29-.2-.44-.4-.44-.61,0-.09.02-.19.06-.28.07-.14.2-.35.41-.6.03-.04.23-.25.6-.63-.2-.12-.35-.23-.43-.33s-.13-.2-.13-.33c0-.14.06-.3.17-.48s.37-.44.77-.78Zm-.06,1.96c-.18.2-.32.38-.42.56s-.14.33-.14.47c0,.19.11.35.34.49.39.24.96.36,1.69.36s1.22-.12,1.56-.37.5-.51.5-.79c0-.2-.1-.35-.3-.43-.2-.09-.61-.14-1.21-.15-.88-.02-1.55-.07-2.03-.13Zm1.08-5.24c-.29,0-.53.12-.73.35s-.29.58-.29,1.06c0,.62.13,1.1.4,1.44.2.26.46.39.77.39s.54-.11.73-.33.29-.57.29-1.05c0-.62-.13-1.11-.4-1.46-.2-.26-.46-.39-.77-.39Z"/>
  </g>
  <g>
    <path class="cls-3" d="m15.28,54.93v.22h-3.4v-.22h.28c.33,0,.57-.1.71-.29.09-.12.14-.43.14-.9v-5.13c0-.4-.03-.67-.08-.8-.04-.1-.12-.18-.24-.25-.17-.09-.35-.14-.54-.14h-.28v-.22h3.4v.22h-.29c-.32,0-.56.1-.71.29-.1.12-.15.43-.15.9v5.13c0,.4.03.67.08.8.04.1.12.18.25.25.17.09.35.14.53.14h.29Z"/>
    <path class="cls-3" d="m17.54,50.77c.39-.39.62-.62.69-.67.18-.15.37-.26.57-.35s.4-.12.6-.12c.34,0,.62.1.87.29s.4.48.49.85c.4-.47.74-.78,1.02-.92s.56-.22.86-.22.54.07.76.22.4.39.52.72c.09.23.13.58.13,1.07v2.31c0,.34.03.57.08.69.04.09.11.16.22.22s.28.09.52.09v.21h-2.65v-.21h.11c.23,0,.41-.04.54-.13.09-.06.15-.16.19-.3.02-.07.02-.26.02-.57v-2.31c0-.44-.05-.75-.16-.93-.15-.25-.4-.38-.73-.38-.21,0-.42.05-.62.16s-.46.3-.76.58v.06s0,.25,0,.25v2.56c0,.37.02.6.06.69s.12.17.23.23.31.09.58.09v.21h-2.71v-.21c.3,0,.5-.04.61-.11s.19-.18.23-.32c.02-.07.03-.26.03-.58v-2.31c0-.44-.06-.75-.19-.94-.17-.25-.41-.38-.72-.38-.21,0-.42.06-.63.17-.32.17-.57.37-.75.58v2.88c0,.35.02.58.07.69s.12.18.22.24.29.08.58.08v.21h-2.65v-.21c.25,0,.42-.03.52-.08s.17-.14.22-.25.08-.34.08-.67v-2.05c0-.59-.02-.97-.05-1.14-.03-.13-.07-.22-.13-.27s-.14-.07-.24-.07c-.11,0-.24.03-.39.09l-.09-.21,1.62-.66h.25v1.14Z"/>
    <path class="cls-3" d="m26.87,50.77c.39-.39.62-.62.69-.67.18-.15.37-.26.57-.35s.4-.12.6-.12c.34,0,.62.1.87.29s.4.48.49.85c.4-.47.74-.78,1.02-.92s.56-.22.86-.22.54.07.76.22.4.39.52.72c.09.23.13.58.13,1.07v2.31c0,.34.03.57.08.69.04.09.11.16.22.22s.28.09.52.09v.21h-2.65v-.21h.11c.23,0,.41-.04.54-.13.09-.06.15-.16.19-.3.02-.07.02-.26.02-.57v-2.31c0-.44-.05-.75-.16-.93-.15-.25-.4-.38-.73-.38-.21,0-.42.05-.62.16s-.46.3-.76.58v.06s0,.25,0,.25v2.56c0,.37.02.6.06.69s.12.17.23.23.31.09.58.09v.21h-2.71v-.21c.3,0,.5-.04.61-.11s.19-.18.23-.32c.02-.07.03-.26.03-.58v-2.31c0-.44-.06-.75-.19-.94-.17-.25-.41-.38-.72-.38-.21,0-.42.06-.63.17-.32.17-.57.37-.75.58v2.88c0,.35.02.58.07.69s.12.18.22.24.29.08.58.08v.21h-2.65v-.21c.25,0,.42-.03.52-.08s.17-.14.22-.25.08-.34.08-.67v-2.05c0-.59-.02-.97-.05-1.14-.03-.13-.07-.22-.13-.27s-.14-.07-.24-.07c-.11,0-.24.03-.39.09l-.09-.21,1.62-.66h.25v1.14Z"/>
    <path class="cls-3" d="m35.52,51.8c0,.8.19,1.42.58,1.88s.85.68,1.38.68c.35,0,.66-.1.92-.29s.48-.52.65-.99l.18.12c-.08.54-.32,1.02-.71,1.46s-.89.66-1.48.66c-.64,0-1.2-.25-1.66-.75s-.69-1.18-.69-2.02c0-.92.24-1.63.71-2.15s1.06-.77,1.77-.77c.6,0,1.1.2,1.48.59s.58.93.58,1.59h-3.71Zm0-.34h2.48c-.02-.34-.06-.59-.12-.73-.1-.22-.24-.39-.44-.52s-.4-.19-.61-.19c-.32,0-.61.13-.87.38s-.41.6-.45,1.05Z"/>
    <path class="cls-3" d="m43.73,54.55c-.26.27-.52.47-.77.59s-.52.18-.81.18c-.59,0-1.1-.25-1.54-.74s-.66-1.12-.66-1.89.24-1.47.73-2.11,1.11-.96,1.87-.96c.47,0,.86.15,1.17.45v-.99c0-.61-.01-.99-.04-1.13s-.08-.24-.14-.29-.14-.08-.23-.08c-.1,0-.24.03-.4.09l-.08-.21,1.6-.66h.26v6.21c0,.63.01,1.01.04,1.15s.08.24.14.29.14.08.23.08c.11,0,.25-.03.42-.1l.06.21-1.59.66h-.27v-.77Zm0-.41v-2.77c-.02-.27-.09-.51-.21-.73s-.27-.38-.47-.5-.38-.17-.57-.17c-.34,0-.65.15-.92.46-.36.41-.53,1-.53,1.78s.17,1.39.52,1.81.73.63,1.15.63c.36,0,.7-.18,1.03-.53Z"/>
    <path class="cls-3" d="m47.79,49.62v4.31c0,.34.02.56.07.67s.12.19.22.25.27.08.52.08v.21h-2.61v-.21c.26,0,.44-.03.53-.08s.16-.13.21-.25.08-.34.08-.67v-2.07c0-.58-.02-.96-.05-1.13-.03-.12-.07-.21-.13-.26s-.14-.07-.24-.07c-.11,0-.24.03-.4.09l-.08-.21,1.62-.66h.26Zm-.49-2.81c.16,0,.3.06.42.17s.17.25.17.42-.06.3-.17.42-.25.18-.42.18-.3-.06-.42-.18-.18-.26-.18-.42.06-.3.17-.42.26-.17.42-.17Z"/>
    <path class="cls-3" d="m52.32,54.38c-.55.43-.9.67-1.04.74-.21.1-.44.15-.67.15-.37,0-.68-.13-.92-.38s-.36-.59-.36-1c0-.26.06-.49.18-.68.16-.27.44-.52.83-.75s1.06-.52,1.98-.86v-.21c0-.54-.08-.9-.25-1.1s-.42-.3-.74-.3c-.25,0-.44.07-.59.2-.15.13-.22.29-.22.46v.34c.01.18-.03.32-.13.42s-.21.15-.36.15-.26-.05-.35-.15-.14-.24-.14-.42c0-.34.17-.64.52-.93s.83-.42,1.45-.42c.48,0,.87.08,1.17.24.23.12.4.31.51.57.07.17.11.51.11,1.03v1.82c0,.51,0,.83.03.94s.05.19.1.23.1.06.16.06c.06,0,.12-.01.16-.04.08-.05.24-.19.47-.43v.33c-.44.59-.86.88-1.25.88-.19,0-.34-.07-.46-.2s-.17-.36-.18-.68Zm0-.38v-2.04c-.59.23-.97.4-1.14.5-.31.17-.53.35-.66.54s-.2.39-.2.62c0,.28.08.51.25.7s.36.28.58.28c.3,0,.69-.2,1.17-.59Z"/>
    <path class="cls-3" d="m56.16,48.02v1.76h1.25v.41h-1.25v3.48c0,.35.05.58.15.7s.23.18.38.18c.13,0,.25-.04.38-.12s.21-.2.28-.35h.23c-.14.38-.33.67-.58.86s-.51.29-.77.29c-.18,0-.36-.05-.53-.15s-.3-.24-.38-.43-.12-.47-.12-.86v-3.61h-.85v-.19c.21-.09.43-.23.66-.44s.42-.45.6-.73c.09-.15.21-.42.38-.81h.18Z"/>
    <path class="cls-3" d="m58.84,51.8c0,.8.19,1.42.58,1.88s.85.68,1.38.68c.35,0,.66-.1.92-.29s.48-.52.65-.99l.18.12c-.08.54-.32,1.02-.71,1.46s-.89.66-1.48.66c-.64,0-1.2-.25-1.66-.75s-.69-1.18-.69-2.02c0-.92.24-1.63.71-2.15s1.06-.77,1.77-.77c.6,0,1.1.2,1.48.59s.58.93.58,1.59h-3.71Zm0-.34h2.48c-.02-.34-.06-.59-.12-.73-.1-.22-.24-.39-.44-.52s-.4-.19-.61-.19c-.32,0-.61.13-.87.38s-.41.6-.45,1.05Z"/>
    <path class="cls-3" d="m68.39,47.64v3.14h1.75c.45,0,.76-.07.91-.21.2-.18.32-.5.34-.95h.22v2.77h-.22c-.05-.39-.11-.63-.16-.74-.07-.14-.19-.24-.35-.32s-.41-.12-.74-.12h-1.75v2.62c0,.35.02.57.05.64s.09.14.16.18.23.07.45.07h1.35c.45,0,.78-.03.98-.09s.4-.19.59-.37c.24-.24.49-.61.74-1.1h.23l-.69,1.99h-6.12v-.22h.28c.19,0,.37-.04.53-.13.12-.06.21-.16.25-.28s.07-.38.07-.77v-5.16c0-.5-.05-.81-.15-.93-.14-.16-.38-.23-.7-.23h-.28v-.22h6.12l.09,1.74h-.23c-.08-.42-.17-.71-.27-.86s-.25-.28-.44-.36c-.16-.06-.43-.09-.83-.09h-2.18Z"/>
    <path class="cls-3" d="m75.15,50.76c.63-.76,1.23-1.14,1.8-1.14.29,0,.54.07.76.22s.38.39.5.72c.09.23.13.59.13,1.08v2.29c0,.34.03.57.08.69.04.1.11.17.21.23s.27.08.53.08v.21h-2.65v-.21h.11c.25,0,.42-.04.52-.11s.17-.19.21-.34c.02-.06.02-.24.02-.55v-2.2c0-.49-.06-.84-.19-1.06s-.34-.33-.64-.33c-.46,0-.93.25-1.39.76v2.83c0,.36.02.59.06.67.05.11.13.2.23.25s.29.08.58.08v.21h-2.65v-.21h.12c.27,0,.46-.07.55-.21s.14-.4.14-.79v-1.99c0-.64-.01-1.04-.04-1.18s-.07-.24-.13-.29-.14-.08-.24-.08c-.11,0-.24.03-.39.09l-.09-.21,1.62-.66h.25v1.14Z"/>
    <path class="cls-3" d="m84.15,53.11c-.14.71-.43,1.25-.85,1.63s-.89.57-1.4.57c-.61,0-1.14-.26-1.59-.77s-.68-1.2-.68-2.07.25-1.53.75-2.06,1.1-.79,1.81-.79c.53,0,.96.14,1.3.42s.51.57.51.87c0,.15-.05.27-.14.36s-.23.14-.4.14c-.23,0-.4-.07-.52-.22-.07-.08-.11-.24-.13-.47s-.1-.41-.24-.53c-.14-.12-.33-.18-.57-.18-.39,0-.71.14-.94.43-.32.38-.47.89-.47,1.52s.16,1.21.47,1.7.74.74,1.27.74c.38,0,.73-.13,1.03-.39.21-.18.42-.51.63-.98l.17.08Z"/>
    <path class="cls-3" d="m87.54,49.62c.81,0,1.46.31,1.96.93.42.53.63,1.13.63,1.82,0,.48-.12.97-.35,1.46s-.55.86-.95,1.11-.85.38-1.35.38c-.81,0-1.45-.32-1.93-.97-.4-.54-.6-1.15-.6-1.83,0-.49.12-.98.37-1.47s.57-.85.96-1.08.82-.35,1.27-.35Zm-.18.38c-.21,0-.42.06-.62.18s-.38.34-.51.65-.19.71-.19,1.19c0,.78.16,1.46.47,2.02s.72.85,1.23.85c.38,0,.69-.16.94-.47s.37-.85.37-1.61c0-.95-.21-1.7-.62-2.25-.28-.38-.63-.56-1.06-.56Z"/>
    <path class="cls-3" d="m94.71,54.55c-.26.27-.52.47-.77.59s-.52.18-.81.18c-.59,0-1.1-.25-1.54-.74s-.66-1.12-.66-1.89.24-1.47.73-2.11,1.11-.96,1.87-.96c.47,0,.86.15,1.17.45v-.99c0-.61-.01-.99-.04-1.13s-.08-.24-.14-.29-.14-.08-.23-.08c-.1,0-.24.03-.4.09l-.08-.21,1.6-.66h.26v6.21c0,.63.01,1.01.04,1.15s.08.24.14.29.14.08.23.08c.11,0,.25-.03.42-.1l.06.21-1.59.66h-.27v-.77Zm0-.41v-2.77c-.02-.27-.09-.51-.21-.73s-.27-.38-.47-.5-.38-.17-.57-.17c-.34,0-.65.15-.92.46-.36.41-.53,1-.53,1.78s.17,1.39.52,1.81.73.63,1.15.63c.36,0,.7-.18,1.03-.53Z"/>
    <path class="cls-3" d="m98.77,49.62v4.31c0,.34.02.56.07.67s.12.19.22.25.27.08.52.08v.21h-2.61v-.21c.26,0,.44-.03.53-.08s.16-.13.21-.25.08-.34.08-.67v-2.07c0-.58-.02-.96-.05-1.13-.03-.12-.07-.21-.13-.26s-.14-.07-.24-.07c-.11,0-.24.03-.4.09l-.08-.21,1.62-.66h.26Zm-.49-2.81c.16,0,.3.06.42.17s.17.25.17.42-.06.3-.17.42-.25.18-.42.18-.3-.06-.42-.18-.18-.26-.18-.42.06-.3.17-.42.26-.17.42-.17Z"/>
    <path class="cls-3" d="m101.82,50.76c.63-.76,1.23-1.14,1.8-1.14.29,0,.54.07.76.22s.38.39.5.72c.09.23.13.59.13,1.08v2.29c0,.34.03.57.08.69.04.1.11.17.21.23s.27.08.53.08v.21h-2.65v-.21h.11c.25,0,.42-.04.52-.11s.17-.19.21-.34c.02-.06.02-.24.02-.55v-2.2c0-.49-.06-.84-.19-1.06s-.34-.33-.64-.33c-.46,0-.93.25-1.39.76v2.83c0,.36.02.59.06.67.05.11.13.2.23.25s.29.08.58.08v.21h-2.65v-.21h.12c.27,0,.46-.07.55-.21s.14-.4.14-.79v-1.99c0-.64-.01-1.04-.04-1.18s-.07-.24-.13-.29-.14-.08-.24-.08c-.11,0-.24.03-.39.09l-.09-.21,1.62-.66h.25v1.14Z"/>
    <path class="cls-3" d="m107.69,53.19c-.33-.16-.58-.38-.76-.67s-.26-.6-.26-.95c0-.53.2-.99.6-1.37s.91-.57,1.54-.57c.51,0,.96.12,1.33.38h1.14c.17,0,.27,0,.29.01s.05.03.06.05c.02.04.04.1.04.19,0,.1,0,.17-.03.21-.01.02-.03.04-.06.05s-.13.02-.3.02h-.7c.22.28.33.64.33,1.08,0,.5-.19.93-.57,1.28s-.9.53-1.54.53c-.27,0-.54-.04-.81-.12-.17.15-.29.28-.35.39s-.09.21-.09.28c0,.07.03.13.1.19s.19.11.38.13c.11.02.38.03.82.04.8.02,1.33.05,1.56.08.36.05.65.19.87.4s.33.49.33.81c0,.44-.21.86-.62,1.24-.61.57-1.4.86-2.38.86-.75,0-1.39-.17-1.91-.51-.29-.2-.44-.4-.44-.61,0-.09.02-.19.06-.28.07-.14.2-.35.41-.6.03-.04.23-.25.6-.63-.2-.12-.35-.23-.43-.33s-.13-.2-.13-.33c0-.14.06-.3.17-.48s.37-.44.77-.78Zm-.06,1.96c-.18.2-.32.38-.42.56s-.14.33-.14.47c0,.19.11.35.34.49.39.24.96.36,1.69.36s1.22-.12,1.56-.37.5-.51.5-.79c0-.2-.1-.35-.3-.43-.2-.09-.61-.14-1.21-.15-.88-.02-1.55-.07-2.03-.13Zm1.08-5.24c-.29,0-.53.12-.73.35s-.29.58-.29,1.06c0,.62.13,1.1.4,1.44.2.26.46.39.77.39s.54-.11.73-.33.29-.57.29-1.05c0-.62-.13-1.11-.4-1.46-.2-.26-.46-.39-.77-.39Z"/>
    <path class="cls-3" d="m118.24,46.82l-2.88,8.5h-.47l2.88-8.5h.47Z"/>
    <path class="cls-3" d="m120.43,46.82v7.12c0,.34.02.56.07.67s.12.19.23.25.29.08.57.08v.21h-2.63v-.21c.25,0,.41-.03.5-.08s.16-.13.21-.25.08-.34.08-.67v-4.88c0-.61-.01-.98-.04-1.12s-.07-.23-.13-.28-.14-.08-.23-.08c-.1,0-.23.03-.39.09l-.1-.21,1.6-.66h.26Z"/>
    <path class="cls-3" d="m121.62,49.78h2.25v.22c-.21.02-.34.05-.41.11s-.1.14-.1.25c0,.12.03.27.1.44l1.15,3.09,1.15-2.51-.3-.79c-.09-.23-.22-.4-.37-.49-.09-.05-.25-.09-.48-.1v-.22h2.55v.22c-.28.01-.48.06-.6.15-.08.06-.12.16-.12.3,0,.08.02.16.05.24l1.22,3.08,1.13-2.97c.08-.21.12-.38.12-.5,0-.07-.04-.14-.11-.2s-.23-.09-.45-.1v-.22h1.69v.22c-.34.05-.59.28-.75.69l-1.79,4.62h-.24l-1.34-3.43-1.56,3.43h-.22l-1.72-4.51c-.11-.29-.22-.48-.33-.58s-.28-.17-.52-.23v-.22Z"/>
    <path class="cls-3" d="m130.07,57.15v-.26c.4-.13.71-.34.93-.62s.33-.58.33-.89c0-.07-.02-.14-.05-.19-.03-.04-.05-.05-.08-.05-.04,0-.14.04-.28.12-.07.04-.14.05-.22.05-.19,0-.34-.06-.46-.17s-.17-.27-.17-.47.07-.36.22-.49.33-.21.54-.21c.26,0,.49.11.69.34s.3.52.3.89c0,.4-.14.78-.42,1.12s-.72.62-1.33.82Z"/>
    <path class="cls-3" d="m139.27,49.62v1.83h-.19c-.15-.57-.34-.96-.57-1.17s-.53-.31-.89-.31c-.27,0-.49.07-.66.22s-.25.3-.25.48c0,.22.06.41.19.56.12.16.37.33.74.51l.86.42c.79.39,1.19.9,1.19,1.53,0,.49-.18.88-.55,1.18s-.78.45-1.24.45c-.33,0-.7-.06-1.13-.18-.13-.04-.23-.06-.32-.06-.09,0-.16.05-.21.15h-.19v-1.92h.19c.11.55.32.96.63,1.24s.65.42,1.04.42c.27,0,.49-.08.66-.24s.25-.35.25-.57c0-.27-.09-.5-.28-.68s-.57-.42-1.13-.7c-.57-.28-.94-.54-1.11-.76-.18-.22-.26-.5-.26-.84,0-.44.15-.81.45-1.11s.69-.45,1.18-.45c.21,0,.47.04.77.13.2.06.33.09.4.09.06,0,.11-.01.15-.04s.08-.09.12-.18h.19Z"/>
    <path class="cls-3" d="m140.18,49.78h2.25v.22c-.21.02-.34.05-.41.11s-.1.14-.1.25c0,.12.03.27.1.44l1.15,3.09,1.15-2.51-.3-.79c-.09-.23-.22-.4-.37-.49-.09-.05-.25-.09-.48-.1v-.22h2.55v.22c-.28.01-.48.06-.6.15-.08.06-.12.16-.12.3,0,.08.02.16.05.24l1.22,3.08,1.13-2.97c.08-.21.12-.38.12-.5,0-.07-.04-.14-.11-.2s-.23-.09-.45-.1v-.22h1.69v.22c-.34.05-.59.28-.75.69l-1.79,4.62h-.24l-1.34-3.43-1.56,3.43h-.22l-1.72-4.51c-.11-.29-.22-.48-.33-.58s-.28-.17-.52-.23v-.22Z"/>
    <path class="cls-3" d="m152.13,46.82l-2.88,8.5h-.47l2.88-8.5h.47Z"/>
  </g>
  <g>
    <path class="cls-3" d="m12.77,93.04v-.22h3.4v.22h-.29c-.32,0-.56.1-.71.29-.09.12-.14.43-.14.9v3.88c0,.6-.07,1.08-.2,1.45s-.36.69-.68.97-.71.41-1.16.41c-.37,0-.66-.09-.87-.27s-.32-.39-.32-.62c0-.19.05-.34.15-.43.13-.12.28-.18.45-.18.12,0,.24.04.34.12s.23.3.38.66c.09.21.21.32.35.32.11,0,.2-.06.3-.19s.14-.36.14-.69v-5.43c0-.4-.03-.67-.08-.8-.04-.1-.12-.18-.25-.25-.17-.09-.35-.14-.53-.14h-.29Z"/>
    <path class="cls-3" d="m21.32,95.4v3.25c0,.62.01,1,.04,1.14s.08.24.14.29.14.08.23.08c.12,0,.26-.03.41-.1l.08.21-1.61.66h-.26v-1.14c-.46.5-.81.81-1.05.94s-.5.19-.77.19c-.3,0-.56-.09-.78-.26s-.37-.4-.46-.67-.13-.66-.13-1.16v-2.4c0-.25-.03-.43-.08-.53s-.14-.17-.24-.23-.3-.08-.58-.07v-.22h1.88v3.59c0,.5.09.83.26.98s.38.23.63.23c.17,0,.36-.05.57-.16s.47-.31.76-.6v-3.04c0-.3-.06-.51-.17-.62s-.34-.17-.69-.17v-.22h1.83Z"/>
    <path class="cls-3" d="m24.21,96.38c.39-.39.62-.62.69-.67.18-.15.37-.26.57-.35s.4-.12.6-.12c.34,0,.62.1.87.29s.4.48.49.85c.4-.47.74-.78,1.02-.92s.56-.22.86-.22.54.07.76.22.4.39.52.72c.09.23.13.58.13,1.07v2.31c0,.34.03.57.08.69.04.09.11.16.22.22s.28.09.52.09v.21h-2.65v-.21h.11c.23,0,.41-.04.54-.13.09-.06.15-.16.19-.3.02-.07.02-.26.02-.57v-2.31c0-.44-.05-.75-.16-.93-.15-.25-.4-.38-.73-.38-.21,0-.42.05-.62.16s-.46.3-.76.58v.06s0,.25,0,.25v2.56c0,.37.02.6.06.69s.12.17.23.23.31.09.58.09v.21h-2.71v-.21c.3,0,.5-.04.61-.11s.19-.18.23-.32c.02-.07.03-.26.03-.58v-2.31c0-.44-.06-.75-.19-.94-.17-.25-.41-.38-.72-.38-.21,0-.42.06-.63.17-.32.17-.57.37-.75.58v2.88c0,.35.02.58.07.69s.12.18.22.24.29.08.58.08v.21h-2.65v-.21c.25,0,.42-.03.52-.08s.17-.14.22-.25.08-.34.08-.67v-2.05c0-.59-.02-.97-.05-1.14-.03-.13-.07-.22-.13-.27s-.14-.07-.24-.07c-.11,0-.24.03-.39.09l-.09-.21,1.62-.66h.25v1.14Z"/>
    <path class="cls-3" d="m31.57,95.93l1.65-.67h.22v1.25c.28-.47.56-.8.83-.99s.57-.28.88-.28c.54,0,.99.21,1.35.63.44.52.66,1.19.66,2.02,0,.93-.27,1.69-.8,2.3-.44.5-.99.74-1.65.74-.29,0-.54-.04-.75-.12-.16-.06-.33-.18-.53-.35v1.63c0,.37.02.6.07.7s.12.18.23.24.31.09.61.09v.22h-2.81v-.22h.15c.21,0,.4-.04.55-.12.07-.04.13-.11.17-.21s.06-.34.06-.73v-5.07c0-.35-.02-.57-.05-.66s-.08-.16-.15-.21-.16-.07-.28-.07c-.09,0-.21.03-.36.08l-.07-.19Zm1.88.93v2c0,.43.02.72.05.86.05.23.19.43.4.6s.48.26.81.26c.39,0,.71-.15.95-.46.32-.4.47-.96.47-1.68,0-.82-.18-1.45-.54-1.89-.25-.3-.55-.46-.89-.46-.19,0-.37.05-.56.14-.14.07-.37.28-.7.63Z"/>
    <path class="cls-3" d="m43.09,93.25v3.14h1.75c.45,0,.76-.07.91-.21.2-.18.32-.5.34-.95h.22v2.77h-.22c-.05-.39-.11-.63-.16-.74-.07-.14-.19-.24-.35-.32s-.41-.12-.74-.12h-1.75v2.62c0,.35.02.57.05.64s.09.14.16.18.23.07.45.07h1.35c.45,0,.78-.03.98-.09s.4-.19.59-.37c.24-.24.49-.61.74-1.1h.23l-.69,1.99h-6.12v-.22h.28c.19,0,.37-.04.53-.13.12-.06.21-.16.25-.28s.07-.38.07-.77v-5.16c0-.5-.05-.81-.15-.93-.14-.16-.38-.23-.7-.23h-.28v-.22h6.12l.09,1.74h-.23c-.08-.42-.17-.71-.27-.86s-.25-.28-.44-.36c-.16-.06-.43-.09-.83-.09h-2.18Z"/>
    <path class="cls-3" d="m49.85,96.38c.63-.76,1.23-1.14,1.8-1.14.29,0,.54.07.76.22s.38.39.5.72c.09.23.13.59.13,1.08v2.29c0,.34.03.57.08.69.04.1.11.17.21.23s.27.08.53.08v.21h-2.65v-.21h.11c.25,0,.42-.04.52-.11s.17-.19.21-.34c.02-.06.02-.24.02-.55v-2.2c0-.49-.06-.84-.19-1.06s-.34-.33-.64-.33c-.46,0-.93.25-1.39.76v2.83c0,.36.02.59.06.67.05.11.13.2.23.25s.29.08.58.08v.21h-2.65v-.21h.12c.27,0,.46-.07.55-.21s.14-.4.14-.79v-1.99c0-.64-.01-1.04-.04-1.18s-.07-.24-.13-.29-.14-.08-.24-.08c-.11,0-.24.03-.39.09l-.09-.21,1.62-.66h.25v1.14Z"/>
    <path class="cls-3" d="m58.84,98.73c-.14.71-.43,1.25-.85,1.63s-.89.57-1.4.57c-.61,0-1.14-.26-1.59-.77s-.68-1.2-.68-2.07.25-1.53.75-2.06,1.1-.79,1.81-.79c.53,0,.96.14,1.3.42s.51.57.51.87c0,.15-.05.27-.14.36s-.23.14-.4.14c-.23,0-.4-.07-.52-.22-.07-.08-.11-.24-.13-.47s-.1-.41-.24-.53c-.14-.12-.33-.18-.57-.18-.39,0-.71.14-.94.43-.32.38-.47.89-.47,1.52s.16,1.21.47,1.7.74.74,1.27.74c.38,0,.73-.13,1.03-.39.21-.18.42-.51.63-.98l.17.08Z"/>
    <path class="cls-3" d="m62.23,95.24c.81,0,1.46.31,1.96.93.42.53.63,1.13.63,1.82,0,.48-.12.97-.35,1.46s-.55.86-.95,1.11-.85.38-1.35.38c-.81,0-1.45-.32-1.93-.97-.4-.54-.6-1.15-.6-1.83,0-.49.12-.98.37-1.47s.57-.85.96-1.08.82-.35,1.27-.35Zm-.18.38c-.21,0-.42.06-.62.18s-.38.34-.51.65-.19.71-.19,1.19c0,.78.16,1.46.47,2.02s.72.85,1.23.85c.38,0,.69-.16.94-.47s.37-.85.37-1.61c0-.95-.21-1.7-.62-2.25-.28-.38-.63-.56-1.06-.56Z"/>
    <path class="cls-3" d="m69.4,100.16c-.26.27-.52.47-.77.59s-.52.18-.81.18c-.59,0-1.1-.25-1.54-.74s-.66-1.12-.66-1.89.24-1.47.73-2.11,1.11-.96,1.87-.96c.47,0,.86.15,1.17.45v-.99c0-.61-.01-.99-.04-1.13s-.08-.24-.14-.29-.14-.08-.23-.08c-.1,0-.24.03-.4.09l-.08-.21,1.6-.66h.26v6.21c0,.63.01,1.01.04,1.15s.08.24.14.29.14.08.23.08c.11,0,.25-.03.42-.1l.06.21-1.59.66h-.27v-.77Zm0-.41v-2.77c-.02-.27-.09-.51-.21-.73s-.27-.38-.47-.5-.38-.17-.57-.17c-.34,0-.65.15-.92.46-.36.41-.53,1-.53,1.78s.17,1.39.52,1.81.73.63,1.15.63c.36,0,.7-.18,1.03-.53Z"/>
    <path class="cls-3" d="m73.46,95.24v4.31c0,.34.02.56.07.67s.12.19.22.25.27.08.52.08v.21h-2.61v-.21c.26,0,.44-.03.53-.08s.16-.13.21-.25.08-.34.08-.67v-2.07c0-.58-.02-.96-.05-1.13-.03-.12-.07-.21-.13-.26s-.14-.07-.24-.07c-.11,0-.24.03-.4.09l-.08-.21,1.62-.66h.26Zm-.49-2.81c.16,0,.3.06.42.17s.17.25.17.42-.06.3-.17.42-.25.18-.42.18-.3-.06-.42-.18-.18-.26-.18-.42.06-.3.17-.42.26-.17.42-.17Z"/>
    <path class="cls-3" d="m76.51,96.38c.63-.76,1.23-1.14,1.8-1.14.29,0,.54.07.76.22s.38.39.5.72c.09.23.13.59.13,1.08v2.29c0,.34.03.57.08.69.04.1.11.17.21.23s.27.08.53.08v.21h-2.65v-.21h.11c.25,0,.42-.04.52-.11s.17-.19.21-.34c.02-.06.02-.24.02-.55v-2.2c0-.49-.06-.84-.19-1.06s-.34-.33-.64-.33c-.46,0-.93.25-1.39.76v2.83c0,.36.02.59.06.67.05.11.13.2.23.25s.29.08.58.08v.21h-2.65v-.21h.12c.27,0,.46-.07.55-.21s.14-.4.14-.79v-1.99c0-.64-.01-1.04-.04-1.18s-.07-.24-.13-.29-.14-.08-.24-.08c-.11,0-.24.03-.39.09l-.09-.21,1.62-.66h.25v1.14Z"/>
    <path class="cls-3" d="m82.38,98.81c-.33-.16-.58-.38-.76-.67s-.26-.6-.26-.95c0-.53.2-.99.6-1.37s.91-.57,1.54-.57c.51,0,.96.12,1.33.38h1.14c.17,0,.27,0,.29.01s.05.03.06.05c.02.04.04.1.04.19,0,.1,0,.17-.03.21-.01.02-.03.04-.06.05s-.13.02-.3.02h-.7c.22.28.33.64.33,1.08,0,.5-.19.93-.57,1.28s-.9.53-1.54.53c-.27,0-.54-.04-.81-.12-.17.15-.29.28-.35.39s-.09.21-.09.28c0,.07.03.13.1.19s.19.11.38.13c.11.02.38.03.82.04.8.02,1.33.05,1.56.08.36.05.65.19.87.4s.33.49.33.81c0,.44-.21.86-.62,1.24-.61.57-1.4.86-2.38.86-.75,0-1.39-.17-1.91-.51-.29-.2-.44-.4-.44-.61,0-.09.02-.19.06-.28.07-.14.2-.35.41-.6.03-.04.23-.25.6-.63-.2-.12-.35-.23-.43-.33s-.13-.2-.13-.33c0-.14.06-.3.17-.48s.37-.44.77-.78Zm-.06,1.96c-.18.2-.32.38-.42.56s-.14.33-.14.47c0,.19.11.35.34.49.39.24.96.36,1.69.36s1.22-.12,1.56-.37.5-.51.5-.79c0-.2-.1-.35-.3-.43-.2-.09-.61-.14-1.21-.15-.88-.02-1.55-.07-2.03-.13Zm1.08-5.24c-.29,0-.53.12-.73.35s-.29.58-.29,1.06c0,.62.13,1.1.4,1.44.2.26.46.39.77.39s.54-.11.73-.33.29-.57.29-1.05c0-.62-.13-1.11-.4-1.46-.2-.26-.46-.39-.77-.39Z"/>
    <path class="cls-3" d="m92.93,92.43l-2.88,8.5h-.47l2.88-8.5h.47Z"/>
    <path class="cls-3" d="m95.14,95.24v5.4c0,.92-.2,1.6-.59,2.04s-.9.67-1.52.67c-.36,0-.62-.06-.79-.19s-.26-.26-.26-.4.05-.25.14-.35.21-.15.34-.15c.1,0,.21.03.31.08.07.03.19.13.38.3s.35.25.48.25c.09,0,.19-.04.28-.11s.16-.19.2-.36.06-.54.06-1.1v-3.82c0-.59-.02-.97-.05-1.14-.03-.13-.07-.22-.13-.27s-.14-.07-.24-.07c-.11,0-.24.03-.4.09l-.08-.21,1.62-.66h.25Zm-.5-2.81c.17,0,.31.06.43.18s.18.26.18.43-.06.3-.18.42-.26.18-.43.18-.3-.06-.42-.18-.18-.26-.18-.42.06-.31.18-.43.26-.18.42-.18Z"/>
    <path class="cls-3" d="m99.6,92.43l-2.88,8.5h-.47l2.88-8.5h.47Z"/>
  </g>
</svg>