<?xml version="1.0" encoding="UTF-8"?>
<svg id="Layer_1" data-name="Layer 1" xmlns="http://www.w3.org/2000/svg" viewBox="0 0 322.73 81.7">
  <defs>
    <style>
      .cls-1 {
        fill: none;
        stroke: #231f20;
        stroke-width: .5px;
      }

      .cls-2 {
        fill: #fff;
      }

      .cls-3 {
        fill: #231f20;
      }
    </style>
  </defs>
  <polygon class="cls-2" points="249.03 4.63 249.03 30.31 256.5 39.79 249.03 49.26 249.03 76.21 298.03 52.9 298.03 26.68 249.03 4.63"/>
  <polygon class="cls-1" points="249.03 4.63 249.03 30.31 256.5 39.79 249.03 49.26 249.03 76.21 298.03 52.9 298.03 26.68 249.03 4.63"/>
  <rect class="cls-2" x="24.69" y=".25" width="81.55" height="81.2"/>
  <rect class="cls-1" x="24.69" y=".25" width="81.55" height="81.2"/>
  <rect class="cls-2" x="171.3" y="12.6" width="17.49" height="56.51"/>
  <rect class="cls-1" x="171.3" y="12.6" width="17.49" height="56.51"/>
  <g>
    <path class="cls-3" d="m176.13,41.27v1.54c0,.33.04.54.11.62.1.11.25.17.45.17h.2v.14h-2.27v-.14h.2c.22,0,.38-.07.48-.22.05-.08.08-.27.08-.57v-3.42c0-.33-.04-.54-.11-.62-.1-.11-.25-.17-.45-.17h-.2v-.14h1.94c.47,0,.85.05,1.12.15s.5.26.69.49.28.51.28.82c0,.43-.14.78-.43,1.05s-.69.41-1.21.41c-.13,0-.27,0-.41-.03s-.31-.05-.48-.08Zm0-.22c.14.03.26.05.37.06s.2.02.27.02c.27,0,.5-.1.7-.31s.29-.48.29-.81c0-.23-.05-.44-.14-.64s-.23-.34-.4-.44-.37-.15-.59-.15c-.13,0-.3.02-.51.07v2.2Z"/>
    <path class="cls-3" d="m183.75,38.33l.12,1.8h-.12c-.16-.54-.39-.93-.69-1.16s-.66-.36-1.08-.36c-.35,0-.67.09-.95.27s-.51.46-.67.85-.24.88-.24,1.46c0,.48.08.89.23,1.25s.38.62.69.81.66.28,1.06.28c.34,0,.65-.07.91-.22s.55-.44.87-.88l.12.08c-.27.47-.58.82-.93,1.04s-.77.33-1.26.33c-.88,0-1.56-.33-2.04-.98-.36-.48-.54-1.05-.54-1.71,0-.53.12-1.01.36-1.46s.56-.79.98-1.03.87-.37,1.36-.37c.38,0,.76.09,1.13.28.11.06.19.09.23.09.07,0,.13-.02.18-.07.07-.07.12-.17.14-.29h.14Z"/>
  </g>
  <g>
    <path class="cls-3" d="m34.36,9.97c0-.32-.05-.52-.15-.6s-.31-.13-.62-.13v-.14h2.29v.14c-.33.01-.54.06-.63.16s-.14.31-.14.66v3.37c0,.35.05.57.14.66s.3.15.63.16v.14h-2.29v-.14c.34-.01.55-.06.64-.16s.14-.32.14-.66v-3.04l-2.46,3.15c0,.23.02.38.04.46s.09.14.19.18.28.07.53.07v.14h-2.29v-.14c.33-.01.54-.06.63-.16s.14-.31.14-.66v-3.37c0-.35-.05-.57-.14-.66s-.3-.15-.63-.16v-.14h2.29v.14c-.33.01-.54.06-.63.16s-.14.31-.14.66v3.05l2.46-3.14Z"/>
    <path class="cls-3" d="m37.39,12.41h1.55v-.76c0-.23,0-.37-.03-.44s-.06-.13-.13-.18-.2-.07-.38-.07v-.15h1.73v.15c-.16,0-.28.02-.35.05s-.12.09-.15.16-.04.23-.04.48v1.9c0,.23,0,.38.03.45s.07.13.14.18.2.07.37.07v.14h-1.73v-.14c.22,0,.36-.04.43-.12s.11-.27.11-.58v-.89h-1.55v.89c0,.23,0,.38.03.45s.07.13.14.18.2.07.37.07v.14h-1.73v-.14c.23,0,.38-.04.45-.13s.1-.27.1-.57v-1.9c0-.23,0-.38-.03-.45s-.07-.13-.14-.18-.2-.07-.37-.07v-.15h1.73v.15c-.16,0-.28.02-.35.05s-.12.09-.15.16-.04.23-.04.48v.76Z"/>
    <path class="cls-3" d="m43.59,13.03c-.1.47-.29.83-.57,1.09s-.59.38-.93.38c-.41,0-.76-.17-1.06-.51s-.45-.8-.45-1.38.17-1.02.5-1.37.74-.53,1.21-.53c.35,0,.64.09.87.28s.34.38.34.58c0,.1-.03.18-.1.24s-.15.09-.27.09c-.15,0-.27-.05-.35-.15-.04-.05-.07-.16-.09-.31s-.07-.27-.16-.35c-.09-.08-.22-.12-.38-.12-.26,0-.47.1-.63.29-.21.26-.32.59-.32,1.01s.1.8.31,1.13.49.49.85.49c.26,0,.48-.09.69-.26.14-.12.28-.34.42-.65l.11.05Z"/>
    <path class="cls-3" d="m44.05,10.81h3.09l.16.97h-.18c-.03-.2-.08-.35-.16-.45s-.16-.18-.25-.21-.25-.05-.48-.05h-.31v2.48c0,.27.02.43.05.51s.09.12.16.14.24.04.5.05v.14h-1.95v-.14c.25,0,.41-.05.48-.12s.11-.27.11-.57v-2.48h-.32c-.22,0-.38.01-.46.04s-.16.09-.23.2-.14.26-.19.48h-.18l.15-.97Z"/>
    <path class="cls-3" d="m47.34,11.17l1.1-.45h.15v.84c.19-.31.37-.54.56-.66s.38-.19.59-.19c.36,0,.66.14.9.42.29.34.44.79.44,1.34,0,.62-.18,1.13-.53,1.53-.29.33-.66.5-1.1.5-.19,0-.36-.03-.5-.08-.1-.04-.22-.12-.35-.23v1.09c0,.24.02.4.04.47s.08.12.16.16.21.06.4.06v.14h-1.88v-.14h.1c.14,0,.27-.02.37-.08.05-.03.09-.07.12-.14s.04-.23.04-.49v-3.38c0-.23-.01-.38-.03-.44s-.05-.11-.1-.14-.11-.05-.19-.05c-.06,0-.14.02-.24.05l-.05-.12Zm1.25.62v1.34c0,.29.01.48.04.57.04.15.13.28.27.4s.32.17.54.17c.26,0,.47-.1.63-.3.21-.27.32-.64.32-1.12,0-.55-.12-.97-.36-1.26-.17-.2-.36-.3-.59-.3-.12,0-.25.03-.37.09-.09.05-.25.19-.46.42Z"/>
    <path class="cls-3" d="m51.4,10.81h1.67v.14h-.08c-.12,0-.21.03-.26.08s-.09.11-.09.19c0,.1.04.24.13.42l.87,1.8.8-1.98c.04-.11.07-.21.07-.32,0-.05,0-.08-.03-.11-.02-.03-.05-.05-.1-.07s-.12-.03-.23-.03v-.14h1.16v.14c-.1.01-.17.03-.22.06s-.11.09-.17.18c-.02.04-.07.14-.13.3l-1.46,3.57c-.14.35-.32.61-.55.79s-.45.27-.66.27c-.15,0-.28-.04-.38-.13s-.15-.19-.15-.3.04-.2.11-.26.17-.1.29-.1c.09,0,.2.03.35.09.1.04.17.06.2.06.08,0,.16-.04.26-.12s.19-.24.28-.47l.25-.62-1.29-2.7c-.04-.08-.1-.18-.19-.3-.06-.09-.12-.15-.16-.18-.06-.04-.16-.08-.29-.11v-.14Z"/>
    <path class="cls-3" d="m59.19,14.39h-1.05c-.33-.48-.62-.96-.89-1.46-.06-.11-.12-.2-.17-.26s-.12-.08-.21-.08c-.03,0-.08,0-.15,0v.96c0,.26.02.42.04.49s.08.12.16.15.21.05.39.05v.14h-1.79v-.14c.23,0,.38-.04.45-.13s.1-.27.1-.57v-1.9c0-.28-.01-.44-.04-.49s-.07-.1-.13-.14-.18-.06-.37-.06v-.15h1.79v.15c-.22,0-.35.02-.4.05s-.1.07-.14.12-.06.22-.06.53v.7c.06,0,.1,0,.12,0,.16,0,.31-.04.45-.13s.26-.28.37-.57c.1-.28.19-.46.25-.56s.16-.18.28-.24.24-.09.37-.09c.14,0,.25.03.34.1s.12.16.12.27c0,.09-.03.17-.09.23s-.14.1-.25.1c-.06,0-.13-.02-.21-.05-.11-.04-.19-.06-.25-.06-.12,0-.22.1-.3.31-.09.24-.15.39-.2.46s-.12.16-.24.28c.08.02.17.08.26.18s.27.37.53.82c.21.36.36.59.46.69s.25.15.45.15v.14Z"/>
    <path class="cls-3" d="m63.34,14.24v1.14h-.14c0-.3-.11-.55-.3-.72s-.54-.27-1.04-.27h-2.44v-.14c.23,0,.38-.04.45-.13s.1-.27.1-.57v-1.9c0-.28-.01-.44-.04-.49s-.07-.1-.13-.14-.18-.06-.37-.06v-.15h1.73v.15c-.17,0-.29.02-.35.05s-.11.08-.14.13-.05.22-.05.51v2.02c0,.23.02.36.06.4s.17.06.39.06h.63c.24,0,.38-.02.41-.07s.05-.19.05-.43v-1.99c0-.25-.01-.41-.04-.48s-.08-.12-.15-.16-.19-.05-.35-.05v-.15h1.73v.15c-.17,0-.29.02-.35.05s-.11.08-.14.13-.05.22-.05.51v1.84c0,.34.03.54.09.62s.21.12.45.13Z"/>
    <path class="cls-3" d="m64.89,13.29l1.55-1.79c0-.2-.04-.34-.11-.42s-.19-.12-.36-.12v-.15h1.66v.15c-.17,0-.29.02-.35.05s-.11.08-.14.13-.05.22-.05.51v1.9c0,.28.01.44.04.49s.07.1.13.14.18.06.37.06v.14h-1.73v-.14c.22,0,.36-.04.43-.12s.11-.27.11-.58v-1.68l-1.55,1.79c0,.22.04.37.09.46s.18.13.37.13v.14h-1.65v-.14c.23,0,.38-.04.45-.13s.1-.27.1-.57v-1.9c0-.28-.01-.44-.04-.49s-.07-.1-.13-.14-.18-.06-.37-.06v-.15h1.73v.15c-.17,0-.29.02-.35.05s-.11.08-.14.13-.05.22-.05.51v1.64Z"/>
    <path class="cls-3" d="m69.17,13.29l1.55-1.79c0-.2-.04-.34-.11-.42s-.19-.12-.36-.12v-.15h1.66v.15c-.17,0-.29.02-.35.05s-.11.08-.14.13-.05.22-.05.51v1.9c0,.28.01.44.04.49s.07.1.13.14.18.06.37.06v.14h-1.73v-.14c.22,0,.36-.04.43-.12s.11-.27.11-.58v-1.68l-1.55,1.79c0,.22.04.37.09.46s.18.13.37.13v.14h-1.65v-.14c.23,0,.38-.04.45-.13s.1-.27.1-.57v-1.9c0-.28-.01-.44-.04-.49s-.07-.1-.13-.14-.18-.06-.37-.06v-.15h1.73v.15c-.17,0-.29.02-.35.05s-.11.08-.14.13-.05.22-.05.51v1.64Zm-.51-3.91c0-.09.03-.16.08-.22s.12-.08.19-.08c.17,0,.32.16.46.48.08.18.16.3.26.34s.19.07.29.07c.16,0,.29-.04.37-.11s.16-.2.23-.38c.11-.27.24-.41.4-.41.08,0,.14.03.2.08s.08.13.08.21c0,.2-.13.39-.39.56s-.56.26-.89.26c-.43,0-.75-.08-.96-.23s-.32-.35-.32-.57Z"/>
    <path class="cls-3" d="m73.45,12.41h1.55v-.76c0-.23,0-.37-.03-.44s-.06-.13-.13-.18-.2-.07-.38-.07v-.15h1.73v.15c-.16,0-.28.02-.35.05s-.12.09-.15.16-.04.23-.04.48v1.9c0,.23,0,.38.03.45s.07.13.14.18.2.07.37.07v.14h-1.73v-.14c.22,0,.36-.04.43-.12s.11-.27.11-.58v-.89h-1.55v.89c0,.23,0,.38.03.45s.07.13.14.18.2.07.37.07v.14h-1.73v-.14c.23,0,.38-.04.45-.13s.1-.27.1-.57v-1.9c0-.23,0-.38-.03-.45s-.07-.13-.14-.18-.2-.07-.37-.07v-.15h1.73v.15c-.16,0-.28.02-.35.05s-.12.09-.15.16-.04.23-.04.48v.76Z"/>
    <path class="cls-3" d="m46.15,20.41h1.68v.14c-.11,0-.18.02-.22.05s-.06.08-.06.14.05.16.14.29c.03.04.07.11.13.2l.25.41.29-.41c.19-.26.28-.42.28-.49,0-.05-.02-.1-.07-.14s-.12-.06-.21-.06v-.14h1.21v.14c-.13,0-.24.04-.33.11-.13.09-.3.28-.52.58l-.49.65.89,1.28c.22.31.38.5.47.57s.21.1.36.11v.14h-1.69v-.14c.12,0,.21-.03.27-.08.05-.04.07-.08.07-.14s-.08-.21-.25-.45l-.52-.77-.57.77c-.18.24-.27.38-.27.42,0,.06.03.12.09.17s.15.08.26.08v.14h-1.17v-.14c.09-.01.18-.05.25-.1.1-.08.27-.27.5-.58l.75-1-.68-.98c-.19-.28-.34-.46-.45-.53s-.24-.11-.4-.11v-.14Z"/>
    <path class="cls-3" d="m52.33,23.47c-.37.28-.6.45-.69.49-.14.06-.29.1-.45.1-.25,0-.45-.08-.61-.25s-.24-.39-.24-.67c0-.17.04-.33.12-.45.11-.18.29-.34.56-.5s.7-.35,1.32-.57v-.14c0-.36-.06-.6-.17-.73s-.28-.2-.49-.2c-.16,0-.29.04-.39.13-.1.09-.15.19-.15.3v.23c0,.12-.02.21-.08.28s-.14.1-.24.1-.18-.03-.24-.1-.09-.16-.09-.28c0-.22.11-.43.34-.62s.55-.28.96-.28c.32,0,.58.05.78.16.15.08.27.21.34.38.05.11.07.34.07.69v1.21c0,.34,0,.55.02.63s.03.13.06.15.06.04.1.04c.04,0,.08,0,.11-.03.05-.03.16-.13.32-.29v.22c-.29.39-.57.59-.84.59-.13,0-.23-.04-.3-.13s-.11-.24-.12-.45Zm0-.25v-1.36c-.39.16-.65.27-.76.33-.21.11-.35.23-.44.36s-.13.26-.13.41c0,.19.06.34.17.47s.24.19.39.19c.2,0,.46-.13.78-.39Z"/>
    <path class="cls-3" d="m57.1,20.41v.15c-.16,0-.28.02-.36.07s-.13.1-.15.17-.04.22-.04.46v1.9c0,.23.01.38.03.45s.07.13.15.18.2.07.36.07v.14h-1.73v-.14c.22,0,.36-.04.43-.12s.11-.27.11-.58v-.78h-.16s-.06,0-.12,0l-1.14,1.62h-.89v-.14c.13,0,.22-.02.27-.05s.15-.15.28-.35l.84-1.18c-.6-.21-.9-.53-.9-.96,0-.24.11-.45.32-.63s.58-.27,1.1-.27h1.59Zm-1.19.3c-.1-.03-.2-.04-.29-.04-.26,0-.46.06-.59.2s-.2.29-.2.46c0,.23.09.42.28.57s.42.23.7.23c.03,0,.06,0,.1,0v-1.41Z"/>
    <path class="cls-3" d="m60.37,20.41l.14.98h-.17c-.1-.32-.2-.52-.3-.6s-.31-.12-.63-.12h-.76v2.48c0,.28.01.44.04.49s.07.1.13.14.18.06.37.06v.14h-1.79v-.14c.26,0,.42-.04.49-.12s.11-.27.11-.58v-1.9c0-.25-.01-.41-.04-.49s-.08-.12-.15-.15-.21-.05-.41-.05v-.15h2.96Z"/>
  </g>
  <g>
    <path class="cls-3" d="m70.69,38.33c0-.32-.05-.52-.15-.6s-.31-.13-.62-.13v-.14h2.29v.14c-.33.01-.54.06-.63.16s-.14.31-.14.66v3.37c0,.35.05.57.14.66s.3.15.63.16v.14h-2.29v-.14c.34-.01.55-.06.64-.16s.14-.32.14-.66v-3.04l-2.46,3.15c0,.23.02.38.04.46s.09.14.19.18.28.07.53.07v.14h-2.29v-.14c.33-.01.54-.06.63-.16s.14-.31.14-.66v-3.37c0-.35-.05-.57-.14-.66s-.3-.15-.63-.16v-.14h2.29v.14c-.33.01-.54.06-.63.16s-.14.31-.14.66v3.05l2.46-3.14Z"/>
    <path class="cls-3" d="m73.72,40.77h1.55v-.76c0-.23,0-.37-.03-.44s-.06-.13-.13-.18-.2-.07-.38-.07v-.15h1.73v.15c-.16,0-.28.02-.35.05s-.12.09-.15.16-.04.23-.04.48v1.9c0,.23,0,.38.03.45s.07.13.14.18.2.07.37.07v.14h-1.73v-.14c.22,0,.36-.04.43-.12s.11-.27.11-.58v-.89h-1.55v.89c0,.23,0,.38.03.45s.07.13.14.18.2.07.37.07v.14h-1.73v-.14c.23,0,.38-.04.45-.13s.1-.27.1-.57v-1.9c0-.23,0-.38-.03-.45s-.07-.13-.14-.18-.2-.07-.37-.07v-.15h1.73v.15c-.16,0-.28.02-.35.05s-.12.09-.15.16-.04.23-.04.48v.76Z"/>
    <path class="cls-3" d="m79.92,41.39c-.1.47-.29.83-.57,1.09s-.59.38-.93.38c-.41,0-.76-.17-1.06-.51s-.45-.8-.45-1.38.17-1.02.5-1.37.74-.53,1.21-.53c.35,0,.64.09.87.28s.34.38.34.58c0,.1-.03.18-.1.24s-.15.09-.27.09c-.15,0-.27-.05-.35-.15-.04-.05-.07-.16-.09-.31s-.07-.27-.16-.35c-.09-.08-.22-.12-.38-.12-.26,0-.47.1-.63.29-.21.26-.32.59-.32,1.01s.1.8.31,1.13.49.49.85.49c.26,0,.48-.09.69-.26.14-.12.28-.34.42-.65l.11.05Z"/>
    <path class="cls-3" d="m80.38,39.17h3.09l.16.97h-.18c-.03-.2-.08-.35-.16-.45s-.16-.18-.25-.21-.25-.05-.48-.05h-.31v2.48c0,.27.02.43.05.51s.09.12.16.14.24.04.5.05v.14h-1.95v-.14c.25,0,.41-.05.48-.12s.11-.27.11-.57v-2.48h-.32c-.22,0-.38.01-.46.04s-.16.09-.23.2-.14.26-.19.48h-.18l.15-.97Z"/>
    <path class="cls-3" d="m83.67,39.52l1.1-.45h.15v.84c.19-.31.37-.54.56-.66s.38-.19.59-.19c.36,0,.66.14.9.42.29.34.44.79.44,1.34,0,.62-.18,1.13-.53,1.53-.29.33-.66.5-1.1.5-.19,0-.36-.03-.5-.08-.1-.04-.22-.12-.35-.23v1.09c0,.24.02.4.04.47s.08.12.16.16.21.06.4.06v.14h-1.88v-.14h.1c.14,0,.27-.02.37-.08.05-.03.09-.07.12-.14s.04-.23.04-.49v-3.38c0-.23-.01-.38-.03-.44s-.05-.11-.1-.14-.11-.05-.19-.05c-.06,0-.14.02-.24.05l-.05-.12Zm1.25.62v1.34c0,.29.01.48.04.57.04.15.13.28.27.4s.32.17.54.17c.26,0,.47-.1.63-.3.21-.27.32-.64.32-1.12,0-.55-.12-.97-.36-1.26-.17-.2-.36-.3-.59-.3-.12,0-.25.03-.37.09-.09.05-.25.19-.46.42Z"/>
    <path class="cls-3" d="m87.73,39.17h1.67v.14h-.08c-.12,0-.21.03-.26.08s-.09.11-.09.19c0,.1.04.24.13.42l.87,1.8.8-1.98c.04-.11.07-.21.07-.32,0-.05,0-.08-.03-.11-.02-.03-.05-.05-.1-.07s-.12-.03-.23-.03v-.14h1.16v.14c-.1.01-.17.03-.22.06s-.11.09-.17.18c-.02.04-.07.14-.13.3l-1.46,3.57c-.14.35-.32.61-.55.79s-.45.27-.66.27c-.15,0-.28-.04-.38-.13s-.15-.19-.15-.3.04-.2.11-.26.17-.1.29-.1c.09,0,.2.03.35.09.1.04.17.06.2.06.08,0,.16-.04.26-.12s.19-.24.28-.47l.25-.62-1.29-2.7c-.04-.08-.1-.18-.19-.3-.06-.09-.12-.15-.16-.18-.06-.04-.16-.08-.29-.11v-.14Z"/>
    <path class="cls-3" d="m95.52,42.75h-1.05c-.33-.48-.62-.96-.89-1.46-.06-.11-.12-.2-.17-.26s-.12-.08-.21-.08c-.03,0-.08,0-.15,0v.96c0,.26.02.42.04.49s.08.12.16.15.21.05.39.05v.14h-1.79v-.14c.23,0,.38-.04.45-.13s.1-.27.1-.57v-1.9c0-.28-.01-.44-.04-.49s-.07-.1-.13-.14-.18-.06-.37-.06v-.15h1.79v.15c-.22,0-.35.02-.4.05s-.1.07-.14.12-.06.22-.06.53v.7c.06,0,.1,0,.12,0,.16,0,.31-.04.45-.13s.26-.28.37-.57c.1-.28.19-.46.25-.56s.16-.18.28-.24.24-.09.37-.09c.14,0,.25.03.34.1s.12.16.12.27c0,.09-.03.17-.09.23s-.14.1-.25.1c-.06,0-.13-.02-.21-.05-.11-.04-.19-.06-.25-.06-.12,0-.22.1-.3.31-.09.24-.15.39-.2.46s-.12.16-.24.28c.08.02.17.08.26.18s.27.37.53.82c.21.36.36.59.46.69s.25.15.45.15v.14Z"/>
    <path class="cls-3" d="m99.67,42.6v1.14h-.14c0-.3-.11-.55-.3-.72s-.54-.27-1.04-.27h-2.44v-.14c.23,0,.38-.04.45-.13s.1-.27.1-.57v-1.9c0-.28-.01-.44-.04-.49s-.07-.1-.13-.14-.18-.06-.37-.06v-.15h1.73v.15c-.17,0-.29.02-.35.05s-.11.08-.14.13-.05.22-.05.51v2.02c0,.23.02.36.06.4s.17.06.39.06h.63c.24,0,.38-.02.41-.07s.05-.19.05-.43v-1.99c0-.25-.01-.41-.04-.48s-.08-.12-.15-.16-.19-.05-.35-.05v-.15h1.73v.15c-.17,0-.29.02-.35.05s-.11.08-.14.13-.05.22-.05.51v1.84c0,.34.03.54.09.62s.21.12.45.13Z"/>
  </g>
  <g>
    <path class="cls-3" d="m45.29,61.38c0-.32-.05-.52-.15-.6s-.31-.13-.62-.13v-.14h2.29v.14c-.33.01-.54.06-.63.16s-.14.31-.14.66v3.37c0,.35.05.57.14.66s.3.15.63.16v.14h-2.29v-.14c.34-.01.55-.06.64-.16s.14-.32.14-.66v-3.04l-2.46,3.15c0,.23.02.38.04.46s.09.14.19.18.28.07.53.07v.14h-2.29v-.14c.33-.01.54-.06.63-.16s.14-.31.14-.66v-3.37c0-.35-.05-.57-.14-.66s-.3-.15-.63-.16v-.14h2.29v.14c-.33.01-.54.06-.63.16s-.14.31-.14.66v3.05l2.46-3.14Z"/>
    <path class="cls-3" d="m48.31,63.82h1.55v-.76c0-.23,0-.37-.03-.44s-.06-.13-.13-.18-.2-.07-.38-.07v-.15h1.73v.15c-.16,0-.28.02-.35.05s-.12.09-.15.16-.04.23-.04.48v1.9c0,.23,0,.38.03.45s.07.13.14.18.2.07.37.07v.14h-1.73v-.14c.22,0,.36-.04.43-.12s.11-.27.11-.58v-.89h-1.55v.89c0,.23,0,.38.03.45s.07.13.14.18.2.07.37.07v.14h-1.73v-.14c.23,0,.38-.04.45-.13s.1-.27.1-.57v-1.9c0-.23,0-.38-.03-.45s-.07-.13-.14-.18-.2-.07-.37-.07v-.15h1.73v.15c-.16,0-.28.02-.35.05s-.12.09-.15.16-.04.23-.04.48v.76Z"/>
    <path class="cls-3" d="m54.52,64.45c-.1.47-.29.83-.57,1.09s-.59.38-.93.38c-.41,0-.76-.17-1.06-.51s-.45-.8-.45-1.38.17-1.02.5-1.37.74-.53,1.21-.53c.35,0,.64.09.87.28s.34.38.34.58c0,.1-.03.18-.1.24s-.15.09-.27.09c-.15,0-.27-.05-.35-.15-.04-.05-.07-.16-.09-.31s-.07-.27-.16-.35c-.09-.08-.22-.12-.38-.12-.26,0-.47.1-.63.29-.21.26-.32.59-.32,1.01s.1.8.31,1.13.49.49.85.49c.26,0,.48-.09.69-.26.14-.12.28-.34.42-.65l.11.05Z"/>
    <path class="cls-3" d="m54.97,62.23h3.09l.16.97h-.18c-.03-.2-.08-.35-.16-.45s-.16-.18-.25-.21-.25-.05-.48-.05h-.31v2.48c0,.27.02.43.05.51s.09.12.16.14.24.04.5.05v.14h-1.95v-.14c.25,0,.41-.05.48-.12s.11-.27.11-.57v-2.48h-.32c-.22,0-.38.01-.46.04s-.16.09-.23.2-.14.26-.19.48h-.18l.15-.97Z"/>
    <path class="cls-3" d="m58.27,62.58l1.1-.45h.15v.84c.19-.31.37-.54.56-.66s.38-.19.59-.19c.36,0,.66.14.9.42.29.34.44.79.44,1.34,0,.62-.18,1.13-.53,1.53-.29.33-.66.5-1.1.5-.19,0-.36-.03-.5-.08-.1-.04-.22-.12-.35-.23v1.09c0,.24.02.4.04.47s.08.12.16.16.21.06.4.06v.14h-1.88v-.14h.1c.14,0,.27-.02.37-.08.05-.03.09-.07.12-.14s.04-.23.04-.49v-3.38c0-.23-.01-.38-.03-.44s-.05-.11-.1-.14-.11-.05-.19-.05c-.06,0-.14.02-.24.05l-.05-.12Zm1.25.62v1.34c0,.29.01.48.04.57.04.15.13.28.27.4s.32.17.54.17c.26,0,.47-.1.63-.3.21-.27.32-.64.32-1.12,0-.55-.12-.97-.36-1.26-.17-.2-.36-.3-.59-.3-.12,0-.25.03-.37.09-.09.05-.25.19-.46.42Z"/>
    <path class="cls-3" d="m62.32,62.23h1.67v.14h-.08c-.12,0-.21.03-.26.08s-.09.11-.09.19c0,.1.04.24.13.42l.87,1.8.8-1.98c.04-.11.07-.21.07-.32,0-.05,0-.08-.03-.11-.02-.03-.05-.05-.1-.07s-.12-.03-.23-.03v-.14h1.16v.14c-.1.01-.17.03-.22.06s-.11.09-.17.18c-.02.04-.07.14-.13.3l-1.46,3.57c-.14.35-.32.61-.55.79s-.45.27-.66.27c-.15,0-.28-.04-.38-.13s-.15-.19-.15-.3.04-.2.11-.26.17-.1.29-.1c.09,0,.2.03.35.09.1.04.17.06.2.06.08,0,.16-.04.26-.12s.19-.24.28-.47l.25-.62-1.29-2.7c-.04-.08-.1-.18-.19-.3-.06-.09-.12-.15-.16-.18-.06-.04-.16-.08-.29-.11v-.14Z"/>
    <path class="cls-3" d="m70.12,65.81h-1.05c-.33-.48-.62-.96-.89-1.46-.06-.11-.12-.2-.17-.26s-.12-.08-.21-.08c-.03,0-.08,0-.15,0v.96c0,.26.02.42.04.49s.08.12.16.15.21.05.39.05v.14h-1.79v-.14c.23,0,.38-.04.45-.13s.1-.27.1-.57v-1.9c0-.28-.01-.44-.04-.49s-.07-.1-.13-.14-.18-.06-.37-.06v-.15h1.79v.15c-.22,0-.35.02-.4.05s-.1.07-.14.12-.06.22-.06.53v.7c.06,0,.1,0,.12,0,.16,0,.31-.04.45-.13s.26-.28.37-.57c.1-.28.19-.46.25-.56s.16-.18.28-.24.24-.09.37-.09c.14,0,.25.03.34.1s.12.16.12.27c0,.09-.03.17-.09.23s-.14.1-.25.1c-.06,0-.13-.02-.21-.05-.11-.04-.19-.06-.25-.06-.12,0-.22.1-.3.31-.09.24-.15.39-.2.46s-.12.16-.24.28c.08.02.17.08.26.18s.27.37.53.82c.21.36.36.59.46.69s.25.15.45.15v.14Z"/>
    <path class="cls-3" d="m74.26,65.66v1.14h-.14c0-.3-.11-.55-.3-.72s-.54-.27-1.04-.27h-2.44v-.14c.23,0,.38-.04.45-.13s.1-.27.1-.57v-1.9c0-.28-.01-.44-.04-.49s-.07-.1-.13-.14-.18-.06-.37-.06v-.15h1.73v.15c-.17,0-.29.02-.35.05s-.11.08-.14.13-.05.22-.05.51v2.02c0,.23.02.36.06.4s.17.06.39.06h.63c.24,0,.38-.02.41-.07s.05-.19.05-.43v-1.99c0-.25-.01-.41-.04-.48s-.08-.12-.15-.16-.19-.05-.35-.05v-.15h1.73v.15c-.17,0-.29.02-.35.05s-.11.08-.14.13-.05.22-.05.51v1.84c0,.34.03.54.09.62s.21.12.45.13Z"/>
    <path class="cls-3" d="m75.81,64.7l1.55-1.79c0-.2-.04-.34-.11-.42s-.19-.12-.36-.12v-.15h1.66v.15c-.17,0-.29.02-.35.05s-.11.08-.14.13-.05.22-.05.51v1.9c0,.28.01.44.04.49s.07.1.13.14.18.06.37.06v.14h-1.73v-.14c.22,0,.36-.04.43-.12s.11-.27.11-.58v-1.68l-1.55,1.79c0,.22.04.37.09.46s.18.13.37.13v.14h-1.65v-.14c.23,0,.38-.04.45-.13s.1-.27.1-.57v-1.9c0-.28-.01-.44-.04-.49s-.07-.1-.13-.14-.18-.06-.37-.06v-.15h1.73v.15c-.17,0-.29.02-.35.05s-.11.08-.14.13-.05.22-.05.51v1.64Z"/>
    <path class="cls-3" d="m80.09,64.7l1.55-1.79c0-.2-.04-.34-.11-.42s-.19-.12-.36-.12v-.15h1.66v.15c-.17,0-.29.02-.35.05s-.11.08-.14.13-.05.22-.05.51v1.9c0,.28.01.44.04.49s.07.1.13.14.18.06.37.06v.14h-1.73v-.14c.22,0,.36-.04.43-.12s.11-.27.11-.58v-1.68l-1.55,1.79c0,.22.04.37.09.46s.18.13.37.13v.14h-1.65v-.14c.23,0,.38-.04.45-.13s.1-.27.1-.57v-1.9c0-.28-.01-.44-.04-.49s-.07-.1-.13-.14-.18-.06-.37-.06v-.15h1.73v.15c-.17,0-.29.02-.35.05s-.11.08-.14.13-.05.22-.05.51v1.64Zm-.51-3.91c0-.09.03-.16.08-.22s.12-.08.19-.08c.17,0,.32.16.46.48.08.18.16.3.26.34s.19.07.29.07c.16,0,.29-.04.37-.11s.16-.2.23-.38c.11-.27.24-.41.4-.41.08,0,.14.03.2.08s.08.13.08.21c0,.2-.13.39-.39.56s-.56.26-.89.26c-.43,0-.75-.08-.96-.23s-.32-.35-.32-.57Z"/>
    <path class="cls-3" d="m84.37,63.82h1.55v-.76c0-.23,0-.37-.03-.44s-.06-.13-.13-.18-.2-.07-.38-.07v-.15h1.73v.15c-.16,0-.28.02-.35.05s-.12.09-.15.16-.04.23-.04.48v1.9c0,.23,0,.38.03.45s.07.13.14.18.2.07.37.07v.14h-1.73v-.14c.22,0,.36-.04.43-.12s.11-.27.11-.58v-.89h-1.55v.89c0,.23,0,.38.03.45s.07.13.14.18.2.07.37.07v.14h-1.73v-.14c.23,0,.38-.04.45-.13s.1-.27.1-.57v-1.9c0-.23,0-.38-.03-.45s-.07-.13-.14-.18-.2-.07-.37-.07v-.15h1.73v.15c-.16,0-.28.02-.35.05s-.12.09-.15.16-.04.23-.04.48v.76Z"/>
    <path class="cls-3" d="m52.91,74.05c-.1.47-.29.83-.57,1.09s-.59.38-.93.38c-.41,0-.76-.17-1.06-.51s-.45-.8-.45-1.38.17-1.02.5-1.37.74-.53,1.21-.53c.35,0,.64.09.87.28s.34.38.34.58c0,.1-.03.18-.1.24s-.15.09-.27.09c-.15,0-.27-.05-.35-.15-.04-.05-.07-.16-.09-.31s-.07-.27-.16-.35c-.09-.08-.22-.12-.38-.12-.26,0-.47.1-.63.29-.21.26-.32.59-.32,1.01s.1.8.31,1.13.49.49.85.49c.26,0,.48-.09.69-.26.14-.12.28-.34.42-.65l.11.05Z"/>
    <path class="cls-3" d="m55.45,74.89c-.37.28-.6.45-.69.49-.14.06-.29.1-.45.1-.25,0-.45-.08-.61-.25s-.24-.39-.24-.67c0-.17.04-.33.12-.45.11-.18.29-.34.56-.5s.7-.35,1.32-.57v-.14c0-.36-.06-.6-.17-.73s-.28-.2-.49-.2c-.16,0-.29.04-.39.13-.1.09-.15.19-.15.3v.23c0,.12-.02.21-.08.28s-.14.1-.24.1-.18-.03-.24-.1-.09-.16-.09-.28c0-.22.11-.43.34-.62s.55-.28.96-.28c.32,0,.58.05.78.16.15.08.27.21.34.38.05.11.07.34.07.69v1.21c0,.34,0,.55.02.63s.03.13.06.15.06.04.1.04c.04,0,.08,0,.11-.03.05-.03.16-.13.32-.29v.22c-.29.39-.57.59-.84.59-.13,0-.23-.04-.3-.13s-.11-.24-.12-.45Zm0-.25v-1.36c-.39.16-.65.27-.76.33-.21.11-.35.23-.44.36s-.13.26-.13.41c0,.19.06.34.17.47s.24.19.39.19c.2,0,.46-.13.78-.39Z"/>
    <path class="cls-3" d="m58.09,73.42h1.55v-.76c0-.23,0-.37-.03-.44s-.06-.13-.13-.18-.2-.07-.38-.07v-.15h1.73v.15c-.16,0-.28.02-.35.05s-.12.09-.15.16-.04.23-.04.48v1.9c0,.23,0,.38.03.45s.07.13.14.18.2.07.37.07v.14h-1.73v-.14c.22,0,.36-.04.43-.12s.11-.27.11-.58v-.89h-1.55v.89c0,.23,0,.38.03.45s.07.13.14.18.2.07.37.07v.14h-1.73v-.14c.23,0,.38-.04.45-.13s.1-.27.1-.57v-1.9c0-.23,0-.38-.03-.45s-.07-.13-.14-.18-.2-.07-.37-.07v-.15h1.73v.15c-.16,0-.28.02-.35.05s-.12.09-.15.16-.04.23-.04.48v.76Z"/>
    <path class="cls-3" d="m63.28,74.89c-.37.28-.6.45-.69.49-.14.06-.29.1-.45.1-.25,0-.45-.08-.61-.25s-.24-.39-.24-.67c0-.17.04-.33.12-.45.11-.18.29-.34.56-.5s.7-.35,1.32-.57v-.14c0-.36-.06-.6-.17-.73s-.28-.2-.49-.2c-.16,0-.29.04-.39.13-.1.09-.15.19-.15.3v.23c0,.12-.02.21-.08.28s-.14.1-.24.1-.18-.03-.24-.1-.09-.16-.09-.28c0-.22.11-.43.34-.62s.55-.28.96-.28c.32,0,.58.05.78.16.15.08.27.21.34.38.05.11.07.34.07.69v1.21c0,.34,0,.55.02.63s.03.13.06.15.06.04.1.04c.04,0,.08,0,.11-.03.05-.03.16-.13.32-.29v.22c-.29.39-.57.59-.84.59-.13,0-.23-.04-.3-.13s-.11-.24-.12-.45Zm0-.25v-1.36c-.39.16-.65.27-.76.33-.21.11-.35.23-.44.36s-.13.26-.13.41c0,.19.06.34.17.47s.24.19.39.19c.2,0,.46-.13.78-.39Z"/>
    <path class="cls-3" d="m64.66,71.83h1.68v.14c-.11,0-.18.02-.22.05s-.06.08-.06.14.05.16.14.29c.03.04.07.11.13.2l.25.41.29-.41c.19-.26.28-.42.28-.49,0-.05-.02-.1-.07-.14s-.12-.06-.21-.06v-.14h1.21v.14c-.13,0-.24.04-.33.11-.13.09-.3.28-.52.58l-.49.65.89,1.28c.22.31.38.5.47.57s.21.1.36.11v.14h-1.69v-.14c.12,0,.21-.03.27-.08.05-.04.07-.08.07-.14s-.08-.21-.25-.45l-.52-.77-.57.77c-.18.24-.27.38-.27.42,0,.06.03.12.09.17s.15.08.26.08v.14h-1.17v-.14c.09-.01.18-.05.25-.1.1-.08.27-.27.5-.58l.75-1-.68-.98c-.19-.28-.34-.46-.45-.53s-.24-.11-.4-.11v-.14Z"/>
    <path class="cls-3" d="m72.55,71.72c.54,0,.98.21,1.3.62.28.35.42.76.42,1.21,0,.32-.08.64-.23.97s-.37.58-.63.74-.57.25-.9.25c-.54,0-.97-.21-1.29-.64-.27-.36-.4-.77-.4-1.22,0-.33.08-.65.24-.98s.38-.56.64-.72.55-.23.84-.23Zm-.12.25c-.14,0-.28.04-.42.12s-.25.23-.34.43-.13.47-.13.79c0,.52.1.97.31,1.35s.48.57.82.57c.25,0,.46-.1.62-.31s.25-.57.25-1.07c0-.64-.14-1.14-.41-1.5-.19-.25-.42-.38-.71-.38Z"/>
    <path class="cls-3" d="m75.92,74.3l1.55-1.79c0-.2-.04-.34-.11-.42s-.19-.12-.36-.12v-.15h1.66v.15c-.17,0-.29.02-.35.05s-.11.08-.14.13-.05.22-.05.51v1.9c0,.28.01.44.04.49s.07.1.13.14.18.06.37.06v.14h-1.73v-.14c.22,0,.36-.04.43-.12s.11-.27.11-.58v-1.68l-1.55,1.79c0,.22.04.37.09.46s.18.13.37.13v.14h-1.65v-.14c.23,0,.38-.04.45-.13s.1-.27.1-.57v-1.9c0-.28-.01-.44-.04-.49s-.07-.1-.13-.14-.18-.06-.37-.06v-.15h1.73v.15c-.17,0-.29.02-.35.05s-.11.08-.14.13-.05.22-.05.51v1.64Zm-.51-3.91c0-.09.03-.16.08-.22s.12-.08.19-.08c.17,0,.32.16.46.48.08.18.16.3.26.34s.19.07.29.07c.16,0,.29-.04.37-.11s.16-.2.23-.38c.11-.27.24-.41.4-.41.08,0,.14.03.2.08s.08.13.08.21c0,.2-.13.39-.39.56s-.56.26-.89.26c-.43,0-.75-.08-.96-.23s-.32-.35-.32-.57Z"/>
  </g>
  <g>
    <path class="cls-3" d="m257.94,24.21h2.46v-1.52c0-.27-.02-.45-.05-.54-.03-.06-.08-.12-.16-.17-.11-.06-.23-.09-.36-.09h-.19v-.14h2.27v.14h-.19c-.12,0-.24.03-.36.09-.08.04-.14.1-.17.19s-.04.26-.04.52v3.42c0,.27.02.45.05.53.03.06.08.12.16.17.11.06.23.09.36.09h.19v.14h-2.27v-.14h.19c.22,0,.37-.06.47-.19.07-.08.1-.28.1-.6v-1.61h-2.46v1.61c0,.27.02.45.05.53.03.06.08.12.16.17.11.06.23.09.36.09h.19v.14h-2.27v-.14h.19c.22,0,.38-.06.48-.19.06-.08.09-.28.09-.6v-3.42c0-.27-.02-.45-.05-.54-.03-.06-.08-.12-.16-.17-.11-.06-.23-.09-.36-.09h-.19v-.14h2.27v.14h-.19c-.12,0-.24.03-.36.09-.08.04-.14.1-.17.19s-.05.26-.05.52v1.52Z"/>
    <path class="cls-3" d="m262.42,23.47h.15c.05.05.11.07.16.07.04,0,.14-.02.28-.07.24-.08.44-.11.61-.11.41,0,.78.17,1.11.51s.5.79.5,1.33-.16.99-.48,1.37-.74.57-1.25.57-.96-.26-1.32-.79l.13-.08c.29.42.66.63,1.11.63.31,0,.56-.11.77-.34s.31-.6.31-1.12v-.19h-1.19v-.25h1.16c-.05-.43-.16-.77-.34-1.02s-.4-.38-.66-.38c-.25,0-.45.09-.61.28s-.26.41-.29.69h-.15v-1.11Z"/>
    <path class="cls-3" d="m268.07,26.12l1.12-2.64h1.21v.15c-.18,0-.29.02-.35.05s-.1.08-.14.13-.05.22-.05.51v1.9c0,.25.01.41.04.48s.08.13.15.16.19.05.35.05v.14h-1.73v-.14c.21,0,.36-.04.43-.12s.11-.27.11-.58v-2.15l-1.27,2.99h-.14l-1.29-2.99v2.15c0,.25.01.41.04.48s.08.13.15.16.19.05.35.05v.14h-1.37v-.14c.23,0,.38-.04.45-.13s.1-.27.1-.57v-1.9c0-.28-.01-.44-.04-.49s-.07-.1-.13-.14-.18-.06-.37-.06v-.15h1.26l1.12,2.64Z"/>
    <path class="cls-3" d="m270.92,23.47h.15c.05.05.11.07.16.07.04,0,.14-.02.28-.07.24-.08.44-.11.61-.11.41,0,.78.17,1.11.51s.5.79.5,1.33-.16.99-.48,1.37-.74.57-1.25.57-.96-.26-1.32-.79l.13-.08c.29.42.66.63,1.11.63.31,0,.56-.11.77-.34s.31-.6.31-1.12v-.19h-1.19v-.25h1.16c-.05-.43-.16-.77-.34-1.02s-.4-.38-.66-.38c-.25,0-.45.09-.61.28s-.26.41-.29.69h-.15v-1.11Z"/>
    <path class="cls-3" d="m277.09,23.47l.14.98h-.17c-.1-.32-.2-.52-.3-.6s-.31-.12-.63-.12h-.76v2.48c0,.28.01.44.04.49s.07.1.13.14.18.06.37.06v.14h-1.79v-.14c.25,0,.42-.04.49-.12s.11-.27.11-.58v-1.9c0-.25-.01-.41-.04-.49s-.08-.12-.15-.15-.21-.05-.41-.05v-.15h2.96Z"/>
    <path class="cls-3" d="m279.94,25.08v-.77c0-.25-.01-.41-.04-.48s-.08-.12-.15-.16-.19-.05-.35-.05v-.15h1.73v.15c-.18,0-.29.02-.35.05s-.1.08-.14.13-.05.22-.05.51v1.9c0,.25.01.41.04.48s.08.13.15.16.19.05.35.05v.14h-1.82v-.14c.21,0,.34-.02.41-.04s.12-.07.16-.15.06-.25.06-.5v-.88c-.38.2-.79.29-1.21.29-.23,0-.41-.03-.54-.09s-.21-.13-.24-.2-.05-.2-.05-.37v-.65c0-.23-.01-.38-.03-.46s-.07-.13-.14-.17-.18-.06-.32-.06v-.15h1.68v.15c-.17,0-.29.02-.35.05s-.11.08-.14.13-.05.22-.05.51v.44c0,.17.01.29.04.35s.08.11.17.15.22.06.38.06c.28,0,.55-.08.81-.23Z"/>
  </g>
  <line class="cls-1" y1="15.38" x2="20.46" y2="15.38"/>
  <path class="cls-3" d="m21.94,14.74c-1.03-.31-1.71-.6-2.53-.93v3.15c.3-.14,1.5-.62,2.53-.93,1.11-.33,2.11-.56,2.76-.64-.65-.08-1.65-.31-2.76-.64"/>
  <line class="cls-1" x1="106.24" y1="40.85" x2="126.7" y2="40.85"/>
  <path class="cls-3" d="m128.18,40.21c-1.03-.31-1.71-.6-2.53-.93v3.15c.3-.14,1.5-.62,2.53-.93,1.11-.33,2.11-.56,2.76-.64-.65-.08-1.65-.31-2.76-.64"/>
  <line class="cls-1" x1="146.61" y1="40.85" x2="167.06" y2="40.85"/>
  <path class="cls-3" d="m168.54,40.21c-1.03-.31-1.71-.6-2.53-.93v3.15c.3-.14,1.5-.62,2.53-.93,1.11-.33,2.11-.56,2.76-.64-.65-.08-1.65-.31-2.76-.64"/>
  <line class="cls-1" x1="188.79" y1="40.85" x2="209.25" y2="40.85"/>
  <path class="cls-3" d="m210.72,40.21c-1.03-.31-1.71-.6-2.53-.93v3.15c.3-.14,1.5-.62,2.53-.93,1.11-.33,2.11-.56,2.76-.64-.65-.08-1.65-.31-2.76-.64"/>
  <line class="cls-1" x1="224.34" y1="17.47" x2="244.8" y2="17.47"/>
  <path class="cls-3" d="m246.27,16.83c-1.03-.31-1.71-.6-2.53-.93v3.15c.3-.14,1.5-.62,2.53-.93,1.11-.33,2.11-.56,2.76-.64-.65-.08-1.65-.31-2.76-.64"/>
  <line class="cls-1" x1="224.34" y1="62.73" x2="244.8" y2="62.73"/>
  <path class="cls-3" d="m246.27,62.09c-1.03-.31-1.71-.6-2.53-.93v3.15c.3-.14,1.5-.62,2.53-.93,1.11-.33,2.11-.56,2.76-.64-.65-.08-1.65-.31-2.76-.64"/>
  <line class="cls-1" x1="298.03" y1="39.79" x2="318.49" y2="39.79"/>
  <path class="cls-3" d="m319.97,39.15c-1.03-.31-1.71-.6-2.53-.93v3.15c.3-.14,1.5-.62,2.53-.93,1.11-.33,2.11-.56,2.76-.64-.65-.08-1.65-.31-2.76-.65"/>
  <g>
    <path class="cls-3" d="m267.35,38.69h2.46v-1.52c0-.27-.02-.45-.05-.54-.03-.06-.08-.12-.16-.17-.11-.06-.23-.09-.36-.09h-.19v-.14h2.27v.14h-.19c-.12,0-.24.03-.36.09-.08.04-.14.1-.17.19s-.04.26-.04.52v3.42c0,.27.02.45.05.53.03.06.08.12.16.17.11.06.23.09.36.09h.19v.14h-2.27v-.14h.19c.22,0,.37-.06.47-.19.07-.08.1-.28.1-.6v-1.61h-2.46v1.61c0,.27.02.45.05.53.03.06.08.12.16.17.11.06.23.09.36.09h.19v.14h-2.27v-.14h.19c.22,0,.38-.06.48-.19.06-.08.09-.28.09-.6v-3.42c0-.27-.02-.45-.05-.54-.03-.06-.08-.12-.16-.17-.11-.06-.23-.09-.36-.09h-.19v-.14h2.27v.14h-.19c-.12,0-.24.03-.36.09-.08.04-.14.1-.17.19s-.05.26-.05.52v1.52Z"/>
    <path class="cls-3" d="m272.85,40.43l1.55-1.79c0-.2-.04-.34-.11-.42s-.19-.12-.36-.12v-.15h1.66v.15c-.17,0-.29.02-.35.05s-.11.08-.14.13-.05.22-.05.51v1.9c0,.28.01.44.04.49s.07.1.13.14.18.06.37.06v.14h-1.73v-.14c.22,0,.36-.04.43-.12s.11-.27.11-.58v-1.68l-1.55,1.79c0,.22.04.37.09.46s.18.13.37.13v.14h-1.65v-.14c.23,0,.38-.04.45-.13s.1-.27.1-.57v-1.9c0-.28-.01-.44-.04-.49s-.07-.1-.13-.14-.18-.06-.37-.06v-.15h1.73v.15c-.17,0-.29.02-.35.05s-.11.08-.14.13-.05.22-.05.51v1.64Z"/>
    <path class="cls-3" d="m277.13,40.43l1.55-1.79c0-.2-.04-.34-.11-.42s-.19-.12-.36-.12v-.15h1.66v.15c-.17,0-.29.02-.35.05s-.11.08-.14.13-.05.22-.05.51v1.9c0,.28.01.44.04.49s.07.1.13.14.18.06.37.06v.14h-1.73v-.14c.22,0,.36-.04.43-.12s.11-.27.11-.58v-1.68l-1.55,1.79c0,.22.04.37.09.46s.18.13.37.13v.14h-1.65v-.14c.23,0,.38-.04.45-.13s.1-.27.1-.57v-1.9c0-.28-.01-.44-.04-.49s-.07-.1-.13-.14-.18-.06-.37-.06v-.15h1.73v.15c-.17,0-.29.02-.35.05s-.11.08-.14.13-.05.22-.05.51v1.64Zm-.51-3.91c0-.09.03-.16.08-.22s.12-.08.19-.08c.17,0,.32.16.46.48.08.18.16.3.26.34s.19.07.29.07c.16,0,.29-.04.37-.11s.16-.2.23-.38c.11-.27.24-.41.4-.41.08,0,.14.03.2.08s.08.13.08.21c0,.2-.13.39-.39.56s-.56.26-.89.26c-.43,0-.75-.08-.96-.23s-.32-.35-.32-.57Z"/>
    <path class="cls-3" d="m280.66,37.95h3.2v.15c-.18,0-.29.02-.35.05s-.1.08-.14.13-.05.22-.05.51v1.9c0,.28.01.44.04.49s.07.1.13.14.18.06.37.06v.14h-1.85v-.14c.2,0,.34-.01.42-.03s.14-.07.18-.15.07-.25.07-.51v-2.48h-1.19v1.51c0,.57-.03.97-.08,1.2s-.15.4-.3.51-.32.17-.51.17c-.33,0-.5-.14-.5-.41,0-.09.03-.17.08-.23s.12-.09.21-.09c.09,0,.18.04.25.11.1.1.18.15.23.15.12,0,.2-.1.26-.29s.08-.54.08-1.03v-.79c0-.41-.03-.65-.09-.74s-.21-.14-.45-.16v-.15Z"/>
    <path class="cls-3" d="m284.62,38.98c.3-.75.8-1.13,1.52-1.13.5,0,.9.19,1.22.56s.47.8.47,1.28-.16.94-.48,1.35-.75.61-1.3.61-.98-.23-1.27-.69-.44-1.03-.44-1.69c0-.52.08-1,.23-1.44s.31-.78.48-1,.36-.38.58-.48.61-.15,1.16-.16c.4,0,.64-.02.72-.04s.16-.07.24-.16h.15c-.09.26-.19.44-.31.55s-.25.18-.39.22-.39.06-.75.07c-.39.01-.66.04-.81.09s-.31.17-.47.35-.29.43-.38.73-.14.63-.16.99Zm1.38-.86c-.26,0-.47.11-.64.32s-.25.56-.25,1.02c0,.63.11,1.1.34,1.43s.48.48.78.48c.27,0,.48-.11.64-.34s.23-.59.23-1.08c0-.53-.1-.96-.3-1.31s-.47-.52-.79-.52Z"/>
    <path class="cls-3" d="m288.46,37.95h.15c.05.05.11.07.16.07.04,0,.14-.02.28-.07.24-.08.44-.11.61-.11.41,0,.78.17,1.11.51s.5.79.5,1.33-.16.99-.48,1.37-.74.57-1.25.57-.96-.26-1.32-.79l.13-.08c.29.42.66.63,1.11.63.31,0,.56-.11.77-.34s.31-.6.31-1.12v-.19h-1.19v-.25h1.16c-.05-.43-.16-.77-.34-1.02s-.4-.38-.66-.38c-.25,0-.45.09-.61.28s-.26.41-.29.69h-.15v-1.11Z"/>
    <path class="cls-3" d="m291.53,38.31l1.1-.45h.15v.84c.18-.31.37-.54.56-.66s.38-.19.59-.19c.36,0,.66.14.9.42.29.34.44.79.44,1.34,0,.62-.18,1.13-.53,1.53-.29.33-.66.5-1.1.5-.19,0-.36-.03-.5-.08-.1-.04-.22-.12-.35-.23v1.09c0,.24.01.4.04.47s.08.12.16.16.21.06.4.06v.14h-1.88v-.14h.1c.14,0,.27-.02.37-.08.05-.03.09-.07.12-.14s.04-.23.04-.49v-3.38c0-.23-.01-.38-.03-.44s-.05-.11-.1-.14-.11-.05-.19-.05c-.06,0-.14.02-.24.05l-.05-.12Zm1.25.62v1.34c0,.29.01.48.04.57.04.15.13.28.27.4s.32.17.54.17c.26,0,.47-.1.63-.3.21-.27.32-.64.32-1.12,0-.55-.12-.97-.36-1.26-.17-.2-.36-.3-.59-.3-.12,0-.25.03-.37.09-.09.05-.25.19-.46.42Z"/>
  </g>
</svg>