<?xml version="1.0" encoding="UTF-8"?>
<svg id="Layer_1" data-name="Layer 1" xmlns="http://www.w3.org/2000/svg" viewBox="0 0 336.63 118.82">
  <defs>
    <style>
      .cls-1, .cls-2, .cls-3, .cls-4, .cls-5 {
        fill: none;
      }

      .cls-1, .cls-3, .cls-4 {
        stroke-width: .5px;
      }

      .cls-1, .cls-5 {
        stroke: #231f20;
      }

      .cls-6 {
        fill: #fff;
      }

      .cls-2, .cls-3 {
        stroke: #00aeef;
      }

      .cls-2, .cls-5 {
        stroke-width: .75px;
      }

      .cls-7 {
        fill: #939598;
      }

      .cls-8 {
        fill: #00aeef;
      }

      .cls-4 {
        stroke: #939598;
      }

      .cls-9 {
        fill: #231f20;
      }
    </style>
  </defs>
  <polygon class="cls-6" points="265.26 16.52 265.26 42.21 272.74 51.68 265.26 61.15 265.26 88.1 315.64 68.36 315.64 34.64 265.26 16.52"/>
  <polygon class="cls-1" points="265.26 16.52 265.26 42.21 272.74 51.68 265.26 61.15 265.26 88.1 315.64 68.36 315.64 34.64 265.26 16.52"/>
  <rect class="cls-6" x="70.24" y=".25" width="105.64" height="104.14"/>
  <rect class="cls-1" x="70.24" y=".25" width="105.64" height="104.14"/>
  <g>
    <path class="cls-9" d="m78.79,4.13h2.15v.14c-.38.02-.57.12-.57.3,0,.13.14.44.42.93l1.16,2.03.84-2.03c.18-.43.27-.71.27-.86,0-.2-.16-.33-.49-.38v-.14h1.66v.14c-.39.05-.69.31-.89.8l-1.01,2.41c-.26.62-.48,1.06-.64,1.32s-.34.45-.54.57-.4.18-.6.18c-.18,0-.33-.04-.46-.12s-.19-.18-.19-.31c0-.1.03-.18.1-.24s.15-.1.27-.1.24.04.39.13c.1.05.18.08.23.08.21,0,.44-.21.69-.64l-1.92-3.38c-.14-.24-.26-.4-.38-.5s-.28-.17-.48-.2v-.14Z"/>
    <path class="cls-9" d="m85.72,7.45h1.55v-.76c0-.23,0-.37-.03-.44s-.06-.13-.13-.18-.2-.07-.38-.07v-.15h1.73v.15c-.16,0-.28.02-.35.05s-.12.09-.15.16-.04.23-.04.48v1.9c0,.23,0,.38.03.45s.07.13.14.18.2.07.37.07v.14h-1.73v-.14c.22,0,.36-.04.43-.12s.11-.27.11-.58v-.89h-1.55v.89c0,.23,0,.38.03.45s.07.13.14.18.2.07.37.07v.14h-1.73v-.14c.23,0,.38-.04.45-.13s.1-.27.1-.57v-1.9c0-.23,0-.38-.03-.45s-.07-.13-.14-.18-.2-.07-.37-.07v-.15h1.73v.15c-.16,0-.28.02-.35.05s-.12.09-.15.16-.04.23-.04.48v.76Z"/>
    <path class="cls-9" d="m94.61,9.29v.14h-5.8v-.14c.22,0,.36-.04.43-.12s.11-.27.11-.58v-1.9c0-.28-.01-.44-.04-.49s-.07-.1-.13-.14-.18-.06-.37-.06v-.15h1.73v.15c-.17,0-.29.02-.35.05s-.11.08-.14.13-.05.22-.05.51v1.97c0,.25.02.39.07.44s.19.07.45.07h.42c.17,0,.28,0,.33-.03s.09-.05.1-.1.03-.2.03-.46v-1.89c0-.28-.01-.44-.04-.49s-.07-.1-.13-.14-.18-.06-.37-.06v-.15h1.66v.15c-.14,0-.24.03-.31.07s-.11.1-.13.17-.03.22-.03.45v2.02c0,.22.02.36.07.4s.18.06.41.06h.47c.25,0,.39-.03.41-.08s.04-.22.04-.49v-1.92c0-.28-.01-.44-.04-.49s-.07-.1-.13-.14-.18-.06-.37-.06v-.15h1.73v.15c-.18,0-.29.02-.35.05s-.1.08-.14.13-.05.22-.05.51v1.69c0,.35,0,.56.03.65s.06.15.13.19.2.06.38.07Z"/>
    <path class="cls-9" d="m96.16,8.33l1.55-1.79c0-.2-.04-.34-.11-.42s-.19-.12-.36-.12v-.15h1.66v.15c-.17,0-.29.02-.35.05s-.11.08-.14.13-.05.22-.05.51v1.9c0,.28.01.44.04.49s.07.1.13.14.18.06.37.06v.14h-1.73v-.14c.22,0,.36-.04.43-.12s.11-.27.11-.58v-1.68l-1.55,1.79c0,.22.04.37.09.46s.18.13.37.13v.14h-1.65v-.14c.23,0,.38-.04.45-.13s.1-.27.1-.57v-1.9c0-.28-.01-.44-.04-.49s-.07-.1-.13-.14-.18-.06-.37-.06v-.15h1.73v.15c-.17,0-.29.02-.35.05s-.11.08-.14.13-.05.22-.05.51v1.64Z"/>
    <path class="cls-9" d="m99.18,5.85h1.68v.14c-.11,0-.18.02-.22.05s-.06.08-.06.14.05.16.14.29c.03.04.07.11.13.2l.25.41.29-.41c.19-.26.28-.42.28-.49,0-.05-.02-.1-.07-.14s-.12-.06-.21-.06v-.14h1.21v.14c-.13,0-.24.04-.33.11-.13.09-.3.28-.52.58l-.49.65.89,1.28c.22.31.38.5.47.57s.21.1.36.11v.14h-1.69v-.14c.12,0,.21-.03.27-.08.05-.04.07-.08.07-.14s-.08-.21-.25-.45l-.52-.77-.57.77c-.18.24-.27.38-.27.42,0,.06.03.12.09.17s.15.08.26.08v.14h-1.17v-.14c.09-.01.18-.05.25-.1.1-.08.27-.27.5-.58l.75-1-.68-.98c-.19-.28-.34-.46-.45-.53s-.24-.11-.4-.11v-.14Z"/>
    <path class="cls-9" d="m74.79,15.81l1.1-.45h.15v.84c.19-.31.37-.54.56-.66s.38-.19.59-.19c.36,0,.66.14.9.42.29.34.44.79.44,1.34,0,.62-.18,1.13-.53,1.53-.29.33-.66.5-1.1.5-.19,0-.36-.03-.5-.08-.1-.04-.22-.12-.35-.23v1.09c0,.24.02.4.04.47s.08.12.16.16.21.06.4.06v.14h-1.88v-.14h.1c.14,0,.27-.02.37-.08.05-.03.09-.07.12-.14s.04-.23.04-.49v-3.38c0-.23-.01-.38-.03-.44s-.05-.11-.1-.14-.11-.05-.19-.05c-.06,0-.14.02-.24.05l-.05-.12Zm1.25.62v1.34c0,.29.01.48.04.57.04.15.13.28.27.4s.32.17.54.17c.26,0,.47-.1.63-.3.21-.27.32-.64.32-1.12,0-.55-.12-.97-.36-1.26-.17-.2-.36-.3-.59-.3-.12,0-.25.03-.37.09-.09.05-.25.19-.46.42Z"/>
    <path class="cls-9" d="m79.65,16.8c0,.53.13.95.39,1.25s.57.45.92.45c.23,0,.44-.06.61-.19s.32-.35.44-.66l.12.08c-.05.36-.21.68-.48.97s-.59.44-.99.44c-.43,0-.8-.17-1.1-.5s-.46-.78-.46-1.35c0-.61.16-1.09.47-1.43s.71-.51,1.18-.51c.4,0,.73.13.99.4s.39.62.39,1.06h-2.47Zm0-.23h1.66c-.01-.23-.04-.39-.08-.48-.06-.15-.16-.26-.29-.34s-.26-.12-.4-.12c-.22,0-.41.08-.58.25s-.27.4-.3.7Z"/>
    <path class="cls-9" d="m85.43,15.45l.14.98h-.17c-.1-.32-.2-.52-.3-.6s-.31-.12-.63-.12h-.76v2.48c0,.28.01.44.04.49s.07.1.13.14.18.06.37.06v.14h-1.79v-.14c.26,0,.42-.04.49-.12s.11-.27.11-.58v-1.9c0-.25-.01-.41-.04-.49s-.08-.12-.15-.15-.21-.05-.41-.05v-.15h2.96Z"/>
    <path class="cls-9" d="m87,17.93l1.55-1.79c0-.2-.04-.34-.11-.42s-.19-.12-.36-.12v-.15h1.66v.15c-.17,0-.29.02-.35.05s-.11.08-.14.13-.05.22-.05.51v1.9c0,.28.01.44.04.49s.07.1.13.14.18.06.37.06v.14h-1.73v-.14c.22,0,.36-.04.43-.12s.11-.27.11-.58v-1.68l-1.55,1.79c0,.22.04.37.09.46s.18.13.37.13v.14h-1.65v-.14c.23,0,.38-.04.45-.13s.1-.27.1-.57v-1.9c0-.28-.01-.44-.04-.49s-.07-.1-.13-.14-.18-.06-.37-.06v-.15h1.73v.15c-.17,0-.29.02-.35.05s-.11.08-.14.13-.05.22-.05.51v1.64Z"/>
    <path class="cls-9" d="m93.2,17.67c-.1.47-.29.83-.57,1.09s-.59.38-.93.38c-.41,0-.76-.17-1.06-.51s-.45-.8-.45-1.38.17-1.02.5-1.37.74-.53,1.21-.53c.35,0,.64.09.87.28s.34.38.34.58c0,.1-.03.18-.1.24s-.15.09-.27.09c-.15,0-.27-.05-.35-.15-.04-.05-.07-.16-.09-.31s-.07-.27-.16-.35c-.09-.08-.22-.12-.38-.12-.26,0-.47.1-.63.29-.21.26-.32.59-.32,1.01s.1.8.31,1.13.49.49.85.49c.26,0,.48-.09.69-.26.14-.12.28-.34.42-.65l.11.05Z"/>
    <path class="cls-9" d="m93.66,15.45h3.09l.16.97h-.18c-.03-.2-.08-.35-.16-.45s-.16-.18-.25-.21-.25-.05-.48-.05h-.31v2.48c0,.27.02.43.05.51s.09.12.16.14.24.04.5.05v.14h-1.95v-.14c.25,0,.41-.05.48-.12s.11-.27.11-.57v-2.48h-.32c-.22,0-.38.01-.46.04s-.16.09-.23.2-.14.26-.19.48h-.18l.15-.97Z"/>
    <path class="cls-9" d="m96.95,15.81l1.1-.45h.15v.84c.19-.31.37-.54.56-.66s.38-.19.59-.19c.36,0,.66.14.9.42.29.34.44.79.44,1.34,0,.62-.18,1.13-.53,1.53-.29.33-.66.5-1.1.5-.19,0-.36-.03-.5-.08-.1-.04-.22-.12-.35-.23v1.09c0,.24.02.4.04.47s.08.12.16.16.21.06.4.06v.14h-1.88v-.14h.1c.14,0,.27-.02.37-.08.05-.03.09-.07.12-.14s.04-.23.04-.49v-3.38c0-.23-.01-.38-.03-.44s-.05-.11-.1-.14-.11-.05-.19-.05c-.06,0-.14.02-.24.05l-.05-.12Zm1.25.62v1.34c0,.29.01.48.04.57.04.15.13.28.27.4s.32.17.54.17c.26,0,.47-.1.63-.3.21-.27.32-.64.32-1.12,0-.55-.12-.97-.36-1.26-.17-.2-.36-.3-.59-.3-.12,0-.25.03-.37.09-.09.05-.25.19-.46.42Z"/>
    <path class="cls-9" d="m103.9,14.25l1.29-.63h.13v4.47c0,.3.01.48.04.55s.08.13.15.17.24.06.48.07v.14h-1.99v-.14c.25,0,.41-.03.48-.06s.12-.09.15-.15.04-.25.04-.57v-2.86c0-.39-.01-.63-.04-.74-.02-.08-.05-.14-.1-.18s-.11-.06-.17-.06c-.1,0-.23.04-.4.12l-.06-.12Z"/>
  </g>
  <g>
    <path class="cls-9" d="m143.83,17.91h2.15v.14c-.38.02-.57.12-.57.3,0,.13.14.44.42.93l1.16,2.03.84-2.03c.18-.43.27-.71.27-.86,0-.2-.16-.33-.49-.38v-.14h1.66v.14c-.39.05-.69.31-.89.8l-1.01,2.41c-.26.62-.48,1.06-.64,1.32s-.34.45-.54.57-.4.18-.6.18c-.18,0-.33-.04-.46-.12s-.19-.18-.19-.31c0-.1.03-.18.1-.24s.15-.1.27-.1.24.04.39.13c.1.05.18.08.23.08.21,0,.44-.21.69-.64l-1.92-3.38c-.14-.24-.26-.4-.38-.5s-.28-.17-.48-.2v-.14Z"/>
    <path class="cls-9" d="m150.76,21.23h1.55v-.76c0-.23,0-.37-.03-.44s-.06-.13-.13-.18-.2-.07-.38-.07v-.15h1.73v.15c-.16,0-.28.02-.35.05s-.12.09-.15.16-.04.23-.04.48v1.9c0,.23,0,.38.03.45s.07.13.14.18.2.07.37.07v.14h-1.73v-.14c.22,0,.36-.04.43-.12s.11-.27.11-.58v-.89h-1.55v.89c0,.23,0,.38.03.45s.07.13.14.18.2.07.37.07v.14h-1.73v-.14c.23,0,.38-.04.45-.13s.1-.27.1-.57v-1.9c0-.23,0-.38-.03-.45s-.07-.13-.14-.18-.2-.07-.37-.07v-.15h1.73v.15c-.16,0-.28.02-.35.05s-.12.09-.15.16-.04.23-.04.48v.76Z"/>
    <path class="cls-9" d="m159.65,23.07v.14h-5.8v-.14c.22,0,.36-.04.43-.12s.11-.27.11-.58v-1.9c0-.28-.01-.44-.04-.49s-.07-.1-.13-.14-.18-.06-.37-.06v-.15h1.73v.15c-.17,0-.29.02-.35.05s-.11.08-.14.13-.05.22-.05.51v1.97c0,.25.02.39.07.44s.19.07.45.07h.42c.17,0,.28,0,.33-.03s.09-.05.1-.1.03-.2.03-.46v-1.89c0-.28-.01-.44-.04-.49s-.07-.1-.13-.14-.18-.06-.37-.06v-.15h1.66v.15c-.14,0-.24.03-.31.07s-.11.1-.13.17-.03.22-.03.45v2.02c0,.22.02.36.07.4s.18.06.41.06h.47c.25,0,.39-.03.41-.08s.04-.22.04-.49v-1.92c0-.28-.01-.44-.04-.49s-.07-.1-.13-.14-.18-.06-.37-.06v-.15h1.73v.15c-.18,0-.29.02-.35.05s-.1.08-.14.13-.05.22-.05.51v1.69c0,.35,0,.56.03.65s.06.15.13.19.2.06.38.07Z"/>
    <path class="cls-9" d="m161.2,22.11l1.55-1.79c0-.2-.04-.34-.11-.42s-.19-.12-.36-.12v-.15h1.66v.15c-.17,0-.29.02-.35.05s-.11.08-.14.13-.05.22-.05.51v1.9c0,.28.01.44.04.49s.07.1.13.14.18.06.37.06v.14h-1.73v-.14c.22,0,.36-.04.43-.12s.11-.27.11-.58v-1.68l-1.55,1.79c0,.22.04.37.09.46s.18.13.37.13v.14h-1.65v-.14c.23,0,.38-.04.45-.13s.1-.27.1-.57v-1.9c0-.28-.01-.44-.04-.49s-.07-.1-.13-.14-.18-.06-.37-.06v-.15h1.73v.15c-.17,0-.29.02-.35.05s-.11.08-.14.13-.05.22-.05.51v1.64Z"/>
    <path class="cls-9" d="m164.22,19.63h1.68v.14c-.11,0-.18.02-.22.05s-.06.08-.06.14.05.16.14.29c.03.04.07.11.13.2l.25.41.29-.41c.19-.26.28-.42.28-.49,0-.05-.02-.1-.07-.14s-.12-.06-.21-.06v-.14h1.21v.14c-.13,0-.24.04-.33.11-.13.09-.3.28-.52.58l-.49.65.89,1.28c.22.31.38.5.47.57s.21.1.36.11v.14h-1.69v-.14c.12,0,.21-.03.27-.08.05-.04.07-.08.07-.14s-.08-.21-.25-.45l-.52-.77-.57.77c-.18.24-.27.38-.27.42,0,.06.03.12.09.17s.15.08.26.08v.14h-1.17v-.14c.09-.01.18-.05.25-.1.1-.08.27-.27.5-.58l.75-1-.68-.98c-.19-.28-.34-.46-.45-.53s-.24-.11-.4-.11v-.14Z"/>
    <path class="cls-9" d="m143.33,30.95c0,.33-.08.65-.23.96-.16.34-.37.59-.64.75s-.57.25-.9.25c-.54,0-.97-.21-1.29-.64-.27-.36-.4-.77-.4-1.22,0-.33.08-.65.23-.96.17-.34.38-.58.65-.74s.55-.23.85-.23c.54,0,.98.21,1.3.62.28.35.42.76.42,1.21Zm-.75-.18c-.05-.36-.15-.67-.31-.92-.2-.32-.46-.48-.78-.48-.35,0-.6.19-.75.55-.09.21-.13.48-.13.79v.05h1.97Zm.03.48c0-.05,0-.13,0-.22h-1.98c.03.39.13.74.3,1.04.21.38.48.57.82.57.58,0,.87-.46.87-1.39Z"/>
    <path class="cls-9" d="m146.7,29.23l.14.98h-.17c-.1-.32-.2-.52-.3-.6s-.31-.12-.63-.12h-.76v2.48c0,.28.01.44.04.49s.07.1.13.14.18.06.37.06v.14h-1.79v-.14c.26,0,.42-.04.49-.12s.11-.27.11-.58v-1.9c0-.25-.01-.41-.04-.49s-.08-.12-.15-.15-.21-.05-.41-.05v-.15h2.96Z"/>
    <path class="cls-9" d="m150.61,30.95c0,.33-.08.65-.23.96-.16.34-.37.59-.64.75s-.57.25-.9.25c-.54,0-.97-.21-1.29-.64-.27-.36-.4-.77-.4-1.22,0-.33.08-.65.23-.96.17-.34.38-.58.65-.74s.55-.23.85-.23c.54,0,.98.21,1.3.62.28.35.42.76.42,1.21Zm-.75-.18c-.05-.36-.15-.67-.31-.92-.2-.32-.46-.48-.78-.48-.35,0-.6.19-.75.55-.09.21-.13.48-.13.79v.05h1.97Zm.03.48c0-.05,0-.13,0-.22h-1.98c.03.39.13.74.3,1.04.21.38.48.57.82.57.58,0,.87-.46.87-1.39Z"/>
    <path class="cls-9" d="m153.98,29.23l.14.98h-.17c-.1-.32-.2-.52-.3-.6s-.31-.12-.63-.12h-.76v2.48c0,.28.01.44.04.49s.07.1.13.14.18.06.37.06v.14h-1.79v-.14c.26,0,.42-.04.49-.12s.11-.27.11-.58v-1.9c0-.25-.01-.41-.04-.49s-.08-.12-.15-.15-.21-.05-.41-.05v-.15h2.96Z"/>
    <path class="cls-9" d="m154.91,29.23h3.16v.15c-.18,0-.29.02-.35.05s-.1.08-.14.13-.05.22-.05.51v1.77c0,.37.03.6.1.69s.21.13.45.14v1.14h-.15c-.01-.21-.06-.4-.16-.56s-.23-.27-.4-.34-.42-.1-.75-.1h-.92c-.29,0-.51.03-.67.08s-.3.16-.4.32-.17.36-.2.6h-.14v-1.14c.21,0,.41-.09.58-.25s.33-.48.46-.95.2-.94.2-1.39-.2-.68-.61-.69v-.15Zm.86.25v.21c0,1.28-.23,2.23-.7,2.86h1.33c.24,0,.38-.02.41-.06s.05-.19.05-.45v-2.56h-1.1Z"/>
    <path class="cls-9" d="m161.97,30.95c0,.33-.08.65-.23.96-.16.34-.37.59-.64.75s-.57.25-.9.25c-.54,0-.97-.21-1.29-.64-.27-.36-.4-.77-.4-1.22,0-.33.08-.65.23-.96.17-.34.38-.58.65-.74s.55-.23.85-.23c.54,0,.98.21,1.3.62.28.35.42.76.42,1.21Zm-.75-.18c-.05-.36-.15-.67-.31-.92-.2-.32-.46-.48-.78-.48-.35,0-.6.19-.75.55-.09.21-.13.48-.13.79v.05h1.97Zm.03.48c0-.05,0-.13,0-.22h-1.98c.03.39.13.74.3,1.04.21.38.48.57.82.57.58,0,.87-.46.87-1.39Z"/>
    <path class="cls-9" d="m162.86,29.23h3.2v.15c-.18,0-.29.02-.35.05s-.1.08-.14.13-.05.22-.05.51v1.9c0,.28.01.44.04.49s.07.1.13.14.18.06.37.06v.14h-1.85v-.14c.2,0,.34-.01.42-.03s.14-.07.18-.15.07-.25.07-.51v-2.48h-1.19v1.51c0,.57-.03.97-.08,1.2s-.15.4-.3.51-.32.17-.51.17c-.33,0-.5-.14-.5-.41,0-.09.03-.17.08-.23s.12-.09.21-.09c.09,0,.18.04.25.11.1.1.18.15.23.15.12,0,.2-.1.26-.29s.08-.54.08-1.03v-.79c0-.41-.03-.65-.09-.74s-.21-.14-.45-.16v-.15Z"/>
    <path class="cls-9" d="m169.17,28.03l1.29-.63h.13v4.47c0,.3.01.48.04.55s.08.13.15.17.24.06.48.07v.14h-1.99v-.14c.25,0,.41-.03.48-.06s.12-.09.15-.15.04-.25.04-.57v-2.86c0-.39-.01-.63-.04-.74-.02-.08-.05-.14-.1-.18s-.11-.06-.17-.06c-.1,0-.23.04-.4.12l-.06-.12Z"/>
  </g>
  <g>
    <path class="cls-9" d="m143.83,67.42h2.15v.14c-.38.02-.57.12-.57.3,0,.13.14.44.42.93l1.16,2.03.84-2.03c.18-.43.27-.71.27-.86,0-.2-.16-.33-.49-.38v-.14h1.66v.14c-.39.05-.69.31-.89.8l-1.01,2.41c-.26.62-.48,1.06-.64,1.32s-.34.45-.54.57-.4.18-.6.18c-.18,0-.33-.04-.46-.12s-.19-.18-.19-.31c0-.1.03-.18.1-.24s.15-.1.27-.1.24.04.39.13c.1.05.18.08.23.08.21,0,.44-.21.69-.64l-1.92-3.38c-.14-.24-.26-.4-.38-.5s-.28-.17-.48-.2v-.14Z"/>
    <path class="cls-9" d="m150.76,70.74h1.55v-.76c0-.23,0-.37-.03-.44s-.06-.13-.13-.18-.2-.07-.38-.07v-.15h1.73v.15c-.16,0-.28.02-.35.05s-.12.09-.15.16-.04.23-.04.48v1.9c0,.23,0,.38.03.45s.07.13.14.18.2.07.37.07v.14h-1.73v-.14c.22,0,.36-.04.43-.12s.11-.27.11-.58v-.89h-1.55v.89c0,.23,0,.38.03.45s.07.13.14.18.2.07.37.07v.14h-1.73v-.14c.23,0,.38-.04.45-.13s.1-.27.1-.57v-1.9c0-.23,0-.38-.03-.45s-.07-.13-.14-.18-.2-.07-.37-.07v-.15h1.73v.15c-.16,0-.28.02-.35.05s-.12.09-.15.16-.04.23-.04.48v.76Z"/>
    <path class="cls-9" d="m159.65,72.57v.14h-5.8v-.14c.22,0,.36-.04.43-.12s.11-.27.11-.58v-1.9c0-.28-.01-.44-.04-.49s-.07-.1-.13-.14-.18-.06-.37-.06v-.15h1.73v.15c-.17,0-.29.02-.35.05s-.11.08-.14.13-.05.22-.05.51v1.97c0,.25.02.39.07.44s.19.07.45.07h.42c.17,0,.28,0,.33-.03s.09-.05.1-.1.03-.2.03-.46v-1.89c0-.28-.01-.44-.04-.49s-.07-.1-.13-.14-.18-.06-.37-.06v-.15h1.66v.15c-.14,0-.24.03-.31.07s-.11.1-.13.17-.03.22-.03.45v2.02c0,.22.02.36.07.4s.18.06.41.06h.47c.25,0,.39-.03.41-.08s.04-.22.04-.49v-1.92c0-.28-.01-.44-.04-.49s-.07-.1-.13-.14-.18-.06-.37-.06v-.15h1.73v.15c-.18,0-.29.02-.35.05s-.1.08-.14.13-.05.22-.05.51v1.69c0,.35,0,.56.03.65s.06.15.13.19.2.06.38.07Z"/>
    <path class="cls-9" d="m161.2,71.62l1.55-1.79c0-.2-.04-.34-.11-.42s-.19-.12-.36-.12v-.15h1.66v.15c-.17,0-.29.02-.35.05s-.11.08-.14.13-.05.22-.05.51v1.9c0,.28.01.44.04.49s.07.1.13.14.18.06.37.06v.14h-1.73v-.14c.22,0,.36-.04.43-.12s.11-.27.11-.58v-1.68l-1.55,1.79c0,.22.04.37.09.46s.18.13.37.13v.14h-1.65v-.14c.23,0,.38-.04.45-.13s.1-.27.1-.57v-1.9c0-.28-.01-.44-.04-.49s-.07-.1-.13-.14-.18-.06-.37-.06v-.15h1.73v.15c-.17,0-.29.02-.35.05s-.11.08-.14.13-.05.22-.05.51v1.64Z"/>
    <path class="cls-9" d="m164.22,69.14h1.68v.14c-.11,0-.18.02-.22.05s-.06.08-.06.14.05.16.14.29c.03.04.07.11.13.2l.25.41.29-.41c.19-.26.28-.42.28-.49,0-.05-.02-.1-.07-.14s-.12-.06-.21-.06v-.14h1.21v.14c-.13,0-.24.04-.33.11-.13.09-.3.28-.52.58l-.49.65.89,1.28c.22.31.38.5.47.57s.21.1.36.11v.14h-1.69v-.14c.12,0,.21-.03.27-.08.05-.04.07-.08.07-.14s-.08-.21-.25-.45l-.52-.77-.57.77c-.18.24-.27.38-.27.42,0,.06.03.12.09.17s.15.08.26.08v.14h-1.17v-.14c.09-.01.18-.05.25-.1.1-.08.27-.27.5-.58l.75-1-.68-.98c-.19-.28-.34-.46-.45-.53s-.24-.11-.4-.11v-.14Z"/>
    <path class="cls-9" d="m143.33,80.46c0,.33-.08.65-.23.96-.16.34-.37.59-.64.75s-.57.25-.9.25c-.54,0-.97-.21-1.29-.64-.27-.36-.4-.77-.4-1.22,0-.33.08-.65.23-.96.17-.34.38-.58.65-.74s.55-.23.85-.23c.54,0,.98.21,1.3.62.28.35.42.76.42,1.21Zm-.75-.18c-.05-.36-.15-.67-.31-.92-.2-.32-.46-.48-.78-.48-.35,0-.6.19-.75.55-.09.21-.13.48-.13.79v.05h1.97Zm.03.48c0-.05,0-.13,0-.22h-1.98c.03.39.13.74.3,1.04.21.38.48.57.82.57.58,0,.87-.46.87-1.39Z"/>
    <path class="cls-9" d="m146.7,78.74l.14.98h-.17c-.1-.32-.2-.52-.3-.6s-.31-.12-.63-.12h-.76v2.48c0,.28.01.44.04.49s.07.1.13.14.18.06.37.06v.14h-1.79v-.14c.26,0,.42-.04.49-.12s.11-.27.11-.58v-1.9c0-.25-.01-.41-.04-.49s-.08-.12-.15-.15-.21-.05-.41-.05v-.15h2.96Z"/>
    <path class="cls-9" d="m150.61,80.46c0,.33-.08.65-.23.96-.16.34-.37.59-.64.75s-.57.25-.9.25c-.54,0-.97-.21-1.29-.64-.27-.36-.4-.77-.4-1.22,0-.33.08-.65.23-.96.17-.34.38-.58.65-.74s.55-.23.85-.23c.54,0,.98.21,1.3.62.28.35.42.76.42,1.21Zm-.75-.18c-.05-.36-.15-.67-.31-.92-.2-.32-.46-.48-.78-.48-.35,0-.6.19-.75.55-.09.21-.13.48-.13.79v.05h1.97Zm.03.48c0-.05,0-.13,0-.22h-1.98c.03.39.13.74.3,1.04.21.38.48.57.82.57.58,0,.87-.46.87-1.39Z"/>
    <path class="cls-9" d="m153.98,78.74l.14.98h-.17c-.1-.32-.2-.52-.3-.6s-.31-.12-.63-.12h-.76v2.48c0,.28.01.44.04.49s.07.1.13.14.18.06.37.06v.14h-1.79v-.14c.26,0,.42-.04.49-.12s.11-.27.11-.58v-1.9c0-.25-.01-.41-.04-.49s-.08-.12-.15-.15-.21-.05-.41-.05v-.15h2.96Z"/>
    <path class="cls-9" d="m154.91,78.74h3.16v.15c-.18,0-.29.02-.35.05s-.1.08-.14.13-.05.22-.05.51v1.77c0,.37.03.6.1.69s.21.13.45.14v1.14h-.15c-.01-.21-.06-.4-.16-.56s-.23-.27-.4-.34-.42-.1-.75-.1h-.92c-.29,0-.51.03-.67.08s-.3.16-.4.32-.17.36-.2.6h-.14v-1.14c.21,0,.41-.09.58-.25s.33-.48.46-.95.2-.94.2-1.39-.2-.68-.61-.69v-.15Zm.86.25v.21c0,1.28-.23,2.23-.7,2.86h1.33c.24,0,.38-.02.41-.06s.05-.19.05-.45v-2.56h-1.1Z"/>
    <path class="cls-9" d="m161.97,80.46c0,.33-.08.65-.23.96-.16.34-.37.59-.64.75s-.57.25-.9.25c-.54,0-.97-.21-1.29-.64-.27-.36-.4-.77-.4-1.22,0-.33.08-.65.23-.96.17-.34.38-.58.65-.74s.55-.23.85-.23c.54,0,.98.21,1.3.62.28.35.42.76.42,1.21Zm-.75-.18c-.05-.36-.15-.67-.31-.92-.2-.32-.46-.48-.78-.48-.35,0-.6.19-.75.55-.09.21-.13.48-.13.79v.05h1.97Zm.03.48c0-.05,0-.13,0-.22h-1.98c.03.39.13.74.3,1.04.21.38.48.57.82.57.58,0,.87-.46.87-1.39Z"/>
    <path class="cls-9" d="m162.86,78.74h3.2v.15c-.18,0-.29.02-.35.05s-.1.08-.14.13-.05.22-.05.51v1.9c0,.28.01.44.04.49s.07.1.13.14.18.06.37.06v.14h-1.85v-.14c.2,0,.34-.01.42-.03s.14-.07.18-.15.07-.25.07-.51v-2.48h-1.19v1.51c0,.57-.03.97-.08,1.2s-.15.4-.3.51-.32.17-.51.17c-.33,0-.5-.14-.5-.41,0-.09.03-.17.08-.23s.12-.09.21-.09c.09,0,.18.04.25.11.1.1.18.15.23.15.12,0,.2-.1.26-.29s.08-.54.08-1.03v-.79c0-.41-.03-.65-.09-.74s-.21-.14-.45-.16v-.15Z"/>
    <path class="cls-9" d="m171.9,81.3l-.37,1.02h-3.12v-.14c.92-.84,1.57-1.52,1.94-2.05s.56-1.02.56-1.46c0-.34-.1-.61-.31-.83s-.45-.32-.74-.32c-.26,0-.49.08-.7.23s-.36.38-.46.67h-.14c.06-.48.23-.85.5-1.11s.61-.39,1.01-.39c.43,0,.79.14,1.08.41s.43.6.43.98c0,.27-.06.54-.19.8-.19.42-.51.87-.94,1.34-.65.71-1.05,1.14-1.21,1.28h1.38c.28,0,.48-.01.59-.03s.22-.06.31-.13.17-.15.24-.27h.14Z"/>
  </g>
  <g>
    <path class="cls-9" d="m78.79,30.71h2.15v.14c-.38.02-.57.12-.57.3,0,.13.14.44.42.93l1.16,2.03.84-2.03c.18-.43.27-.71.27-.86,0-.2-.16-.33-.49-.38v-.14h1.66v.14c-.39.05-.69.31-.89.8l-1.01,2.41c-.26.62-.48,1.06-.64,1.32s-.34.45-.54.57-.4.18-.6.18c-.18,0-.33-.04-.46-.12s-.19-.18-.19-.31c0-.1.03-.18.1-.24s.15-.1.27-.1.24.04.39.13c.1.05.18.08.23.08.21,0,.44-.21.69-.64l-1.92-3.38c-.14-.24-.26-.4-.38-.5s-.28-.17-.48-.2v-.14Z"/>
    <path class="cls-9" d="m85.72,34.02h1.55v-.76c0-.23,0-.37-.03-.44s-.06-.13-.13-.18-.2-.07-.38-.07v-.15h1.73v.15c-.16,0-.28.02-.35.05s-.12.09-.15.16-.04.23-.04.48v1.9c0,.23,0,.38.03.45s.07.13.14.18.2.07.37.07v.14h-1.73v-.14c.22,0,.36-.04.43-.12s.11-.27.11-.58v-.89h-1.55v.89c0,.23,0,.38.03.45s.07.13.14.18.2.07.37.07v.14h-1.73v-.14c.23,0,.38-.04.45-.13s.1-.27.1-.57v-1.9c0-.23,0-.38-.03-.45s-.07-.13-.14-.18-.2-.07-.37-.07v-.15h1.73v.15c-.16,0-.28.02-.35.05s-.12.09-.15.16-.04.23-.04.48v.76Z"/>
    <path class="cls-9" d="m94.61,35.86v.14h-5.8v-.14c.22,0,.36-.04.43-.12s.11-.27.11-.58v-1.9c0-.28-.01-.44-.04-.49s-.07-.1-.13-.14-.18-.06-.37-.06v-.15h1.73v.15c-.17,0-.29.02-.35.05s-.11.08-.14.13-.05.22-.05.51v1.97c0,.25.02.39.07.44s.19.07.45.07h.42c.17,0,.28,0,.33-.03s.09-.05.1-.1.03-.2.03-.46v-1.89c0-.28-.01-.44-.04-.49s-.07-.1-.13-.14-.18-.06-.37-.06v-.15h1.66v.15c-.14,0-.24.03-.31.07s-.11.1-.13.17-.03.22-.03.45v2.02c0,.22.02.36.07.4s.18.06.41.06h.47c.25,0,.39-.03.41-.08s.04-.22.04-.49v-1.92c0-.28-.01-.44-.04-.49s-.07-.1-.13-.14-.18-.06-.37-.06v-.15h1.73v.15c-.18,0-.29.02-.35.05s-.1.08-.14.13-.05.22-.05.51v1.69c0,.35,0,.56.03.65s.06.15.13.19.2.06.38.07Z"/>
    <path class="cls-9" d="m96.16,34.9l1.55-1.79c0-.2-.04-.34-.11-.42s-.19-.12-.36-.12v-.15h1.66v.15c-.17,0-.29.02-.35.05s-.11.08-.14.13-.05.22-.05.51v1.9c0,.28.01.44.04.49s.07.1.13.14.18.06.37.06v.14h-1.73v-.14c.22,0,.36-.04.43-.12s.11-.27.11-.58v-1.68l-1.55,1.79c0,.22.04.37.09.46s.18.13.37.13v.14h-1.65v-.14c.23,0,.38-.04.45-.13s.1-.27.1-.57v-1.9c0-.28-.01-.44-.04-.49s-.07-.1-.13-.14-.18-.06-.37-.06v-.15h1.73v.15c-.17,0-.29.02-.35.05s-.11.08-.14.13-.05.22-.05.51v1.64Z"/>
    <path class="cls-9" d="m99.18,32.42h1.68v.14c-.11,0-.18.02-.22.05s-.06.08-.06.14.05.16.14.29c.03.04.07.11.13.2l.25.41.29-.41c.19-.26.28-.42.28-.49,0-.05-.02-.1-.07-.14s-.12-.06-.21-.06v-.14h1.21v.14c-.13,0-.24.04-.33.11-.13.09-.3.28-.52.58l-.49.65.89,1.28c.22.31.38.5.47.57s.21.1.36.11v.14h-1.69v-.14c.12,0,.21-.03.27-.08.05-.04.07-.08.07-.14s-.08-.21-.25-.45l-.52-.77-.57.77c-.18.24-.27.38-.27.42,0,.06.03.12.09.17s.15.08.26.08v.14h-1.17v-.14c.09-.01.18-.05.25-.1.1-.08.27-.27.5-.58l.75-1-.68-.98c-.19-.28-.34-.46-.45-.53s-.24-.11-.4-.11v-.14Z"/>
    <path class="cls-9" d="m74.79,42.38l1.1-.45h.15v.84c.19-.31.37-.54.56-.66s.38-.19.59-.19c.36,0,.66.14.9.42.29.34.44.79.44,1.34,0,.62-.18,1.13-.53,1.53-.29.33-.66.5-1.1.5-.19,0-.36-.03-.5-.08-.1-.04-.22-.12-.35-.23v1.09c0,.24.02.4.04.47s.08.12.16.16.21.06.4.06v.14h-1.88v-.14h.1c.14,0,.27-.02.37-.08.05-.03.09-.07.12-.14s.04-.23.04-.49v-3.38c0-.23-.01-.38-.03-.44s-.05-.11-.1-.14-.11-.05-.19-.05c-.06,0-.14.02-.24.05l-.05-.12Zm1.25.62v1.34c0,.29.01.48.04.57.04.15.13.28.27.4s.32.17.54.17c.26,0,.47-.1.63-.3.21-.27.32-.64.32-1.12,0-.55-.12-.97-.36-1.26-.17-.2-.36-.3-.59-.3-.12,0-.25.03-.37.09-.09.05-.25.19-.46.42Z"/>
    <path class="cls-9" d="m79.65,43.37c0,.53.13.95.39,1.25s.57.45.92.45c.23,0,.44-.06.61-.19s.32-.35.44-.66l.12.08c-.05.36-.21.68-.48.97s-.59.44-.99.44c-.43,0-.8-.17-1.1-.5s-.46-.78-.46-1.35c0-.61.16-1.09.47-1.43s.71-.51,1.18-.51c.4,0,.73.13.99.4s.39.62.39,1.06h-2.47Zm0-.23h1.66c-.01-.23-.04-.39-.08-.48-.06-.15-.16-.26-.29-.34s-.26-.12-.4-.12c-.22,0-.41.08-.58.25s-.27.4-.3.7Z"/>
    <path class="cls-9" d="m85.43,42.02l.14.98h-.17c-.1-.32-.2-.52-.3-.6s-.31-.12-.63-.12h-.76v2.48c0,.28.01.44.04.49s.07.1.13.14.18.06.37.06v.14h-1.79v-.14c.26,0,.42-.04.49-.12s.11-.27.11-.58v-1.9c0-.25-.01-.41-.04-.49s-.08-.12-.15-.15-.21-.05-.41-.05v-.15h2.96Z"/>
    <path class="cls-9" d="m87,44.5l1.55-1.79c0-.2-.04-.34-.11-.42s-.19-.12-.36-.12v-.15h1.66v.15c-.17,0-.29.02-.35.05s-.11.08-.14.13-.05.22-.05.51v1.9c0,.28.01.44.04.49s.07.1.13.14.18.06.37.06v.14h-1.73v-.14c.22,0,.36-.04.43-.12s.11-.27.11-.58v-1.68l-1.55,1.79c0,.22.04.37.09.46s.18.13.37.13v.14h-1.65v-.14c.23,0,.38-.04.45-.13s.1-.27.1-.57v-1.9c0-.28-.01-.44-.04-.49s-.07-.1-.13-.14-.18-.06-.37-.06v-.15h1.73v.15c-.17,0-.29.02-.35.05s-.11.08-.14.13-.05.22-.05.51v1.64Z"/>
    <path class="cls-9" d="m93.2,44.24c-.1.47-.29.83-.57,1.09s-.59.38-.93.38c-.41,0-.76-.17-1.06-.51s-.45-.8-.45-1.38.17-1.02.5-1.37.74-.53,1.21-.53c.35,0,.64.09.87.28s.34.38.34.58c0,.1-.03.18-.1.24s-.15.09-.27.09c-.15,0-.27-.05-.35-.15-.04-.05-.07-.16-.09-.31s-.07-.27-.16-.35c-.09-.08-.22-.12-.38-.12-.26,0-.47.1-.63.29-.21.26-.32.59-.32,1.01s.1.8.31,1.13.49.49.85.49c.26,0,.48-.09.69-.26.14-.12.28-.34.42-.65l.11.05Z"/>
    <path class="cls-9" d="m93.66,42.02h3.09l.16.97h-.18c-.03-.2-.08-.35-.16-.45s-.16-.18-.25-.21-.25-.05-.48-.05h-.31v2.48c0,.27.02.43.05.51s.09.12.16.14.24.04.5.05v.14h-1.95v-.14c.25,0,.41-.05.48-.12s.11-.27.11-.57v-2.48h-.32c-.22,0-.38.01-.46.04s-.16.09-.23.2-.14.26-.19.48h-.18l.15-.97Z"/>
    <path class="cls-9" d="m96.95,42.38l1.1-.45h.15v.84c.19-.31.37-.54.56-.66s.38-.19.59-.19c.36,0,.66.14.9.42.29.34.44.79.44,1.34,0,.62-.18,1.13-.53,1.53-.29.33-.66.5-1.1.5-.19,0-.36-.03-.5-.08-.1-.04-.22-.12-.35-.23v1.09c0,.24.02.4.04.47s.08.12.16.16.21.06.4.06v.14h-1.88v-.14h.1c.14,0,.27-.02.37-.08.05-.03.09-.07.12-.14s.04-.23.04-.49v-3.38c0-.23-.01-.38-.03-.44s-.05-.11-.1-.14-.11-.05-.19-.05c-.06,0-.14.02-.24.05l-.05-.12Zm1.25.62v1.34c0,.29.01.48.04.57.04.15.13.28.27.4s.32.17.54.17c.26,0,.47-.1.63-.3.21-.27.32-.64.32-1.12,0-.55-.12-.97-.36-1.26-.17-.2-.36-.3-.59-.3-.12,0-.25.03-.37.09-.09.05-.25.19-.46.42Z"/>
    <path class="cls-9" d="m106.63,44.58l-.37,1.02h-3.12v-.14c.92-.84,1.57-1.52,1.94-2.05s.56-1.02.56-1.46c0-.34-.1-.61-.31-.83s-.45-.32-.74-.32c-.26,0-.49.08-.7.23s-.36.38-.46.67h-.14c.06-.48.23-.85.5-1.11s.61-.39,1.01-.39c.43,0,.79.14,1.08.41s.43.6.43.98c0,.27-.06.54-.19.8-.19.42-.51.87-.94,1.34-.65.71-1.05,1.14-1.21,1.28h1.38c.28,0,.48-.01.59-.03s.22-.06.31-.13.17-.15.24-.27h.14Z"/>
  </g>
  <g>
    <path class="cls-9" d="m123.22,45.58v1.54c0,.33.04.54.11.62.1.11.25.17.45.17h.2v.14h-2.27v-.14h.2c.22,0,.38-.07.48-.22.05-.08.08-.27.08-.57v-3.42c0-.33-.04-.54-.11-.62-.1-.11-.25-.17-.45-.17h-.2v-.14h1.94c.47,0,.85.05,1.12.15s.5.26.69.49.28.51.28.82c0,.43-.14.78-.43,1.05s-.69.41-1.21.41c-.13,0-.27,0-.41-.03s-.31-.05-.48-.08Zm0-.22c.14.03.26.05.37.06s.2.02.27.02c.27,0,.5-.1.7-.31s.29-.48.29-.81c0-.23-.05-.44-.14-.64s-.23-.34-.4-.44-.37-.15-.59-.15c-.13,0-.3.02-.51.07v2.2Z"/>
    <path class="cls-9" d="m126.88,45.83c0,.53.13.95.39,1.25s.57.45.92.45c.23,0,.44-.06.61-.19s.32-.35.44-.66l.12.08c-.05.36-.21.68-.48.97s-.59.44-.99.44c-.43,0-.8-.17-1.1-.5s-.46-.78-.46-1.35c0-.61.16-1.09.47-1.43s.71-.51,1.18-.51c.4,0,.73.13.99.4s.39.62.39,1.06h-2.47Zm0-.23h1.66c-.01-.23-.04-.39-.08-.48-.06-.15-.16-.26-.29-.34s-.26-.12-.4-.12c-.22,0-.41.08-.58.25s-.27.4-.3.7Z"/>
    <path class="cls-9" d="m132.66,44.48l.14.98h-.17c-.1-.32-.2-.52-.3-.6s-.31-.12-.63-.12h-.76v2.48c0,.28.01.44.04.49s.07.1.13.14.18.06.37.06v.14h-1.79v-.14c.26,0,.42-.04.49-.12s.11-.27.11-.58v-1.9c0-.25-.01-.41-.04-.49s-.08-.12-.15-.15-.21-.05-.41-.05v-.15h2.96Z"/>
    <path class="cls-9" d="m134.23,46.96l1.55-1.79c0-.2-.04-.34-.11-.42s-.19-.12-.36-.12v-.15h1.66v.15c-.17,0-.29.02-.35.05s-.11.08-.14.13-.05.22-.05.51v1.9c0,.28.01.44.04.49s.07.1.13.14.18.06.37.06v.14h-1.73v-.14c.22,0,.36-.04.43-.12s.11-.27.11-.58v-1.68l-1.55,1.79c0,.22.04.37.09.46s.18.13.37.13v.14h-1.65v-.14c.23,0,.38-.04.45-.13s.1-.27.1-.57v-1.9c0-.28-.01-.44-.04-.49s-.07-.1-.13-.14-.18-.06-.37-.06v-.15h1.73v.15c-.17,0-.29.02-.35.05s-.11.08-.14.13-.05.22-.05.51v1.64Z"/>
    <path class="cls-9" d="m140.43,46.7c-.1.47-.29.83-.57,1.09s-.59.38-.93.38c-.41,0-.76-.17-1.06-.51s-.45-.8-.45-1.38.17-1.02.5-1.37.74-.53,1.21-.53c.35,0,.64.09.87.28s.34.38.34.58c0,.1-.03.18-.1.24s-.15.09-.27.09c-.15,0-.27-.05-.35-.15-.04-.05-.07-.16-.09-.31s-.07-.27-.16-.35c-.09-.08-.22-.12-.38-.12-.26,0-.47.1-.63.29-.21.26-.32.59-.32,1.01s.1.8.31,1.13.49.49.85.49c.26,0,.48-.09.69-.26.14-.12.28-.34.42-.65l.11.05Z"/>
    <path class="cls-9" d="m140.89,44.48h3.09l.16.97h-.18c-.03-.2-.08-.35-.16-.45s-.16-.18-.25-.21-.25-.05-.48-.05h-.31v2.48c0,.27.02.43.05.51s.09.12.16.14.24.04.5.05v.14h-1.95v-.14c.25,0,.41-.05.48-.12s.11-.27.11-.57v-2.48h-.32c-.22,0-.38.01-.46.04s-.16.09-.23.2-.14.26-.19.48h-.18l.15-.97Z"/>
    <path class="cls-9" d="m144.18,44.84l1.1-.45h.15v.84c.19-.31.37-.54.56-.66s.38-.19.59-.19c.36,0,.66.14.9.42.29.34.44.79.44,1.34,0,.62-.18,1.13-.53,1.53-.29.33-.66.5-1.1.5-.19,0-.36-.03-.5-.08-.1-.04-.22-.12-.35-.23v1.09c0,.24.02.4.04.47s.08.12.16.16.21.06.4.06v.14h-1.88v-.14h.1c.14,0,.27-.02.37-.08.05-.03.09-.07.12-.14s.04-.23.04-.49v-3.38c0-.23-.01-.38-.03-.44s-.05-.11-.1-.14-.11-.05-.19-.05c-.06,0-.14.02-.24.05l-.05-.12Zm1.25.62v1.34c0,.29.01.48.04.57.04.15.13.28.27.4s.32.17.54.17c.26,0,.47-.1.63-.3.21-.27.32-.64.32-1.12,0-.55-.12-.97-.36-1.26-.17-.2-.36-.3-.59-.3-.12,0-.25.03-.37.09-.09.05-.25.19-.46.42Z"/>
    <path class="cls-9" d="m128.05,52.55l1.05-.44h.17v2.2c.24-.22.48-.33.72-.33.34,0,.62.19.87.55s.36.82.36,1.34-.12.96-.37,1.33-.54.56-.89.56c-.26,0-.49-.11-.69-.34v1.11c0,.26.02.43.04.5s.08.12.16.15.24.04.49.04v.14h-1.93v-.14c.26,0,.43-.04.51-.11s.12-.27.12-.58v-1.11c-.2.23-.42.34-.69.34-.36,0-.66-.19-.9-.56s-.36-.83-.36-1.37c0-.49.11-.92.34-1.29s.53-.56.9-.56c.27,0,.51.12.71.38v-.97c0-.33-.02-.55-.06-.64s-.11-.14-.22-.14c-.09,0-.18.02-.28.07l-.06-.13Zm.62,2.15c-.15-.31-.33-.46-.56-.46s-.39.15-.52.44-.19.72-.19,1.29c0,.51.06.89.19,1.15s.3.39.52.39c.2,0,.39-.12.56-.36v-2.45Zm.61,2.38c.05.14.13.24.25.31s.22.11.32.11c.2,0,.37-.13.49-.38s.19-.65.19-1.18c0-1.14-.23-1.7-.68-1.7-.19,0-.38.11-.58.32v2.53Z"/>
    <path class="cls-9" d="m133.84,57.15c-.37.28-.6.45-.69.49-.14.06-.29.1-.45.1-.25,0-.45-.08-.61-.25s-.24-.39-.24-.67c0-.17.04-.33.12-.45.11-.18.29-.34.56-.5s.7-.35,1.32-.57v-.14c0-.36-.06-.6-.17-.73s-.28-.2-.49-.2c-.16,0-.29.04-.39.13-.1.09-.15.19-.15.3v.23c0,.12-.02.21-.08.28s-.14.1-.24.1-.18-.03-.24-.1-.09-.16-.09-.28c0-.22.11-.43.34-.62s.55-.28.96-.28c.32,0,.58.05.78.16.15.08.27.21.34.38.05.11.07.34.07.69v1.21c0,.34,0,.55.02.63s.03.13.06.15.06.04.1.04c.04,0,.08,0,.11-.03.05-.03.16-.13.32-.29v.22c-.29.39-.57.59-.84.59-.13,0-.23-.04-.3-.13s-.11-.24-.12-.45Zm0-.25v-1.36c-.39.16-.65.27-.76.33-.21.11-.35.23-.44.36s-.13.26-.13.41c0,.19.06.34.17.47s.24.19.39.19c.2,0,.46-.13.78-.39Z"/>
    <path class="cls-9" d="m136.48,56.56l1.55-1.79c0-.2-.04-.34-.11-.42s-.19-.12-.36-.12v-.15h1.66v.15c-.17,0-.29.02-.35.05s-.11.08-.14.13-.05.22-.05.51v1.9c0,.28.01.44.04.49s.07.1.13.14.18.06.37.06v.14h-1.73v-.14c.22,0,.36-.04.43-.12s.11-.27.11-.58v-1.68l-1.55,1.79c0,.22.04.37.09.46s.18.13.37.13v.14h-1.65v-.14c.23,0,.38-.04.45-.13s.1-.27.1-.57v-1.9c0-.28-.01-.44-.04-.49s-.07-.1-.13-.14-.18-.06-.37-.06v-.15h1.73v.15c-.17,0-.29.02-.35.05s-.11.08-.14.13-.05.22-.05.51v1.64Zm-.51-3.91c0-.09.03-.16.08-.22s.12-.08.19-.08c.17,0,.32.16.46.48.08.18.16.3.26.34s.19.07.29.07c.16,0,.29-.04.37-.11s.16-.2.23-.38c.11-.27.24-.41.4-.41.08,0,.14.03.2.08s.08.13.08.21c0,.2-.13.39-.39.56s-.56.26-.89.26c-.43,0-.75-.08-.96-.23s-.32-.35-.32-.57Z"/>
    <path class="cls-9" d="m140.01,54.08h3.2v.15c-.18,0-.29.02-.35.05s-.1.08-.14.13-.05.22-.05.51v1.9c0,.28.01.44.04.49s.07.1.13.14.18.06.37.06v.14h-1.85v-.14c.2,0,.34-.01.42-.03s.14-.07.18-.15.07-.25.07-.51v-2.48h-1.19v1.51c0,.57-.03.97-.08,1.2s-.15.4-.3.51-.32.17-.51.17c-.33,0-.5-.14-.5-.41,0-.09.03-.17.08-.23s.12-.09.21-.09c.09,0,.18.04.25.11.1.1.18.15.23.15.12,0,.2-.1.26-.29s.08-.54.08-1.03v-.79c0-.41-.03-.65-.09-.74s-.21-.14-.45-.16v-.15Z"/>
  </g>
  <g>
    <path class="cls-9" d="m84.23,56.73l.05,1.16h-.14c-.08-.38-.21-.61-.38-.71s-.48-.15-.92-.15h-.89v2.1h.21c.65,0,1.12.04,1.43.12s.55.24.74.47.29.51.29.84c0,.39-.15.74-.44,1.04s-.79.45-1.51.45h-2.24v-.14c.33-.01.54-.06.63-.16s.14-.31.14-.66v-3.37c0-.27-.02-.45-.06-.54s-.1-.16-.19-.2-.24-.06-.48-.08v-.14h3.75Zm-2.29,4.98c.23.04.41.05.54.05.32,0,.61-.11.87-.32s.39-.51.39-.89-.14-.68-.41-.87-.61-.28-1.03-.28c-.12,0-.24.01-.36.03v2.27Z"/>
    <path class="cls-9" d="m86.25,60.92l1.55-1.79c0-.2-.04-.34-.11-.42s-.19-.12-.36-.12v-.15h1.66v.15c-.17,0-.29.02-.35.05s-.11.08-.14.13-.05.22-.05.51v1.9c0,.28.01.44.04.49s.07.1.13.14.18.06.37.06v.14h-1.73v-.14c.22,0,.36-.04.43-.12s.11-.27.11-.58v-1.68l-1.55,1.79c0,.22.04.37.09.46s.18.13.37.13v.14h-1.65v-.14c.23,0,.38-.04.45-.13s.1-.27.1-.57v-1.9c0-.28-.01-.44-.04-.49s-.07-.1-.13-.14-.18-.06-.37-.06v-.15h1.73v.15c-.17,0-.29.02-.35.05s-.11.08-.14.13-.05.22-.05.51v1.64Z"/>
    <path class="cls-9" d="m91.82,60.05v-.77c0-.25-.01-.41-.04-.48s-.08-.12-.15-.16-.19-.05-.35-.05v-.15h1.73v.15c-.18,0-.29.02-.35.05s-.1.08-.14.13-.05.22-.05.51v1.9c0,.25.01.41.04.48s.08.13.15.16.19.05.35.05v.14h-1.82v-.14c.21,0,.34-.02.41-.04s.12-.07.16-.15.06-.25.06-.5v-.88c-.38.2-.79.29-1.21.29-.23,0-.41-.03-.54-.09s-.21-.13-.24-.2-.05-.2-.05-.37v-.65c0-.23-.01-.38-.03-.46s-.07-.13-.14-.17-.18-.06-.32-.06v-.15h1.68v.15c-.17,0-.29.02-.35.05s-.11.08-.14.13-.05.22-.05.51v.44c0,.17.01.29.04.35s.08.11.17.15.22.06.38.06c.28,0,.55-.08.81-.23Z"/>
    <path class="cls-9" d="m94.55,60.92l1.55-1.79c0-.2-.04-.34-.11-.42s-.19-.12-.36-.12v-.15h1.66v.15c-.17,0-.29.02-.35.05s-.11.08-.14.13-.05.22-.05.51v1.9c0,.28.01.44.04.49s.07.1.13.14.18.06.37.06v.14h-1.73v-.14c.22,0,.36-.04.43-.12s.11-.27.11-.58v-1.68l-1.55,1.79c0,.22.04.37.09.46s.18.13.37.13v.14h-1.65v-.14c.23,0,.38-.04.45-.13s.1-.27.1-.57v-1.9c0-.28-.01-.44-.04-.49s-.07-.1-.13-.14-.18-.06-.37-.06v-.15h1.73v.15c-.17,0-.29.02-.35.05s-.11.08-.14.13-.05.22-.05.51v1.64Z"/>
    <path class="cls-9" d="m97.57,58.44h1.68v.14c-.11,0-.18.02-.22.05s-.06.08-.06.14.05.16.14.29c.03.04.07.11.13.2l.25.41.29-.41c.19-.26.28-.42.28-.49,0-.05-.02-.1-.07-.14s-.12-.06-.21-.06v-.14h1.21v.14c-.13,0-.24.04-.33.11-.13.09-.3.28-.52.58l-.49.65.89,1.28c.22.31.38.5.47.57s.21.1.36.11v.14h-1.69v-.14c.12,0,.21-.03.27-.08.05-.04.07-.08.07-.14s-.08-.21-.25-.45l-.52-.77-.57.77c-.18.24-.27.38-.27.42,0,.06.03.12.09.17s.15.08.26.08v.14h-1.17v-.14c.09-.01.18-.05.25-.1.1-.08.27-.27.5-.58l.75-1-.68-.98c-.19-.28-.34-.46-.45-.53s-.24-.11-.4-.11v-.14Z"/>
    <path class="cls-9" d="m77.79,68.4l1.1-.45h.15v.84c.19-.31.37-.54.56-.66s.38-.19.59-.19c.36,0,.66.14.9.42.29.34.44.79.44,1.34,0,.62-.18,1.13-.53,1.53-.29.33-.66.5-1.1.5-.19,0-.36-.03-.5-.08-.1-.04-.22-.12-.35-.23v1.09c0,.24.02.4.04.47s.08.12.16.16.21.06.4.06v.14h-1.88v-.14h.1c.14,0,.27-.02.37-.08.05-.03.09-.07.12-.14s.04-.23.04-.49v-3.38c0-.23-.01-.38-.03-.44s-.05-.11-.1-.14-.11-.05-.19-.05c-.06,0-.14.02-.24.05l-.05-.12Zm1.25.62v1.34c0,.29.01.48.04.57.04.15.13.28.27.4s.32.17.54.17c.26,0,.47-.1.63-.3.21-.27.32-.64.32-1.12,0-.55-.12-.97-.36-1.26-.17-.2-.36-.3-.59-.3-.12,0-.25.03-.37.09-.09.05-.25.19-.46.42Z"/>
    <path class="cls-9" d="m82.65,69.39c0,.53.13.95.39,1.25s.57.45.92.45c.23,0,.44-.06.61-.19s.32-.35.44-.66l.12.08c-.05.36-.21.68-.48.97s-.59.44-.99.44c-.43,0-.8-.17-1.1-.5s-.46-.78-.46-1.35c0-.61.16-1.09.47-1.43s.71-.51,1.18-.51c.4,0,.73.13.99.4s.39.62.39,1.06h-2.47Zm0-.23h1.66c-.01-.23-.04-.39-.08-.48-.06-.15-.16-.26-.29-.34s-.26-.12-.4-.12c-.22,0-.41.08-.58.25s-.27.4-.3.7Z"/>
    <path class="cls-9" d="m88.43,68.04l.14.98h-.17c-.1-.32-.2-.52-.3-.6s-.31-.12-.63-.12h-.76v2.48c0,.28.01.44.04.49s.07.1.13.14.18.06.37.06v.14h-1.79v-.14c.26,0,.42-.04.49-.12s.11-.27.11-.58v-1.9c0-.25-.01-.41-.04-.49s-.08-.12-.15-.15-.21-.05-.41-.05v-.15h2.96Z"/>
    <path class="cls-9" d="m90,70.52l1.55-1.79c0-.2-.04-.34-.11-.42s-.19-.12-.36-.12v-.15h1.66v.15c-.17,0-.29.02-.35.05s-.11.08-.14.13-.05.22-.05.51v1.9c0,.28.01.44.04.49s.07.1.13.14.18.06.37.06v.14h-1.73v-.14c.22,0,.36-.04.43-.12s.11-.27.11-.58v-1.68l-1.55,1.79c0,.22.04.37.09.46s.18.13.37.13v.14h-1.65v-.14c.23,0,.38-.04.45-.13s.1-.27.1-.57v-1.9c0-.28-.01-.44-.04-.49s-.07-.1-.13-.14-.18-.06-.37-.06v-.15h1.73v.15c-.17,0-.29.02-.35.05s-.11.08-.14.13-.05.22-.05.51v1.64Z"/>
    <path class="cls-9" d="m96.2,70.26c-.1.47-.29.83-.57,1.09s-.59.38-.93.38c-.41,0-.76-.17-1.06-.51s-.45-.8-.45-1.38.17-1.02.5-1.37.74-.53,1.21-.53c.35,0,.64.09.87.28s.34.38.34.58c0,.1-.03.18-.1.24s-.15.09-.27.09c-.15,0-.27-.05-.35-.15-.04-.05-.07-.16-.09-.31s-.07-.27-.16-.35c-.09-.08-.22-.12-.38-.12-.26,0-.47.1-.63.29-.21.26-.32.59-.32,1.01s.1.8.31,1.13.49.49.85.49c.26,0,.48-.09.69-.26.14-.12.28-.34.42-.65l.11.05Z"/>
    <path class="cls-9" d="m96.66,68.04h3.09l.16.97h-.18c-.03-.2-.08-.35-.16-.45s-.16-.18-.25-.21-.25-.05-.48-.05h-.31v2.48c0,.27.02.43.05.51s.09.12.16.14.24.04.5.05v.14h-1.95v-.14c.25,0,.41-.05.48-.12s.11-.27.11-.57v-2.48h-.32c-.22,0-.38.01-.46.04s-.16.09-.23.2-.14.26-.19.48h-.18l.15-.97Z"/>
    <path class="cls-9" d="m99.95,68.4l1.1-.45h.15v.84c.19-.31.37-.54.56-.66s.38-.19.59-.19c.36,0,.66.14.9.42.29.34.44.79.44,1.34,0,.62-.18,1.13-.53,1.53-.29.33-.66.5-1.1.5-.19,0-.36-.03-.5-.08-.1-.04-.22-.12-.35-.23v1.09c0,.24.02.4.04.47s.08.12.16.16.21.06.4.06v.14h-1.88v-.14h.1c.14,0,.27-.02.37-.08.05-.03.09-.07.12-.14s.04-.23.04-.49v-3.38c0-.23-.01-.38-.03-.44s-.05-.11-.1-.14-.11-.05-.19-.05c-.06,0-.14.02-.24.05l-.05-.12Zm1.25.62v1.34c0,.29.01.48.04.57.04.15.13.28.27.4s.32.17.54.17c.26,0,.47-.1.63-.3.21-.27.32-.64.32-1.12,0-.55-.12-.97-.36-1.26-.17-.2-.36-.3-.59-.3-.12,0-.25.03-.37.09-.09.05-.25.19-.46.42Z"/>
  </g>
  <g>
    <path class="cls-9" d="m84.23,82.84l.05,1.16h-.14c-.08-.38-.21-.61-.38-.71s-.48-.15-.92-.15h-.89v2.1h.21c.65,0,1.12.04,1.43.12s.55.24.74.47.29.51.29.84c0,.39-.15.74-.44,1.04s-.79.45-1.51.45h-2.24v-.14c.33-.01.54-.06.63-.16s.14-.31.14-.66v-3.37c0-.27-.02-.45-.06-.54s-.1-.16-.19-.2-.24-.06-.48-.08v-.14h3.75Zm-2.29,4.98c.23.04.41.05.54.05.32,0,.61-.11.87-.32s.39-.51.39-.89-.14-.68-.41-.87-.61-.28-1.03-.28c-.12,0-.24.01-.36.03v2.27Z"/>
    <path class="cls-9" d="m86.25,87.03l1.55-1.79c0-.2-.04-.34-.11-.42s-.19-.12-.36-.12v-.15h1.66v.15c-.17,0-.29.02-.35.05s-.11.08-.14.13-.05.22-.05.51v1.9c0,.28.01.44.04.49s.07.1.13.14.18.06.37.06v.14h-1.73v-.14c.22,0,.36-.04.43-.12s.11-.27.11-.58v-1.68l-1.55,1.79c0,.22.04.37.09.46s.18.13.37.13v.14h-1.65v-.14c.23,0,.38-.04.45-.13s.1-.27.1-.57v-1.9c0-.28-.01-.44-.04-.49s-.07-.1-.13-.14-.18-.06-.37-.06v-.15h1.73v.15c-.17,0-.29.02-.35.05s-.11.08-.14.13-.05.22-.05.51v1.64Z"/>
    <path class="cls-9" d="m91.82,86.16v-.77c0-.25-.01-.41-.04-.48s-.08-.12-.15-.16-.19-.05-.35-.05v-.15h1.73v.15c-.18,0-.29.02-.35.05s-.1.08-.14.13-.05.22-.05.51v1.9c0,.25.01.41.04.48s.08.13.15.16.19.05.35.05v.14h-1.82v-.14c.21,0,.34-.02.41-.04s.12-.07.16-.15.06-.25.06-.5v-.88c-.38.2-.79.29-1.21.29-.23,0-.41-.03-.54-.09s-.21-.13-.24-.2-.05-.2-.05-.37v-.65c0-.23-.01-.38-.03-.46s-.07-.13-.14-.17-.18-.06-.32-.06v-.15h1.68v.15c-.17,0-.29.02-.35.05s-.11.08-.14.13-.05.22-.05.51v.44c0,.17.01.29.04.35s.08.11.17.15.22.06.38.06c.28,0,.55-.08.81-.23Z"/>
    <path class="cls-9" d="m94.55,87.03l1.55-1.79c0-.2-.04-.34-.11-.42s-.19-.12-.36-.12v-.15h1.66v.15c-.17,0-.29.02-.35.05s-.11.08-.14.13-.05.22-.05.51v1.9c0,.28.01.44.04.49s.07.1.13.14.18.06.37.06v.14h-1.73v-.14c.22,0,.36-.04.43-.12s.11-.27.11-.58v-1.68l-1.55,1.79c0,.22.04.37.09.46s.18.13.37.13v.14h-1.65v-.14c.23,0,.38-.04.45-.13s.1-.27.1-.57v-1.9c0-.28-.01-.44-.04-.49s-.07-.1-.13-.14-.18-.06-.37-.06v-.15h1.73v.15c-.17,0-.29.02-.35.05s-.11.08-.14.13-.05.22-.05.51v1.64Z"/>
    <path class="cls-9" d="m97.57,84.55h1.68v.14c-.11,0-.18.02-.22.05s-.06.08-.06.14.05.16.14.29c.03.04.07.11.13.2l.25.41.29-.41c.19-.26.28-.42.28-.49,0-.05-.02-.1-.07-.14s-.12-.06-.21-.06v-.14h1.21v.14c-.13,0-.24.04-.33.11-.13.09-.3.28-.52.58l-.49.65.89,1.28c.22.31.38.5.47.57s.21.1.36.11v.14h-1.69v-.14c.12,0,.21-.03.27-.08.05-.04.07-.08.07-.14s-.08-.21-.25-.45l-.52-.77-.57.77c-.18.24-.27.38-.27.42,0,.06.03.12.09.17s.15.08.26.08v.14h-1.17v-.14c.09-.01.18-.05.25-.1.1-.08.27-.27.5-.58l.75-1-.68-.98c-.19-.28-.34-.46-.45-.53s-.24-.11-.4-.11v-.14Z"/>
    <path class="cls-9" d="m81.29,95.88c0,.33-.08.65-.23.96-.16.34-.37.59-.64.75s-.57.25-.9.25c-.54,0-.97-.21-1.29-.64-.27-.36-.4-.77-.4-1.22,0-.33.08-.65.23-.96.17-.34.38-.58.65-.74s.55-.23.85-.23c.54,0,.98.21,1.3.62.28.35.42.76.42,1.21Zm-.75-.18c-.05-.36-.15-.67-.31-.92-.2-.32-.46-.48-.78-.48-.35,0-.6.19-.75.55-.09.21-.13.48-.13.79v.05h1.97Zm.03.48c0-.05,0-.13,0-.22h-1.98c.03.39.13.74.3,1.04.21.38.48.57.82.57.58,0,.87-.46.87-1.39Z"/>
    <path class="cls-9" d="m84.65,94.15l.14.98h-.17c-.1-.32-.2-.52-.3-.6s-.31-.12-.63-.12h-.76v2.48c0,.28.01.44.04.49s.07.1.13.14.18.06.37.06v.14h-1.79v-.14c.26,0,.42-.04.49-.12s.11-.27.11-.58v-1.9c0-.25-.01-.41-.04-.49s-.08-.12-.15-.15-.21-.05-.41-.05v-.15h2.96Z"/>
    <path class="cls-9" d="m88.57,95.88c0,.33-.08.65-.23.96-.16.34-.37.59-.64.75s-.57.25-.9.25c-.54,0-.97-.21-1.29-.64-.27-.36-.4-.77-.4-1.22,0-.33.08-.65.23-.96.17-.34.38-.58.65-.74s.55-.23.85-.23c.54,0,.98.21,1.3.62.28.35.42.76.42,1.21Zm-.75-.18c-.05-.36-.15-.67-.31-.92-.2-.32-.46-.48-.78-.48-.35,0-.6.19-.75.55-.09.21-.13.48-.13.79v.05h1.97Zm.03.48c0-.05,0-.13,0-.22h-1.98c.03.39.13.74.3,1.04.21.38.48.57.82.57.58,0,.87-.46.87-1.39Z"/>
    <path class="cls-9" d="m91.93,94.15l.14.98h-.17c-.1-.32-.2-.52-.3-.6s-.31-.12-.63-.12h-.76v2.48c0,.28.01.44.04.49s.07.1.13.14.18.06.37.06v.14h-1.79v-.14c.26,0,.42-.04.49-.12s.11-.27.11-.58v-1.9c0-.25-.01-.41-.04-.49s-.08-.12-.15-.15-.21-.05-.41-.05v-.15h2.96Z"/>
    <path class="cls-9" d="m92.87,94.15h3.16v.15c-.18,0-.29.02-.35.05s-.1.08-.14.13-.05.22-.05.51v1.77c0,.37.03.6.1.69s.21.13.45.14v1.14h-.15c-.01-.21-.06-.4-.16-.56s-.23-.27-.4-.34-.42-.1-.75-.1h-.92c-.29,0-.51.03-.67.08s-.3.16-.4.32-.17.36-.2.6h-.14v-1.14c.21,0,.41-.09.58-.25s.33-.48.46-.95.2-.94.2-1.39-.2-.68-.61-.69v-.15Zm.86.25v.21c0,1.28-.23,2.23-.7,2.86h1.33c.24,0,.38-.02.41-.06s.05-.19.05-.45v-2.56h-1.1Z"/>
    <path class="cls-9" d="m99.92,95.88c0,.33-.08.65-.23.96-.16.34-.37.59-.64.75s-.57.25-.9.25c-.54,0-.97-.21-1.29-.64-.27-.36-.4-.77-.4-1.22,0-.33.08-.65.23-.96.17-.34.38-.58.65-.74s.55-.23.85-.23c.54,0,.98.21,1.3.62.28.35.42.76.42,1.21Zm-.75-.18c-.05-.36-.15-.67-.31-.92-.2-.32-.46-.48-.78-.48-.35,0-.6.19-.75.55-.09.21-.13.48-.13.79v.05h1.97Zm.03.48c0-.05,0-.13,0-.22h-1.98c.03.39.13.74.3,1.04.21.38.48.57.82.57.58,0,.87-.46.87-1.39Z"/>
    <path class="cls-9" d="m100.82,94.15h3.2v.15c-.18,0-.29.02-.35.05s-.1.08-.14.13-.05.22-.05.51v1.9c0,.28.01.44.04.49s.07.1.13.14.18.06.37.06v.14h-1.85v-.14c.2,0,.34-.01.42-.03s.14-.07.18-.15.07-.25.07-.51v-2.48h-1.19v1.51c0,.57-.03.97-.08,1.2s-.15.4-.3.51-.32.17-.51.17c-.33,0-.5-.14-.5-.41,0-.09.03-.17.08-.23s.12-.09.21-.09c.09,0,.18.04.25.11.1.1.18.15.23.15.12,0,.2-.1.26-.29s.08-.54.08-1.03v-.79c0-.41-.03-.65-.09-.74s-.21-.14-.45-.16v-.15Z"/>
  </g>
  <g>
    <path class="cls-9" d="m278.49,53.41h-2.05l-.36.84c-.09.21-.13.36-.13.46,0,.08.04.15.12.21s.24.1.5.12v.14h-1.67v-.14c.22-.04.36-.09.43-.15.13-.12.28-.38.44-.76l1.86-4.36h.14l1.84,4.41c.15.35.28.58.4.69s.29.16.51.18v.14h-2.09v-.14c.21-.01.35-.05.43-.11s.11-.13.11-.22c0-.11-.05-.3-.16-.54l-.32-.76Zm-.11-.29l-.9-2.14-.92,2.14h1.82Z"/>
    <path class="cls-9" d="m285.2,53.71l.13.03-.45,1.44h-4.1v-.14h.2c.22,0,.38-.07.48-.22.05-.08.08-.28.08-.58v-3.42c0-.33-.04-.54-.11-.62-.1-.11-.25-.17-.45-.17h-.2v-.14h2.4v.14c-.28,0-.48.02-.59.08s-.19.12-.23.21-.06.28-.06.6v3.33c0,.22.02.36.06.45.03.05.08.1.14.12s.27.04.61.04h.39c.41,0,.69-.03.86-.09s.31-.17.45-.32.27-.39.41-.72Z"/>
    <path class="cls-9" d="m289.31,50.03v-.14h1.88v.14h-.2c-.21,0-.37.09-.48.26-.05.08-.08.27-.08.56v2.15c0,.53-.05.94-.16,1.24s-.31.54-.62.75-.73.31-1.26.31c-.58,0-1.02-.1-1.32-.3s-.51-.47-.64-.81c-.08-.23-.12-.67-.12-1.3v-2.07c0-.33-.04-.54-.13-.64s-.24-.15-.44-.15h-.2v-.14h2.29v.14h-.2c-.22,0-.38.07-.47.21-.07.09-.1.29-.1.59v2.31c0,.21.02.44.06.71s.11.47.21.62.24.27.43.37.42.14.69.14c.35,0,.66-.08.93-.23s.46-.34.56-.58.15-.63.15-1.2v-2.14c0-.33-.04-.54-.11-.62-.1-.11-.25-.17-.45-.17h-.2Z"/>
  </g>
  <g>
    <path class="cls-9" d="m10.34,91.2c0,.77-.24,1.42-.72,1.96-.5.56-1.13.84-1.89.84s-1.4-.27-1.89-.82c-.46-.53-.7-1.18-.7-1.96,0-.84.29-1.53.86-2.06.5-.46,1.09-.69,1.79-.69.73,0,1.35.28,1.84.83.47.53.71,1.17.71,1.91Zm-.89.13h-3.4c.02.8.2,1.42.55,1.86.28.35.66.53,1.12.53.61,0,1.07-.26,1.36-.78.24-.42.36-.96.36-1.62Zm0-.29c-.03-.65-.15-1.17-.39-1.56-.29-.49-.74-.73-1.33-.73s-1.01.25-1.3.75c-.23.4-.36.92-.38,1.54h3.39Z"/>
    <path class="cls-9" d="m13.73,90.3l.14.98h-.17c-.1-.32-.2-.52-.3-.6s-.31-.12-.63-.12h-.76v2.48c0,.28.01.44.04.49s.07.1.13.14.18.06.37.06v.14h-1.79v-.14c.26,0,.42-.04.49-.12s.11-.27.11-.58v-1.9c0-.25-.01-.41-.04-.49s-.08-.12-.15-.15-.21-.05-.41-.05v-.15h2.96Z"/>
    <path class="cls-9" d="m17.65,92.03c0,.33-.08.65-.23.96-.16.34-.37.59-.64.75s-.57.25-.9.25c-.54,0-.97-.21-1.29-.64-.27-.36-.4-.77-.4-1.22,0-.33.08-.65.23-.96.17-.34.38-.58.65-.74s.55-.23.85-.23c.54,0,.98.21,1.3.62.28.35.42.76.42,1.21Zm-.75-.18c-.05-.36-.15-.67-.31-.92-.2-.32-.46-.48-.78-.48-.35,0-.6.19-.75.55-.09.21-.13.48-.13.79v.05h1.97Zm.03.48c0-.05,0-.13,0-.22h-1.98c.03.39.13.74.3,1.04.21.38.48.57.82.57.58,0,.87-.46.87-1.39Z"/>
    <path class="cls-9" d="m21.02,90.3l.14.98h-.17c-.1-.32-.2-.52-.3-.6s-.31-.12-.63-.12h-.76v2.48c0,.28.01.44.04.49s.07.1.13.14.18.06.37.06v.14h-1.79v-.14c.26,0,.42-.04.49-.12s.11-.27.11-.58v-1.9c0-.25-.01-.41-.04-.49s-.08-.12-.15-.15-.21-.05-.41-.05v-.15h2.96Z"/>
    <path class="cls-9" d="m21.95,90.3h3.16v.15c-.18,0-.29.02-.35.05s-.1.08-.14.13-.05.22-.05.51v1.77c0,.37.03.6.1.69s.21.13.45.14v1.14h-.15c-.01-.21-.06-.4-.16-.56s-.23-.27-.4-.34-.42-.1-.75-.1h-.92c-.29,0-.51.03-.67.08s-.3.16-.4.32-.17.36-.2.6h-.14v-1.14c.21,0,.41-.09.58-.25s.33-.48.46-.95.2-.94.2-1.39-.2-.68-.61-.69v-.15Zm.86.25v.21c0,1.28-.23,2.23-.7,2.86h1.33c.24,0,.38-.02.41-.06s.05-.19.05-.45v-2.56h-1.1Z"/>
    <path class="cls-9" d="m29,92.03c0,.33-.08.65-.23.96-.16.34-.37.59-.64.75s-.57.25-.9.25c-.54,0-.97-.21-1.29-.64-.27-.36-.4-.77-.4-1.22,0-.33.08-.65.23-.96.17-.34.38-.58.65-.74s.55-.23.85-.23c.54,0,.98.21,1.3.62.28.35.42.76.42,1.21Zm-.75-.18c-.05-.36-.15-.67-.31-.92-.2-.32-.46-.48-.78-.48-.35,0-.6.19-.75.55-.09.21-.13.48-.13.79v.05h1.97Zm.03.48c0-.05,0-.13,0-.22h-1.98c.03.39.13.74.3,1.04.21.38.48.57.82.57.58,0,.87-.46.87-1.39Z"/>
    <path class="cls-9" d="m29.9,90.3h3.2v.15c-.18,0-.29.02-.35.05s-.1.08-.14.13-.05.22-.05.51v1.9c0,.28.01.44.04.49s.07.1.13.14.18.06.37.06v.14h-1.85v-.14c.2,0,.34-.01.42-.03s.14-.07.18-.15.07-.25.07-.51v-2.48h-1.19v1.51c0,.57-.03.97-.08,1.2s-.15.4-.3.51-.32.17-.51.17c-.33,0-.5-.14-.5-.41,0-.09.03-.17.08-.23s.12-.09.21-.09c.09,0,.18.04.25.11.1.1.18.15.23.15.12,0,.2-.1.26-.29s.08-.54.08-1.03v-.79c0-.41-.03-.65-.09-.74s-.21-.14-.45-.16v-.15Z"/>
  </g>
  <g>
    <path class="cls-9" d="m219.92,52.95c0,.77-.24,1.42-.72,1.96-.5.56-1.13.84-1.89.84s-1.4-.27-1.89-.82c-.46-.53-.7-1.18-.7-1.96,0-.84.29-1.53.86-2.06.5-.46,1.09-.69,1.79-.69.73,0,1.35.28,1.84.83.47.53.71,1.17.71,1.91Zm-.89.13h-3.4c.02.8.2,1.42.55,1.86.28.35.66.53,1.12.53.61,0,1.07-.26,1.36-.78.24-.42.36-.96.36-1.62Zm0-.29c-.03-.65-.15-1.17-.39-1.56-.29-.49-.74-.73-1.33-.73s-1.01.25-1.3.75c-.23.4-.36.92-.38,1.54h3.39Z"/>
    <path class="cls-9" d="m223.32,52.05l.14.98h-.17c-.1-.32-.2-.52-.3-.6s-.31-.12-.63-.12h-.76v2.48c0,.28.01.44.04.49s.07.1.13.14.18.06.37.06v.14h-1.79v-.14c.26,0,.42-.04.49-.12s.11-.27.11-.58v-1.9c0-.25-.01-.41-.04-.49s-.08-.12-.15-.15-.21-.05-.41-.05v-.15h2.96Z"/>
    <path class="cls-9" d="m227.23,53.78c0,.33-.08.65-.23.96-.16.34-.37.59-.64.75-.27.17-.57.25-.9.25-.54,0-.97-.21-1.29-.64-.27-.36-.4-.77-.4-1.22,0-.33.08-.65.23-.96.17-.34.38-.58.65-.74s.55-.23.85-.23c.54,0,.98.21,1.31.62.28.35.42.76.42,1.21Zm-.75-.18c-.05-.36-.15-.67-.31-.92-.2-.32-.46-.48-.78-.48-.35,0-.6.19-.75.55-.09.21-.13.48-.13.79v.05h1.97Zm.03.48c0-.05,0-.13,0-.22h-1.98c.03.39.13.74.3,1.04.21.38.48.57.82.57.58,0,.87-.46.87-1.39Z"/>
    <path class="cls-9" d="m230.6,52.05l.14.98h-.17c-.1-.32-.2-.52-.3-.6-.1-.08-.31-.12-.63-.12h-.76v2.48c0,.28.01.44.04.49.03.05.07.1.13.14.06.04.18.06.37.06v.14h-1.79v-.14c.25,0,.42-.04.49-.12.07-.07.11-.27.11-.58v-1.9c0-.25-.01-.41-.04-.49-.03-.07-.08-.12-.15-.15-.07-.03-.21-.05-.41-.05v-.15h2.96Z"/>
    <path class="cls-9" d="m231.53,52.05h3.16v.15c-.18,0-.29.02-.35.05s-.11.08-.14.13c-.03.05-.05.22-.05.51v1.77c0,.37.03.6.1.69.06.08.21.13.45.14v1.14h-.15c-.01-.21-.06-.4-.16-.56-.1-.16-.23-.27-.4-.34-.17-.06-.42-.1-.75-.1h-.92c-.29,0-.51.03-.67.08-.16.05-.3.16-.4.32-.11.16-.17.36-.2.6h-.14v-1.14c.21,0,.41-.09.58-.25.17-.16.33-.48.46-.95s.2-.94.2-1.39-.2-.68-.61-.69v-.15Zm.86.25v.21c0,1.28-.23,2.23-.7,2.86h1.33c.24,0,.38-.02.41-.06.04-.04.05-.19.05-.45v-2.56h-1.1Z"/>
    <path class="cls-9" d="m238.59,53.78c0,.33-.08.65-.23.96-.16.34-.37.59-.64.75-.27.17-.57.25-.9.25-.54,0-.97-.21-1.29-.64-.27-.36-.4-.77-.4-1.22,0-.33.08-.65.23-.96.17-.34.38-.58.65-.74s.55-.23.85-.23c.54,0,.98.21,1.3.62.28.35.42.76.42,1.21Zm-.75-.18c-.05-.36-.15-.67-.31-.92-.2-.32-.46-.48-.78-.48-.35,0-.6.19-.75.55-.09.21-.13.48-.13.79v.05h1.97Zm.03.48c0-.05,0-.13,0-.22h-1.98c.03.39.13.74.3,1.04.21.38.48.57.82.57.58,0,.87-.46.87-1.39Z"/>
    <path class="cls-9" d="m239.48,52.05h3.2v.15c-.18,0-.29.02-.35.05s-.11.08-.14.13c-.03.05-.05.22-.05.51v1.9c0,.28.01.44.04.49.03.05.07.1.13.14.06.04.18.06.37.06v.14h-1.85v-.14c.2,0,.34-.01.42-.03.08-.02.14-.07.18-.15.04-.08.07-.25.07-.51v-2.48h-1.19v1.51c0,.57-.03.97-.08,1.2s-.15.4-.3.51c-.15.11-.32.17-.51.17-.33,0-.5-.14-.5-.41,0-.09.03-.17.08-.23.05-.06.12-.09.21-.09.09,0,.18.04.25.11.1.1.18.15.23.15.12,0,.2-.1.26-.29.05-.2.08-.54.08-1.03v-.79c0-.41-.03-.65-.09-.74s-.21-.14-.45-.16v-.15Z"/>
  </g>
  <line class="cls-5" x1="66.01" y1="13.26" x2="51.38" y2="13.26"/>
  <path class="cls-9" d="m67.48,12.62c-1.03-.31-1.71-.6-2.53-.93v3.15c.3-.14,1.5-.62,2.53-.93,1.11-.33,2.11-.56,2.76-.64-.65-.08-1.65-.31-2.76-.64"/>
  <line class="cls-5" x1="175.88" y1="26.29" x2="192.63" y2="26.29"/>
  <path class="cls-9" d="m194.11,25.65c-1.04-.31-1.71-.6-2.54-.93v3.15c.3-.14,1.5-.62,2.54-.93,1.1-.33,2.11-.56,2.76-.64-.65-.08-1.65-.31-2.76-.64"/>
  <line class="cls-5" x1="175.88" y1="78.36" x2="192.63" y2="78.36"/>
  <path class="cls-9" d="m194.11,77.72c-1.04-.31-1.71-.6-2.54-.93v3.15c.3-.14,1.5-.62,2.54-.93,1.1-.33,2.11-.56,2.76-.64-.65-.08-1.65-.31-2.76-.64"/>
  <line class="cls-5" x1="244.28" y1="26.29" x2="261.03" y2="26.29"/>
  <path class="cls-9" d="m262.51,25.65c-1.04-.31-1.71-.6-2.54-.93v3.15c.3-.14,1.5-.62,2.54-.93,1.11-.33,2.11-.56,2.76-.64-.65-.08-1.65-.31-2.76-.64"/>
  <line class="cls-5" x1="315.64" y1="59.93" x2="332.39" y2="59.93"/>
  <path class="cls-9" d="m333.87,59.29c-1.04-.31-1.71-.6-2.54-.93v3.15c.3-.14,1.5-.62,2.54-.93,1.1-.33,2.11-.56,2.76-.64-.65-.08-1.65-.31-2.76-.64"/>
  <line class="cls-4" x1="315.64" y1="43.07" x2="327.39" y2="43.07"/>
  <path class="cls-7" d="m328.87,42.43c-1.04-.31-1.71-.6-2.54-.93v3.15c.3-.14,1.5-.62,2.54-.93,1.1-.33,2.11-.56,2.76-.64-.65-.08-1.65-.31-2.76-.64"/>
  <line class="cls-5" x1="244.28" y1="78.36" x2="261.03" y2="78.36"/>
  <path class="cls-9" d="m262.51,77.72c-1.04-.31-1.71-.6-2.54-.93v3.15c.3-.14,1.5-.62,2.54-.93,1.11-.33,2.11-.56,2.76-.64-.65-.08-1.65-.31-2.76-.64"/>
  <line class="cls-5" x1="51.38" y1="39.3" x2="66.01" y2="39.3"/>
  <path class="cls-9" d="m67.48,38.66c-1.03-.31-1.71-.6-2.53-.93v3.15c.3-.14,1.5-.62,2.53-.93,1.11-.33,2.11-.56,2.76-.64-.65-.08-1.65-.31-2.76-.64"/>
  <line class="cls-5" x1="51.38" y1="65.34" x2="66.01" y2="65.34"/>
  <path class="cls-9" d="m67.48,64.7c-1.03-.31-1.71-.6-2.53-.93v3.15c.3-.14,1.5-.62,2.53-.93,1.11-.33,2.11-.56,2.76-.64-.65-.08-1.65-.31-2.76-.64"/>
  <line class="cls-5" x1="51.38" y1="91.37" x2="66.01" y2="91.37"/>
  <path class="cls-9" d="m67.48,90.73c-1.03-.31-1.71-.6-2.53-.93v3.15c.3-.14,1.5-.62,2.53-.93,1.11-.33,2.11-.56,2.76-.64-.65-.08-1.65-.31-2.76-.64"/>
  <g>
    <path class="cls-7" d="m301.03,39.43l-3.48,4.98h2.17c.33,0,.59-.07.77-.22s.34-.44.47-.89l.13.02-.25,1.4h-4.31v-.14l3.4-4.84h-1.7c-.28,0-.49.03-.61.09s-.22.15-.29.27-.13.33-.18.65h-.15l.11-1.32h3.92Z"/>
    <path class="cls-7" d="m302.17,42.5c0,.53.13.95.39,1.25s.57.45.92.45c.23,0,.44-.06.61-.19s.32-.35.44-.66l.12.08c-.05.36-.21.68-.48.97s-.59.44-.99.44c-.43,0-.8-.17-1.1-.5s-.46-.78-.46-1.35c0-.61.16-1.09.47-1.43s.71-.51,1.18-.51c.4,0,.73.13.99.4s.39.62.39,1.06h-2.47Zm0-.23h1.66c-.01-.23-.04-.39-.08-.48-.07-.15-.16-.26-.29-.34s-.26-.12-.4-.12c-.22,0-.41.08-.58.25s-.27.4-.3.7Z"/>
    <path class="cls-7" d="m306.16,41.04v.8c.3-.54.61-.8.92-.8.14,0,.26.04.36.13s.14.19.14.3c0,.1-.03.19-.1.26s-.15.11-.24.11-.19-.04-.31-.13-.2-.13-.25-.13c-.05,0-.1.03-.15.08-.12.11-.24.28-.36.53v1.71c0,.2.02.35.07.45.03.07.09.13.18.18s.21.07.37.07v.14h-1.83v-.14c.18,0,.32-.03.41-.09.07-.04.11-.11.14-.2.01-.04.02-.17.02-.38v-1.39c0-.42,0-.66-.03-.74s-.05-.14-.09-.17-.1-.05-.17-.05c-.08,0-.17.02-.27.06l-.04-.14,1.08-.44h.16Z"/>
    <path class="cls-7" d="m309.53,41.04c.54,0,.98.21,1.3.62.28.35.42.76.42,1.21,0,.32-.08.64-.23.97s-.37.58-.63.74-.57.25-.9.25c-.54,0-.97-.21-1.29-.64-.27-.36-.4-.77-.4-1.22,0-.33.08-.65.24-.98s.38-.56.64-.72.55-.23.84-.23Zm-.12.25c-.14,0-.28.04-.42.12s-.25.23-.34.43-.13.47-.13.79c0,.52.1.97.31,1.35s.48.57.82.57c.25,0,.46-.1.62-.31s.25-.57.25-1.07c0-.64-.14-1.14-.41-1.5-.18-.25-.42-.38-.71-.38Z"/>
  </g>
  <g>
    <path class="cls-9" d="m298.28,57.95h-2.05l-.36.84c-.09.21-.13.36-.13.46,0,.08.04.15.12.21s.24.1.5.12v.14h-1.67v-.14c.22-.04.36-.09.43-.15.13-.12.28-.38.44-.76l1.86-4.36h.14l1.84,4.41c.15.35.28.58.4.69s.29.16.51.18v.14h-2.09v-.14c.21-.01.35-.05.43-.11s.11-.13.11-.22c0-.11-.05-.3-.16-.54l-.32-.76Zm-.11-.29l-.9-2.14-.92,2.14h1.82Z"/>
    <path class="cls-9" d="m304.99,58.26l.13.03-.45,1.44h-4.1v-.14h.2c.22,0,.38-.07.48-.22.05-.08.08-.28.08-.58v-3.42c0-.33-.04-.54-.11-.62-.1-.11-.25-.17-.45-.17h-.2v-.14h2.4v.14c-.28,0-.48.02-.59.08s-.19.12-.23.21-.06.28-.06.6v3.33c0,.22.02.36.06.45.03.05.08.1.14.12s.27.04.61.04h.39c.41,0,.69-.03.86-.09s.31-.17.45-.32.27-.39.41-.72Z"/>
    <path class="cls-9" d="m309.1,54.57v-.14h1.88v.14h-.2c-.21,0-.37.09-.48.26-.05.08-.08.27-.08.56v2.15c0,.53-.05.94-.16,1.24s-.31.54-.62.75-.73.31-1.26.31c-.58,0-1.02-.1-1.32-.3s-.51-.47-.64-.81c-.08-.23-.12-.67-.12-1.3v-2.07c0-.33-.04-.54-.13-.64s-.24-.15-.44-.15h-.2v-.14h2.29v.14h-.2c-.22,0-.38.07-.47.21-.07.09-.1.29-.1.59v2.31c0,.21.02.44.06.71s.11.47.21.62.24.27.43.37.42.14.69.14c.35,0,.66-.08.93-.23s.46-.34.56-.58.15-.63.15-1.2v-2.14c0-.33-.04-.54-.11-.62-.1-.11-.25-.17-.45-.17h-.2Z"/>
  </g>
  <g>
    <path class="cls-9" d="m295.15,62.97l.14.98h-.17c-.1-.32-.2-.52-.3-.6s-.31-.12-.63-.12h-.76v2.48c0,.28.01.44.04.49s.07.1.13.14.18.06.37.06v.14h-1.79v-.14c.25,0,.42-.04.49-.12s.11-.27.11-.58v-1.9c0-.25-.01-.41-.04-.49s-.08-.12-.15-.15-.21-.05-.41-.05v-.15h2.96Z"/>
    <path class="cls-9" d="m297.62,66.03c-.37.28-.6.45-.69.49-.14.06-.29.1-.45.1-.25,0-.45-.08-.61-.25s-.24-.39-.24-.67c0-.17.04-.33.12-.45.11-.18.29-.34.56-.5s.7-.35,1.32-.57v-.14c0-.36-.06-.6-.17-.73s-.28-.2-.49-.2c-.16,0-.29.04-.39.13-.1.09-.15.19-.15.3v.23c0,.12-.02.21-.08.28s-.14.1-.24.1-.17-.03-.24-.1-.09-.16-.09-.28c0-.22.11-.43.34-.62s.55-.28.96-.28c.32,0,.58.05.78.16.15.08.27.21.34.38.05.11.07.34.07.69v1.21c0,.34,0,.55.02.63s.03.13.06.15.06.04.1.04c.04,0,.08,0,.11-.03.05-.03.16-.13.32-.29v.22c-.29.39-.57.59-.84.59-.13,0-.23-.04-.3-.13s-.11-.24-.12-.45Zm0-.25v-1.36c-.39.16-.65.27-.76.33-.21.11-.35.23-.44.36s-.13.26-.13.41c0,.19.06.34.17.47s.24.19.39.19c.2,0,.46-.13.78-.39Z"/>
    <path class="cls-9" d="m298.88,63.33l1.1-.45h.15v.84c.18-.31.37-.54.56-.66s.38-.19.59-.19c.36,0,.66.14.9.42.29.34.44.79.44,1.34,0,.62-.18,1.13-.53,1.53-.29.33-.66.5-1.1.5-.19,0-.36-.03-.5-.08-.1-.04-.22-.12-.35-.23v1.09c0,.24.01.4.04.47s.08.12.16.16.21.06.4.06v.14h-1.88v-.14h.1c.14,0,.27-.02.37-.08.05-.03.09-.07.12-.14s.04-.23.04-.49v-3.38c0-.23-.01-.38-.03-.44s-.05-.11-.1-.14-.11-.05-.19-.05c-.06,0-.14.02-.24.05l-.05-.12Zm1.25.62v1.34c0,.29.01.48.04.57.04.15.13.28.27.4s.32.17.54.17c.26,0,.47-.1.63-.3.21-.27.32-.64.32-1.12,0-.55-.12-.97-.36-1.26-.17-.2-.36-.3-.59-.3-.12,0-.25.03-.37.09-.09.05-.25.19-.46.42Z"/>
    <path class="cls-9" d="m305.17,66.03c-.37.28-.6.45-.69.49-.14.06-.29.1-.45.1-.25,0-.45-.08-.61-.25s-.24-.39-.24-.67c0-.17.04-.33.12-.45.11-.18.29-.34.56-.5s.7-.35,1.32-.57v-.14c0-.36-.06-.6-.17-.73s-.28-.2-.49-.2c-.16,0-.29.04-.39.13-.1.09-.15.19-.15.3v.23c0,.12-.02.21-.08.28s-.14.1-.24.1-.17-.03-.24-.1-.09-.16-.09-.28c0-.22.11-.43.34-.62s.55-.28.96-.28c.32,0,.58.05.78.16.15.08.27.21.34.38.05.11.07.34.07.69v1.21c0,.34,0,.55.02.63s.03.13.06.15.06.04.1.04c.04,0,.08,0,.11-.03.05-.03.16-.13.32-.29v.22c-.29.39-.57.59-.84.59-.13,0-.23-.04-.3-.13s-.11-.24-.12-.45Zm0-.25v-1.36c-.39.16-.65.27-.76.33-.21.11-.35.23-.44.36s-.13.26-.13.41c0,.19.06.34.17.47s.24.19.39.19c.2,0,.46-.13.78-.39Z"/>
    <path class="cls-9" d="m307.06,62.97h3.2v.15c-.18,0-.29.02-.35.05s-.1.08-.14.13-.05.22-.05.51v1.9c0,.28.01.44.04.49s.07.1.13.14.18.06.37.06v.14h-1.85v-.14c.2,0,.34-.01.42-.03s.14-.07.18-.15.07-.25.07-.51v-2.48h-1.19v1.51c0,.57-.03.97-.08,1.2s-.15.4-.3.51-.32.17-.51.17c-.33,0-.5-.14-.5-.41,0-.09.03-.17.08-.23s.12-.09.21-.09c.09,0,.18.04.25.11.1.1.18.15.23.15.12,0,.2-.1.26-.29s.08-.54.08-1.03v-.79c0-.41-.03-.65-.09-.74s-.21-.14-.45-.16v-.15Z"/>
    <path class="cls-9" d="m310.63,62.97h3.09l.16.97h-.18c-.03-.2-.08-.35-.16-.45s-.16-.18-.25-.21-.25-.05-.48-.05h-.31v2.48c0,.27.02.43.05.51s.08.12.16.14.24.04.5.05v.14h-1.95v-.14c.25,0,.41-.05.48-.12s.11-.27.11-.57v-2.48h-.32c-.22,0-.38.01-.46.04s-.16.09-.23.2-.14.26-.19.48h-.18l.15-.97Z"/>
  </g>
  <g>
    <path class="cls-8" d="m133.54,114.69h-1.41l-1.79-2.48c-.13,0-.24,0-.32,0-.03,0-.07,0-.11,0s-.08,0-.12,0v1.54c0,.33.04.54.11.62.1.11.25.17.45.17h.21v.14h-2.27v-.14h.2c.22,0,.38-.07.48-.22.05-.08.08-.27.08-.57v-3.42c0-.33-.04-.54-.11-.62-.1-.11-.25-.17-.45-.17h-.2v-.14h1.93c.56,0,.98.04,1.24.12s.49.23.68.45.28.48.28.79c0,.33-.11.61-.32.85s-.54.41-.99.51l1.09,1.52c.25.35.46.58.64.7s.41.19.7.22v.14Zm-3.76-2.72s.09,0,.13,0,.07,0,.09,0c.51,0,.89-.11,1.14-.33s.38-.5.38-.84-.1-.6-.31-.81-.48-.31-.82-.31c-.15,0-.36.02-.61.07v2.2Z"/>
    <path class="cls-8" d="m134.32,112.46c0,.53.13.95.39,1.25s.57.45.92.45c.23,0,.44-.06.61-.19s.32-.35.44-.66l.12.08c-.05.36-.21.68-.48.97s-.59.44-.99.44c-.43,0-.8-.17-1.1-.5s-.46-.78-.46-1.35c0-.61.16-1.09.47-1.43s.71-.51,1.18-.51c.4,0,.73.13.99.4s.39.62.39,1.06h-2.47Zm0-.23h1.66c-.01-.23-.04-.39-.08-.48-.06-.15-.16-.26-.29-.34s-.26-.12-.4-.12c-.22,0-.41.08-.58.25s-.27.4-.3.7Z"/>
    <path class="cls-8" d="m138.23,113.38c-.22-.11-.39-.26-.5-.45s-.18-.4-.18-.63c0-.35.13-.66.4-.91s.61-.38,1.03-.38c.34,0,.64.08.89.25h.76c.11,0,.18,0,.2,0s.03.02.04.03c.02.02.02.06.02.12,0,.07,0,.11-.02.14,0,.01-.02.02-.04.03s-.09.01-.2.01h-.46c.15.19.22.43.22.72,0,.33-.13.62-.38.86s-.6.36-1.03.36c-.18,0-.36-.03-.54-.08-.11.1-.19.19-.23.26s-.06.14-.06.19c0,.04.02.09.06.13s.13.07.25.09c.07.01.26.02.55.03.54.01.88.03,1.04.05.24.03.44.12.58.27s.22.33.22.54c0,.29-.14.57-.41.83-.41.38-.94.57-1.59.57-.5,0-.93-.11-1.27-.34-.2-.13-.29-.27-.29-.41,0-.06.01-.12.04-.19.04-.1.14-.23.27-.4.02-.02.15-.16.4-.42-.14-.08-.23-.15-.29-.22s-.08-.14-.08-.22c0-.09.04-.2.11-.32s.25-.3.51-.52Zm-.04,1.3c-.12.13-.21.26-.28.37s-.09.22-.09.32c0,.12.08.23.23.33.26.16.64.24,1.13.24s.81-.08,1.04-.25.33-.34.33-.53c0-.14-.07-.23-.2-.29-.14-.06-.4-.09-.8-.1-.59-.02-1.04-.05-1.35-.09Zm.72-3.5c-.19,0-.35.08-.48.23s-.2.39-.2.71c0,.41.09.73.27.96.14.17.31.26.52.26.2,0,.36-.07.49-.22s.19-.38.19-.7c0-.41-.09-.74-.27-.97-.13-.17-.3-.26-.51-.26Z"/>
    <path class="cls-8" d="m148.51,109.39v.14c-.14,0-.25.02-.34.07s-.17.14-.25.28c-.05.09-.13.31-.25.65l-1.48,4.27h-.16l-1.21-3.39-1.2,3.39h-.14l-1.57-4.4c-.12-.33-.19-.52-.22-.58-.05-.1-.12-.17-.21-.22s-.21-.07-.37-.07v-.14h1.96v.14h-.09c-.14,0-.24.03-.32.09s-.11.14-.11.23.06.3.17.63l1.04,2.97.88-2.53-.16-.45-.12-.36c-.05-.13-.12-.24-.18-.34-.03-.05-.08-.09-.12-.12-.06-.05-.13-.08-.2-.1-.05-.02-.13-.02-.23-.02v-.14h2.06v.14h-.14c-.15,0-.25.03-.32.09s-.1.15-.1.25c0,.13.06.36.18.7l1.02,2.88,1.01-2.92c.11-.32.17-.55.17-.67,0-.06-.02-.12-.06-.17s-.09-.09-.14-.11c-.1-.04-.23-.05-.39-.05v-.14h1.58Z"/>
    <path class="cls-8" d="m149.87,111v.8c.3-.54.61-.8.92-.8.14,0,.26.04.36.13s.14.19.14.3c0,.1-.03.19-.1.26s-.15.11-.24.11-.19-.04-.31-.13-.2-.13-.25-.13c-.05,0-.1.03-.15.08-.12.11-.24.28-.36.53v1.71c0,.2.02.35.07.45.03.07.09.13.18.18s.21.07.37.07v.14h-1.83v-.14c.18,0,.32-.03.41-.09.06-.04.11-.11.14-.2.01-.04.02-.17.02-.38v-1.39c0-.42,0-.66-.03-.74s-.05-.14-.09-.17-.1-.05-.17-.05c-.08,0-.17.02-.27.06l-.04-.14,1.08-.44h.16Z"/>
    <path class="cls-8" d="m152.83,111v2.88c0,.22.02.37.05.45s.08.13.14.17.18.05.35.05v.14h-1.74v-.14c.17,0,.29-.02.35-.05s.11-.09.14-.17.05-.23.05-.45v-1.38c0-.39-.01-.64-.04-.75-.02-.08-.05-.14-.09-.17s-.09-.05-.16-.05c-.07,0-.16.02-.27.06l-.05-.14,1.08-.44h.17Zm-.32-1.87c.11,0,.2.04.28.12s.12.17.12.28-.04.2-.12.28-.17.12-.28.12-.2-.04-.28-.12-.12-.17-.12-.28.04-.2.12-.28.17-.12.28-.12Z"/>
    <path class="cls-8" d="m154.86,109.93v1.18h.84v.27h-.84v2.32c0,.23.03.39.1.47s.15.12.26.12c.09,0,.17-.03.25-.08s.14-.13.19-.24h.15c-.09.26-.22.45-.39.58s-.34.19-.52.19c-.12,0-.24-.03-.35-.1s-.2-.16-.25-.29-.08-.31-.08-.57v-2.41h-.57v-.13c.14-.06.29-.15.44-.29s.28-.3.4-.49c.06-.1.14-.28.25-.54h.12Z"/>
    <path class="cls-8" d="m156.64,112.46c0,.53.13.95.39,1.25s.57.45.92.45c.23,0,.44-.06.61-.19s.32-.35.44-.66l.12.08c-.05.36-.21.68-.48.97s-.59.44-.99.44c-.43,0-.8-.17-1.1-.5s-.46-.78-.46-1.35c0-.61.16-1.09.47-1.43s.71-.51,1.18-.51c.4,0,.73.13.99.4s.39.62.39,1.06h-2.47Zm0-.23h1.66c-.01-.23-.04-.39-.08-.48-.06-.15-.16-.26-.29-.34s-.26-.12-.4-.12c-.22,0-.41.08-.58.25s-.27.4-.3.7Z"/>
  </g>
  <path class="cls-1" d="m55.15,9.36l7.25,7.63m-14.98,87.52c-2.07,0-3.76-2.38-3.76-5.3v-2.44c0-2.91-1.69-5.3-3.76-5.3,2.07,0,3.76-2.39,3.76-5.3v-2.44c0-2.92,1.69-5.3,3.76-5.3m154.21,11.84c2.07,0,3.76-2.39,3.76-5.3v-27.34c0-2.92,1.69-5.3,3.76-5.3-2.07,0-3.76-2.39-3.76-5.3v-27.35c0-2.92-1.69-5.3-3.76-5.3M47.42,76.14c-2.07,0-3.76-2.39-3.76-5.3v-27.34c0-2.92-1.69-5.3-3.76-5.3,2.07,0,3.76-2.39,3.76-5.3V5.55c0-2.92,1.69-5.3,3.76-5.3"/>
  <line class="cls-3" x1="274.33" y1="10.26" x2="281.58" y2="17.89"/>
  <path class="cls-1" d="m55.15,61.43l7.25,7.63m-7.25-33.66l7.25,7.63"/>
  <path class="cls-9" d="m61.57,3.83l-.3.66h-1.59l-.35.71c.69.1,1.24.36,1.64.77.35.35.52.77.52,1.25,0,.28-.06.54-.17.77s-.26.44-.43.61-.36.3-.57.4c-.3.14-.61.21-.92.21s-.55-.05-.69-.16-.22-.23-.22-.36c0-.07.03-.14.09-.19s.14-.08.23-.08c.07,0,.13.01.18.03s.14.07.26.16c.2.14.39.2.59.2.3,0,.57-.12.8-.35s.35-.51.35-.84-.1-.62-.31-.9-.49-.49-.85-.64c-.28-.12-.67-.19-1.16-.2l1.02-2.06h1.9Z"/>
  <path class="cls-9" d="m61.57,29.38l-.3.66h-1.59l-.35.71c.69.1,1.24.36,1.64.77.35.35.52.77.52,1.25,0,.28-.06.54-.17.77s-.26.44-.43.61-.36.3-.57.4c-.3.14-.61.21-.92.21s-.55-.05-.69-.16-.22-.23-.22-.36c0-.07.03-.14.09-.19s.14-.08.23-.08c.07,0,.13.01.18.03s.14.07.26.16c.2.14.39.2.59.2.3,0,.57-.12.8-.35s.35-.51.35-.84-.1-.62-.31-.9-.49-.49-.85-.64c-.28-.12-.67-.19-1.16-.2l1.02-2.06h1.9Z"/>
  <path class="cls-9" d="m61.57,54.93l-.3.66h-1.59l-.35.71c.69.1,1.24.36,1.64.77.35.35.52.77.52,1.25,0,.28-.06.54-.17.77s-.26.44-.43.61-.36.3-.57.4c-.3.14-.61.21-.92.21s-.55-.05-.69-.16-.22-.23-.22-.36c0-.07.03-.14.09-.19s.14-.08.23-.08c.07,0,.13.01.18.03s.14.07.26.16c.2.14.39.2.59.2.3,0,.57-.12.8-.35s.35-.51.35-.84-.1-.62-.31-.9-.49-.49-.85-.64c-.28-.12-.67-.19-1.16-.2l1.02-2.06h1.9Z"/>
  <line class="cls-3" x1="124.14" y1="104.39" x2="124.14" y2="118.82"/>
  <g>
    <path class="cls-9" d="m1.64,33.41v1.54c0,.33.04.54.11.62.1.11.25.17.45.17h.2v.14H.13v-.14h.2c.22,0,.38-.07.48-.22.05-.08.08-.27.08-.57v-3.42c0-.33-.04-.54-.11-.62-.1-.11-.25-.17-.45-.17h-.2v-.14h1.94c.47,0,.85.05,1.12.15s.5.26.69.49.28.51.28.82c0,.43-.14.78-.43,1.05s-.69.41-1.21.41c-.13,0-.27,0-.41-.03s-.31-.05-.48-.08Zm0-.22c.14.03.26.05.37.06s.2.02.27.02c.27,0,.5-.1.7-.31s.29-.48.29-.81c0-.23-.05-.44-.14-.64s-.23-.34-.4-.44-.37-.15-.59-.15c-.13,0-.3.02-.51.07v2.2Z"/>
    <path class="cls-9" d="m5.3,33.66c0,.53.13.95.39,1.25s.57.45.92.45c.23,0,.44-.06.61-.19s.32-.35.44-.66l.12.08c-.05.36-.21.68-.48.97s-.59.44-.99.44c-.43,0-.8-.17-1.1-.5s-.46-.78-.46-1.35c0-.61.16-1.09.47-1.43s.71-.51,1.18-.51c.4,0,.73.13.99.4s.39.62.39,1.06h-2.47Zm0-.23h1.66c-.01-.23-.04-.39-.08-.48-.06-.15-.16-.26-.29-.34s-.26-.12-.4-.12c-.22,0-.41.08-.58.25s-.27.4-.3.7Z"/>
    <path class="cls-9" d="m11.09,32.31l.14.98h-.17c-.1-.32-.2-.52-.3-.6s-.31-.12-.63-.12h-.76v2.48c0,.28.01.44.04.49s.07.1.13.14.18.06.37.06v.14h-1.79v-.14c.26,0,.42-.04.49-.12s.11-.27.11-.58v-1.9c0-.25-.01-.41-.04-.49s-.08-.12-.15-.15-.21-.05-.41-.05v-.15h2.96Z"/>
    <path class="cls-9" d="m12.65,34.78l1.55-1.79c0-.2-.04-.34-.11-.42s-.19-.12-.36-.12v-.15h1.66v.15c-.17,0-.29.02-.35.05s-.11.08-.14.13-.05.22-.05.51v1.9c0,.28.01.44.04.49s.07.1.13.14.18.06.37.06v.14h-1.73v-.14c.22,0,.36-.04.43-.12s.11-.27.11-.58v-1.68l-1.55,1.79c0,.22.04.37.09.46s.18.13.37.13v.14h-1.65v-.14c.23,0,.38-.04.45-.13s.1-.27.1-.57v-1.9c0-.28-.01-.44-.04-.49s-.07-.1-.13-.14-.18-.06-.37-.06v-.15h1.73v.15c-.17,0-.29.02-.35.05s-.11.08-.14.13-.05.22-.05.51v1.64Z"/>
    <path class="cls-9" d="m18.85,34.53c-.1.47-.29.83-.57,1.09s-.59.38-.93.38c-.41,0-.76-.17-1.06-.51s-.45-.8-.45-1.38.17-1.02.5-1.37.74-.53,1.21-.53c.35,0,.64.09.87.28s.34.38.34.58c0,.1-.03.18-.1.24s-.15.09-.27.09c-.15,0-.27-.05-.35-.15-.04-.05-.07-.16-.09-.31s-.07-.27-.16-.35c-.09-.08-.22-.12-.38-.12-.26,0-.47.1-.63.29-.21.26-.32.59-.32,1.01s.1.8.31,1.13.49.49.85.49c.26,0,.48-.09.69-.26.14-.12.28-.34.42-.65l.11.05Z"/>
    <path class="cls-9" d="m19.31,32.31h3.09l.16.97h-.18c-.03-.2-.08-.35-.16-.45s-.16-.18-.25-.21-.25-.05-.48-.05h-.31v2.48c0,.27.02.43.05.51s.09.12.16.14.24.04.5.05v.14h-1.95v-.14c.25,0,.41-.05.48-.12s.11-.27.11-.57v-2.48h-.32c-.22,0-.38.01-.46.04s-.16.09-.23.2-.14.26-.19.48h-.18l.15-.97Z"/>
    <path class="cls-9" d="m22.6,32.66l1.1-.45h.15v.84c.19-.31.37-.54.56-.66s.38-.19.59-.19c.36,0,.66.14.9.42.29.34.44.79.44,1.34,0,.62-.18,1.13-.53,1.53-.29.33-.66.5-1.1.5-.19,0-.36-.03-.5-.08-.1-.04-.22-.12-.35-.23v1.09c0,.24.02.4.04.47s.08.12.16.16.21.06.4.06v.14h-1.88v-.14h.1c.14,0,.27-.02.37-.08.05-.03.09-.07.12-.14s.04-.23.04-.49v-3.38c0-.23-.01-.38-.03-.44s-.05-.11-.1-.14-.11-.05-.19-.05c-.06,0-.14.02-.24.05l-.05-.12Zm1.25.62v1.34c0,.29.01.48.04.57.04.15.13.28.27.4s.32.17.54.17c.26,0,.47-.1.63-.3.21-.27.32-.64.32-1.12,0-.55-.12-.97-.36-1.26-.17-.2-.36-.3-.59-.3-.12,0-.25.03-.37.09-.09.05-.25.19-.46.42Z"/>
    <path class="cls-9" d="m27.97,33.9h.45c1.06,0,1.59.32,1.59.98,0,.3-.13.55-.39.73s-.63.28-1.12.28h-1.72v-.14c.23,0,.38-.04.45-.13s.1-.27.1-.57v-1.9c0-.28-.01-.44-.04-.49s-.07-.1-.13-.14-.18-.06-.37-.06v-.15h1.87v.15c-.26,0-.42.02-.48.04s-.11.07-.15.12-.06.22-.06.53v.75Zm0,1.68c.14.04.28.05.41.05.26,0,.47-.07.63-.21s.24-.31.24-.52c0-.5-.35-.75-1.04-.75-.06,0-.14,0-.25,0v1.42Zm2.03-3.12v-.15h1.8v.15c-.16,0-.27.02-.35.05s-.12.09-.15.16-.04.23-.04.48v1.9c0,.24.01.4.04.47s.07.13.15.16.19.06.35.06v.14h-1.8v-.14c.2,0,.34-.02.4-.04s.11-.07.15-.15.06-.25.06-.5v-1.9c0-.25-.01-.42-.04-.49s-.08-.12-.15-.15-.21-.05-.42-.05Z"/>
    <path class="cls-9" d="m33.35,33.91h1.55v-.76c0-.23,0-.37-.03-.44s-.06-.13-.13-.18-.2-.07-.38-.07v-.15h1.73v.15c-.16,0-.28.02-.35.05s-.12.09-.15.16-.04.23-.04.48v1.9c0,.23,0,.38.03.45s.07.13.14.18.2.07.37.07v.14h-1.73v-.14c.22,0,.36-.04.43-.12s.11-.27.11-.58v-.89h-1.55v.89c0,.23,0,.38.03.45s.07.13.14.18.2.07.37.07v.14h-1.73v-.14c.23,0,.38-.04.45-.13s.1-.27.1-.57v-1.9c0-.23,0-.38-.03-.45s-.07-.13-.14-.18-.2-.07-.37-.07v-.15h1.73v.15c-.16,0-.28.02-.35.05s-.12.09-.15.16-.04.23-.04.48v.76Z"/>
    <path class="cls-9" d="m7.64,41.91h3.16v.15c-.18,0-.29.02-.35.05s-.1.08-.14.13-.05.22-.05.51v1.77c0,.37.03.6.1.69s.21.13.45.14v1.14h-.15c-.01-.21-.06-.4-.16-.56s-.23-.27-.4-.34-.42-.1-.75-.1h-.92c-.29,0-.51.03-.67.08s-.3.16-.4.32-.17.36-.2.6h-.14v-1.14c.21,0,.41-.09.58-.25s.33-.48.46-.95.2-.94.2-1.39-.2-.68-.61-.69v-.15Zm.86.25v.21c0,1.28-.23,2.23-.7,2.86h1.33c.24,0,.38-.02.41-.06s.05-.19.05-.45v-2.56h-1.1Z"/>
    <path class="cls-9" d="m11.02,41.91h1.67v.14h-.08c-.12,0-.21.03-.26.08s-.09.11-.09.19c0,.1.04.24.13.42l.87,1.8.8-1.98c.04-.11.07-.21.07-.32,0-.05,0-.08-.03-.11-.02-.03-.05-.05-.1-.07s-.12-.03-.23-.03v-.14h1.16v.14c-.1.01-.17.03-.22.06s-.11.09-.17.18c-.02.04-.07.14-.13.3l-1.46,3.57c-.14.35-.32.61-.55.79s-.45.27-.66.27c-.15,0-.28-.04-.38-.13s-.15-.19-.15-.3.04-.2.11-.26.17-.1.29-.1c.09,0,.2.03.35.09.1.04.17.06.2.06.08,0,.16-.04.26-.12s.19-.24.28-.47l.25-.62-1.29-2.7c-.04-.08-.1-.18-.19-.3-.06-.09-.12-.15-.16-.18-.06-.04-.16-.08-.29-.11v-.14Z"/>
    <path class="cls-9" d="m18.06,41.91l.14.98h-.17c-.1-.32-.2-.52-.3-.6s-.31-.12-.63-.12h-.76v2.48c0,.28.01.44.04.49s.07.1.13.14.18.06.37.06v.14h-1.79v-.14c.26,0,.42-.04.49-.12s.11-.27.11-.58v-1.9c0-.25-.01-.41-.04-.49s-.08-.12-.15-.15-.21-.05-.41-.05v-.15h2.96Z"/>
    <path class="cls-9" d="m20.54,44.97c-.37.28-.6.45-.69.49-.14.06-.29.1-.45.1-.25,0-.45-.08-.61-.25s-.24-.39-.24-.67c0-.17.04-.33.12-.45.11-.18.29-.34.56-.5s.7-.35,1.32-.57v-.14c0-.36-.06-.6-.17-.73s-.28-.2-.49-.2c-.16,0-.29.04-.39.13-.1.09-.15.19-.15.3v.23c0,.12-.02.21-.08.28s-.14.1-.24.1-.18-.03-.24-.1-.09-.16-.09-.28c0-.22.11-.43.34-.62s.55-.28.96-.28c.32,0,.58.05.78.16.15.08.27.21.34.38.05.11.07.34.07.69v1.21c0,.34,0,.55.02.63s.03.13.06.15.06.04.1.04c.04,0,.08,0,.11-.03.05-.03.16-.13.32-.29v.22c-.29.39-.57.59-.84.59-.13,0-.23-.04-.3-.13s-.11-.24-.12-.45Zm0-.25v-1.36c-.39.16-.65.27-.76.33-.21.11-.35.23-.44.36s-.13.26-.13.41c0,.19.06.34.17.47s.24.19.39.19c.2,0,.46-.13.78-.39Z"/>
    <path class="cls-9" d="m24.09,44.97c-.37.28-.6.45-.69.49-.14.06-.29.1-.45.1-.25,0-.45-.08-.61-.25s-.24-.39-.24-.67c0-.17.04-.33.12-.45.11-.18.29-.34.56-.5s.7-.35,1.32-.57v-.14c0-.36-.06-.6-.17-.73s-.28-.2-.49-.2c-.16,0-.29.04-.39.13-.1.09-.15.19-.15.3v.23c0,.12-.02.21-.08.28s-.14.1-.24.1-.18-.03-.24-.1-.09-.16-.09-.28c0-.22.11-.43.34-.62s.55-.28.96-.28c.32,0,.58.05.78.16.15.08.27.21.34.38.05.11.07.34.07.69v1.21c0,.34,0,.55.02.63s.03.13.06.15.06.04.1.04c.04,0,.08,0,.11-.03.05-.03.16-.13.32-.29v.22c-.29.39-.57.59-.84.59-.13,0-.23-.04-.3-.13s-.11-.24-.12-.45Zm0-.25v-1.36c-.39.16-.65.27-.76.33-.21.11-.35.23-.44.36s-.13.26-.13.41c0,.19.06.34.17.47s.24.19.39.19c.2,0,.46-.13.78-.39Z"/>
    <path class="cls-9" d="m25.35,42.26l1.1-.45h.15v.84c.19-.31.37-.54.56-.66s.38-.19.59-.19c.36,0,.66.14.9.42.29.34.44.79.44,1.34,0,.62-.18,1.13-.53,1.53-.29.33-.66.5-1.1.5-.19,0-.36-.03-.5-.08-.1-.04-.22-.12-.35-.23v1.09c0,.24.02.4.04.47s.08.12.16.16.21.06.4.06v.14h-1.88v-.14h.1c.14,0,.27-.02.37-.08.05-.03.09-.07.12-.14s.04-.23.04-.49v-3.38c0-.23-.01-.38-.03-.44s-.05-.11-.1-.14-.11-.05-.19-.05c-.06,0-.14.02-.24.05l-.05-.12Zm1.25.62v1.34c0,.29.01.48.04.57.04.15.13.28.27.4s.32.17.54.17c.26,0,.47-.1.63-.3.21-.27.32-.64.32-1.12,0-.55-.12-.97-.36-1.26-.17-.2-.36-.3-.59-.3-.12,0-.25.03-.37.09-.09.05-.25.19-.46.42Z"/>
  </g>
  <g>
    <path class="cls-8" d="m285.91,9.17h-2.05l-.36.84c-.09.21-.13.36-.13.46,0,.08.04.15.12.21s.24.1.5.12v.14h-1.67v-.14c.22-.04.36-.09.43-.15.13-.12.28-.38.44-.76l1.86-4.36h.14l1.84,4.41c.15.35.28.58.4.69s.29.16.51.18v.14h-2.09v-.14c.21-.01.35-.05.43-.11s.11-.13.11-.22c0-.11-.05-.3-.16-.54l-.32-.76Zm-.11-.29l-.9-2.14-.92,2.14h1.82Z"/>
    <path class="cls-8" d="m292.61,9.48l.13.03-.45,1.44h-4.1v-.14h.2c.22,0,.38-.07.48-.22.05-.08.08-.28.08-.58v-3.42c0-.33-.04-.54-.11-.62-.1-.11-.25-.17-.45-.17h-.2v-.14h2.4v.14c-.28,0-.48.02-.59.08s-.19.12-.23.21-.06.28-.06.6v3.33c0,.22.02.36.06.45.03.05.08.1.14.12s.27.04.61.04h.39c.41,0,.69-.03.86-.09s.31-.17.45-.32.27-.39.41-.72Z"/>
    <path class="cls-8" d="m296.73,5.79v-.14h1.88v.14h-.2c-.21,0-.37.09-.48.26-.05.08-.08.27-.08.56v2.15c0,.53-.05.94-.16,1.24s-.31.54-.62.75-.73.31-1.26.31c-.58,0-1.02-.1-1.32-.3s-.51-.47-.64-.81c-.08-.23-.12-.67-.12-1.3v-2.07c0-.33-.04-.54-.13-.64s-.24-.15-.44-.15h-.2v-.14h2.29v.14h-.2c-.22,0-.38.07-.47.21-.07.09-.1.29-.1.59v2.31c0,.21.02.44.06.71s.11.47.21.62.24.27.43.37.42.14.69.14c.35,0,.66-.08.93-.23s.46-.34.56-.58.15-.63.15-1.2v-2.14c0-.33-.04-.54-.11-.62-.1-.11-.25-.17-.45-.17h-.2Z"/>
    <path class="cls-8" d="m302.69,7.26c.54,0,.98.21,1.3.62.28.35.42.76.42,1.21,0,.32-.08.64-.23.97s-.37.58-.63.74-.57.25-.9.25c-.54,0-.97-.21-1.29-.64-.27-.36-.4-.77-.4-1.22,0-.33.08-.65.24-.98s.38-.56.64-.72.55-.23.84-.23Zm-.12.25c-.14,0-.28.04-.42.12s-.25.23-.34.43-.13.47-.13.79c0,.52.1.97.31,1.35s.48.57.82.57c.25,0,.46-.1.62-.31s.25-.57.25-1.07c0-.64-.14-1.14-.41-1.5-.18-.25-.42-.38-.71-.38Z"/>
    <path class="cls-8" d="m304.68,7.72l1.1-.45h.15v.84c.18-.31.37-.54.56-.66s.38-.19.59-.19c.36,0,.66.14.9.42.29.34.44.79.44,1.34,0,.62-.18,1.13-.53,1.53-.29.33-.66.5-1.1.5-.19,0-.36-.03-.5-.08-.1-.04-.22-.12-.35-.23v1.09c0,.24.01.4.04.47s.08.12.16.16.21.06.4.06v.14h-1.88v-.14h.1c.14,0,.27-.02.37-.08.05-.03.09-.07.12-.14s.04-.23.04-.49v-3.38c0-.23-.01-.38-.03-.44s-.05-.11-.1-.14-.11-.05-.19-.05c-.06,0-.14.02-.24.05l-.05-.12Zm1.25.62v1.34c0,.29.01.48.04.57.04.15.13.28.27.4s.32.17.54.17c.26,0,.47-.1.63-.3.21-.27.32-.64.32-1.12,0-.55-.12-.97-.36-1.26-.17-.2-.36-.3-.59-.3-.12,0-.25.03-.37.09-.09.05-.25.19-.46.42Z"/>
    <path class="cls-8" d="m309.54,8.71c0,.53.13.95.39,1.25s.57.45.92.45c.23,0,.44-.06.61-.19s.32-.35.44-.66l.12.08c-.05.36-.21.68-.48.97s-.59.44-.99.44c-.43,0-.8-.17-1.1-.5s-.46-.78-.46-1.35c0-.61.16-1.09.47-1.43s.71-.51,1.18-.51c.4,0,.73.13.99.4s.39.62.39,1.06h-2.47Zm0-.23h1.66c-.01-.23-.04-.39-.08-.48-.07-.15-.16-.26-.29-.34s-.26-.12-.4-.12c-.22,0-.41.08-.58.25s-.27.4-.3.7Z"/>
    <path class="cls-8" d="m313.53,7.26v.8c.3-.54.61-.8.92-.8.14,0,.26.04.36.13s.14.19.14.3c0,.1-.03.19-.1.26s-.15.11-.24.11-.19-.04-.31-.13-.2-.13-.25-.13c-.05,0-.1.03-.15.08-.12.11-.24.28-.36.53v1.71c0,.2.02.35.07.45.03.07.09.13.18.18s.21.07.37.07v.14h-1.83v-.14c.18,0,.32-.03.41-.09.07-.04.11-.11.14-.2.01-.04.02-.17.02-.38v-1.39c0-.42,0-.66-.03-.74s-.05-.14-.09-.17-.1-.05-.17-.05c-.08,0-.17.02-.27.06l-.04-.14,1.08-.44h.16Z"/>
    <path class="cls-8" d="m317.1,10.43c-.37.28-.6.45-.69.49-.14.06-.29.1-.45.1-.25,0-.45-.08-.61-.25s-.24-.39-.24-.67c0-.17.04-.33.12-.45.11-.18.29-.34.56-.5s.7-.35,1.32-.57v-.14c0-.36-.06-.6-.17-.73s-.28-.2-.49-.2c-.16,0-.29.04-.39.13-.1.09-.15.19-.15.3v.23c0,.12-.02.21-.08.28s-.14.1-.24.1-.17-.03-.24-.1-.09-.16-.09-.28c0-.22.11-.43.34-.62s.55-.28.96-.28c.32,0,.58.05.78.16.15.08.27.21.34.38.05.11.07.34.07.69v1.21c0,.34,0,.55.02.63s.03.13.06.15.06.04.1.04c.04,0,.08,0,.11-.03.05-.03.16-.13.32-.29v.22c-.29.39-.57.59-.84.59-.13,0-.23-.04-.3-.13s-.11-.24-.12-.45Zm0-.25v-1.36c-.39.16-.65.27-.76.33-.21.11-.35.23-.44.36s-.13.26-.13.41c0,.19.06.34.17.47s.24.19.39.19c.2,0,.46-.13.78-.39Z"/>
    <path class="cls-8" d="m319.66,6.19v1.18h.84v.27h-.84v2.32c0,.23.03.39.1.47s.15.12.26.12c.09,0,.17-.03.25-.08s.14-.13.19-.24h.15c-.09.26-.22.45-.39.58s-.34.19-.52.19c-.12,0-.24-.03-.35-.1s-.2-.16-.25-.29-.08-.31-.08-.57v-2.41h-.57v-.13c.14-.06.29-.15.44-.29s.28-.3.4-.49c.06-.1.14-.28.25-.54h.12Z"/>
    <path class="cls-8" d="m322.08,7.26v2.88c0,.22.02.37.05.45s.08.13.14.17.18.05.35.05v.14h-1.74v-.14c.17,0,.29-.02.35-.05s.11-.09.14-.17.05-.23.05-.45v-1.38c0-.39-.01-.64-.04-.75-.02-.08-.05-.14-.09-.17s-.09-.05-.16-.05c-.07,0-.16.02-.27.06l-.05-.14,1.08-.44h.17Zm-.32-1.87c.11,0,.2.04.28.12s.12.17.12.28-.04.2-.12.28-.17.12-.28.12-.2-.04-.28-.12-.12-.17-.12-.28.04-.2.12-.28.17-.12.28-.12Z"/>
    <path class="cls-8" d="m324.82,7.26c.54,0,.98.21,1.3.62.28.35.42.76.42,1.21,0,.32-.08.64-.23.97s-.37.58-.63.74-.57.25-.9.25c-.54,0-.97-.21-1.29-.64-.27-.36-.4-.77-.4-1.22,0-.33.08-.65.24-.98s.38-.56.64-.72.55-.23.84-.23Zm-.12.25c-.14,0-.28.04-.42.12s-.25.23-.34.43-.13.47-.13.79c0,.52.1.97.31,1.35s.48.57.82.57c.25,0,.46-.1.62-.31s.25-.57.25-1.07c0-.64-.14-1.14-.41-1.5-.18-.25-.42-.38-.71-.38Z"/>
    <path class="cls-8" d="m328.11,8.02c.42-.51.82-.76,1.2-.76.2,0,.36.05.5.15s.25.26.34.48c.06.16.09.4.09.72v1.53c0,.23.02.38.05.46.03.06.08.12.14.15s.18.05.35.05v.14h-1.77v-.14h.07c.17,0,.28-.03.35-.08s.11-.13.14-.22c.01-.04.02-.16.02-.37v-1.46c0-.33-.04-.56-.13-.71s-.23-.22-.43-.22c-.31,0-.62.17-.93.51v1.89c0,.24.01.39.04.45.04.08.09.13.15.17s.19.05.39.05v.14h-1.77v-.14h.08c.18,0,.31-.05.37-.14s.1-.27.1-.53v-1.33c0-.43,0-.69-.03-.79s-.05-.16-.09-.19-.09-.05-.16-.05c-.07,0-.16.02-.26.06l-.06-.14,1.08-.44h.17v.76Z"/>
  </g>
  <line class="cls-2" x1="277.95" y1="21.09" x2="277.95" y2="5.35"/>
  <path class="cls-8" d="m271.93,13.99v.55h-.71v1.4h-.64v-1.4h-2.24v-.5l2.46-3.51h.43v3.45h.71Zm-1.36,0v-2.63l-1.86,2.63h1.86Z"/>
</svg>