<?xml version="1.0" encoding="UTF-8"?>
<svg id="Layer_1" data-name="Layer 1" xmlns="http://www.w3.org/2000/svg" viewBox="0 0 225.89 113.57">
  <defs>
    <style>
      .cls-1 {
        stroke: #231f20;
      }

      .cls-1, .cls-2 {
        fill: none;
        stroke-width: .5px;
      }

      .cls-2 {
        stroke: #00aeef;
      }

      .cls-3 {
        fill: #00aeef;
      }

      .cls-4 {
        fill: #231f20;
      }
    </style>
  </defs>
  <rect class="cls-1" x="24.7" y="16.19" width="81.55" height="81.2"/>
  <g>
    <path class="cls-4" d="m33.95,33.96l1.14,1.7c.31.47.55.77.7.89s.35.19.58.21v.14h-2.27v-.14c.15,0,.26-.02.34-.05.05-.02.1-.06.13-.11s.05-.1.05-.15c0-.06-.01-.12-.04-.18-.02-.04-.09-.16-.21-.34l-.9-1.36-1.11,1.42c-.12.15-.19.25-.21.3s-.04.1-.04.16c0,.08.04.15.11.21s.2.09.4.09v.14h-1.88v-.14c.13-.01.25-.04.34-.08.16-.07.31-.16.46-.27s.31-.29.5-.53l1.25-1.58-1.04-1.53c-.28-.41-.52-.69-.72-.81s-.43-.2-.68-.21v-.14h2.45v.14c-.21,0-.35.04-.43.1s-.12.13-.12.2c0,.1.06.24.19.42l.81,1.21.94-1.19c.11-.14.18-.24.2-.29s.04-.11.04-.16-.02-.1-.05-.14c-.04-.05-.09-.09-.15-.12s-.18-.03-.37-.04v-.14h1.88v.14c-.15,0-.27.03-.36.07-.14.06-.27.14-.39.24s-.28.29-.5.56l-1.05,1.34Z"/>
    <path class="cls-4" d="m38.74,36.38c-.37.28-.6.45-.69.49-.14.06-.29.1-.45.1-.25,0-.45-.08-.61-.25s-.24-.39-.24-.67c0-.17.04-.33.12-.45.11-.18.29-.34.56-.5s.7-.35,1.32-.57v-.14c0-.36-.06-.6-.17-.73s-.28-.2-.49-.2c-.16,0-.29.04-.39.13-.1.09-.15.19-.15.3v.23c0,.12-.02.21-.08.28s-.14.1-.24.1-.18-.03-.24-.1-.09-.16-.09-.28c0-.22.11-.43.34-.62s.55-.28.96-.28c.32,0,.58.05.78.16.15.08.27.21.34.38.05.11.07.34.07.69v1.21c0,.34,0,.55.02.63s.03.13.06.15.06.04.1.04c.04,0,.08,0,.11-.03.05-.03.16-.13.32-.29v.22c-.29.39-.57.59-.84.59-.13,0-.23-.04-.3-.13s-.11-.24-.12-.45Zm0-.25v-1.36c-.39.16-.65.27-.76.33-.21.11-.35.23-.44.36s-.13.26-.13.41c0,.19.06.34.17.47s.24.19.39.19c.2,0,.46-.13.78-.39Z"/>
    <path class="cls-4" d="m43.51,33.32v.15c-.16,0-.28.02-.36.07s-.13.1-.15.17-.04.22-.04.46v1.9c0,.23.01.38.03.45s.07.13.15.18.2.07.36.07v.14h-1.73v-.14c.22,0,.36-.04.43-.12s.11-.27.11-.58v-.78h-.16s-.06,0-.12,0l-1.14,1.62h-.89v-.14c.13,0,.22-.02.27-.05s.15-.15.28-.35l.84-1.18c-.6-.21-.9-.53-.9-.96,0-.24.11-.45.32-.63s.58-.27,1.1-.27h1.59Zm-1.19.3c-.1-.03-.2-.04-.29-.04-.26,0-.46.06-.59.2s-.2.29-.2.46c0,.23.09.42.28.57s.42.23.7.23c.03,0,.06,0,.1,0v-1.41Z"/>
    <path class="cls-4" d="m46.78,33.32l.14.98h-.17c-.1-.32-.2-.52-.3-.6s-.31-.12-.63-.12h-.76v2.48c0,.28.01.44.04.49s.07.1.13.14.18.06.37.06v.14h-1.79v-.14c.26,0,.42-.04.49-.12s.11-.27.11-.58v-1.9c0-.25-.01-.41-.04-.49s-.08-.12-.15-.15-.21-.05-.41-.05v-.15h2.96Z"/>
  </g>
  <g>
    <path class="cls-4" d="m77.21,26.7h2.15v.14c-.38.02-.57.12-.57.3,0,.13.14.44.42.93l1.16,2.03.84-2.03c.18-.43.27-.71.27-.86,0-.2-.16-.33-.49-.38v-.14h1.66v.14c-.39.05-.69.31-.89.8l-1.01,2.41c-.26.62-.48,1.06-.64,1.32s-.34.45-.54.57-.4.18-.6.18c-.18,0-.33-.04-.46-.12s-.19-.18-.19-.31c0-.1.03-.18.1-.24s.15-.1.27-.1.24.04.39.13c.1.05.18.08.23.08.21,0,.44-.21.69-.64l-1.92-3.38c-.14-.24-.26-.4-.38-.5s-.28-.17-.48-.2v-.14Z"/>
    <path class="cls-4" d="m84.14,30.01h1.55v-.76c0-.23,0-.37-.03-.44s-.06-.13-.13-.18-.2-.07-.38-.07v-.15h1.73v.15c-.16,0-.28.02-.35.05s-.12.09-.15.16-.04.23-.04.48v1.9c0,.23,0,.38.03.45s.07.13.14.18.2.07.37.07v.14h-1.73v-.14c.22,0,.36-.04.43-.12s.11-.27.11-.58v-.89h-1.55v.89c0,.23,0,.38.03.45s.07.13.14.18.2.07.37.07v.14h-1.73v-.14c.23,0,.38-.04.45-.13s.1-.27.1-.57v-1.9c0-.23,0-.38-.03-.45s-.07-.13-.14-.18-.2-.07-.37-.07v-.15h1.73v.15c-.16,0-.28.02-.35.05s-.12.09-.15.16-.04.23-.04.48v.76Z"/>
    <path class="cls-4" d="m93.04,31.85v.14h-5.8v-.14c.22,0,.36-.04.43-.12s.11-.27.11-.58v-1.9c0-.28-.01-.44-.04-.49s-.07-.1-.13-.14-.18-.06-.37-.06v-.15h1.73v.15c-.17,0-.29.02-.35.05s-.11.08-.14.13-.05.22-.05.51v1.97c0,.25.02.39.07.44s.19.07.45.07h.42c.17,0,.28,0,.33-.03s.09-.05.1-.1.03-.2.03-.46v-1.89c0-.28-.01-.44-.04-.49s-.07-.1-.13-.14-.18-.06-.37-.06v-.15h1.66v.15c-.14,0-.25.03-.31.07s-.11.1-.13.17-.03.22-.03.45v2.02c0,.22.02.36.07.4s.18.06.41.06h.47c.25,0,.39-.03.41-.08s.04-.22.04-.49v-1.92c0-.28-.01-.44-.04-.49s-.07-.1-.13-.14-.18-.06-.37-.06v-.15h1.73v.15c-.18,0-.29.02-.35.05s-.1.08-.14.13-.05.22-.05.51v1.69c0,.35,0,.56.03.65s.06.15.13.19.2.06.38.07Z"/>
    <path class="cls-4" d="m94.58,30.89l1.55-1.79c0-.2-.04-.34-.11-.42s-.19-.12-.36-.12v-.15h1.66v.15c-.17,0-.29.02-.35.05s-.11.08-.14.13-.05.22-.05.51v1.9c0,.28.01.44.04.49s.07.1.13.14.18.06.37.06v.14h-1.73v-.14c.22,0,.36-.04.43-.12s.11-.27.11-.58v-1.68l-1.55,1.79c0,.22.04.37.09.46s.18.13.37.13v.14h-1.65v-.14c.23,0,.38-.04.45-.13s.1-.27.1-.57v-1.9c0-.28-.01-.44-.04-.49s-.07-.1-.13-.14-.18-.06-.37-.06v-.15h1.73v.15c-.17,0-.29.02-.35.05s-.11.08-.14.13-.05.22-.05.51v1.64Z"/>
    <path class="cls-4" d="m97.6,28.42h1.68v.14c-.11,0-.18.02-.22.05s-.06.08-.06.14.05.16.14.29c.03.04.07.11.13.2l.25.41.29-.41c.19-.26.28-.42.28-.49,0-.05-.02-.1-.07-.14s-.12-.06-.21-.06v-.14h1.21v.14c-.13,0-.24.04-.33.11-.13.09-.3.28-.52.58l-.49.65.89,1.28c.22.31.38.5.47.57s.21.1.36.11v.14h-1.69v-.14c.12,0,.21-.03.27-.08.05-.04.07-.08.07-.14s-.08-.21-.25-.45l-.52-.77-.57.77c-.18.24-.27.38-.27.42,0,.06.03.12.09.17s.15.08.26.08v.14h-1.17v-.14c.09-.01.18-.05.25-.1.1-.08.27-.27.5-.58l.75-1-.68-.98c-.19-.28-.34-.46-.45-.53s-.24-.11-.4-.11v-.14Z"/>
    <path class="cls-4" d="m79.71,39.74c0,.33-.08.65-.23.96-.16.34-.37.59-.64.75s-.57.25-.9.25c-.54,0-.97-.21-1.29-.64-.27-.36-.4-.77-.4-1.22,0-.33.08-.65.23-.96.17-.34.38-.58.65-.74s.55-.23.85-.23c.54,0,.98.21,1.3.62.28.35.42.76.42,1.21Zm-.75-.18c-.05-.36-.15-.67-.31-.92-.2-.32-.46-.48-.78-.48-.35,0-.6.19-.75.55-.09.21-.13.48-.13.79v.05h1.97Zm.03.48c0-.05,0-.13,0-.22h-1.98c.03.39.13.74.3,1.04.21.38.48.57.82.57.58,0,.87-.46.87-1.39Z"/>
    <path class="cls-4" d="m83.08,38.02l.14.98h-.17c-.1-.32-.2-.52-.3-.6s-.31-.12-.63-.12h-.76v2.48c0,.28.01.44.04.49s.07.1.13.14.18.06.37.06v.14h-1.79v-.14c.25,0,.42-.04.49-.12s.11-.27.11-.58v-1.9c0-.25-.01-.41-.04-.49s-.08-.12-.15-.15-.21-.05-.41-.05v-.15h2.96Z"/>
    <path class="cls-4" d="m86.99,39.74c0,.33-.08.65-.23.96-.16.34-.37.59-.64.75s-.57.25-.9.25c-.54,0-.97-.21-1.29-.64-.27-.36-.4-.77-.4-1.22,0-.33.08-.65.23-.96.17-.34.38-.58.65-.74s.55-.23.85-.23c.54,0,.98.21,1.3.62.28.35.42.76.42,1.21Zm-.75-.18c-.05-.36-.15-.67-.31-.92-.2-.32-.46-.48-.78-.48-.35,0-.6.19-.75.55-.09.21-.13.48-.13.79v.05h1.97Zm.03.48c0-.05,0-.13,0-.22h-1.98c.03.39.13.74.3,1.04.21.38.48.57.82.57.58,0,.87-.46.87-1.39Z"/>
    <path class="cls-4" d="m90.36,38.02l.14.98h-.17c-.1-.32-.2-.52-.3-.6s-.31-.12-.63-.12h-.76v2.48c0,.28.01.44.04.49s.07.1.13.14.18.06.37.06v.14h-1.79v-.14c.25,0,.42-.04.49-.12s.11-.27.11-.58v-1.9c0-.25-.01-.41-.04-.49s-.08-.12-.15-.15-.21-.05-.41-.05v-.15h2.96Z"/>
    <path class="cls-4" d="m91.29,38.02h3.16v.15c-.18,0-.29.02-.35.05s-.1.08-.14.13-.05.22-.05.51v1.77c0,.37.03.6.1.69s.21.13.45.14v1.14h-.15c-.01-.21-.06-.4-.16-.56s-.23-.27-.4-.34-.42-.1-.75-.1h-.92c-.29,0-.51.03-.67.08s-.3.16-.4.32-.17.36-.2.6h-.14v-1.14c.21,0,.41-.09.58-.25s.33-.48.46-.95.2-.94.2-1.39-.2-.68-.61-.69v-.15Zm.86.25v.21c0,1.28-.23,2.23-.7,2.86h1.33c.24,0,.38-.02.41-.06s.05-.19.05-.45v-2.56h-1.1Z"/>
    <path class="cls-4" d="m98.35,39.74c0,.33-.08.65-.23.96-.16.34-.37.59-.64.75s-.57.25-.9.25c-.54,0-.97-.21-1.29-.64-.27-.36-.4-.77-.4-1.22,0-.33.08-.65.23-.96.17-.34.38-.58.65-.74s.55-.23.85-.23c.54,0,.98.21,1.3.62.28.35.42.76.42,1.21Zm-.75-.18c-.05-.36-.15-.67-.31-.92-.2-.32-.46-.48-.78-.48-.35,0-.6.19-.75.55-.09.21-.13.48-.13.79v.05h1.97Zm.03.48c0-.05,0-.13,0-.22h-1.98c.03.39.13.74.3,1.04.21.38.48.57.82.57.58,0,.87-.46.87-1.39Z"/>
    <path class="cls-4" d="m99.24,38.02h3.2v.15c-.18,0-.29.02-.35.05s-.1.08-.14.13-.05.22-.05.51v1.9c0,.28.01.44.04.49s.07.1.13.14.18.06.37.06v.14h-1.85v-.14c.2,0,.34-.01.42-.03s.14-.07.18-.15.07-.25.07-.51v-2.48h-1.19v1.51c0,.57-.03.97-.08,1.2s-.15.4-.3.51-.32.17-.51.17c-.33,0-.5-.14-.5-.41,0-.09.03-.17.08-.23s.12-.09.21-.09c.09,0,.18.04.25.11.1.1.18.15.23.15.12,0,.2-.1.26-.29s.08-.54.08-1.03v-.79c0-.41-.03-.65-.09-.74s-.21-.14-.45-.16v-.15Z"/>
  </g>
  <line class="cls-1" y1="34.24" x2="20.46" y2="34.24"/>
  <path class="cls-4" d="m21.94,33.6c-1.03-.31-1.71-.6-2.53-.93v3.15c.3-.14,1.5-.62,2.53-.93,1.11-.33,2.11-.56,2.76-.64-.65-.08-1.65-.31-2.76-.64"/>
  <line class="cls-1" y1="79.32" x2="20.46" y2="79.32"/>
  <path class="cls-4" d="m21.94,78.68c-1.03-.31-1.71-.6-2.53-.93v3.15c.3-.14,1.5-.62,2.53-.93,1.11-.33,2.11-.56,2.76-.64-.65-.08-1.65-.31-2.76-.64"/>
  <line class="cls-1" x1="106.24" y1="34.24" x2="126.7" y2="34.24"/>
  <path class="cls-4" d="m128.18,33.6c-1.03-.31-1.71-.6-2.53-.93v3.15c.3-.14,1.5-.62,2.53-.93,1.1-.33,2.11-.56,2.76-.64-.65-.08-1.65-.31-2.76-.64"/>
  <line class="cls-1" x1="141.87" y1="56.78" x2="162.32" y2="56.78"/>
  <path class="cls-4" d="m163.8,56.14c-1.03-.31-1.71-.6-2.53-.93v3.15c.3-.14,1.5-.62,2.53-.93,1.11-.33,2.11-.56,2.76-.64-.65-.08-1.65-.31-2.76-.64"/>
  <g>
    <path class="cls-4" d="m35.32,72.79l.05,1.16h-.14c-.08-.38-.21-.61-.38-.71s-.48-.15-.92-.15h-.89v2.1h.21c.65,0,1.12.04,1.43.12s.55.24.74.47.29.51.29.84c0,.39-.15.74-.44,1.04s-.79.45-1.51.45h-2.24v-.14c.33-.01.54-.06.63-.16s.14-.31.14-.66v-3.37c0-.27-.02-.45-.06-.54s-.1-.16-.19-.2-.24-.06-.48-.08v-.14h3.75Zm-2.29,4.98c.23.04.41.05.54.05.32,0,.61-.11.87-.32s.39-.51.39-.89-.14-.68-.41-.87-.61-.28-1.03-.28c-.12,0-.24.01-.36.03v2.27Z"/>
    <path class="cls-4" d="m37.34,76.98l1.55-1.79c0-.2-.04-.34-.11-.42s-.19-.12-.36-.12v-.15h1.66v.15c-.17,0-.29.02-.35.05s-.11.08-.14.13-.05.22-.05.51v1.9c0,.28.01.44.04.49s.07.1.13.14.18.06.37.06v.14h-1.73v-.14c.22,0,.36-.04.43-.12s.11-.27.11-.58v-1.68l-1.55,1.79c0,.22.04.37.09.46s.18.13.37.13v.14h-1.65v-.14c.23,0,.38-.04.45-.13s.1-.27.1-.57v-1.9c0-.28-.01-.44-.04-.49s-.07-.1-.13-.14-.18-.06-.37-.06v-.15h1.73v.15c-.17,0-.29.02-.35.05s-.11.08-.14.13-.05.22-.05.51v1.64Z"/>
    <path class="cls-4" d="m42.91,76.11v-.77c0-.25-.01-.41-.04-.48s-.08-.12-.15-.16-.19-.05-.35-.05v-.15h1.73v.15c-.18,0-.29.02-.35.05s-.1.08-.14.13-.05.22-.05.51v1.9c0,.25.01.41.04.48s.08.13.15.16.19.05.35.05v.14h-1.82v-.14c.21,0,.34-.02.41-.04s.12-.07.16-.15.06-.25.06-.5v-.88c-.38.2-.79.29-1.21.29-.23,0-.41-.03-.54-.09s-.21-.13-.24-.2-.05-.2-.05-.37v-.65c0-.23-.01-.38-.03-.46s-.07-.13-.14-.17-.18-.06-.32-.06v-.15h1.68v.15c-.17,0-.29.02-.35.05s-.11.08-.14.13-.05.22-.05.51v.44c0,.17.01.29.04.35s.08.11.17.15.22.06.38.06c.28,0,.55-.08.81-.23Z"/>
    <path class="cls-4" d="m45.64,76.98l1.55-1.79c0-.2-.04-.34-.11-.42s-.19-.12-.36-.12v-.15h1.66v.15c-.17,0-.29.02-.35.05s-.11.08-.14.13-.05.22-.05.51v1.9c0,.28.01.44.04.49s.07.1.13.14.18.06.37.06v.14h-1.73v-.14c.22,0,.36-.04.43-.12s.11-.27.11-.58v-1.68l-1.55,1.79c0,.22.04.37.09.46s.18.13.37.13v.14h-1.65v-.14c.23,0,.38-.04.45-.13s.1-.27.1-.57v-1.9c0-.28-.01-.44-.04-.49s-.07-.1-.13-.14-.18-.06-.37-.06v-.15h1.73v.15c-.17,0-.29.02-.35.05s-.11.08-.14.13-.05.22-.05.51v1.64Z"/>
    <path class="cls-4" d="m48.66,74.5h1.68v.14c-.11,0-.18.02-.22.05s-.06.08-.06.14.05.16.14.29c.03.04.07.11.13.2l.25.41.29-.41c.19-.26.28-.42.28-.49,0-.05-.02-.1-.07-.14s-.12-.06-.21-.06v-.14h1.21v.14c-.13,0-.24.04-.33.11-.13.09-.3.28-.52.58l-.49.65.89,1.28c.22.31.38.5.47.57s.21.1.36.11v.14h-1.69v-.14c.12,0,.21-.03.27-.08.05-.04.07-.08.07-.14s-.08-.21-.25-.45l-.52-.77-.57.77c-.18.24-.27.38-.27.42,0,.06.03.12.09.17s.15.08.26.08v.14h-1.17v-.14c.09-.01.18-.05.25-.1.1-.08.27-.27.5-.58l.75-1-.68-.98c-.19-.28-.34-.46-.45-.53s-.24-.11-.4-.11v-.14Z"/>
    <path class="cls-4" d="m34.82,84.11h1.68v.14c-.11,0-.18.02-.22.05s-.06.08-.06.14.05.16.14.29c.03.04.07.11.13.2l.25.41.29-.41c.19-.26.28-.42.28-.49,0-.05-.02-.1-.07-.14s-.12-.06-.21-.06v-.14h1.21v.14c-.13,0-.24.04-.33.11-.13.09-.3.28-.52.58l-.49.65.89,1.28c.22.31.38.5.47.57s.21.1.36.11v.14h-1.69v-.14c.12,0,.21-.03.27-.08.05-.04.07-.08.07-.14s-.08-.21-.25-.45l-.52-.77-.57.77c-.18.24-.27.38-.27.42,0,.06.03.12.09.17s.15.08.26.08v.14h-1.17v-.14c.09-.01.18-.05.25-.1.1-.08.27-.27.5-.58l.75-1-.68-.98c-.19-.28-.34-.46-.45-.53s-.24-.11-.4-.11v-.14Z"/>
    <path class="cls-4" d="m40.99,87.17c-.37.28-.6.45-.69.49-.14.06-.29.1-.45.1-.25,0-.45-.08-.61-.25s-.24-.39-.24-.67c0-.17.04-.33.12-.45.11-.18.29-.34.56-.5s.7-.35,1.32-.57v-.14c0-.36-.06-.6-.17-.73s-.28-.2-.49-.2c-.16,0-.29.04-.39.13-.1.09-.15.19-.15.3v.23c0,.12-.02.21-.08.28s-.14.1-.24.1-.18-.03-.24-.1-.09-.16-.09-.28c0-.22.11-.43.34-.62s.55-.28.96-.28c.32,0,.58.05.78.16.15.08.27.21.34.38.05.11.07.34.07.69v1.21c0,.34,0,.55.02.63s.03.13.06.15.06.04.1.04c.04,0,.08,0,.11-.03.05-.03.16-.13.32-.29v.22c-.29.39-.57.59-.84.59-.13,0-.23-.04-.3-.13s-.11-.24-.12-.45Zm0-.25v-1.36c-.39.16-.65.27-.76.33-.21.11-.35.23-.44.36s-.13.26-.13.41c0,.19.06.34.17.47s.24.19.39.19c.2,0,.46-.13.78-.39Z"/>
    <path class="cls-4" d="m45.76,84.11v.15c-.16,0-.28.02-.36.07s-.13.1-.15.17-.04.22-.04.46v1.9c0,.23.01.38.03.45s.07.13.15.18.2.07.36.07v.14h-1.73v-.14c.22,0,.36-.04.43-.12s.11-.27.11-.58v-.78h-.16s-.06,0-.12,0l-1.14,1.62h-.89v-.14c.13,0,.22-.02.27-.05s.15-.15.28-.35l.84-1.18c-.6-.21-.9-.53-.9-.96,0-.24.11-.45.32-.63s.58-.27,1.1-.27h1.59Zm-1.19.3c-.1-.03-.2-.04-.29-.04-.26,0-.46.06-.59.2s-.2.29-.2.46c0,.23.09.42.28.57s.42.23.7.23c.03,0,.06,0,.1,0v-1.41Z"/>
    <path class="cls-4" d="m49.03,84.11l.14.98h-.17c-.1-.32-.2-.52-.3-.6s-.31-.12-.63-.12h-.76v2.48c0,.28.01.44.04.49s.07.1.13.14.18.06.37.06v.14h-1.79v-.14c.26,0,.42-.04.49-.12s.11-.27.11-.58v-1.9c0-.25-.01-.41-.04-.49s-.08-.12-.15-.15-.21-.05-.41-.05v-.15h2.96Z"/>
  </g>
  <g>
    <path class="cls-4" d="m52.63,52.82c0,.77-.24,1.42-.72,1.96-.5.56-1.13.84-1.89.84s-1.4-.27-1.89-.82c-.46-.53-.7-1.18-.7-1.96,0-.84.29-1.53.86-2.06.5-.46,1.09-.69,1.79-.69.73,0,1.35.28,1.84.83.47.53.71,1.17.71,1.91Zm-.89.13h-3.4c.02.8.2,1.42.55,1.86.28.35.66.53,1.12.53.61,0,1.07-.26,1.36-.78.24-.42.36-.96.36-1.62Zm0-.29c-.03-.65-.15-1.17-.39-1.56-.29-.49-.74-.73-1.33-.73s-1.01.25-1.3.75c-.23.4-.36.92-.38,1.54h3.39Z"/>
    <path class="cls-4" d="m56.03,51.92l.14.98h-.17c-.1-.32-.2-.52-.3-.6s-.31-.12-.63-.12h-.76v2.48c0,.28.01.44.04.49s.07.1.13.14.18.06.37.06v.14h-1.79v-.14c.26,0,.42-.04.49-.12s.11-.27.11-.58v-1.9c0-.25-.01-.41-.04-.49s-.08-.12-.15-.15-.21-.05-.41-.05v-.15h2.96Z"/>
    <path class="cls-4" d="m59.94,53.64c0,.33-.08.65-.23.96-.16.34-.37.59-.64.75-.27.17-.57.25-.9.25-.54,0-.97-.21-1.29-.64-.27-.36-.4-.77-.4-1.22,0-.33.08-.65.23-.96.17-.34.38-.58.65-.74s.55-.23.85-.23c.54,0,.98.21,1.3.62.28.35.42.76.42,1.21Zm-.75-.18c-.05-.36-.15-.67-.31-.92-.2-.32-.46-.48-.78-.48-.35,0-.6.19-.75.55-.09.21-.13.48-.13.79v.05h1.97Zm.03.48c0-.05,0-.13,0-.22h-1.98c.03.39.13.74.3,1.04.21.38.48.57.82.57.58,0,.87-.46.87-1.39Z"/>
    <path class="cls-4" d="m63.31,51.92l.14.98h-.17c-.1-.32-.2-.52-.3-.6-.1-.08-.31-.12-.63-.12h-.76v2.48c0,.28.01.44.04.49.03.05.07.1.13.14.06.04.18.06.37.06v.14h-1.79v-.14c.26,0,.42-.04.49-.12.07-.07.11-.27.11-.58v-1.9c0-.25-.01-.41-.04-.49-.03-.07-.08-.12-.15-.15-.07-.03-.21-.05-.41-.05v-.15h2.96Z"/>
    <path class="cls-4" d="m64.24,51.92h3.16v.15c-.18,0-.29.02-.35.05s-.1.08-.14.13c-.03.05-.05.22-.05.51v1.77c0,.37.03.6.1.69.06.08.21.13.45.14v1.14h-.15c0-.21-.06-.4-.16-.56-.09-.16-.23-.27-.4-.34-.17-.06-.42-.1-.75-.1h-.92c-.29,0-.51.03-.67.08-.16.05-.3.16-.4.32-.11.16-.17.36-.2.6h-.14v-1.14c.21,0,.41-.09.58-.25.17-.16.33-.48.46-.95s.2-.94.2-1.39-.2-.68-.61-.69v-.15Zm.86.25v.21c0,1.28-.23,2.23-.7,2.86h1.33c.24,0,.38-.02.41-.06.04-.04.05-.19.05-.45v-2.56h-1.1Z"/>
    <path class="cls-4" d="m68.19,51.92h3.2v.15c-.18,0-.29.02-.35.05s-.1.08-.14.13c-.03.05-.05.22-.05.51v1.9c0,.28.01.44.04.49.03.05.07.1.13.14.06.04.18.06.37.06v.14h-1.85v-.14c.2,0,.34-.01.42-.03.08-.02.14-.07.18-.15.04-.08.07-.25.07-.51v-2.48h-1.19v1.51c0,.57-.03.97-.08,1.2s-.15.4-.3.51c-.15.11-.32.17-.51.17-.33,0-.5-.14-.5-.41,0-.09.03-.17.08-.23.05-.06.12-.09.21-.09.09,0,.18.04.25.11.1.1.18.15.23.15.12,0,.2-.1.26-.29.05-.2.08-.54.08-1.03v-.79c0-.41-.03-.65-.09-.74s-.21-.14-.45-.16v-.15Z"/>
    <path class="cls-4" d="m72.93,54.39l1.55-1.79c0-.2-.04-.34-.11-.42s-.19-.12-.36-.12v-.15h1.66v.15c-.17,0-.29.02-.35.05-.06.04-.11.08-.14.13-.03.05-.05.22-.05.51v1.9c0,.28.01.44.04.49.03.05.07.1.13.14.06.04.18.06.37.06v.14h-1.73v-.14c.22,0,.36-.04.43-.12.07-.08.11-.27.11-.58v-1.68l-1.55,1.79c0,.22.04.37.09.46.06.08.18.13.37.13v.14h-1.65v-.14c.23,0,.38-.04.45-.13.07-.08.1-.27.1-.57v-1.9c0-.28-.01-.44-.04-.49-.03-.05-.07-.1-.13-.14-.06-.04-.18-.06-.37-.06v-.15h1.73v.15c-.17,0-.29.02-.35.05-.06.04-.11.08-.14.13-.03.05-.05.22-.05.51v1.64Z"/>
    <path class="cls-4" d="m77.21,54.39l1.55-1.79c0-.2-.04-.34-.11-.42s-.19-.12-.36-.12v-.15h1.66v.15c-.17,0-.29.02-.35.05-.06.04-.11.08-.14.13-.03.05-.05.22-.05.51v1.9c0,.28.01.44.04.49.03.05.07.1.13.14.06.04.18.06.37.06v.14h-1.73v-.14c.22,0,.36-.04.43-.12.07-.08.11-.27.11-.58v-1.68l-1.55,1.79c0,.22.04.37.09.46.06.08.18.13.37.13v.14h-1.65v-.14c.23,0,.38-.04.45-.13.07-.08.1-.27.1-.57v-1.9c0-.28-.01-.44-.04-.49-.03-.05-.07-.1-.13-.14-.06-.04-.18-.06-.37-.06v-.15h1.73v.15c-.17,0-.29.02-.35.05-.06.04-.11.08-.14.13-.03.05-.05.22-.05.51v1.64Zm-.51-3.91c0-.09.03-.16.08-.22s.12-.08.19-.08c.17,0,.32.16.46.48.08.18.16.3.26.34s.19.07.29.07c.16,0,.29-.04.37-.11.08-.07.16-.2.23-.38.11-.27.24-.41.4-.41.08,0,.14.03.2.08s.08.13.08.21c0,.2-.13.39-.39.56-.26.17-.56.26-.89.26-.43,0-.75-.08-.96-.23-.21-.16-.32-.35-.32-.57Z"/>
    <path class="cls-4" d="m81.49,53.51h1.55v-.76c0-.23,0-.37-.03-.44-.02-.07-.06-.13-.13-.18-.07-.05-.2-.07-.38-.07v-.15h1.73v.15c-.16,0-.28.02-.35.05s-.12.09-.15.16c-.03.07-.04.23-.04.48v1.9c0,.23,0,.38.03.45s.07.13.14.18c.08.05.2.07.37.07v.14h-1.73v-.14c.22,0,.36-.04.43-.12.07-.08.11-.27.11-.58v-.89h-1.55v.89c0,.23,0,.38.03.45s.07.13.14.18c.08.05.2.07.37.07v.14h-1.73v-.14c.23,0,.38-.04.45-.13.07-.08.1-.27.1-.57v-1.9c0-.23,0-.38-.03-.45s-.07-.13-.14-.18c-.08-.04-.2-.07-.37-.07v-.15h1.73v.15c-.16,0-.28.02-.35.05s-.12.09-.15.16c-.03.07-.04.23-.04.48v.76Z"/>
    <path class="cls-4" d="m54.47,63.74c-.1.47-.29.83-.57,1.09s-.59.38-.93.38c-.41,0-.76-.17-1.06-.51s-.45-.8-.45-1.38.17-1.02.5-1.37.74-.53,1.21-.53c.35,0,.64.09.87.28s.34.38.34.58c0,.1-.03.18-.1.24s-.15.09-.27.09c-.15,0-.27-.05-.35-.15-.04-.05-.07-.16-.09-.31s-.07-.27-.16-.35c-.09-.08-.22-.12-.38-.12-.26,0-.47.1-.63.29-.21.26-.32.59-.32,1.01s.1.8.31,1.13.49.49.85.49c.26,0,.48-.09.69-.26.14-.12.28-.34.42-.65l.11.05Z"/>
    <path class="cls-4" d="m57.01,64.58c-.37.28-.6.45-.69.49-.14.06-.29.1-.45.1-.25,0-.45-.08-.61-.25s-.24-.39-.24-.67c0-.17.04-.33.12-.45.11-.18.29-.34.56-.5s.7-.35,1.32-.57v-.14c0-.36-.06-.6-.17-.73s-.28-.2-.49-.2c-.16,0-.29.04-.39.13-.1.09-.15.19-.15.3v.23c0,.12-.02.21-.08.28s-.14.1-.24.1-.18-.03-.24-.1-.09-.16-.09-.28c0-.22.11-.43.34-.62s.55-.28.96-.28c.32,0,.58.05.78.16.15.08.27.21.34.38.05.11.07.34.07.69v1.21c0,.34,0,.55.02.63.01.08.04.13.06.15.03.03.06.04.1.04.04,0,.08,0,.11-.03.05-.03.16-.13.32-.29v.22c-.29.39-.57.59-.84.59-.13,0-.23-.04-.3-.13-.08-.09-.11-.24-.12-.45Zm0-.25v-1.36c-.39.16-.65.27-.76.33-.21.11-.35.23-.44.36s-.13.26-.13.41c0,.19.06.34.17.47s.24.19.39.19c.2,0,.46-.13.78-.39Z"/>
    <path class="cls-4" d="m59.65,63.11h1.55v-.76c0-.23,0-.37-.03-.44-.02-.07-.06-.13-.13-.18-.07-.05-.2-.07-.38-.07v-.15h1.73v.15c-.16,0-.28.02-.35.05s-.12.09-.15.16c-.03.07-.04.23-.04.48v1.9c0,.23,0,.38.03.45s.07.13.14.18c.08.05.2.07.37.07v.14h-1.73v-.14c.22,0,.36-.04.43-.12.07-.08.11-.27.11-.58v-.89h-1.55v.89c0,.23,0,.38.03.45s.07.13.14.18c.08.05.2.07.37.07v.14h-1.73v-.14c.23,0,.38-.04.45-.13.07-.08.1-.27.1-.57v-1.9c0-.23,0-.38-.03-.45s-.07-.13-.14-.18c-.08-.04-.2-.07-.37-.07v-.15h1.73v.15c-.16,0-.28.02-.35.05s-.12.09-.15.16c-.03.07-.04.23-.04.48v.76Z"/>
    <path class="cls-4" d="m64.84,64.58c-.37.28-.6.45-.69.49-.14.06-.29.1-.45.1-.25,0-.45-.08-.61-.25s-.24-.39-.24-.67c0-.17.04-.33.12-.45.11-.18.29-.34.56-.5.26-.16.7-.35,1.32-.57v-.14c0-.36-.06-.6-.17-.73s-.28-.2-.49-.2c-.16,0-.29.04-.39.13-.1.09-.15.19-.15.3v.23c0,.12-.02.21-.08.28-.06.06-.14.1-.24.1s-.17-.03-.24-.1c-.06-.07-.09-.16-.09-.28,0-.22.12-.43.34-.62.23-.19.55-.28.96-.28.32,0,.58.05.78.16.15.08.27.21.34.38.05.11.07.34.07.69v1.21c0,.34,0,.55.02.63.01.08.04.13.06.15.03.03.06.04.1.04.04,0,.08,0,.11-.03.05-.03.16-.13.32-.29v.22c-.29.39-.57.59-.84.59-.13,0-.23-.04-.3-.13-.08-.09-.11-.24-.12-.45Zm0-.25v-1.36c-.39.16-.65.27-.76.33-.21.11-.35.23-.44.36-.09.12-.13.26-.13.41,0,.19.06.34.17.47.11.12.24.19.39.19.2,0,.46-.13.78-.39Z"/>
    <path class="cls-4" d="m66.22,61.52h1.68v.14c-.11,0-.18.02-.22.05s-.06.08-.06.14.05.16.14.29c.03.04.07.11.13.2l.25.41.29-.41c.19-.26.28-.42.28-.49,0-.05-.02-.1-.07-.14-.04-.04-.12-.06-.21-.06v-.14h1.21v.14c-.13,0-.24.04-.33.11-.13.09-.3.28-.52.58l-.49.65.89,1.28c.22.31.38.5.47.57s.21.1.36.11v.14h-1.69v-.14c.12,0,.21-.03.27-.08.05-.04.07-.08.07-.14s-.08-.21-.25-.45l-.52-.77-.57.77c-.18.24-.27.38-.27.42,0,.06.03.12.09.17s.15.08.26.08v.14h-1.17v-.14c.09-.01.18-.05.25-.1.1-.08.27-.27.5-.58l.75-1-.68-.98c-.19-.28-.34-.46-.45-.53s-.24-.11-.4-.11v-.14Z"/>
    <path class="cls-4" d="m74.11,61.41c.54,0,.98.21,1.3.62.28.35.42.76.42,1.21,0,.32-.08.64-.23.97-.15.33-.37.58-.63.74s-.57.25-.9.25c-.54,0-.97-.21-1.29-.64-.27-.36-.4-.77-.4-1.22,0-.33.08-.65.24-.98.16-.32.38-.56.64-.72s.55-.23.84-.23Zm-.12.25c-.14,0-.28.04-.42.12-.14.08-.25.23-.34.43s-.13.47-.13.79c0,.52.1.97.31,1.35s.48.57.82.57c.25,0,.46-.1.62-.31s.25-.57.25-1.07c0-.64-.14-1.14-.41-1.5-.18-.25-.42-.38-.71-.38Z"/>
    <path class="cls-4" d="m77.48,63.99l1.55-1.79c0-.2-.04-.34-.11-.42s-.19-.12-.36-.12v-.15h1.66v.15c-.17,0-.29.02-.35.05-.06.04-.11.08-.14.13-.03.05-.05.22-.05.51v1.9c0,.28.01.44.04.49.03.05.07.1.13.14.06.04.18.06.37.06v.14h-1.73v-.14c.22,0,.36-.04.43-.12.07-.08.11-.27.11-.58v-1.68l-1.55,1.79c0,.22.04.37.09.46.06.08.18.13.37.13v.14h-1.65v-.14c.23,0,.38-.04.45-.13.07-.08.1-.27.1-.57v-1.9c0-.28-.01-.44-.04-.49-.03-.05-.07-.1-.13-.14-.06-.04-.18-.06-.37-.06v-.15h1.73v.15c-.17,0-.29.02-.35.05-.06.04-.11.08-.14.13-.03.05-.05.22-.05.51v1.64Zm-.51-3.91c0-.09.03-.16.08-.22s.12-.08.19-.08c.17,0,.32.16.46.48.08.18.16.3.26.34s.19.07.29.07c.16,0,.29-.04.37-.11.08-.07.16-.2.23-.38.11-.27.24-.41.4-.41.08,0,.14.03.2.08s.08.13.08.21c0,.2-.13.39-.39.56-.26.17-.56.26-.89.26-.43,0-.75-.08-.96-.23-.21-.16-.32-.35-.32-.57Z"/>
  </g>
  <g>
    <path class="cls-3" d="m71.21,108.68l-2.05-4.46v3.54c0,.33.04.53.11.61.1.11.25.16.46.16h.19v.14h-1.84v-.14h.19c.22,0,.38-.07.48-.2.06-.08.09-.27.09-.57v-3.46c0-.23-.03-.4-.08-.51-.04-.08-.1-.14-.2-.19s-.25-.08-.47-.08v-.14h1.5l1.92,4.14,1.89-4.14h1.5v.14h-.18c-.23,0-.39.07-.48.2-.06.08-.09.27-.09.57v3.46c0,.33.04.53.11.61.1.11.25.16.46.16h.18v.14h-2.25v-.14h.19c.23,0,.39-.07.48-.2.06-.08.09-.27.09-.57v-3.54l-2.04,4.46h-.13Z"/>
    <path class="cls-3" d="m75.9,106.45c0,.53.13.95.39,1.25s.57.45.92.45c.23,0,.44-.06.61-.19s.32-.35.44-.66l.12.08c-.05.36-.21.68-.48.97s-.59.44-.99.44c-.43,0-.8-.17-1.1-.5s-.46-.78-.46-1.35c0-.61.16-1.09.47-1.43s.71-.51,1.18-.51c.4,0,.73.13.99.4s.39.62.39,1.06h-2.47Zm0-.23h1.66c-.01-.23-.04-.39-.08-.48-.07-.15-.16-.26-.29-.34s-.26-.12-.4-.12c-.22,0-.41.08-.58.25s-.27.4-.3.7Z"/>
    <path class="cls-3" d="m79.91,105.76c.26-.26.41-.41.46-.45.12-.1.24-.18.38-.23s.27-.08.4-.08c.22,0,.42.06.58.2s.27.32.32.57c.27-.31.5-.52.68-.62s.38-.15.57-.15.36.05.51.15.26.26.35.48c.06.15.09.39.09.71v1.54c0,.22.02.38.05.46.03.06.07.11.14.15s.18.06.34.06v.14h-1.77v-.14h.07c.15,0,.27-.03.36-.09.06-.04.1-.11.13-.2.01-.04.02-.17.02-.38v-1.54c0-.29-.04-.5-.11-.62-.1-.17-.26-.25-.49-.25-.14,0-.28.03-.42.1s-.31.2-.51.38v.04s0,.17,0,.17v1.71c0,.24.01.4.04.46s.08.11.15.15.2.06.39.06v.14h-1.81v-.14c.2,0,.33-.02.41-.07s.13-.12.15-.21c.01-.04.02-.17.02-.39v-1.54c0-.29-.04-.5-.13-.63-.11-.17-.27-.25-.48-.25-.14,0-.28.04-.42.11-.22.11-.38.24-.5.39v1.92c0,.23.02.39.05.46s.08.12.14.16.19.05.39.05v.14h-1.77v-.14c.16,0,.28-.02.34-.05s.11-.09.15-.17.05-.23.05-.45v-1.37c0-.39-.01-.65-.04-.76-.02-.09-.05-.15-.09-.18s-.09-.05-.16-.05c-.07,0-.16.02-.26.06l-.06-.14,1.08-.44h.17v.76Z"/>
    <path class="cls-3" d="m90.23,108.68h-1.41l-1.79-2.48c-.13,0-.24,0-.32,0-.03,0-.07,0-.11,0s-.08,0-.12,0v1.54c0,.33.04.54.11.62.1.11.25.17.45.17h.21v.14h-2.27v-.14h.2c.22,0,.38-.07.48-.22.05-.08.08-.27.08-.57v-3.42c0-.33-.04-.54-.11-.62-.1-.11-.25-.17-.45-.17h-.2v-.14h1.93c.56,0,.98.04,1.24.12s.49.23.68.45.28.48.28.79c0,.33-.11.61-.32.85s-.54.41-.99.51l1.09,1.52c.25.35.46.58.64.7s.41.19.7.22v.14Zm-3.76-2.72s.09,0,.13,0,.07,0,.09,0c.5,0,.89-.11,1.14-.33s.38-.5.38-.84-.1-.6-.31-.81-.48-.31-.82-.31c-.15,0-.36.02-.61.07v2.2Z"/>
    <path class="cls-3" d="m91.01,106.45c0,.53.13.95.39,1.25s.57.45.92.45c.23,0,.44-.06.61-.19s.32-.35.44-.66l.12.08c-.05.36-.21.68-.48.97s-.59.44-.99.44c-.43,0-.8-.17-1.1-.5s-.46-.78-.46-1.35c0-.61.16-1.09.47-1.43s.71-.51,1.18-.51c.4,0,.73.13.99.4s.39.62.39,1.06h-2.47Zm0-.23h1.66c-.01-.23-.04-.39-.08-.48-.07-.15-.16-.26-.29-.34s-.26-.12-.4-.12c-.22,0-.41.08-.58.25s-.27.4-.3.7Z"/>
    <path class="cls-3" d="m95.99,108.17c-.37.28-.6.45-.69.49-.14.06-.29.1-.45.1-.25,0-.45-.08-.61-.25s-.24-.39-.24-.67c0-.17.04-.33.12-.45.11-.18.29-.34.56-.5s.7-.35,1.32-.57v-.14c0-.36-.06-.6-.17-.73s-.28-.2-.49-.2c-.16,0-.29.04-.39.13-.1.09-.15.19-.15.3v.23c0,.12-.02.21-.08.28s-.14.1-.24.1-.17-.03-.24-.1-.09-.16-.09-.28c0-.22.11-.43.34-.62s.55-.28.96-.28c.32,0,.58.05.78.16.15.08.27.21.34.38.05.11.07.34.07.69v1.21c0,.34,0,.55.02.63s.03.13.06.15.06.04.1.04c.04,0,.08,0,.11-.03.05-.03.16-.13.32-.29v.22c-.29.39-.57.59-.84.59-.13,0-.23-.04-.3-.13s-.11-.24-.12-.45Zm0-.25v-1.36c-.39.16-.65.27-.76.33-.21.11-.35.23-.44.36s-.13.26-.13.41c0,.19.06.34.17.47s.24.19.39.19c.2,0,.46-.13.78-.39Z"/>
    <path class="cls-3" d="m100.04,108.28c-.17.18-.34.31-.51.39s-.35.12-.54.12c-.39,0-.73-.16-1.02-.49s-.44-.75-.44-1.26.16-.98.48-1.41.74-.64,1.25-.64c.32,0,.58.1.78.3v-.66c0-.41,0-.66-.03-.75s-.05-.16-.09-.19-.09-.05-.16-.05c-.07,0-.16.02-.27.06l-.05-.14,1.07-.44h.18v4.14c0,.42,0,.68.03.77s.05.16.09.19.09.05.15.05c.07,0,.16-.02.28-.07l.04.14-1.06.44h-.18v-.51Zm0-.27v-1.84c-.02-.18-.06-.34-.14-.48s-.18-.26-.31-.33-.25-.11-.38-.11c-.23,0-.43.1-.61.31-.24.27-.36.67-.36,1.19s.11.93.34,1.21.48.42.77.42c.24,0,.47-.12.69-.36Z"/>
  </g>
  <line class="cls-2" x1="65.47" y1="97.39" x2="65.47" y2="113.57"/>
  <g>
    <path class="cls-3" d="m71.38,11.29l-2.05-4.46v3.54c0,.33.04.53.11.61.1.11.25.16.46.16h.19v.14h-1.84v-.14h.19c.22,0,.38-.07.48-.2.06-.08.09-.27.09-.57v-3.46c0-.23-.03-.4-.08-.51-.04-.08-.1-.14-.2-.19s-.25-.08-.47-.08v-.14h1.5l1.92,4.14,1.89-4.14h1.5v.14h-.18c-.23,0-.39.07-.48.2-.06.08-.09.27-.09.57v3.46c0,.33.04.53.11.61.1.11.25.16.46.16h.18v.14h-2.25v-.14h.19c.23,0,.39-.07.48-.2.06-.08.09-.27.09-.57v-3.54l-2.04,4.46h-.13Z"/>
    <path class="cls-3" d="m76.07,9.06c0,.53.13.95.39,1.25s.57.45.92.45c.23,0,.44-.06.61-.19s.32-.35.44-.66l.12.08c-.05.36-.21.68-.48.97s-.59.44-.99.44c-.43,0-.8-.17-1.1-.5s-.46-.78-.46-1.35c0-.61.16-1.09.47-1.43s.71-.51,1.18-.51c.4,0,.73.13.99.4s.39.62.39,1.06h-2.47Zm0-.23h1.66c-.01-.23-.04-.39-.08-.48-.07-.15-.16-.26-.29-.34s-.26-.12-.4-.12c-.22,0-.41.08-.58.25s-.27.4-.3.7Z"/>
    <path class="cls-3" d="m80.08,8.37c.26-.26.41-.41.46-.45.12-.1.24-.18.38-.23s.27-.08.4-.08c.22,0,.42.06.58.2s.27.32.32.57c.27-.31.5-.52.68-.62s.38-.15.57-.15.36.05.51.15.26.26.35.48c.06.15.09.39.09.71v1.54c0,.22.02.38.05.46.03.06.07.11.14.15s.18.06.34.06v.14h-1.77v-.14h.07c.15,0,.27-.03.36-.09.06-.04.1-.11.13-.2.01-.04.02-.17.02-.38v-1.54c0-.29-.04-.5-.11-.62-.1-.17-.26-.25-.49-.25-.14,0-.28.03-.42.1s-.31.2-.51.38v.04s0,.17,0,.17v1.71c0,.24.01.4.04.46s.08.11.15.15.2.06.39.06v.14h-1.81v-.14c.2,0,.33-.02.41-.07s.13-.12.15-.21c.01-.04.02-.17.02-.39v-1.54c0-.29-.04-.5-.13-.63-.11-.17-.27-.25-.48-.25-.14,0-.28.04-.42.11-.22.11-.38.24-.5.39v1.92c0,.23.02.39.05.46s.08.12.14.16.19.05.39.05v.14h-1.77v-.14c.16,0,.28-.02.34-.05s.11-.09.15-.17.05-.23.05-.45v-1.37c0-.39-.01-.65-.04-.76-.02-.09-.05-.15-.09-.18s-.09-.05-.16-.05c-.07,0-.16.02-.26.06l-.06-.14,1.08-.44h.17v.76Z"/>
    <path class="cls-3" d="m92.48,6v.14c-.14,0-.25.02-.34.07s-.17.14-.25.28c-.05.09-.13.31-.25.65l-1.48,4.27h-.16l-1.21-3.39-1.2,3.39h-.14l-1.57-4.4c-.12-.33-.19-.52-.22-.58-.05-.1-.12-.17-.21-.22s-.21-.07-.37-.07v-.14h1.96v.14h-.09c-.14,0-.24.03-.32.09s-.11.14-.11.23.06.3.17.63l1.04,2.97.88-2.53-.16-.45-.12-.36c-.05-.13-.12-.24-.18-.34-.03-.05-.08-.09-.12-.12-.07-.05-.13-.08-.2-.1-.05-.02-.13-.02-.23-.02v-.14h2.06v.14h-.14c-.15,0-.25.03-.32.09s-.1.15-.1.25c0,.13.06.36.18.7l1.02,2.88,1.01-2.92c.11-.32.17-.55.17-.67,0-.06-.02-.12-.06-.17s-.08-.09-.14-.11c-.1-.04-.23-.05-.39-.05v-.14h1.58Z"/>
    <path class="cls-3" d="m93.84,7.61v.8c.3-.54.61-.8.92-.8.14,0,.26.04.36.13s.14.19.14.3c0,.1-.03.19-.1.26s-.15.11-.24.11-.19-.04-.31-.13-.2-.13-.25-.13c-.05,0-.1.03-.15.08-.12.11-.24.28-.36.53v1.71c0,.2.02.35.07.45.03.07.09.13.18.18s.21.07.37.07v.14h-1.83v-.14c.18,0,.32-.03.41-.09.07-.04.11-.11.14-.2.01-.04.02-.17.02-.38v-1.39c0-.42,0-.66-.03-.74s-.05-.14-.09-.17-.1-.05-.17-.05c-.08,0-.17.02-.27.06l-.04-.14,1.08-.44h.16Z"/>
    <path class="cls-3" d="m96.8,7.61v2.88c0,.22.02.37.05.45s.08.13.14.17.18.05.35.05v.14h-1.74v-.14c.17,0,.29-.02.35-.05s.11-.09.14-.17.05-.23.05-.45v-1.38c0-.39-.01-.64-.04-.75-.02-.08-.05-.14-.09-.17s-.09-.05-.16-.05c-.07,0-.16.02-.27.06l-.05-.14,1.08-.44h.17Zm-.32-1.87c.11,0,.2.04.28.12s.12.17.12.28-.04.2-.12.28-.17.12-.28.12-.2-.04-.28-.12-.12-.17-.12-.28.04-.2.12-.28.17-.12.28-.12Z"/>
    <path class="cls-3" d="m98.83,6.54v1.18h.84v.27h-.84v2.32c0,.23.03.39.1.47s.15.12.26.12c.09,0,.17-.03.25-.08s.14-.13.19-.24h.15c-.09.26-.22.45-.39.58s-.34.19-.52.19c-.12,0-.24-.03-.35-.1s-.2-.16-.25-.29-.08-.31-.08-.57v-2.41h-.57v-.13c.14-.06.29-.15.44-.29s.28-.3.4-.49c.06-.1.14-.28.25-.54h.12Z"/>
    <path class="cls-3" d="m100.61,9.06c0,.53.13.95.39,1.25s.57.45.92.45c.23,0,.44-.06.61-.19s.32-.35.44-.66l.12.08c-.05.36-.21.68-.48.97s-.59.44-.99.44c-.43,0-.8-.17-1.1-.5s-.46-.78-.46-1.35c0-.61.16-1.09.47-1.43s.71-.51,1.18-.51c.4,0,.73.13.99.4s.39.62.39,1.06h-2.47Zm0-.23h1.66c-.01-.23-.04-.39-.08-.48-.07-.15-.16-.26-.29-.34s-.26-.12-.4-.12c-.22,0-.41.08-.58.25s-.27.4-.3.7Z"/>
  </g>
  <line class="cls-2" x1="65.47" x2="65.47" y2="16.19"/>
  <path class="cls-1" d="m201.2,56.79c0,18.79-7.75,34.03-17.32,34.03s-17.32-15.23-17.32-34.03,7.75-34.02,17.32-34.02,17.32,15.23,17.32,34.02Z"/>
  <g>
    <path class="cls-4" d="m180.71,49.76v1.83h-.14c-.05-.35-.13-.63-.25-.84s-.29-.37-.52-.5-.46-.18-.7-.18c-.27,0-.5.08-.67.25s-.27.35-.27.56c0,.16.06.31.17.44.16.2.55.46,1.15.78.5.27.83.47,1.01.61s.32.31.42.5.15.39.15.61c0,.4-.16.75-.47,1.04s-.71.44-1.2.44c-.15,0-.3-.01-.43-.04-.08-.01-.25-.06-.5-.14s-.42-.12-.48-.12-.12.02-.15.06-.07.12-.08.24h-.14v-1.82h.14c.07.38.16.66.27.85s.29.35.53.47.49.19.78.19c.33,0,.58-.09.77-.26s.28-.38.28-.61c0-.13-.04-.26-.11-.39s-.18-.26-.33-.37c-.1-.08-.38-.24-.83-.5s-.78-.46-.97-.61-.34-.32-.44-.5-.15-.38-.15-.6c0-.38.15-.71.44-.98s.66-.41,1.11-.41c.28,0,.58.07.89.21.15.06.25.1.31.1.07,0,.12-.02.17-.06s.08-.12.1-.24h.14Z"/>
    <path class="cls-4" d="m182.98,51.5v2.88c0,.22.02.37.05.45s.08.13.14.17.18.05.35.05v.14h-1.74v-.14c.17,0,.29-.02.35-.05s.11-.09.14-.17.05-.23.05-.45v-1.38c0-.39-.01-.64-.04-.75-.02-.08-.05-.14-.09-.17s-.09-.05-.16-.05c-.07,0-.16.02-.27.06l-.05-.14,1.08-.44h.17Zm-.32-1.87c.11,0,.2.04.28.12s.12.17.12.28-.04.2-.12.28-.17.12-.28.12-.2-.04-.28-.12-.12-.17-.12-.28.04-.2.12-.28.17-.12.28-.12Z"/>
    <path class="cls-4" d="m184.92,53.87c-.22-.11-.39-.26-.5-.45s-.18-.4-.18-.63c0-.35.13-.66.4-.91s.61-.38,1.03-.38c.34,0,.64.08.89.25h.76c.11,0,.18,0,.2,0s.03.02.04.03c.02.02.02.06.02.12,0,.07,0,.11-.02.14,0,.01-.02.02-.04.03s-.08.01-.2.01h-.46c.15.19.22.43.22.72,0,.33-.13.62-.38.86s-.6.36-1.03.36c-.18,0-.36-.03-.54-.08-.11.1-.19.19-.23.26s-.06.14-.06.19c0,.04.02.09.06.13s.13.07.25.09c.07.01.25.02.55.03.54.01.88.03,1.04.05.24.03.44.12.58.27s.22.33.22.54c0,.29-.14.57-.41.83-.41.38-.94.57-1.59.57-.5,0-.93-.11-1.27-.34-.2-.13-.29-.27-.29-.41,0-.06.01-.12.04-.19.04-.1.14-.23.27-.4.02-.02.15-.16.4-.42-.14-.08-.23-.15-.29-.22s-.08-.14-.08-.22c0-.09.04-.2.11-.32s.25-.3.51-.52Zm-.04,1.3c-.12.13-.21.26-.28.37s-.09.22-.09.32c0,.12.08.23.23.33.26.16.64.24,1.13.24s.81-.08,1.04-.25.33-.34.33-.53c0-.14-.07-.23-.2-.29-.14-.06-.4-.09-.8-.1-.59-.02-1.04-.05-1.35-.09Zm.72-3.5c-.19,0-.35.08-.48.23s-.2.39-.2.71c0,.41.09.73.27.96.14.17.31.26.52.26s.36-.07.49-.22.19-.38.19-.7c0-.41-.09-.74-.27-.97-.13-.17-.3-.26-.51-.26Z"/>
    <path class="cls-4" d="m189.01,52.25c.42-.51.82-.76,1.2-.76.2,0,.36.05.5.15s.25.26.34.48c.06.16.09.4.09.72v1.53c0,.23.02.38.05.46.03.06.08.12.14.15s.18.05.35.05v.14h-1.77v-.14h.07c.17,0,.28-.03.35-.08s.11-.13.14-.22c.01-.04.02-.16.02-.37v-1.46c0-.33-.04-.56-.13-.71s-.23-.22-.43-.22c-.31,0-.62.17-.93.51v1.89c0,.24.01.39.04.45.04.08.09.13.15.17s.19.05.39.05v.14h-1.77v-.14h.08c.18,0,.31-.05.37-.14s.1-.27.1-.53v-1.33c0-.43,0-.69-.03-.79s-.05-.16-.09-.19-.09-.05-.16-.05c-.07,0-.16.02-.26.06l-.06-.14,1.08-.44h.17v.76Z"/>
  </g>
  <g>
    <path class="cls-4" d="m174.51,62.05c0,.53.13.95.39,1.25s.57.45.92.45c.23,0,.44-.06.61-.19s.32-.35.44-.66l.12.08c-.05.36-.21.68-.48.97s-.59.44-.99.44c-.43,0-.8-.17-1.1-.5s-.46-.78-.46-1.35c0-.61.16-1.09.47-1.43s.71-.51,1.18-.51c.4,0,.73.13.99.4s.39.62.39,1.06h-2.47Zm0-.23h1.66c-.01-.23-.04-.39-.08-.48-.07-.15-.16-.26-.29-.34s-.26-.12-.4-.12c-.22,0-.41.08-.58.25s-.27.4-.3.7Z"/>
    <path class="cls-4" d="m177.2,60.7h1.68v.14c-.11,0-.18.02-.22.05s-.06.08-.06.14.05.16.14.29c.03.04.07.11.13.2l.25.41.29-.41c.19-.26.28-.42.28-.49,0-.05-.02-.1-.07-.14s-.12-.06-.21-.06v-.14h1.21v.14c-.13,0-.24.04-.33.11-.13.09-.3.28-.52.58l-.49.65.89,1.28c.22.31.38.5.47.57s.21.1.36.11v.14h-1.69v-.14c.12,0,.21-.03.27-.08.05-.04.07-.08.07-.14s-.08-.21-.25-.45l-.52-.77-.57.77c-.18.24-.27.38-.27.42,0,.06.03.12.09.17s.15.08.26.08v.14h-1.17v-.14c.09-.01.18-.05.25-.1.1-.08.27-.27.5-.58l.75-1-.68-.98c-.19-.28-.34-.46-.45-.53s-.24-.11-.4-.11v-.14Z"/>
    <path class="cls-4" d="m182.38,59.53v1.18h.84v.27h-.84v2.32c0,.23.03.39.1.47s.15.12.26.12c.09,0,.17-.03.25-.08s.14-.13.19-.24h.15c-.09.26-.22.45-.39.58s-.34.19-.52.19c-.12,0-.24-.03-.35-.1s-.2-.16-.25-.29-.08-.31-.08-.57v-2.41h-.57v-.13c.14-.06.29-.15.44-.29s.28-.3.4-.49c.06-.1.14-.28.25-.54h.12Z"/>
    <path class="cls-4" d="m184.17,62.05c0,.53.13.95.39,1.25s.57.45.92.45c.23,0,.44-.06.61-.19s.32-.35.44-.66l.12.08c-.05.36-.21.68-.48.97s-.59.44-.99.44c-.43,0-.8-.17-1.1-.5s-.46-.78-.46-1.35c0-.61.16-1.09.47-1.43s.71-.51,1.18-.51c.4,0,.73.13.99.4s.39.62.39,1.06h-2.47Zm0-.23h1.66c-.01-.23-.04-.39-.08-.48-.07-.15-.16-.26-.29-.34s-.26-.12-.4-.12c-.22,0-.41.08-.58.25s-.27.4-.3.7Z"/>
    <path class="cls-4" d="m188.16,61.36c.42-.51.82-.76,1.2-.76.2,0,.36.05.5.15s.25.26.34.48c.06.16.09.4.09.72v1.53c0,.23.02.38.05.46.03.06.08.12.14.15s.18.05.35.05v.14h-1.77v-.14h.07c.17,0,.28-.03.35-.08s.11-.13.14-.22c.01-.04.02-.16.02-.37v-1.46c0-.33-.04-.56-.13-.71s-.23-.22-.43-.22c-.31,0-.62.17-.93.51v1.89c0,.24.01.39.04.45.04.08.09.13.15.17s.19.05.39.05v.14h-1.77v-.14h.08c.18,0,.31-.05.37-.14s.1-.27.1-.53v-1.33c0-.43,0-.69-.03-.79s-.05-.16-.09-.19-.09-.05-.16-.05c-.07,0-.16.02-.26.06l-.06-.14,1.08-.44h.17v.76Z"/>
    <path class="cls-4" d="m193.64,63.88c-.17.18-.34.31-.51.39s-.35.12-.54.12c-.39,0-.73-.16-1.02-.49s-.44-.75-.44-1.26.16-.98.48-1.41.74-.64,1.25-.64c.32,0,.58.1.78.3v-.66c0-.41,0-.66-.03-.75s-.05-.16-.09-.19-.09-.05-.16-.05c-.07,0-.16.02-.27.06l-.05-.14,1.07-.44h.18v4.14c0,.42,0,.68.03.77s.05.16.09.19.09.05.15.05c.07,0,.16-.02.28-.07l.04.14-1.06.44h-.18v-.51Zm0-.27v-1.84c-.02-.18-.06-.34-.14-.48s-.18-.26-.31-.33-.25-.11-.38-.11c-.23,0-.43.1-.61.31-.24.27-.36.67-.36,1.19s.11.93.34,1.21.48.42.77.42c.24,0,.47-.12.69-.36Z"/>
  </g>
  <path class="cls-1" d="m201.2,56.79h20.46m-72.29-3.82l7.25,7.63"/>
  <path class="cls-4" d="m223.13,56.15c-1.03-.31-1.71-.6-2.53-.93v3.15c.3-.14,1.5-.62,2.53-.93,1.11-.33,2.11-.56,2.76-.64-.65-.08-1.65-.31-2.76-.64"/>
  <line class="cls-1" x1="208.7" y1="52.97" x2="215.94" y2="60.6"/>
  <g>
    <path class="cls-4" d="m150.11,45.62l1.29-.63h.13v4.47c0,.3.01.48.04.55s.08.13.15.17.24.06.48.07v.14h-1.99v-.14c.25,0,.41-.03.48-.06s.12-.09.15-.15.04-.25.04-.57v-2.86c0-.39-.01-.63-.04-.74-.02-.08-.05-.14-.1-.18s-.11-.06-.17-.06c-.1,0-.23.04-.4.12l-.06-.12Z"/>
    <path class="cls-4" d="m156.75,44.99v.14c-.34.03-.62.1-.84.21s-.43.26-.64.47-.39.45-.53.71-.26.57-.35.92c.38-.26.75-.39,1.13-.39s.68.15.94.44.4.67.4,1.12-.13.85-.4,1.21c-.32.44-.75.66-1.28.66-.36,0-.67-.12-.92-.36-.5-.47-.74-1.07-.74-1.81,0-.47.09-.92.29-1.35s.46-.81.81-1.14.69-.55,1.01-.67.62-.17.9-.17h.23Zm-2.43,2.73c-.05.35-.07.64-.07.85,0,.25.05.52.14.81s.23.53.41.7c.13.12.29.18.48.18.23,0,.43-.11.61-.32s.27-.52.27-.91c0-.45-.09-.83-.27-1.16s-.43-.49-.75-.49c-.1,0-.21.02-.32.06s-.28.13-.5.27Z"/>
  </g>
  <g>
    <path class="cls-4" d="m209.47,46.1c.15-.36.34-.63.57-.83s.52-.29.86-.29c.42,0,.75.14.98.41.17.21.26.43.26.66,0,.39-.24.78-.73,1.2.33.13.57.31.74.55s.25.52.25.84c0,.46-.15.86-.44,1.19-.38.44-.93.66-1.65.66-.36,0-.6-.04-.73-.13s-.19-.18-.19-.29c0-.08.03-.14.09-.2s.13-.09.22-.09c.07,0,.13.01.2.03.04.01.14.06.3.14s.26.13.32.15c.1.03.2.04.31.04.27,0,.5-.1.69-.31s.29-.45.29-.73c0-.21-.05-.41-.14-.6-.07-.15-.14-.26-.22-.33-.11-.1-.27-.2-.46-.28s-.39-.13-.6-.13h-.12v-.12c.21-.03.41-.1.62-.22s.36-.27.45-.44.14-.36.14-.57c0-.27-.08-.48-.25-.65s-.38-.25-.63-.25c-.4,0-.74.22-1.01.65l-.13-.06Z"/>
    <path class="cls-4" d="m216.73,49.37l-.37,1.02h-3.12v-.14c.92-.84,1.57-1.52,1.94-2.05s.56-1.02.56-1.46c0-.34-.1-.61-.31-.83s-.45-.32-.74-.32c-.26,0-.49.08-.7.23s-.36.38-.46.67h-.14c.07-.48.23-.85.5-1.11s.61-.39,1.01-.39c.43,0,.79.14,1.08.41s.43.6.43.98c0,.27-.06.54-.19.8-.19.42-.5.87-.94,1.34-.65.71-1.05,1.14-1.21,1.28h1.38c.28,0,.48-.01.59-.03s.22-.06.31-.13.17-.15.24-.27h.14Z"/>
  </g>
</svg>